<svg xmlns="http://www.w3.org/2000/svg" xmlns:xlink="http://www.w3.org/1999/xlink" width="40" zoomAndPan="magnify" viewBox="0 0 30 30.000001" height="40" preserveAspectRatio="xMidYMid meet" version="1.0"><defs><clipPath id="b3b7399f8c"><path d="M 8 2.457031 L 25 2.457031 L 25 19 L 8 19 Z M 8 2.457031 " clip-rule="nonzero"/></clipPath><clipPath id="f5a67b87f9"><path d="M 20 14 L 29.515625 14 L 29.515625 24 L 20 24 Z M 20 14 " clip-rule="nonzero"/></clipPath><clipPath id="8f3d149668"><path d="M 0.484375 13 L 14 13 L 14 26.40625 L 0.484375 26.40625 Z M 0.484375 13 " clip-rule="nonzero"/></clipPath></defs><g clip-path="url(#b3b7399f8c)"><path fill="#373f47" d="M 24.9375 8.894531 L 24.089844 6.5625 L 22.382812 7.175781 C 21.9375 6.425781 21.375 5.851562 20.710938 5.367188 L 21.511719 3.691406 L 19.253906 2.644531 L 18.433594 4.339844 C 17.632812 4.140625 16.785156 4.097656 15.921875 4.234375 L 15.273438 2.457031 L 12.925781 3.296875 L 13.574219 5.078125 C 12.902344 5.492188 12.25 6.074219 11.761719 6.734375 L 10.082031 5.9375 L 9.027344 8.179688 L 10.722656 8.953125 C 10.523438 9.746094 10.464844 10.539062 10.601562 11.398438 L 8.789062 12.050781 L 9.636719 14.382812 L 11.453125 13.730469 C 11.898438 14.480469 12.46875 15.085938 13.132812 15.570312 L 12.339844 17.265625 L 14.601562 18.320312 L 15.371094 16.648438 C 16.167969 16.847656 17.042969 16.882812 17.828125 16.773438 L 18.453125 18.488281 L 20.800781 17.648438 L 20.175781 15.933594 C 20.929688 15.488281 21.554688 14.917969 22.039062 14.257812 L 23.75 15.042969 L 24.816406 12.796875 L 23.117188 11.988281 C 23.316406 11.199219 23.367188 10.363281 23.230469 9.503906 Z M 17.929688 13.109375 C 16.46875 13.636719 14.859375 12.882812 14.328125 11.433594 C 13.800781 9.984375 14.558594 8.382812 16.019531 7.859375 C 17.480469 7.335938 19.089844 8.085938 19.617188 9.535156 C 20.144531 10.988281 19.390625 12.585938 17.929688 13.109375 Z M 17.929688 13.109375 " fill-opacity="1" fill-rule="nonzero"/></g><g clip-path="url(#f5a67b87f9)"><path fill="#373f47" d="M 29.398438 20.285156 L 29.515625 18.902344 L 28.507812 18.820312 C 28.460938 18.316406 28.308594 17.929688 28.085938 17.53125 L 28.882812 16.875 L 27.984375 15.824219 L 27.144531 16.492188 C 26.785156 16.207031 26.460938 16.003906 25.871094 15.859375 L 25.960938 14.828125 L 24.46875 14.703125 L 24.382812 15.738281 C 24.078125 15.800781 23.554688 15.941406 23.152344 16.164062 L 22.523438 15.375 L 21.480469 16.269531 L 22.167969 17.035156 C 21.882812 17.390625 21.679688 17.75 21.546875 18.234375 L 20.476562 18.144531 L 20.355469 19.527344 L 21.429688 19.617188 C 21.46875 20.214844 21.625 20.554688 21.847656 20.953125 L 21.046875 21.632812 L 21.945312 22.695312 L 22.652344 22.023438 C 23.011719 22.308594 23.503906 22.535156 23.792969 22.648438 L 23.714844 23.582031 L 25.203125 23.707031 L 25.285156 22.773438 C 25.886719 22.734375 26.246094 22.582031 26.644531 22.359375 L 27.339844 23.152344 L 28.414062 22.261719 L 27.746094 21.445312 C 28.035156 21.089844 28.25 20.785156 28.390625 20.199219 Z M 24.855469 20.828125 C 23.992188 20.757812 23.351562 20.003906 23.425781 19.144531 C 23.496094 18.289062 24.257812 17.652344 25.121094 17.726562 C 25.984375 17.796875 26.625 18.550781 26.550781 19.40625 C 26.476562 20.265625 25.71875 20.902344 24.855469 20.828125 Z M 24.855469 20.828125 " fill-opacity="1" fill-rule="nonzero"/></g><g clip-path="url(#8f3d149668)"><path fill="#373f47" d="M 13.46875 21 L 13.46875 19.023438 L 12.074219 19.023438 C 11.945312 18.296875 11.683594 17.71875 11.320312 17.183594 L 12.367188 16.125 L 10.972656 14.730469 L 9.832031 15.761719 C 9.289062 15.402344 8.652344 15.140625 7.917969 15.011719 L 7.917969 13.515625 L 5.929688 13.515625 L 5.929688 15.011719 C 5.300781 15.140625 4.761719 15.398438 4.21875 15.757812 L 3.226562 14.71875 L 1.859375 16.105469 L 2.917969 17.183594 C 2.558594 17.71875 2.308594 18.296875 2.179688 19.023438 L 0.484375 19.023438 L 0.484375 21 L 2.179688 21 C 2.308594 21.625 2.570312 22.214844 2.933594 22.753906 L 1.886719 23.765625 L 3.28125 25.140625 L 4.21875 24.09375 C 4.761719 24.453125 5.300781 24.703125 5.929688 24.832031 L 5.929688 26.40625 L 7.917969 26.40625 L 7.917969 24.835938 C 8.652344 24.703125 9.289062 24.445312 9.828125 24.089844 L 10.925781 25.125 L 12.34375 23.742188 L 11.308594 22.753906 C 11.671875 22.21875 11.945312 21.625 12.074219 21 Z M 7.160156 22.140625 C 5.933594 22.140625 4.9375 21.152344 4.9375 19.933594 C 4.9375 18.714844 5.933594 17.730469 7.160156 17.730469 C 8.386719 17.730469 9.382812 18.714844 9.382812 19.933594 C 9.382812 21.152344 8.386719 22.140625 7.160156 22.140625 Z M 7.160156 22.140625 " fill-opacity="1" fill-rule="nonzero"/></g></svg>