<svg xmlns="http://www.w3.org/2000/svg" xmlns:xlink="http://www.w3.org/1999/xlink" width="96" zoomAndPan="magnify" viewBox="0 0 72 36.000001" height="48" preserveAspectRatio="xMidYMid meet" version="1.0"><defs><g/><clipPath id="04008f4f32"><path d="M 9 0 L 60 0 L 60 35.027344 L 9 35.027344 Z M 9 0 " clip-rule="nonzero"/></clipPath><clipPath id="18c64897c0"><rect x="0" width="51" y="0" height="36"/></clipPath></defs><g clip-path="url(#04008f4f32)"><g transform="matrix(1, 0, 0, 1, 9, 0.000000000000010582)"><g clip-path="url(#18c64897c0)"><g fill="#000000" fill-opacity="1"><g transform="translate(14.082705, 12.794307)"><g><path d="M 9.328125 0 L 7.3125 0 L 6.578125 -2.234375 L 2.859375 -2.234375 L 2.125 0 L 0.140625 0 L 3.5 -9.71875 L 5.96875 -9.71875 Z M 4.625 -7.703125 L 3.375 -3.859375 L 6.046875 -3.859375 L 4.796875 -7.703125 Z M 4.625 -7.703125 "/></g></g></g><g fill="#000000" fill-opacity="1"><g transform="translate(23.565897, 12.794307)"><g><path d="M 3.1875 0 L 1.265625 0 L 1.265625 -9.71875 L 3.1875 -9.71875 Z M 3.1875 0 "/></g></g></g><g fill="#000000" fill-opacity="1"><g transform="translate(28.024658, 12.794307)"><g><path d="M 4.3125 0.140625 C 3.632812 0.140625 3.03125 0.0546875 2.5 -0.109375 C 1.976562 -0.273438 1.539062 -0.492188 1.1875 -0.765625 C 0.84375 -1.035156 0.578125 -1.332031 0.390625 -1.65625 L 1.453125 -2.953125 L 1.609375 -2.953125 C 1.910156 -2.515625 2.285156 -2.164062 2.734375 -1.90625 C 3.179688 -1.65625 3.707031 -1.53125 4.3125 -1.53125 C 4.820312 -1.53125 5.207031 -1.632812 5.46875 -1.84375 C 5.738281 -2.0625 5.875 -2.363281 5.875 -2.75 C 5.875 -2.976562 5.828125 -3.171875 5.734375 -3.328125 C 5.648438 -3.484375 5.507812 -3.613281 5.3125 -3.71875 C 5.125 -3.832031 4.863281 -3.929688 4.53125 -4.015625 L 3.28125 -4.296875 C 2.40625 -4.492188 1.753906 -4.820312 1.328125 -5.28125 C 0.898438 -5.75 0.6875 -6.351562 0.6875 -7.09375 C 0.6875 -7.644531 0.820312 -8.128906 1.09375 -8.546875 C 1.375 -8.960938 1.773438 -9.285156 2.296875 -9.515625 C 2.828125 -9.742188 3.457031 -9.859375 4.1875 -9.859375 C 4.9375 -9.859375 5.578125 -9.757812 6.109375 -9.5625 C 6.640625 -9.375 7.09375 -9.070312 7.46875 -8.65625 L 6.515625 -7.359375 L 6.34375 -7.359375 C 6.070312 -7.648438 5.757812 -7.863281 5.40625 -8 C 5.050781 -8.144531 4.644531 -8.21875 4.1875 -8.21875 C 3.65625 -8.21875 3.25 -8.125 2.96875 -7.9375 C 2.695312 -7.757812 2.5625 -7.503906 2.5625 -7.171875 C 2.5625 -6.867188 2.65625 -6.625 2.84375 -6.4375 C 3.039062 -6.257812 3.378906 -6.117188 3.859375 -6.015625 L 5.140625 -5.75 C 6.078125 -5.550781 6.757812 -5.210938 7.1875 -4.734375 C 7.613281 -4.253906 7.828125 -3.632812 7.828125 -2.875 C 7.828125 -2.257812 7.695312 -1.726562 7.4375 -1.28125 C 7.175781 -0.832031 6.78125 -0.484375 6.25 -0.234375 C 5.726562 0.015625 5.082031 0.140625 4.3125 0.140625 Z M 4.3125 0.140625 "/></g></g></g><g fill="#000000" fill-opacity="1"><g transform="translate(0.834514, 31.671136)"><g><path d="M 4.75 0.140625 C 3.957031 0.140625 3.265625 -0.0351562 2.671875 -0.390625 C 2.085938 -0.742188 1.628906 -1.289062 1.296875 -2.03125 C 0.972656 -2.78125 0.8125 -3.722656 0.8125 -4.859375 C 0.8125 -6.003906 0.972656 -6.945312 1.296875 -7.6875 C 1.628906 -8.4375 2.085938 -8.984375 2.671875 -9.328125 C 3.265625 -9.679688 3.957031 -9.859375 4.75 -9.859375 C 5.550781 -9.859375 6.242188 -9.679688 6.828125 -9.328125 C 7.410156 -8.984375 7.863281 -8.4375 8.1875 -7.6875 C 8.519531 -6.945312 8.6875 -6.003906 8.6875 -4.859375 C 8.6875 -3.722656 8.519531 -2.78125 8.1875 -2.03125 C 7.863281 -1.289062 7.410156 -0.742188 6.828125 -0.390625 C 6.242188 -0.0351562 5.550781 0.140625 4.75 0.140625 Z M 4.75 -1.484375 C 5.1875 -1.484375 5.550781 -1.585938 5.84375 -1.796875 C 6.132812 -2.015625 6.359375 -2.367188 6.515625 -2.859375 C 6.671875 -3.359375 6.75 -4.023438 6.75 -4.859375 C 6.75 -5.691406 6.671875 -6.359375 6.515625 -6.859375 C 6.359375 -7.359375 6.132812 -7.710938 5.84375 -7.921875 C 5.550781 -8.128906 5.1875 -8.234375 4.75 -8.234375 C 4.3125 -8.234375 3.945312 -8.128906 3.65625 -7.921875 C 3.363281 -7.710938 3.140625 -7.359375 2.984375 -6.859375 C 2.828125 -6.359375 2.75 -5.691406 2.75 -4.859375 C 2.75 -4.023438 2.828125 -3.359375 2.984375 -2.859375 C 3.140625 -2.367188 3.363281 -2.015625 3.65625 -1.796875 C 3.945312 -1.585938 4.3125 -1.484375 4.75 -1.484375 Z M 4.75 -1.484375 "/></g></g></g><g fill="#000000" fill-opacity="1"><g transform="translate(10.091417, 31.671136)"><g><path d="M 0.515625 0 L 0.515625 -1.59375 L 2.859375 -1.59375 L 2.859375 -7.640625 L 2.703125 -7.6875 C 2.367188 -7.519531 2.039062 -7.390625 1.71875 -7.296875 C 1.40625 -7.210938 1.039062 -7.140625 0.625 -7.078125 L 0.625 -8.734375 C 1.695312 -8.953125 2.566406 -9.28125 3.234375 -9.71875 L 4.765625 -9.71875 L 4.765625 -1.59375 L 6.859375 -1.59375 L 6.859375 0 Z M 0.515625 0 "/></g></g></g><g fill="#000000" fill-opacity="1"><g transform="translate(17.019116, 31.671136)"><g><path d="M 4.75 0.140625 C 3.957031 0.140625 3.265625 -0.0351562 2.671875 -0.390625 C 2.085938 -0.742188 1.628906 -1.289062 1.296875 -2.03125 C 0.972656 -2.78125 0.8125 -3.722656 0.8125 -4.859375 C 0.8125 -6.003906 0.972656 -6.945312 1.296875 -7.6875 C 1.628906 -8.4375 2.085938 -8.984375 2.671875 -9.328125 C 3.265625 -9.679688 3.957031 -9.859375 4.75 -9.859375 C 5.550781 -9.859375 6.242188 -9.679688 6.828125 -9.328125 C 7.410156 -8.984375 7.863281 -8.4375 8.1875 -7.6875 C 8.519531 -6.945312 8.6875 -6.003906 8.6875 -4.859375 C 8.6875 -3.722656 8.519531 -2.78125 8.1875 -2.03125 C 7.863281 -1.289062 7.410156 -0.742188 6.828125 -0.390625 C 6.242188 -0.0351562 5.550781 0.140625 4.75 0.140625 Z M 4.75 -1.484375 C 5.1875 -1.484375 5.550781 -1.585938 5.84375 -1.796875 C 6.132812 -2.015625 6.359375 -2.367188 6.515625 -2.859375 C 6.671875 -3.359375 6.75 -4.023438 6.75 -4.859375 C 6.75 -5.691406 6.671875 -6.359375 6.515625 -6.859375 C 6.359375 -7.359375 6.132812 -7.710938 5.84375 -7.921875 C 5.550781 -8.128906 5.1875 -8.234375 4.75 -8.234375 C 4.3125 -8.234375 3.945312 -8.128906 3.65625 -7.921875 C 3.363281 -7.710938 3.140625 -7.359375 2.984375 -6.859375 C 2.828125 -6.359375 2.75 -5.691406 2.75 -4.859375 C 2.75 -4.023438 2.828125 -3.359375 2.984375 -2.859375 C 3.140625 -2.367188 3.363281 -2.015625 3.65625 -1.796875 C 3.945312 -1.585938 4.3125 -1.484375 4.75 -1.484375 Z M 4.75 -1.484375 "/></g></g></g><g fill="#000000" fill-opacity="1"><g transform="translate(26.276018, 31.671136)"><g><path d="M 0.515625 0 L 0.515625 -1.59375 L 2.859375 -1.59375 L 2.859375 -7.640625 L 2.703125 -7.6875 C 2.367188 -7.519531 2.039062 -7.390625 1.71875 -7.296875 C 1.40625 -7.210938 1.039062 -7.140625 0.625 -7.078125 L 0.625 -8.734375 C 1.695312 -8.953125 2.566406 -9.28125 3.234375 -9.71875 L 4.765625 -9.71875 L 4.765625 -1.59375 L 6.859375 -1.59375 L 6.859375 0 Z M 0.515625 0 "/></g></g></g><g fill="#000000" fill-opacity="1"><g transform="translate(33.203717, 31.671136)"><g><path d="M 4.75 0.140625 C 3.957031 0.140625 3.265625 -0.0351562 2.671875 -0.390625 C 2.085938 -0.742188 1.628906 -1.289062 1.296875 -2.03125 C 0.972656 -2.78125 0.8125 -3.722656 0.8125 -4.859375 C 0.8125 -6.003906 0.972656 -6.945312 1.296875 -7.6875 C 1.628906 -8.4375 2.085938 -8.984375 2.671875 -9.328125 C 3.265625 -9.679688 3.957031 -9.859375 4.75 -9.859375 C 5.550781 -9.859375 6.242188 -9.679688 6.828125 -9.328125 C 7.410156 -8.984375 7.863281 -8.4375 8.1875 -7.6875 C 8.519531 -6.945312 8.6875 -6.003906 8.6875 -4.859375 C 8.6875 -3.722656 8.519531 -2.78125 8.1875 -2.03125 C 7.863281 -1.289062 7.410156 -0.742188 6.828125 -0.390625 C 6.242188 -0.0351562 5.550781 0.140625 4.75 0.140625 Z M 4.75 -1.484375 C 5.1875 -1.484375 5.550781 -1.585938 5.84375 -1.796875 C 6.132812 -2.015625 6.359375 -2.367188 6.515625 -2.859375 C 6.671875 -3.359375 6.75 -4.023438 6.75 -4.859375 C 6.75 -5.691406 6.671875 -6.359375 6.515625 -6.859375 C 6.359375 -7.359375 6.132812 -7.710938 5.84375 -7.921875 C 5.550781 -8.128906 5.1875 -8.234375 4.75 -8.234375 C 4.3125 -8.234375 3.945312 -8.128906 3.65625 -7.921875 C 3.363281 -7.710938 3.140625 -7.359375 2.984375 -6.859375 C 2.828125 -6.359375 2.75 -5.691406 2.75 -4.859375 C 2.75 -4.023438 2.828125 -3.359375 2.984375 -2.859375 C 3.140625 -2.367188 3.363281 -2.015625 3.65625 -1.796875 C 3.945312 -1.585938 4.3125 -1.484375 4.75 -1.484375 Z M 4.75 -1.484375 "/></g></g></g><g fill="#000000" fill-opacity="1"><g transform="translate(42.46062, 31.671136)"><g><path d="M 0.515625 0 L 0.515625 -1.59375 L 2.859375 -1.59375 L 2.859375 -7.640625 L 2.703125 -7.6875 C 2.367188 -7.519531 2.039062 -7.390625 1.71875 -7.296875 C 1.40625 -7.210938 1.039062 -7.140625 0.625 -7.078125 L 0.625 -8.734375 C 1.695312 -8.953125 2.566406 -9.28125 3.234375 -9.71875 L 4.765625 -9.71875 L 4.765625 -1.59375 L 6.859375 -1.59375 L 6.859375 0 Z M 0.515625 0 "/></g></g></g></g></g></g></svg>