<?xml version="1.0" encoding="UTF-8"?>
<svg version="1.1" xmlns="http://www.w3.org/2000/svg" width="512" height="512">
<path d="M0 0 C0.91219685 -0.00384115 1.8243937 -0.00768229 2.76423287 -0.01163983 C4.26187665 -0.01034011 4.26187665 -0.01034011 5.78977585 -0.00901413 C7.38514636 -0.01347081 7.38514636 -0.01347081 9.01274657 -0.01801753 C12.58855704 -0.02671229 16.16433406 -0.02821344 19.74015427 -0.02970505 C22.29916073 -0.03433266 24.85816651 -0.03935724 27.41717148 -0.04475021 C34.37799383 -0.05788146 41.33880516 -0.06435725 48.29963779 -0.06876087 C52.64693511 -0.07152444 56.99423021 -0.07576201 61.34152603 -0.08026505 C73.38054006 -0.09245692 85.41955232 -0.10275635 97.45857239 -0.10614014 C98.22896594 -0.1063597 98.9993595 -0.10657927 99.79309832 -0.10680549 C100.56532367 -0.10702377 101.33754902 -0.10724204 102.13317513 -0.10746694 C103.69796896 -0.1079104 105.26276279 -0.10835696 106.82755661 -0.10880661 C107.60374658 -0.10902804 108.37993654 -0.10924947 109.17964742 -0.10947761 C121.7546426 -0.11342501 134.32957981 -0.13087762 146.90455261 -0.15416613 C159.8185019 -0.17788915 172.73242211 -0.19034242 185.64639354 -0.19150805 C192.89572987 -0.19242429 200.14499067 -0.19816355 207.39430618 -0.21632767 C214.2134378 -0.23335382 221.03240167 -0.23497417 227.85155678 -0.22618866 C230.3541178 -0.22541715 232.85668646 -0.22977595 235.35922813 -0.23964691 C238.77643423 -0.25233495 242.19313001 -0.24650619 245.61033249 -0.23606491 C246.59983878 -0.24412132 247.58934508 -0.25217772 248.60883641 -0.26047826 C254.80660488 -0.21621087 261.22392606 0.12308663 266.01298165 4.58336139 C269.11936588 8.21259138 270.58129472 10.60397154 270.56754684 15.30574417 C270.56747131 16.16648544 270.56739578 17.02722672 270.56731796 17.91405106 C270.56215668 18.84430099 270.55699539 19.77455093 270.5516777 20.73299026 C270.54955528 22.16039032 270.54955528 22.16039032 270.54738998 23.61662674 C270.54178157 26.66325873 270.52922765 29.70981789 270.51652145 32.75642776 C270.51150754 34.81892671 270.50694444 36.88142679 270.50284958 38.94392776 C270.49265926 44.00647857 270.47308547 49.0688714 270.45402145 54.13142776 C281.67402145 54.13142776 292.89402145 54.13142776 304.45402145 54.13142776 C304.4076152 51.66287308 304.36120895 49.19431839 304.31339645 46.65095901 C304.28217241 44.25148447 304.25790099 41.85203284 304.23429489 39.45247269 C304.21421938 37.78895763 304.18695269 36.1255128 304.15226364 34.46223831 C304.10356379 32.06663537 304.0810129 29.67196784 304.06339645 27.27595901 C304.04275131 26.53618317 304.02210617 25.79640732 304.00083542 25.03421402 C303.99935041 21.59183548 304.39661859 19.24485343 305.95695114 16.1617012 C309.42409172 13.34270032 312.51701155 13.42939622 316.79777145 13.50252151 C317.60387863 13.50010956 318.40998581 13.4976976 319.24052048 13.49521255 C320.94178318 13.49619036 322.64307794 13.50956849 324.34415817 13.53450394 C326.94568265 13.56881778 329.54381016 13.55516173 332.1454277 13.53572464 C333.80039005 13.54262332 335.45534365 13.55229591 337.11027145 13.56502151 C337.88640793 13.56006165 338.6625444 13.55510178 339.46220016 13.54999161 C342.78726317 13.62236664 345.08772979 13.90863734 347.95109177 15.65022659 C350.08326727 19.17025578 349.95201807 22.40900922 349.84464645 26.39705276 C349.83898666 27.19045059 349.83332687 27.98384842 349.82749557 28.8012886 C349.80515292 31.3286225 349.75496321 33.85452442 349.70402145 36.38142776 C349.6839536 38.09755308 349.66570332 39.81370068 349.64933395 41.52986526 C349.60529541 45.73093557 349.53628471 49.93093911 349.45402145 54.13142776 C350.33138962 54.11571732 351.20875778 54.10000687 352.11271286 54.08382034 C355.38914097 54.032484 358.66513743 53.9949778 361.94181442 53.96663284 C363.35594583 53.95160951 364.77003113 53.93118472 366.18400192 53.90510941 C368.22464542 53.86843822 370.26466938 53.8516374 372.30558395 53.83845901 C373.53099899 53.82274857 374.75641403 53.80703812 376.01896286 53.79085159 C379.89524058 54.17517337 382.19188087 55.01568748 385.45402145 57.13142776 C387.18229294 59.33845901 387.18229294 59.33845901 388.5751152 61.94392776 C389.10999557 62.9228096 389.64487595 63.90169144 390.19596481 64.91023636 C390.7554985 65.97322952 391.3150322 67.03622269 391.89152145 68.13142776 C393.13091523 70.4153848 394.37050512 72.69923543 395.61027145 74.98299026 C396.25132301 76.17709731 396.89194589 77.37143458 397.53214645 78.56599808 C400.5854896 84.24946782 403.74710149 89.87303626 406.89152145 95.50642776 C408.1409113 97.75474131 409.38960408 100.00344236 410.6376152 102.25252151 C411.26136032 103.37642288 411.88510544 104.50032425 412.52775192 105.65828323 C414.17802574 108.63379595 415.82714537 111.60994165 417.47552109 114.58650589 C418.81295682 117.00114201 420.15139346 119.41522258 421.48994064 121.82924271 C422.41702939 123.50217553 423.34266034 125.17591597 424.26823044 126.84968948 C427.79836064 133.21585363 431.42248471 139.51102815 435.1688652 145.75276566 C436.45402145 148.13142776 436.45402145 148.13142776 436.45402145 150.13142776 C437.06286179 150.12095413 437.67170212 150.1104805 438.29899216 150.09968948 C471.14242177 149.60879346 471.14242177 149.60879346 484.33683395 161.77595901 C490.5359969 168.67281374 493.54873504 176.13369199 493.63102341 185.28596878 C493.64385864 186.53149017 493.65669388 187.77701157 493.66991806 189.06027603 C493.67808987 190.41862461 493.68553275 191.77697773 493.6923027 193.13533401 C493.69637823 193.82402006 493.70045376 194.51270611 493.70465279 195.22226143 C493.72548766 198.87240036 493.73979664 202.52250207 493.74918747 206.17268753 C493.76020557 209.91590948 493.7945584 213.65852938 493.83435917 217.4015398 C493.86069915 220.30233118 493.86889486 223.20298335 493.87246895 226.10388374 C493.87729561 227.48200324 493.8887956 228.86011821 493.90750694 230.23811913 C494.07055402 243.04898755 492.00459416 252.54912443 482.9501152 261.90095901 C472.68714581 271.07178143 462.76872472 272.45469941 449.45402145 272.25642776 C448.29773239 272.24740433 447.14144333 272.23838089 445.9501152 272.22908401 C443.11786498 272.20567699 440.28605526 272.17288772 437.45402145 272.13142776 C437.40141159 272.78949417 437.34880173 273.44756058 437.29459763 274.12556839 C435.84158976 290.57790248 427.97134025 302.61410897 416.45402145 314.13142776 C417.73735367 314.14355804 417.73735367 314.14355804 419.04661179 314.15593338 C427.10994237 314.23387842 435.17310597 314.32116888 443.23622131 314.41895485 C447.38154123 314.46889789 451.52683591 314.51522806 455.67228317 314.55330276 C459.67297133 314.59018082 463.67344733 314.63654753 467.67395401 314.68949127 C469.20012566 314.70802185 470.72634277 314.72313477 472.25258255 314.73477173 C474.3905878 314.75165729 476.5281086 314.78069705 478.66593552 314.81258011 C480.49127823 314.83256561 480.49127823 314.83256561 482.35349655 314.85295486 C485.31861643 315.1192664 487.04418886 315.41149128 489.45402145 317.13142776 C490.32902145 320.06892776 490.32902145 320.06892776 490.45402145 323.13142776 C489.79402145 324.12142776 489.13402145 325.11142776 488.45402145 326.13142776 C485.68734148 326.43169408 483.14341586 326.53328201 480.37359238 326.50895119 C479.52432029 326.51331151 478.67504821 326.51767183 477.8000406 326.52216429 C474.92290581 326.53320833 472.04624151 326.52265624 469.16910934 326.51237869 C467.09815632 326.51583165 465.02720513 326.52059375 462.95625782 326.52656043 C457.24099822 326.53914989 451.52588779 326.53286412 445.81062746 326.52360177 C439.65650041 326.51684397 433.50239991 326.52727619 427.34827805 326.53554153 C415.98097975 326.54814212 404.61374267 326.54700567 393.24644586 326.53880713 C382.74655097 326.53127105 372.24667363 326.5292854 361.74677658 326.53287506 C360.70349905 326.53321879 360.70349905 326.53321879 359.6391452 326.53356947 C356.81606276 326.53450343 353.99298032 326.53545863 351.16989789 326.53644876 C324.66792048 326.54563313 298.16597359 326.53729371 271.66400088 326.52115807 C248.10017628 326.50692044 224.53640032 326.50819429 200.97257614 326.52254105 C174.52017692 326.53859253 148.06780468 326.54498187 121.61540127 326.53570426 C118.79735629 326.53474205 115.97931131 326.53380353 113.16126633 326.53287506 C112.46735263 326.53263783 111.77343894 326.5324006 111.05849756 326.53215618 C100.56322576 326.52873862 90.06797342 326.53274412 79.57270432 326.54031372 C67.64337051 326.54887454 55.71409418 326.54649327 43.78476262 326.53047149 C37.69246612 326.52256021 31.60026859 326.51954556 25.50797272 326.52941895 C19.93933892 326.5383075 14.37089655 326.5335302 8.80228031 326.51748629 C6.7794396 326.51411356 4.75658298 326.5158878 2.73375237 326.52311365 C0.00041633 326.53213438 -2.73224947 326.52298446 -5.46554947 326.50895119 C-6.26510516 326.51597469 -7.06466085 326.52299818 -7.8884455 326.53023452 C-10.0810442 326.50747526 -10.0810442 326.50747526 -13.54597855 326.13142776 C-15.54597855 323.13142776 -15.54597855 323.13142776 -15.42097855 320.06892776 C-14.54597855 317.13142776 -14.54597855 317.13142776 -12.92128372 315.96776199 C-9.76287798 314.85570159 -7.01560688 314.84872591 -3.66609573 314.81258011 C-2.98276169 314.80253448 -2.29942764 314.79248886 -1.59538651 314.78213882 C0.65544953 314.75133379 2.90616677 314.73427947 5.15714645 314.71736526 C6.72085719 314.69865143 8.28455785 314.67907785 9.84824753 314.65867996 C13.9581114 314.60737543 18.068008 314.56774081 22.17802048 314.53053665 C26.37426973 314.49048643 30.57038301 314.43939874 34.76652145 314.38924026 C42.9955952 314.29250087 51.2247363 314.20808982 59.45402145 314.13142776 C58.90131073 313.6549379 58.34860001 313.17844803 57.77914047 312.68751907 C57.05592102 312.06024918 56.33270157 311.43297928 55.58756638 310.7867012 C54.86985565 310.16583633 54.15214493 309.54497147 53.41268539 308.90529251 C44.89380448 301.19016476 39.53541335 289.29525702 37.45402145 278.13142776 C37.42742163 276.13160466 37.42299557 274.1311871 37.45402145 272.13142776 C36.16302536 272.15237503 34.87202927 272.1733223 33.54191208 272.19490433 C28.72627086 272.26761423 23.91067765 272.31334001 19.09464645 272.35115433 C17.01513621 272.37119936 14.93568183 272.3984429 12.8563652 272.43318558 C9.85752658 272.48201724 6.85943683 272.50446804 3.86027145 272.52205276 C2.93911545 272.54269791 2.01795944 272.56334305 1.06888962 272.5846138 C-4.77163023 272.58661828 -9.8941441 271.92466136 -14.54597855 268.13142776 C-18.99659264 262.88207867 -19.11680181 258.65261517 -19.05391312 251.92134476 C-19.06015308 250.89547996 -19.06639304 249.86961516 -19.07282209 248.81266356 C-19.08877236 245.37636655 -19.07613935 241.94077687 -19.06355667 238.50447464 C-19.06897686 236.04044557 -19.07609893 233.57641974 -19.08479691 231.11240005 C-19.10115018 225.11529887 -19.09874664 219.1184751 -19.08714634 213.12138474 C-19.0781084 208.24694369 -19.07688957 203.37255875 -19.08124161 198.49811172 C-19.08185454 197.80404133 -19.08246747 197.10997094 -19.08309898 196.39486811 C-19.08437789 194.98482468 -19.08567475 193.57478127 -19.08698934 192.16473788 C-19.09839227 178.9464431 -19.08528599 165.72825934 -19.06378788 152.50998276 C-19.04591712 141.17101431 -19.04902131 129.83220967 -19.06746292 118.49324417 C-19.08887475 105.32187151 -19.09729366 92.15059611 -19.08501387 78.97920847 C-19.08373969 77.57438693 -19.0824822 76.16956537 -19.08124161 74.7647438 C-19.08062451 74.07356633 -19.0800074 73.38238885 -19.0793716 72.6702666 C-19.07591963 67.80235168 -19.08174373 62.93449852 -19.09115982 58.06659317 C-19.10355743 51.51332911 -19.09471574 44.96032656 -19.07158279 38.40707588 C-19.06628885 36.00043566 -19.06782112 33.59376942 -19.07663345 31.18713951 C-19.08754486 27.90491014 -19.07387734 24.6236765 -19.05391312 21.34151077 C-19.062836 20.38645252 -19.07175889 19.43139426 -19.08095217 18.44739485 C-19.01472319 12.84368246 -18.34175581 9.54461209 -14.54597855 5.13142776 C-9.67141005 1.37394788 -6.06137539 0.00960036 0 0 Z M154.45402145 272.13142776 C153.13402145 277.41142776 151.81402145 282.69142776 150.45402145 288.13142776 C146.3118306 297.71532033 141.86146244 304.82447532 134.45402145 312.13142776 C133.46402145 313.12142776 132.47402145 314.11142776 131.45402145 315.13142776 C201.41402145 315.13142776 271.37402145 315.13142776 343.45402145 315.13142776 C340.10515422 311.77288922 340.10515422 311.77288922 336.7157402 308.45564651 C332.67277331 304.2521648 329.86843192 299.64947442 327.20402145 294.50642776 C326.87490768 293.89243118 326.54579391 293.2784346 326.206707 292.64583206 C322.81335398 285.7993198 322.16938634 280.13646391 320.45402145 272.13142776 C265.67402145 272.13142776 210.89402145 272.13142776 154.45402145 272.13142776 Z " fill="#DBE8ED" transform="translate(18.545978546142578,111.86857223510742)"/>
<path d="M0 0 C168.96 0 337.92 0 512 0 C512 61.92066913 512 61.92066913 501.49609375 72.76953125 C491.23312435 81.94035367 481.31470326 83.32327164 468 83.125 C466.84371094 83.11597656 465.68742187 83.10695313 464.49609375 83.09765625 C461.66384353 83.07424922 458.83203381 83.04145995 456 83 C455.94739014 83.65806641 455.89478027 84.31613281 455.84057617 84.99414062 C454.38756831 101.44647472 446.5173188 113.4826812 435 125 C435.85555481 125.00808685 436.71110962 125.01617371 437.59259033 125.02450562 C445.65592091 125.10245065 453.71908451 125.18974111 461.78219986 125.28752708 C465.92751978 125.33747012 470.07281446 125.3838003 474.21826172 125.421875 C478.21894987 125.45875305 482.21942588 125.50511977 486.21993256 125.55806351 C487.74610421 125.57659408 489.27232131 125.591707 490.7985611 125.60334396 C492.93656634 125.62022952 495.07408715 125.64926929 497.21191406 125.68115234 C499.03725677 125.70113785 499.03725677 125.70113785 500.8994751 125.7215271 C503.86459498 125.98783863 505.59016741 126.28006352 508 128 C508.875 130.9375 508.875 130.9375 509 134 C508.34 134.99 507.68 135.98 507 137 C504.23332003 137.30026631 501.68939441 137.40185425 498.91957092 137.37752342 C498.07029884 137.38188374 497.22102675 137.38624407 496.34601915 137.39073652 C493.46888435 137.40178056 490.59222006 137.39122848 487.71508789 137.38095093 C485.64413487 137.38440388 483.57318367 137.38916599 481.50223637 137.39513266 C475.78697676 137.40772213 470.07186634 137.40143635 464.35660601 137.39217401 C458.20247895 137.38541621 452.04837845 137.39584843 445.89425659 137.40411377 C434.5269583 137.41671435 423.15972122 137.4155779 411.79242441 137.40737936 C401.29252951 137.39984328 390.79265217 137.39785764 380.29275513 137.4014473 C379.24947759 137.40179103 379.24947759 137.40179103 378.18512375 137.40214171 C375.3620413 137.40307567 372.53895886 137.40403086 369.71587643 137.405021 C343.21389902 137.41420537 316.71195213 137.40586595 290.20997943 137.38973031 C266.64615483 137.37549267 243.08237886 137.37676652 219.51855469 137.39111328 C193.06615547 137.40716477 166.61378323 137.41355411 140.16137981 137.40427649 C137.34333484 137.40331429 134.52528986 137.40237577 131.70724487 137.4014473 C131.01333118 137.40121006 130.31941748 137.40097283 129.6044761 137.40072841 C119.1092043 137.39731086 108.61395197 137.40131636 98.11868286 137.40888596 C86.18934905 137.41744677 74.26007272 137.4150655 62.33074117 137.39904372 C56.23844467 137.39113244 50.14624714 137.3881178 44.05395126 137.39799118 C38.48531746 137.40687974 32.91687509 137.40210244 27.34825885 137.38605852 C25.32541815 137.38268579 23.30256153 137.38446003 21.27973092 137.39168589 C18.54639487 137.40070662 15.81372908 137.3915567 13.08042908 137.37752342 C12.28087339 137.38454692 11.4813177 137.39157042 10.65753305 137.39880675 C8.46493435 137.37604749 8.46493435 137.37604749 5 137 C3 134 3 134 3.125 130.9375 C4 128 4 128 5.62469482 126.83633423 C8.78310057 125.72427383 11.53037166 125.71729815 14.87988281 125.68115234 C15.56321686 125.67110672 16.2465509 125.6610611 16.95059204 125.65071106 C19.20142808 125.61990602 21.45214531 125.60285171 23.703125 125.5859375 C25.26683574 125.56722366 26.8305364 125.54765008 28.39422607 125.5272522 C32.50408994 125.47594767 36.61398655 125.43631305 40.72399902 125.39910889 C44.92024827 125.35905867 49.11636156 125.30797098 53.3125 125.2578125 C61.54157375 125.16107311 69.77071484 125.07666206 78 125 C77.17093391 124.2852652 77.17093391 124.2852652 76.32511902 123.55609131 C75.60189957 122.92882141 74.87868011 122.30155151 74.13354492 121.65527344 C73.4158342 121.03440857 72.69812347 120.4135437 71.95866394 119.77386475 C63.43978303 112.05873699 58.0813919 100.16382926 56 89 C55.97340018 87.0001769 55.96897411 84.99975933 56 83 C54.70900391 83.02094727 53.41800781 83.04189453 52.08789062 83.06347656 C47.27224941 83.13618646 42.45665619 83.18191225 37.640625 83.21972656 C35.56111475 83.23977159 33.48166037 83.26701513 31.40234375 83.30175781 C28.40350513 83.35058948 25.40541537 83.37304028 22.40625 83.390625 C21.48509399 83.41127014 20.56393799 83.43191528 19.61486816 83.45318604 C13.77434831 83.45519052 8.65183444 82.7932336 4 79 C-10.62581724 57.06127414 0 26.367067 0 0 Z M173 83 C171.68 88.28 170.36 93.56 169 99 C164.85780915 108.58389257 160.40744099 115.69304755 153 123 C152.01 123.99 151.02 124.98 150 126 C219.96 126 289.92 126 362 126 C358.65113277 122.64146145 358.65113277 122.64146145 355.26171875 119.32421875 C351.21875185 115.12073704 348.41441047 110.51804666 345.75 105.375 C345.42088623 104.76100342 345.09177246 104.14700684 344.75268555 103.5144043 C341.35933253 96.66789204 340.71536489 91.00503614 339 83 C284.22 83 229.44 83 173 83 Z " fill="#EB3453" transform="translate(0,301)"/>
<path d="M0 0 C11.55851859 9.37724174 19.48434854 23.74198205 21.6953125 38.37890625 C22.89125585 54.72892631 19.79816915 70.718191 9.0859375 83.67578125 C2.83579923 90.80866289 2.83579923 90.80866289 -0.3046875 92.37890625 C68.9953125 92.37890625 138.2953125 92.37890625 209.6953125 92.37890625 C205.7353125 88.91390625 205.7353125 88.91390625 201.6953125 85.37890625 C189.84177097 71.59672634 186.48027234 56.06733307 187.6953125 38.37890625 C189.39980347 24.38857939 197.37770065 10.20756289 208.2265625 1.30078125 C222.64151877 -9.6319103 237.49547431 -14.64509309 255.6875 -12.22265625 C272.07333566 -8.80338973 286.38484877 0.2824218 295.5703125 14.25390625 C304.37446087 28.28191236 306.9772275 43.86097255 304.01171875 60.12890625 C301.01674619 70.46839659 296.32230204 78.91883498 288.98046875 86.71875 C288.21675964 87.54046692 288.21675964 87.54046692 287.43762207 88.37878418 C286.19402617 89.71574095 284.94520433 91.04783354 283.6953125 92.37890625 C284.55086731 92.3869931 285.40642212 92.39507996 286.28790283 92.40341187 C294.35123341 92.4813569 302.41439701 92.56864736 310.47751236 92.66643333 C314.62283228 92.71637637 318.76812696 92.76270655 322.91357422 92.80078125 C326.91426237 92.8376593 330.91473838 92.88402602 334.91524506 92.93696976 C336.44141671 92.95550033 337.96763381 92.97061325 339.4938736 92.98225021 C341.63187884 92.99913577 343.76939965 93.02817554 345.90722656 93.06005859 C347.73256927 93.0800441 347.73256927 93.0800441 349.5947876 93.10043335 C352.55990748 93.36674488 354.28547991 93.65896977 356.6953125 95.37890625 C357.5703125 98.31640625 357.5703125 98.31640625 357.6953125 101.37890625 C357.0353125 102.36890625 356.3753125 103.35890625 355.6953125 104.37890625 C352.92863253 104.67917256 350.38470691 104.7807605 347.61488342 104.75642967 C346.76561134 104.76078999 345.91633925 104.76515032 345.04133165 104.76964277 C342.16419685 104.78068681 339.28753256 104.77013473 336.41040039 104.75985718 C334.33944737 104.76331013 332.26849617 104.76807224 330.19754887 104.77403891 C324.48228926 104.78662838 318.76717884 104.7803426 313.05191851 104.77108026 C306.89779145 104.76432246 300.74369095 104.77475468 294.58956909 104.78302002 C283.2222708 104.7956206 271.85503372 104.79448415 260.48773691 104.78628561 C249.98784201 104.77874953 239.48796467 104.77676389 228.98806763 104.78035355 C227.94479009 104.78069728 227.94479009 104.78069728 226.88043625 104.78104796 C224.0573538 104.78198192 221.23427136 104.78293711 218.41118893 104.78392725 C191.90921152 104.79311162 165.40726463 104.7847722 138.90529193 104.76863656 C115.34146733 104.75439892 91.77769136 104.75567277 68.21386719 104.77001953 C41.76146797 104.78607102 15.30909573 104.79246036 -11.14330769 104.78318274 C-13.96135266 104.78222054 -16.77939764 104.78128202 -19.59744263 104.78035355 C-20.29135632 104.78011631 -20.98527002 104.77987908 -21.7002114 104.77963466 C-32.1954832 104.77621711 -42.69073553 104.78022261 -53.18600464 104.78779221 C-65.11533845 104.79635302 -77.04461478 104.79397175 -88.97394633 104.77794997 C-95.06624283 104.77003869 -101.15844036 104.76702405 -107.25073624 104.77689743 C-112.81937004 104.78578599 -118.38781241 104.78100869 -123.95642865 104.76496477 C-125.97926935 104.76159204 -128.00212597 104.76336628 -130.02495658 104.77059214 C-132.75829263 104.77961287 -135.49095842 104.77046295 -138.22425842 104.75642967 C-139.02381411 104.76345317 -139.8233698 104.77047667 -140.64715445 104.777713 C-142.83975315 104.75495374 -142.83975315 104.75495374 -146.3046875 104.37890625 C-148.3046875 101.37890625 -148.3046875 101.37890625 -148.1796875 98.31640625 C-147.3046875 95.37890625 -147.3046875 95.37890625 -145.67999268 94.21524048 C-142.52158693 93.10318008 -139.77431584 93.0962044 -136.42480469 93.06005859 C-135.74147064 93.05001297 -135.0581366 93.03996735 -134.35409546 93.02961731 C-132.10325942 92.99881227 -129.85254219 92.98175796 -127.6015625 92.96484375 C-126.03785176 92.94612991 -124.4741511 92.92655633 -122.91046143 92.90615845 C-118.80059756 92.85485392 -114.69070095 92.8152193 -110.58068848 92.77801514 C-106.38443923 92.73796492 -102.18832594 92.68687723 -97.9921875 92.63671875 C-89.76311375 92.53997936 -81.53397266 92.45556831 -73.3046875 92.37890625 C-74.13375359 91.66417145 -74.13375359 91.66417145 -74.97956848 90.93499756 C-75.70278793 90.30772766 -76.42600739 89.68045776 -77.17114258 89.03417969 C-77.8888533 88.41331482 -78.60656403 87.79244995 -79.34602356 87.152771 C-88.79568877 78.59467809 -94.99378609 64.59295917 -95.640625 51.93359375 C-96.00645589 33.08030914 -91.01645651 17.598914 -77.8046875 3.6953125 C-55.37634101 -17.0859523 -24.60025594 -17.30356985 0 0 Z " fill="#2D3E50" transform="translate(151.3046875,333.62109375)"/>
<path d="M0 0 C1.20916077 -0.00361794 1.20916077 -0.00361794 2.44274902 -0.00730896 C4.14401172 -0.00633115 5.84530649 0.00704697 7.54638672 0.03198242 C10.14791119 0.06629626 12.7460387 0.05264021 15.34765625 0.03320312 C17.0026186 0.04010181 18.6575722 0.0497744 20.3125 0.0625 C21.08863647 0.05754013 21.86477295 0.05258026 22.66442871 0.04747009 C25.98949172 0.11984512 28.28995834 0.40611583 31.15332031 2.14770508 C33.28549582 5.66773426 33.15424661 8.9064877 33.046875 12.89453125 C33.04121521 13.68792908 33.03555542 14.4813269 33.02972412 15.29876709 C33.00738147 17.82610098 32.95719176 20.3520029 32.90625 22.87890625 C32.88618214 24.59503157 32.86793187 26.31117917 32.8515625 28.02734375 C32.80752395 32.22841405 32.73851326 36.4284176 32.65625 40.62890625 C33.53361816 40.6131958 34.41098633 40.59748535 35.31494141 40.58129883 C38.59136952 40.52996249 41.86736598 40.49245628 45.14404297 40.46411133 C46.55817437 40.449088 47.97225968 40.4286632 49.38623047 40.40258789 C51.42687397 40.36591671 53.46689792 40.34911589 55.5078125 40.3359375 C56.73322754 40.32022705 57.95864258 40.3045166 59.22119141 40.28833008 C63.09746912 40.67265186 65.39410942 41.51316597 68.65625 43.62890625 C70.38452148 45.8359375 70.38452148 45.8359375 71.77734375 48.44140625 C72.57966431 49.909729 72.57966431 49.909729 73.39819336 51.40771484 C73.95772705 52.47070801 74.51726074 53.53370117 75.09375 54.62890625 C76.33314378 56.91286329 77.57273367 59.19671392 78.8125 61.48046875 C79.45355155 62.67457579 80.09417444 63.86891306 80.734375 65.06347656 C83.78771815 70.74694631 86.94933003 76.37051474 90.09375 82.00390625 C91.34313985 84.2522198 92.59183263 86.50092084 93.83984375 88.75 C94.77546143 90.43585205 94.77546143 90.43585205 95.72998047 92.15576172 C97.38025429 95.13127444 99.02937392 98.10742014 100.67774963 101.08398438 C102.01518537 103.49862049 103.35362201 105.91270107 104.69216919 108.32672119 C105.61925793 109.99965402 106.54488889 111.67339446 107.47045898 113.34716797 C111.00058919 119.71333211 114.62471326 126.00850664 118.37109375 132.25024414 C119.65625 134.62890625 119.65625 134.62890625 119.65625 136.62890625 C120.26509033 136.61843262 120.87393066 136.60795898 121.5012207 136.59716797 C154.34465032 136.10627194 154.34465032 136.10627194 167.5390625 148.2734375 C175.09260995 156.67710745 176.65625 164.43506386 176.65625 175.62890625 C103.06625 175.62890625 29.47625 175.62890625 -46.34375 175.62890625 C-46.34375 131.07890625 -46.34375 86.52890625 -46.34375 40.62890625 C-35.12375 40.62890625 -23.90375 40.62890625 -12.34375 40.62890625 C-12.39015625 38.16035156 -12.4365625 35.69179687 -12.484375 33.1484375 C-12.51559904 30.74896296 -12.53987046 28.34951133 -12.56347656 25.94995117 C-12.58355207 24.28643612 -12.61081876 22.62299129 -12.64550781 20.9597168 C-12.69420766 18.56411385 -12.71675856 16.16944633 -12.734375 13.7734375 C-12.75502014 13.03366165 -12.77566528 12.2938858 -12.79693604 11.5316925 C-12.79842105 8.08931397 -12.40115286 5.74233192 -10.84082031 2.65917969 C-7.37367973 -0.1598212 -4.2807599 -0.0731253 0 0 Z " fill="#CCD8DE" transform="translate(335.34375,125.37109375)"/>
<path d="M0 0 C12.35325418 9.27349552 21.47166534 20.49625055 26.8203125 35.1171875 C27.20872314 36.17631348 27.20872314 36.17631348 27.60498047 37.25683594 C29.84295372 43.9058293 30.29300071 50.00748043 30.1953125 56.9921875 C30.17791016 58.58643555 30.17791016 58.58643555 30.16015625 60.21289062 C29.74870697 79.90194869 21.42054005 97.04835103 7.2578125 110.6796875 C-8.28273301 124.09042933 -26.43619562 129.7925265 -46.79003906 128.35644531 C-66.04637635 126.42845077 -82.40347264 116.50501947 -95.0078125 102.0234375 C-108.04598418 84.57667539 -111.69234977 64.36366243 -108.89550781 42.94042969 C-105.37465053 25.24175034 -92.76024648 9.16484058 -78.1796875 -0.8828125 C-53.55277081 -15.87684909 -24.12421206 -16.3501693 0 0 Z " fill="#EB3453" transform="translate(184.1796875,155.8828125)"/>
<path d="M0 0 C0.74343155 -0.00817749 1.4868631 -0.01635498 2.25282288 -0.02478027 C4.712323 -0.04958739 7.17176566 -0.06613646 9.63134766 -0.08056641 C10.47186298 -0.08589008 11.31237831 -0.09121376 12.1783638 -0.09669876 C16.6255731 -0.12340748 21.07275451 -0.14279134 25.52001953 -0.15722656 C29.20028472 -0.17057767 32.87999701 -0.19845438 36.56005859 -0.23925781 C41.00506098 -0.28854108 45.44956104 -0.31334181 49.89482498 -0.32045364 C51.58772898 -0.32716992 53.2806216 -0.3424019 54.9733696 -0.36634445 C57.34351862 -0.397961 59.71172678 -0.39803934 62.08203125 -0.390625 C62.7793486 -0.40703033 63.47666595 -0.42343567 64.19511414 -0.44033813 C68.02087518 -0.39140953 69.55074373 0.09385077 72.5380249 2.56573486 C74.6530634 5.17149959 76.31192896 7.69081558 77.91259766 10.63818359 C78.49678467 11.70254639 79.08097168 12.76690918 79.68286133 13.86352539 C80.29750244 15.00345947 80.91214355 16.14339355 81.54541016 17.31787109 C82.19727044 18.51212379 82.85003705 19.70588219 83.50366211 20.89916992 C84.86777949 23.39092618 86.22793182 25.88479113 87.5859375 28.37988281 C89.6501429 32.16484492 91.74386876 35.93288172 93.84619141 39.69677734 C94.35375977 40.60608002 94.35375977 40.60608002 94.87158203 41.53375244 C96.49549752 44.44228848 98.12056041 47.3501802 99.74609375 50.2578125 C101.40046118 53.22931964 103.04180228 56.20717863 104.67041016 59.19287109 C105.10450195 59.98588623 105.53859375 60.77890137 105.98583984 61.59594727 C108.4540361 66.27635872 109.15367233 69.00145349 107.67041016 74.19287109 C105.28371389 75.38621923 103.8069954 75.32633984 101.14239502 75.34004211 C100.18910309 75.34719742 99.23581116 75.35435272 98.25363159 75.36172485 C96.67958054 75.36575821 96.67958054 75.36575821 95.07373047 75.36987305 C93.97116913 75.37644424 92.86860779 75.38301544 91.7326355 75.38978577 C88.07126809 75.40955238 84.40994176 75.42118892 80.74853516 75.43115234 C79.5001461 75.43522787 78.25175705 75.4393034 76.96553802 75.44350243 C71.03991413 75.46222335 65.11430334 75.47678566 59.18865705 75.4851144 C52.35260963 75.49488165 45.51688646 75.52118649 38.68095326 75.56161529 C32.7574906 75.5954428 26.83410716 75.60726185 20.91054535 75.61131859 C18.3923396 75.61619523 15.87413757 75.62783967 13.35599518 75.64635658 C9.83195595 75.67065918 6.30876504 75.6697987 2.78466797 75.6628418 C1.2227623 75.68205688 1.2227623 75.68205688 -0.37069702 75.70166016 C-6.36176835 75.65853125 -9.7594578 75.1677269 -14.32958984 71.19287109 C-18.19497366 66.90960794 -19.44401351 63.88899021 -19.5065918 58.17407227 C-19.51942703 57.15258591 -19.53226227 56.13109955 -19.54548645 55.07865906 C-19.55287338 53.97552872 -19.56026031 52.87239838 -19.56787109 51.73583984 C-19.57594284 50.60012039 -19.58401459 49.46440094 -19.59233093 48.29426575 C-19.60616777 45.88930792 -19.61689171 43.48433048 -19.62475586 41.0793457 C-19.6419734 37.40521996 -19.68586523 33.73199287 -19.72998047 30.05810547 C-19.74010708 27.72152354 -19.74862328 25.38493397 -19.75537109 23.04833984 C-19.77287918 21.9512822 -19.79038727 20.85422455 -19.8084259 19.72392273 C-19.79089007 13.54445777 -19.48916097 9.8788738 -15.32958984 5.19287109 C-10.32375797 0.67541306 -6.5473284 0.0397671 0 0 Z " fill="#34B9EE" transform="translate(348.32958984375,197.80712890625)"/>
<path d="M0 0 C0.67671753 -0.00287018 1.35343506 -0.00574036 2.05065918 -0.00869751 C3.47958209 -0.01073647 4.90853302 -0.00521819 6.33740234 0.00732422 C8.52374725 0.02338239 10.70824379 0.00747216 12.89453125 -0.01171875 C14.28385824 -0.00973629 15.67318409 -0.00589254 17.0625 0 C18.32642578 0.00338379 19.59035156 0.00676758 20.89257812 0.01025391 C24.03125 0.3984375 24.03125 0.3984375 25.94848633 1.67260742 C27.26174616 3.76582811 27.37968908 4.9509717 27.32421875 7.41015625 C27.3097168 8.54614258 27.3097168 8.54614258 27.29492188 9.70507812 C27.26978516 10.49076172 27.24464844 11.27644531 27.21875 12.0859375 C27.19844727 13.28186523 27.19844727 13.28186523 27.17773438 14.50195312 C27.14242089 16.46773717 27.08861447 18.43317332 27.03125 20.3984375 C28.22363281 20.36363281 29.41601562 20.32882813 30.64453125 20.29296875 C32.21092342 20.26482997 33.77733081 20.2375299 35.34375 20.2109375 C36.12943359 20.18580078 36.91511719 20.16066406 37.72460938 20.13476562 C38.48193359 20.12509766 39.23925781 20.11542969 40.01953125 20.10546875 C41.06427612 20.08190308 41.06427612 20.08190308 42.13012695 20.05786133 C44.03125 20.3984375 44.03125 20.3984375 45.75708008 21.49487305 C47.66968857 24.35224197 47.42024476 26.73825997 47.4296875 30.1484375 C47.43255768 30.80295898 47.43542786 31.45748047 47.43838501 32.13183594 C47.44042368 33.51368069 47.43490746 34.89555443 47.42236328 36.27734375 C47.40630436 38.391282 47.42221601 40.50330863 47.44140625 42.6171875 C47.43942378 43.96094172 47.43558002 45.30469474 47.4296875 46.6484375 C47.42630371 47.87046875 47.42291992 49.0925 47.41943359 50.3515625 C47.03125 53.3984375 47.03125 53.3984375 45.75708008 55.30200195 C43.66299537 56.63239302 42.48779312 56.74708133 40.01953125 56.69140625 C39.26220703 56.68173828 38.50488281 56.67207031 37.72460938 56.66210938 C36.93892578 56.63697266 36.15324219 56.61183594 35.34375 56.5859375 C34.14782227 56.56563477 34.14782227 56.56563477 32.92773438 56.54492188 C30.96195033 56.50960839 28.99651418 56.45580197 27.03125 56.3984375 C27.08345703 58.18701172 27.08345703 58.18701172 27.13671875 60.01171875 C27.16485753 61.57811092 27.1921576 63.14451831 27.21875 64.7109375 C27.24388672 65.49662109 27.26902344 66.28230469 27.29492188 67.09179688 C27.30458984 67.84912109 27.31425781 68.60644531 27.32421875 69.38671875 C27.3399292 70.08321533 27.35563965 70.77971191 27.37182617 71.49731445 C27.03125 73.3984375 27.03125 73.3984375 25.94848633 75.12426758 C23.03102156 77.0631761 20.53409211 76.78758083 17.0625 76.796875 C16.38578247 76.79974518 15.70906494 76.80261536 15.01184082 76.80557251 C13.58291791 76.80761147 12.15396698 76.80209319 10.72509766 76.78955078 C8.53875275 76.77349261 6.35425621 76.78940284 4.16796875 76.80859375 C2.77864176 76.80661129 1.38931591 76.80276754 0 76.796875 C-1.26392578 76.79349121 -2.52785156 76.79010742 -3.83007812 76.78662109 C-6.96875 76.3984375 -6.96875 76.3984375 -8.88598633 75.12426758 C-10.19924616 73.03104689 -10.31718908 71.8459033 -10.26171875 69.38671875 C-10.25205078 68.62939453 -10.24238281 67.87207031 -10.23242188 67.09179688 C-10.20728516 66.30611328 -10.18214844 65.52042969 -10.15625 64.7109375 C-10.14271484 63.91365234 -10.12917969 63.11636719 -10.11523438 62.29492188 C-10.07992089 60.32913783 -10.02611447 58.36370168 -9.96875 56.3984375 C-11.16113281 56.43324219 -12.35351562 56.46804687 -13.58203125 56.50390625 C-15.14842342 56.53204503 -16.71483081 56.5593451 -18.28125 56.5859375 C-19.45977539 56.62364258 -19.45977539 56.62364258 -20.66210938 56.66210938 C-21.41943359 56.67177734 -22.17675781 56.68144531 -22.95703125 56.69140625 C-23.65352783 56.7071167 -24.35002441 56.72282715 -25.06762695 56.73901367 C-26.96875 56.3984375 -26.96875 56.3984375 -28.69458008 55.30200195 C-30.60718857 52.44463303 -30.35774476 50.05861503 -30.3671875 46.6484375 C-30.37005768 45.99391602 -30.37292786 45.33939453 -30.37588501 44.66503906 C-30.37792368 43.28319431 -30.37240746 41.90132057 -30.35986328 40.51953125 C-30.34380436 38.405593 -30.35971601 36.29356637 -30.37890625 34.1796875 C-30.37692378 32.83593328 -30.37308002 31.49218026 -30.3671875 30.1484375 C-30.36380371 28.92640625 -30.36041992 27.704375 -30.35693359 26.4453125 C-29.96875 23.3984375 -29.96875 23.3984375 -28.69458008 21.49487305 C-26.60049537 20.16448198 -25.42529312 20.04979367 -22.95703125 20.10546875 C-22.19970703 20.11513672 -21.44238281 20.12480469 -20.66210938 20.13476562 C-19.87642578 20.15990234 -19.09074219 20.18503906 -18.28125 20.2109375 C-17.08532227 20.23124023 -17.08532227 20.23124023 -15.86523438 20.25195312 C-13.89945033 20.28726661 -11.93401418 20.34107303 -9.96875 20.3984375 C-10.00355469 19.20605469 -10.03835937 18.01367188 -10.07421875 16.78515625 C-10.10235753 15.21876408 -10.1296576 13.65235669 -10.15625 12.0859375 C-10.18138672 11.30025391 -10.20652344 10.51457031 -10.23242188 9.70507812 C-10.24208984 8.94775391 -10.25175781 8.19042969 -10.26171875 7.41015625 C-10.2774292 6.71365967 -10.29313965 6.01716309 -10.30932617 5.29956055 C-9.96875 3.3984375 -9.96875 3.3984375 -8.88598633 1.67260742 C-5.96852156 -0.2663011 -3.47159211 0.00929417 0 0 Z " fill="#FDFBFB" transform="translate(135.96875,175.6015625)"/>
<path d="M0 0 C7.83343507 4.23536574 14.18976505 11.17427305 17.3671875 19.49609375 C19.03070071 28.11611673 18.08873998 35.82485322 13.6484375 43.484375 C8.9380514 50.09446871 2.22708914 55.57412309 -5.9453125 57.05859375 C-15.26988943 58.16799372 -22.17310728 56.3225475 -29.9453125 51.05859375 C-36.35728092 45.6517447 -40.17153093 38.6346073 -41.32421875 30.328125 C-41.68888268 21.98790797 -39.38068465 14.80573119 -34.1953125 8.24609375 C-25.48944916 -1.12433931 -12.12351014 -3.87502115 0 0 Z " fill="#FBFBFB" transform="translate(125.9453125,351.94140625)"/>
<path d="M0 0 C1.75 1.12109375 1.75 1.12109375 3.3125 2.3125 C4.364375 3.055 5.41625 3.7975 6.5 4.5625 C12.80654233 10.72889694 16.30252499 17.70807485 16.6875 26.5625 C16.48701492 35.25411767 13.29855178 42.22920005 7.3828125 48.5546875 C0.04892647 54.78157187 -8.26771719 57.05184342 -17.6875 56.3125 C-26.63305697 54.57635572 -33.49340611 49.61736121 -38.6796875 42.21875 C-41.3895206 37.09317421 -42.07605798 32.16777994 -42.0625 26.4375 C-42.06088867 25.73004639 -42.05927734 25.02259277 -42.05761719 24.29370117 C-41.92611397 18.70159124 -40.97832023 14.79581257 -37.6875 10.3125 C-37.130625 9.44625 -36.57375 8.58 -36 7.6875 C-27.13014787 -1.42207787 -12.03191361 -5.82795816 0 0 Z " fill="#FBFBFC" transform="translate(410.6875,352.6875)"/>
<path d="M0 0 C0.80610718 -0.00241196 1.61221436 -0.00482391 2.44274902 -0.00730896 C4.14401172 -0.00633115 5.84530649 0.00704697 7.54638672 0.03198242 C10.14791119 0.06629626 12.7460387 0.05264021 15.34765625 0.03320312 C17.0026186 0.04010181 18.6575722 0.0497744 20.3125 0.0625 C21.08863647 0.05754013 21.86477295 0.05258026 22.66442871 0.04747009 C25.98118428 0.1196643 28.29071992 0.40858039 31.15332031 2.1340332 C33.31156407 5.71673186 33.15346415 9.0586971 33.046875 13.11328125 C33.04284668 13.83660645 33.03881836 14.55993164 33.03466797 15.30517578 C33.0138036 17.99667881 32.95795768 20.68781907 32.90625 23.37890625 C32.82375 29.40140625 32.74125 35.42390625 32.65625 41.62890625 C17.80625 41.62890625 2.95625 41.62890625 -12.34375 41.62890625 C-12.42625 35.79203125 -12.50875 29.95515625 -12.59375 23.94140625 C-12.63016602 22.10747314 -12.66658203 20.27354004 -12.70410156 18.3840332 C-12.71579094 16.92009652 -12.72598218 15.45614679 -12.734375 13.9921875 C-12.7650708 12.86460022 -12.7650708 12.86460022 -12.79638672 11.7142334 C-12.79870567 8.21087166 -12.42374508 5.78770091 -10.84082031 2.64550781 C-7.37132391 -0.15641243 -4.2737138 -0.07300493 0 0 Z " fill="#EB3352" transform="translate(335.34375,125.37109375)"/>
<path d="M0 0 C1.1149585 -0.00430527 1.1149585 -0.00430527 2.25244141 -0.00869751 C3.8225989 -0.01073726 5.39278186 -0.0052135 6.96289062 0.00732422 C9.36646332 0.02338047 11.76835461 0.00747398 14.171875 -0.01171875 C15.69792038 -0.0097363 17.22396471 -0.00589259 18.75 0 C19.46881348 -0.00607269 20.18762695 -0.01214539 20.92822266 -0.0184021 C23.72277456 0.02099383 25.87854558 0.11089885 28.32666016 1.52880859 C29.87348912 4.28745233 29.76407563 6.56178216 29.7734375 9.7109375 C29.77923828 11.57105469 29.77923828 11.57105469 29.78515625 13.46875 C29.77355469 14.76554688 29.76195312 16.06234375 29.75 17.3984375 C29.76160156 18.69523437 29.77320313 19.99203125 29.78515625 21.328125 C29.78128906 22.56820312 29.77742188 23.80828125 29.7734375 25.0859375 C29.77005371 26.22417969 29.76666992 27.36242187 29.76318359 28.53515625 C29.375 31.3984375 29.375 31.3984375 28.32666016 33.26806641 C25.27917398 35.03312282 22.17499197 34.82581008 18.75 34.796875 C17.6350415 34.80118027 17.6350415 34.80118027 16.49755859 34.80557251 C14.9274011 34.80761226 13.35721814 34.8020885 11.78710938 34.78955078 C9.38353668 34.77349453 6.98164539 34.78940102 4.578125 34.80859375 C3.05207962 34.8066113 1.52603529 34.80276759 0 34.796875 C-0.71881348 34.80294769 -1.43762695 34.80902039 -2.17822266 34.8152771 C-4.97277456 34.77588117 -7.12854558 34.68597615 -9.57666016 33.26806641 C-11.12348912 30.50942267 -11.01407563 28.23509284 -11.0234375 25.0859375 C-11.02730469 23.84585938 -11.03117188 22.60578125 -11.03515625 21.328125 C-11.02355469 20.03132813 -11.01195312 18.73453125 -11 17.3984375 C-11.01160156 16.10164062 -11.02320313 14.80484375 -11.03515625 13.46875 C-11.03128906 12.22867188 -11.02742187 10.98859375 -11.0234375 9.7109375 C-11.02005371 8.57269531 -11.01666992 7.43445313 -11.01318359 6.26171875 C-10.625 3.3984375 -10.625 3.3984375 -9.57666016 1.52880859 C-6.52917398 -0.23624782 -3.42499197 -0.02893508 0 0 Z " fill="#EB3453" transform="translate(236.625,143.6015625)"/>
<path d="M0 0 C1.1149585 -0.00430527 1.1149585 -0.00430527 2.25244141 -0.00869751 C3.8225989 -0.01073726 5.39278186 -0.0052135 6.96289062 0.00732422 C9.36646332 0.02338047 11.76835461 0.00747398 14.171875 -0.01171875 C15.69792038 -0.0097363 17.22396471 -0.00589259 18.75 0 C19.46881348 -0.00607269 20.18762695 -0.01214539 20.92822266 -0.0184021 C23.72277456 0.02099383 25.87854558 0.11089885 28.32666016 1.52880859 C29.87348912 4.28745233 29.76407563 6.56178216 29.7734375 9.7109375 C29.77923828 11.57105469 29.77923828 11.57105469 29.78515625 13.46875 C29.77355469 14.76554688 29.76195312 16.06234375 29.75 17.3984375 C29.76160156 18.69523437 29.77320313 19.99203125 29.78515625 21.328125 C29.78128906 22.56820312 29.77742188 23.80828125 29.7734375 25.0859375 C29.77005371 26.22417969 29.76666992 27.36242187 29.76318359 28.53515625 C29.375 31.3984375 29.375 31.3984375 28.32666016 33.26806641 C25.27917398 35.03312282 22.17499197 34.82581008 18.75 34.796875 C17.6350415 34.80118027 17.6350415 34.80118027 16.49755859 34.80557251 C14.9274011 34.80761226 13.35721814 34.8020885 11.78710938 34.78955078 C9.38353668 34.77349453 6.98164539 34.78940102 4.578125 34.80859375 C3.05207962 34.8066113 1.52603529 34.80276759 0 34.796875 C-0.71881348 34.80294769 -1.43762695 34.80902039 -2.17822266 34.8152771 C-4.97277456 34.77588117 -7.12854558 34.68597615 -9.57666016 33.26806641 C-11.12348912 30.50942267 -11.01407563 28.23509284 -11.0234375 25.0859375 C-11.02730469 23.84585938 -11.03117187 22.60578125 -11.03515625 21.328125 C-11.02355469 20.03132813 -11.01195313 18.73453125 -11 17.3984375 C-11.01160156 16.10164062 -11.02320312 14.80484375 -11.03515625 13.46875 C-11.03128906 12.22867188 -11.02742188 10.98859375 -11.0234375 9.7109375 C-11.02005371 8.57269531 -11.01666992 7.43445313 -11.01318359 6.26171875 C-10.625 3.3984375 -10.625 3.3984375 -9.57666016 1.52880859 C-6.52917398 -0.23624782 -3.42499197 -0.02893508 0 0 Z " fill="#EB3453" transform="translate(33.625,143.6015625)"/>
<path d="M0 0 C2.59827952 1.73118537 4.66459568 3.87178224 6.8125 6.125 C7.39708984 6.69476563 7.98167969 7.26453125 8.58398438 7.8515625 C12.00727092 11.34228343 14.02178385 13.87353392 14 19 C13.34 19.99 12.68 20.98 12 22 C8.52597923 22.65782819 6.15205933 22.73514897 3.1015625 20.78857422 C1.11722946 19.0970538 -0.69004016 17.31400248 -2.5 15.4375 C-3.14453125 14.82841797 -3.7890625 14.21933594 -4.453125 13.59179688 C-7.76117958 10.25193407 -8.99233926 8.9566351 -9.03125 4.09765625 C-8.6909375 3.07542969 -8.350625 2.05320312 -8 1 C-5.04003373 -0.47998313 -3.2981915 -0.44496311 0 0 Z " fill="#EC3351" transform="translate(298,95)"/>
<path d="M0 0 C2.6640625 0.5390625 2.6640625 0.5390625 4.6640625 2.5390625 C5.19328254 5.89078943 5.39516387 8.36500536 3.55029297 11.32763672 C1.98833992 13.1578818 0.34231088 14.81589236 -1.3984375 16.4765625 C-1.95982422 17.06501953 -2.52121094 17.65347656 -3.09960938 18.25976562 C-6.20945473 21.31985345 -7.69471262 22.45422352 -12.14453125 23.04296875 C-15.3359375 22.5390625 -15.3359375 22.5390625 -17.3359375 20.5390625 C-17.875 17.875 -17.875 17.875 -17.3359375 14.5390625 C-15.44122195 11.75218241 -13.13107234 9.49654658 -10.7109375 7.1640625 C-10.09347656 6.52339844 -9.47601563 5.88273437 -8.83984375 5.22265625 C-5.85831033 2.2787843 -4.21703201 0.68144077 0 0 Z " fill="#EC3352" transform="translate(397.3359375,94.4609375)"/>
<path d="M0 0 C3.5 -0.3125 3.5 -0.3125 7 0 C10.04822999 3.04822999 9.29337257 6.08805307 9.32226562 10.25390625 C9.31904297 11.32511719 9.31582031 12.39632812 9.3125 13.5 C9.32861328 14.57121094 9.34472656 15.64242187 9.36132812 16.74609375 C9.36197266 17.76832031 9.36261719 18.79054688 9.36328125 19.84375 C9.36775269 21.25430664 9.36775269 21.25430664 9.37231445 22.69335938 C9.1880188 23.83514648 9.1880188 23.83514648 9 25 C5.77856724 27.14762184 4.7404533 27.561068 1 27 C-1.67952482 24.1586865 -2.37772807 22.20651573 -2.36328125 18.33984375 C-2.36263672 17.46392578 -2.36199219 16.58800781 -2.36132812 15.68554688 C-2.34521484 14.77869141 -2.32910156 13.87183594 -2.3125 12.9375 C-2.31572266 12.02677734 -2.31894531 11.11605469 -2.32226562 10.17773438 C-2.26733262 3.40099893 -2.26733262 3.40099893 0 0 Z " fill="#EC3251" transform="translate(342,74)"/>
</svg>
