<svg xmlns="http://www.w3.org/2000/svg" xmlns:xlink="http://www.w3.org/1999/xlink" width="256" zoomAndPan="magnify" viewBox="0 0 192 191.999996" height="256" preserveAspectRatio="xMidYMid meet" version="1.0"><defs><clipPath id="36b04fe816"><path d="M 67.199219 67.199219 L 79.851562 67.199219 L 79.851562 109.167969 L 67.199219 109.167969 Z M 67.199219 67.199219 " clip-rule="nonzero"/></clipPath><clipPath id="a412f2d4fb"><path d="M 0.199219 0.199219 L 12.851562 0.199219 L 12.851562 42.167969 L 0.199219 42.167969 Z M 0.199219 0.199219 " clip-rule="nonzero"/></clipPath><clipPath id="49a0bc261f"><rect x="0" width="13" y="0" height="43"/></clipPath><clipPath id="5be9bd7f1c"><path d="M 0.253906 7.257812 L 192 7.257812 L 192 179.757812 L 0.253906 179.757812 Z M 0.253906 7.257812 " clip-rule="nonzero"/></clipPath></defs><g clip-path="url(#36b04fe816)"><g transform="matrix(1, 0, 0, 1, 67, 67)"><g clip-path="url(#49a0bc261f)"><g clip-path="url(#a412f2d4fb)"><path fill="#00bf63" d="M 0.199219 0.199219 L 12.851562 0.199219 L 12.851562 42.164062 L 0.199219 42.164062 Z M 0.199219 0.199219 " fill-opacity="1" fill-rule="nonzero"/></g></g></g></g><g clip-path="url(#5be9bd7f1c)"><path fill="#ff3131" d="M 87.359375 7.296875 C 84.558594 7.027344 81.746094 8.003906 79.691406 10.0625 L 34.628906 55.125 L 9.871094 55.125 C 4.585938 55.125 0.296875 59.414062 0.296875 64.699219 L 0.296875 122.140625 C 0.296875 127.425781 4.585938 131.714844 9.871094 131.714844 L 34.628906 131.714844 L 79.691406 176.777344 C 81.519531 178.605469 83.972656 179.582031 86.460938 179.582031 C 87.695312 179.582031 88.9375 179.34375 90.125 178.855469 C 93.695312 177.371094 96.035156 173.878906 96.035156 170.007812 L 96.035156 16.832031 C 96.035156 12.964844 93.695312 9.472656 90.125 7.988281 C 89.226562 7.613281 88.289062 7.386719 87.359375 7.296875 Z M 182.101562 54.996094 C 180.839844 55.027344 179.628906 55.296875 178.476562 55.804688 C 177.320312 56.3125 176.304688 57.019531 175.425781 57.929688 L 153.476562 79.882812 L 131.523438 57.929688 C 130.621094 57.003906 129.578125 56.289062 128.386719 55.789062 C 127.195312 55.285156 125.953125 55.035156 124.660156 55.035156 C 123.710938 55.035156 122.777344 55.171875 121.867188 55.449219 C 120.957031 55.730469 120.105469 56.132812 119.316406 56.667969 C 118.527344 57.199219 117.832031 57.832031 117.230469 58.574219 C 116.628906 59.3125 116.152344 60.121094 115.792969 61.003906 C 115.433594 61.886719 115.214844 62.800781 115.128906 63.75 C 115.042969 64.699219 115.097656 65.640625 115.292969 66.570312 C 115.488281 67.503906 115.816406 68.386719 116.273438 69.222656 C 116.734375 70.054688 117.304688 70.804688 117.984375 71.46875 L 139.9375 93.421875 L 117.984375 115.371094 C 117.527344 115.8125 117.117188 116.296875 116.753906 116.820312 C 116.390625 117.34375 116.082031 117.894531 115.828125 118.480469 C 115.574219 119.066406 115.382812 119.667969 115.25 120.292969 C 115.117188 120.914062 115.050781 121.546875 115.042969 122.183594 C 115.035156 122.820312 115.09375 123.449219 115.210938 124.074219 C 115.332031 124.703125 115.511719 125.308594 115.753906 125.898438 C 115.992188 126.488281 116.289062 127.046875 116.644531 127.578125 C 116.996094 128.109375 117.398438 128.597656 117.847656 129.050781 C 118.296875 129.5 118.789062 129.902344 119.316406 130.253906 C 119.847656 130.605469 120.410156 130.902344 121 131.144531 C 121.585938 131.382812 122.195312 131.5625 122.820312 131.683594 C 123.445312 131.804688 124.078125 131.859375 124.714844 131.851562 C 125.351562 131.847656 125.980469 131.777344 126.605469 131.644531 C 127.226562 131.511719 127.832031 131.320312 128.414062 131.066406 C 129 130.816406 129.554688 130.507812 130.078125 130.144531 C 130.601562 129.78125 131.082031 129.371094 131.523438 128.910156 L 153.476562 106.957031 L 175.425781 128.910156 C 175.867188 129.371094 176.351562 129.78125 176.875 130.144531 C 177.398438 130.507812 177.949219 130.816406 178.535156 131.066406 C 179.121094 131.320312 179.722656 131.511719 180.347656 131.644531 C 180.96875 131.777344 181.601562 131.847656 182.238281 131.851562 C 182.875 131.859375 183.503906 131.804688 184.128906 131.683594 C 184.753906 131.5625 185.363281 131.382812 185.953125 131.144531 C 186.542969 130.902344 187.101562 130.605469 187.632812 130.253906 C 188.164062 129.902344 188.652344 129.5 189.105469 129.050781 C 189.554688 128.597656 189.957031 128.109375 190.308594 127.578125 C 190.660156 127.046875 190.957031 126.488281 191.199219 125.898438 C 191.4375 125.308594 191.617188 124.703125 191.738281 124.074219 C 191.859375 123.449219 191.914062 122.820312 191.90625 122.183594 C 191.902344 121.546875 191.832031 120.914062 191.699219 120.292969 C 191.566406 119.667969 191.375 119.066406 191.121094 118.480469 C 190.871094 117.894531 190.5625 117.34375 190.199219 116.820312 C 189.835938 116.296875 189.425781 115.8125 188.964844 115.371094 L 167.011719 93.421875 L 188.964844 71.46875 C 189.660156 70.800781 190.242188 70.042969 190.707031 69.199219 C 191.175781 68.355469 191.507812 67.460938 191.703125 66.519531 C 191.898438 65.574219 191.953125 64.621094 191.859375 63.660156 C 191.769531 62.703125 191.539062 61.777344 191.167969 60.886719 C 190.796875 59.996094 190.300781 59.179688 189.683594 58.4375 C 189.066406 57.699219 188.355469 57.066406 187.546875 56.539062 C 186.738281 56.015625 185.867188 55.621094 184.941406 55.355469 C 184.011719 55.09375 183.066406 54.972656 182.101562 54.996094 Z M 182.101562 54.996094 " fill-opacity="1" fill-rule="nonzero"/></g></svg>