<svg xmlns="http://www.w3.org/2000/svg" xmlns:xlink="http://www.w3.org/1999/xlink" width="256" zoomAndPan="magnify" viewBox="0 0 192 191.999996" height="256" preserveAspectRatio="xMidYMid meet" version="1.0"><defs><clipPath id="227d5249af"><path d="M 0 22.199219 L 87 22.199219 L 87 169.949219 L 0 169.949219 Z M 0 22.199219 " clip-rule="nonzero"/></clipPath><clipPath id="f8e9483e2b"><path d="M 67.199219 67.199219 L 79.851562 67.199219 L 79.851562 109.167969 L 67.199219 109.167969 Z M 67.199219 67.199219 " clip-rule="nonzero"/></clipPath><clipPath id="bbbaa6268d"><path d="M 0.199219 0.199219 L 12.851562 0.199219 L 12.851562 42.167969 L 0.199219 42.167969 Z M 0.199219 0.199219 " clip-rule="nonzero"/></clipPath><clipPath id="d46925d40d"><rect x="0" width="13" y="0" height="43"/></clipPath></defs><g clip-path="url(#227d5249af)"><path fill="#00bf63" d="M 84.089844 23.007812 C 82.597656 22.289062 80.816406 22.492188 79.511719 23.53125 L 37.433594 57.191406 L 4.339844 57.191406 C 1.953125 57.191406 0.0117188 59.132812 0.0117188 61.519531 L 0.0117188 130.75 C 0.0117188 133.140625 1.953125 135.074219 4.339844 135.074219 L 37.433594 135.074219 L 79.515625 168.742188 C 80.296875 169.367188 81.257812 169.6875 82.21875 169.6875 C 82.851562 169.6875 83.492188 169.550781 84.089844 169.261719 C 85.59375 168.539062 86.542969 167.023438 86.542969 165.363281 L 86.542969 26.90625 C 86.542969 25.246094 85.59375 23.726562 84.089844 23.007812 Z M 84.089844 23.007812 " fill-opacity="1" fill-rule="nonzero"/></g><path fill="#00bf63" d="M 119.890625 67.980469 C 118.199219 66.289062 115.464844 66.289062 113.773438 67.980469 C 112.082031 69.671875 112.082031 72.410156 113.773438 74.097656 C 119.496094 79.820312 122.652344 87.429688 122.652344 95.515625 C 122.652344 103.601562 119.496094 111.203125 113.773438 116.933594 C 112.082031 118.625 112.082031 121.359375 113.773438 123.050781 C 114.617188 123.894531 115.722656 124.320312 116.832031 124.320312 C 117.9375 124.320312 119.046875 123.894531 119.890625 123.050781 C 127.25 115.691406 131.304688 105.914062 131.304688 95.515625 C 131.304688 85.117188 127.253906 75.339844 119.890625 67.980469 Z M 119.890625 67.980469 " fill-opacity="1" fill-rule="nonzero"/><path fill="#00bf63" d="M 156.605469 31.265625 C 154.914062 29.574219 152.179688 29.574219 150.488281 31.265625 C 148.796875 32.960938 148.796875 35.695312 150.488281 37.386719 C 182.539062 69.4375 182.539062 121.59375 150.488281 153.648438 C 148.796875 155.339844 148.796875 158.074219 150.488281 159.769531 C 151.332031 160.613281 152.441406 161.035156 153.546875 161.035156 C 154.65625 161.035156 155.761719 160.613281 156.605469 159.769531 C 192.027344 124.339844 192.027344 66.691406 156.605469 31.265625 Z M 156.605469 31.265625 " fill-opacity="1" fill-rule="nonzero"/><path fill="#00bf63" d="M 138.253906 49.621094 C 136.5625 47.929688 133.828125 47.929688 132.136719 49.621094 C 130.441406 51.3125 130.441406 54.046875 132.136719 55.738281 C 142.765625 66.375 148.625 80.496094 148.625 95.511719 C 148.625 110.523438 142.765625 124.652344 132.136719 135.28125 C 130.441406 136.972656 130.441406 139.707031 132.136719 141.402344 C 132.980469 142.246094 134.085938 142.667969 135.195312 142.667969 C 136.300781 142.667969 137.410156 142.246094 138.253906 141.402344 C 150.519531 129.132812 157.273438 112.835938 157.273438 95.511719 C 157.273438 78.1875 150.519531 61.886719 138.253906 49.621094 Z M 138.253906 49.621094 " fill-opacity="1" fill-rule="nonzero"/><g clip-path="url(#f8e9483e2b)"><g transform="matrix(1, 0, 0, 1, 67, 67)"><g clip-path="url(#d46925d40d)"><g clip-path="url(#bbbaa6268d)"><path fill="#00bf63" d="M 0.199219 0.199219 L 12.851562 0.199219 L 12.851562 42.164062 L 0.199219 42.164062 Z M 0.199219 0.199219 " fill-opacity="1" fill-rule="nonzero"/></g></g></g></g></svg>