<svg xmlns="http://www.w3.org/2000/svg" xmlns:xlink="http://www.w3.org/1999/xlink" width="40" zoomAndPan="magnify" viewBox="0 0 30 30.000001" height="40" preserveAspectRatio="xMidYMid meet" version="1.0"><defs><g/><clipPath id="066394bff6"><path d="M 19 8.375 L 20 8.375 L 20 17 L 19 17 Z M 19 8.375 " clip-rule="nonzero"/></clipPath><clipPath id="f9d1ebbaca"><path d="M 20 8.375 L 27 8.375 L 27 11 L 20 11 Z M 20 8.375 " clip-rule="nonzero"/></clipPath><clipPath id="1b7737a1f2"><path d="M 20 10 L 29.515625 10 L 29.515625 22 L 20 22 Z M 20 10 " clip-rule="nonzero"/></clipPath><clipPath id="0d9c7a405d"><path d="M 21 18 L 27 18 L 27 21.214844 L 21 21.214844 Z M 21 18 " clip-rule="nonzero"/></clipPath><clipPath id="6c84405ec9"><path d="M 27.863281 15.296875 L 27.957031 15.308594 C 28.59375 15.382812 29.074219 15.917969 29.074219 16.554688 L 29.074219 21.214844 L 20.875 21.214844 C 20.742188 21.214844 20.617188 21.160156 20.523438 21.070312 C 20.433594 20.976562 20.378906 20.851562 20.382812 20.722656 C 20.390625 18.980469 20.417969 13.121094 20.425781 11.382812 C 20.429688 11.109375 20.648438 10.890625 20.921875 10.890625 C 22.355469 10.890625 26.414062 10.890625 26.414062 10.890625 C 26.753906 10.890625 27.042969 11.128906 27.109375 11.460938 Z M 27.863281 15.296875 " clip-rule="evenodd"/></clipPath><clipPath id="1583818d28"><path d="M 26 11 L 29 11 L 29 16 L 26 16 Z M 26 11 " clip-rule="nonzero"/></clipPath><clipPath id="61cfe87e68"><path d="M 27.863281 15.296875 L 27.957031 15.308594 C 28.59375 15.382812 29.074219 15.917969 29.074219 16.554688 L 29.074219 21.214844 L 20.875 21.214844 C 20.742188 21.214844 20.617188 21.160156 20.523438 21.070312 C 20.433594 20.976562 20.378906 20.851562 20.382812 20.722656 C 20.390625 18.980469 20.417969 13.121094 20.425781 11.382812 C 20.429688 11.109375 20.648438 10.890625 20.921875 10.890625 C 22.355469 10.890625 26.414062 10.890625 26.414062 10.890625 C 26.753906 10.890625 27.042969 11.128906 27.109375 11.460938 Z M 27.863281 15.296875 " clip-rule="evenodd"/></clipPath><clipPath id="7e2dd09088"><path d="M 26 11 L 28 11 L 28 15 L 26 15 Z M 26 11 " clip-rule="nonzero"/></clipPath><clipPath id="17d50f00c3"><path d="M 27.863281 15.296875 L 27.957031 15.308594 C 28.59375 15.382812 29.074219 15.917969 29.074219 16.554688 L 29.074219 21.214844 L 20.875 21.214844 C 20.742188 21.214844 20.617188 21.160156 20.523438 21.070312 C 20.433594 20.976562 20.378906 20.851562 20.382812 20.722656 C 20.390625 18.980469 20.417969 13.121094 20.425781 11.382812 C 20.429688 11.109375 20.648438 10.890625 20.921875 10.890625 C 22.355469 10.890625 26.414062 10.890625 26.414062 10.890625 C 26.753906 10.890625 27.042969 11.128906 27.109375 11.460938 Z M 27.863281 15.296875 " clip-rule="evenodd"/></clipPath><clipPath id="211a9c0abb"><path d="M 26.242188 11.457031 L 27.742188 11.292969 L 28.1875 15.375 L 26.6875 15.539062 Z M 26.242188 11.457031 " clip-rule="nonzero"/></clipPath><clipPath id="2fb7940b7e"><path d="M 27.304688 11.425781 C 27.421875 11.410156 27.539062 11.445312 27.628906 11.519531 C 27.71875 11.59375 27.777344 11.699219 27.792969 11.816406 C 27.875 12.566406 28.042969 14.089844 28.125 14.839844 C 28.136719 14.957031 28.101562 15.074219 28.027344 15.164062 C 27.953125 15.253906 27.847656 15.3125 27.730469 15.324219 C 27.542969 15.34375 27.328125 15.367188 27.140625 15.390625 C 27.027344 15.402344 26.910156 15.367188 26.816406 15.292969 C 26.726562 15.222656 26.667969 15.113281 26.652344 15 C 26.570312 14.25 26.40625 12.722656 26.324219 11.972656 C 26.308594 11.855469 26.34375 11.742188 26.417969 11.648438 C 26.492188 11.558594 26.597656 11.5 26.714844 11.488281 C 26.902344 11.46875 27.117188 11.445312 27.304688 11.425781 Z M 27.304688 11.425781 " clip-rule="evenodd"/></clipPath><clipPath id="3770263e8d"><path d="M 26 12 L 29 12 L 29 16 L 26 16 Z M 26 12 " clip-rule="nonzero"/></clipPath><clipPath id="efc518cba5"><path d="M 27.863281 15.296875 L 27.957031 15.308594 C 28.59375 15.382812 29.074219 15.917969 29.074219 16.554688 L 29.074219 21.214844 L 20.875 21.214844 C 20.742188 21.214844 20.617188 21.160156 20.523438 21.070312 C 20.433594 20.976562 20.378906 20.851562 20.382812 20.722656 C 20.390625 18.980469 20.417969 13.121094 20.425781 11.382812 C 20.429688 11.109375 20.648438 10.890625 20.921875 10.890625 C 22.355469 10.890625 26.414062 10.890625 26.414062 10.890625 C 26.753906 10.890625 27.042969 11.128906 27.109375 11.460938 Z M 27.863281 15.296875 " clip-rule="evenodd"/></clipPath><clipPath id="fd1ee72ba8"><path d="M 26.242188 11.457031 L 27.742188 11.292969 L 28.1875 15.375 L 26.6875 15.539062 Z M 26.242188 11.457031 " clip-rule="nonzero"/></clipPath><clipPath id="29bc752a25"><path d="M 27.304688 11.425781 C 27.421875 11.410156 27.539062 11.445312 27.628906 11.519531 C 27.71875 11.59375 27.777344 11.699219 27.792969 11.816406 C 27.875 12.566406 28.042969 14.089844 28.125 14.839844 C 28.136719 14.957031 28.101562 15.074219 28.027344 15.164062 C 27.953125 15.253906 27.847656 15.3125 27.730469 15.324219 C 27.542969 15.34375 27.328125 15.367188 27.140625 15.390625 C 27.027344 15.402344 26.910156 15.367188 26.816406 15.292969 C 26.726562 15.222656 26.667969 15.113281 26.652344 15 C 26.570312 14.25 26.40625 12.722656 26.324219 11.972656 C 26.308594 11.855469 26.34375 11.742188 26.417969 11.648438 C 26.492188 11.558594 26.597656 11.5 26.714844 11.488281 C 26.902344 11.46875 27.117188 11.445312 27.304688 11.425781 Z M 27.304688 11.425781 " clip-rule="evenodd"/></clipPath><clipPath id="e0935837ff"><path d="M 20.375 15 L 29.085938 15 L 29.085938 17 L 20.375 17 Z M 20.375 15 " clip-rule="nonzero"/></clipPath><clipPath id="da8fa5431c"><path d="M 27.863281 15.296875 L 27.957031 15.308594 C 28.59375 15.382812 29.074219 15.917969 29.074219 16.554688 L 29.074219 21.214844 L 20.875 21.214844 C 20.742188 21.214844 20.617188 21.160156 20.523438 21.070312 C 20.433594 20.976562 20.378906 20.851562 20.382812 20.722656 C 20.390625 18.980469 20.417969 13.121094 20.425781 11.382812 C 20.429688 11.109375 20.648438 10.890625 20.921875 10.890625 C 22.355469 10.890625 26.414062 10.890625 26.414062 10.890625 C 26.753906 10.890625 27.042969 11.128906 27.109375 11.460938 Z M 27.863281 15.296875 " clip-rule="evenodd"/></clipPath><clipPath id="a1ca9bf373"><path d="M 20.375 16 L 29.085938 16 L 29.085938 17 L 20.375 17 Z M 20.375 16 " clip-rule="nonzero"/></clipPath><clipPath id="e01cd44689"><path d="M 27.863281 15.296875 L 27.957031 15.308594 C 28.59375 15.382812 29.074219 15.917969 29.074219 16.554688 L 29.074219 21.214844 L 20.875 21.214844 C 20.742188 21.214844 20.617188 21.160156 20.523438 21.070312 C 20.433594 20.976562 20.378906 20.851562 20.382812 20.722656 C 20.390625 18.980469 20.417969 13.121094 20.425781 11.382812 C 20.429688 11.109375 20.648438 10.890625 20.921875 10.890625 C 22.355469 10.890625 26.414062 10.890625 26.414062 10.890625 C 26.753906 10.890625 27.042969 11.128906 27.109375 11.460938 Z M 27.863281 15.296875 " clip-rule="evenodd"/></clipPath><clipPath id="36dd65e4d9"><path d="M 21 18 L 27 18 L 27 23.617188 L 21 23.617188 Z M 21 18 " clip-rule="nonzero"/></clipPath><clipPath id="1eae059187"><path d="M 3 18 L 9 18 L 9 23.617188 L 3 23.617188 Z M 3 18 " clip-rule="nonzero"/></clipPath><clipPath id="858f3eb84e"><path d="M 20.734375 11.445312 L 24 11.445312 L 24 15.472656 L 20.734375 15.472656 Z M 20.734375 11.445312 " clip-rule="nonzero"/></clipPath><clipPath id="c65ba1c74a"><path d="M 26.300781 14.890625 C 26.3125 15.015625 26.273438 15.136719 26.1875 15.230469 C 26.105469 15.324219 25.984375 15.375 25.859375 15.375 C 24.792969 15.375 22.292969 15.375 21.273438 15.375 C 21.027344 15.375 20.832031 15.179688 20.832031 14.9375 L 20.832031 11.964844 C 20.832031 11.847656 20.875 11.738281 20.960938 11.652344 C 21.042969 11.570312 21.15625 11.523438 21.273438 11.523438 C 22.253906 11.523438 24.597656 11.523438 25.539062 11.523438 C 25.765625 11.523438 25.953125 11.695312 25.980469 11.917969 C 26.054688 12.628906 26.21875 14.117188 26.300781 14.890625 Z M 26.300781 14.890625 " clip-rule="evenodd"/></clipPath><clipPath id="1d338a4754"><path d="M 23 11.445312 L 26 11.445312 L 26 15.472656 L 23 15.472656 Z M 23 11.445312 " clip-rule="nonzero"/></clipPath><clipPath id="1fa42412bf"><path d="M 26.300781 14.890625 C 26.3125 15.015625 26.273438 15.136719 26.1875 15.230469 C 26.105469 15.324219 25.984375 15.375 25.859375 15.375 C 24.792969 15.375 22.292969 15.375 21.273438 15.375 C 21.027344 15.375 20.832031 15.179688 20.832031 14.9375 L 20.832031 11.964844 C 20.832031 11.847656 20.875 11.738281 20.960938 11.652344 C 21.042969 11.570312 21.15625 11.523438 21.273438 11.523438 C 22.253906 11.523438 24.597656 11.523438 25.539062 11.523438 C 25.765625 11.523438 25.953125 11.695312 25.980469 11.917969 C 26.054688 12.628906 26.21875 14.117188 26.300781 14.890625 Z M 26.300781 14.890625 " clip-rule="evenodd"/></clipPath><clipPath id="b6e80488a4"><path d="M 0.484375 15 L 20 15 L 20 19 L 0.484375 19 Z M 0.484375 15 " clip-rule="nonzero"/></clipPath><clipPath id="a6cebc0d48"><path d="M 0.484375 15 L 21 15 L 21 16 L 0.484375 16 Z M 0.484375 15 " clip-rule="nonzero"/></clipPath><clipPath id="5e4a3ecea9"><path d="M 0.484375 18 L 3 18 L 3 19 L 0.484375 19 Z M 0.484375 18 " clip-rule="nonzero"/></clipPath><clipPath id="185164a8d3"><path d="M 28 18 L 29.515625 18 L 29.515625 20 L 28 20 Z M 28 18 " clip-rule="nonzero"/></clipPath><clipPath id="7984d1b5c4"><path d="M 28 20 L 29.515625 20 L 29.515625 22 L 28 22 Z M 28 20 " clip-rule="nonzero"/></clipPath><clipPath id="a295d295e4"><path d="M 29 16 L 29.515625 16 L 29.515625 22 L 29 22 Z M 29 16 " clip-rule="nonzero"/></clipPath><clipPath id="e4c60aa11c"><path d="M 0.652344 2 L 1.347656 2 L 1.347656 3 L 0.652344 3 Z M 0.652344 2 " clip-rule="nonzero"/></clipPath><clipPath id="655f1b8f7e"><rect x="0" width="2" y="0" height="4"/></clipPath></defs><g clip-path="url(#066394bff6)"><path fill="#ebe6e0" d="M 19.554688 8.382812 L 19.882812 8.382812 L 19.882812 16.636719 L 19.554688 16.636719 Z M 19.554688 8.382812 " fill-opacity="1" fill-rule="evenodd"/></g><path fill="#383838" d="M 2.542969 18.421875 L 25.671875 18.421875 L 25.671875 19.664062 L 2.542969 19.664062 Z M 2.542969 18.421875 " fill-opacity="1" fill-rule="evenodd"/><path fill="#383838" d="M 9.359375 20.496094 L 9.359375 21.214844 C 9.359375 21.503906 9.121094 21.742188 8.828125 21.742188 C 7.398438 21.742188 3.582031 21.742188 3.582031 21.742188 L 3.582031 20.496094 Z M 9.359375 20.496094 " fill-opacity="1" fill-rule="evenodd"/><path fill="#383838" d="M 2.421875 18.417969 L 2.730469 18.417969 L 2.730469 20.925781 L 2.421875 20.925781 Z M 2.421875 18.417969 " fill-opacity="1" fill-rule="evenodd"/><path fill="#383838" d="M 3.988281 19.449219 L 5.847656 19.449219 L 5.847656 20.695312 L 3.988281 20.695312 Z M 3.988281 19.449219 " fill-opacity="1" fill-rule="evenodd"/><g clip-path="url(#f9d1ebbaca)"><path fill="#992c1c" d="M 22.492188 8.714844 C 23.339844 8.714844 24.445312 9.101562 25.097656 9.425781 C 25.726562 9.734375 26.460938 10.320312 26.460938 10.902344 L 20.839844 10.902344 L 20.839844 8.714844 Z M 22.492188 8.714844 " fill-opacity="1" fill-rule="evenodd"/></g><g clip-path="url(#1b7737a1f2)"><path fill="#cf341c" d="M 27.863281 15.296875 L 27.957031 15.308594 C 28.59375 15.382812 29.074219 15.917969 29.074219 16.554688 L 29.074219 21.214844 L 20.875 21.214844 C 20.742188 21.214844 20.617188 21.160156 20.523438 21.070312 C 20.433594 20.976562 20.378906 20.851562 20.382812 20.722656 C 20.390625 18.980469 20.417969 13.121094 20.425781 11.382812 C 20.429688 11.109375 20.648438 10.890625 20.921875 10.890625 C 22.355469 10.890625 26.414062 10.890625 26.414062 10.890625 C 26.753906 10.890625 27.042969 11.128906 27.109375 11.460938 Z M 27.863281 15.296875 " fill-opacity="1" fill-rule="evenodd"/></g><g clip-path="url(#0d9c7a405d)"><g clip-path="url(#6c84405ec9)"><path fill="#000000" d="M 26.835938 21.160156 C 26.835938 21.539062 26.765625 21.902344 26.617188 22.253906 C 26.472656 22.605469 26.261719 22.917969 25.992188 23.183594 C 25.722656 23.453125 25.410156 23.660156 25.054688 23.804688 C 24.703125 23.953125 24.335938 24.023438 23.953125 24.023438 C 23.570312 24.023438 23.199219 23.953125 22.847656 23.804688 C 22.492188 23.660156 22.183594 23.453125 21.910156 23.183594 C 21.640625 22.917969 21.433594 22.605469 21.285156 22.253906 C 21.140625 21.902344 21.066406 21.539062 21.066406 21.160156 C 21.066406 20.777344 21.140625 20.414062 21.285156 20.0625 C 21.433594 19.710938 21.640625 19.402344 21.910156 19.132812 C 22.183594 18.863281 22.492188 18.65625 22.847656 18.511719 C 23.199219 18.363281 23.570312 18.292969 23.953125 18.292969 C 24.335938 18.292969 24.703125 18.363281 25.054688 18.511719 C 25.410156 18.65625 25.722656 18.863281 25.992188 19.132812 C 26.261719 19.402344 26.472656 19.710938 26.617188 20.0625 C 26.765625 20.414062 26.835938 20.777344 26.835938 21.160156 Z M 26.835938 21.160156 " fill-opacity="1" fill-rule="nonzero"/></g></g><g clip-path="url(#1583818d28)"><g clip-path="url(#61cfe87e68)"><path fill="#c2e8f1" d="M 27.304688 11.425781 C 27.421875 11.410156 27.539062 11.445312 27.628906 11.519531 C 27.71875 11.59375 27.777344 11.699219 27.792969 11.816406 C 27.875 12.566406 28.042969 14.089844 28.125 14.839844 C 28.136719 14.957031 28.101562 15.074219 28.027344 15.164062 C 27.953125 15.253906 27.847656 15.3125 27.730469 15.324219 C 27.542969 15.34375 27.328125 15.367188 27.140625 15.390625 C 27.027344 15.402344 26.910156 15.367188 26.816406 15.292969 C 26.726562 15.222656 26.667969 15.113281 26.652344 15 C 26.570312 14.25 26.40625 12.722656 26.324219 11.972656 C 26.308594 11.855469 26.34375 11.742188 26.417969 11.648438 C 26.492188 11.558594 26.597656 11.5 26.714844 11.488281 C 26.902344 11.46875 27.117188 11.445312 27.304688 11.425781 Z M 27.304688 11.425781 " fill-opacity="1" fill-rule="evenodd"/></g></g><g clip-path="url(#7e2dd09088)"><g clip-path="url(#17d50f00c3)"><g clip-path="url(#211a9c0abb)"><g clip-path="url(#2fb7940b7e)"><path fill="#b4d7df" d="M 27.429688 10.84375 L 25.773438 14.914062 L 26.015625 14.90625 L 27.960938 10.917969 Z M 27.429688 10.84375 " fill-opacity="1" fill-rule="evenodd"/></g></g></g></g><g clip-path="url(#3770263e8d)"><g clip-path="url(#efc518cba5)"><g clip-path="url(#fd1ee72ba8)"><g clip-path="url(#29bc752a25)"><path fill="#b4d7df" d="M 27.878906 12.285156 L 26.222656 16.355469 L 26.464844 16.347656 L 28.410156 12.359375 Z M 27.878906 12.285156 " fill-opacity="1" fill-rule="evenodd"/></g></g></g></g><g clip-path="url(#e0935837ff)"><g clip-path="url(#da8fa5431c)"><path fill="#ea614d" d="M 20.421875 15.832031 L 29.179688 15.832031 L 29.179688 16.304688 L 20.421875 16.304688 Z M 20.421875 15.832031 " fill-opacity="1" fill-rule="evenodd"/></g></g><g clip-path="url(#a1ca9bf373)"><g clip-path="url(#e01cd44689)"><path fill="#942b1c" d="M 20.398438 16.492188 L 29.15625 16.492188 L 29.15625 16.609375 L 20.398438 16.609375 Z M 20.398438 16.492188 " fill-opacity="1" fill-rule="evenodd"/></g></g><g clip-path="url(#36dd65e4d9)"><path fill="#575757" d="M 26.421875 21.160156 C 26.421875 21.484375 26.359375 21.796875 26.234375 22.097656 C 26.109375 22.398438 25.929688 22.664062 25.699219 22.894531 C 25.46875 23.125 25.199219 23.300781 24.898438 23.425781 C 24.59375 23.550781 24.28125 23.613281 23.953125 23.613281 C 23.625 23.613281 23.308594 23.550781 23.007812 23.425781 C 22.703125 23.300781 22.4375 23.125 22.203125 22.894531 C 21.972656 22.664062 21.796875 22.398438 21.667969 22.097656 C 21.542969 21.796875 21.480469 21.484375 21.480469 21.160156 C 21.480469 20.832031 21.542969 20.519531 21.667969 20.21875 C 21.796875 19.917969 21.972656 19.652344 22.203125 19.421875 C 22.4375 19.191406 22.703125 19.015625 23.007812 18.890625 C 23.308594 18.765625 23.625 18.703125 23.953125 18.703125 C 24.28125 18.703125 24.59375 18.765625 24.898438 18.890625 C 25.199219 19.015625 25.46875 19.191406 25.699219 19.421875 C 25.929688 19.652344 26.109375 19.917969 26.234375 20.21875 C 26.359375 20.519531 26.421875 20.832031 26.421875 21.160156 Z M 26.421875 21.160156 " fill-opacity="1" fill-rule="nonzero"/></g><g clip-path="url(#1eae059187)"><path fill="#575757" d="M 8.878906 21.160156 C 8.878906 21.484375 8.816406 21.796875 8.691406 22.097656 C 8.566406 22.398438 8.386719 22.664062 8.15625 22.894531 C 7.921875 23.125 7.65625 23.300781 7.351562 23.425781 C 7.050781 23.550781 6.734375 23.613281 6.40625 23.613281 C 6.082031 23.613281 5.765625 23.550781 5.460938 23.425781 C 5.160156 23.300781 4.894531 23.125 4.660156 22.894531 C 4.429688 22.664062 4.25 22.398438 4.125 22.097656 C 4 21.796875 3.9375 21.484375 3.9375 21.160156 C 3.9375 20.832031 4 20.519531 4.125 20.21875 C 4.25 19.917969 4.429688 19.652344 4.660156 19.421875 C 4.894531 19.191406 5.160156 19.015625 5.460938 18.890625 C 5.765625 18.765625 6.082031 18.703125 6.40625 18.703125 C 6.734375 18.703125 7.050781 18.765625 7.351562 18.890625 C 7.65625 19.015625 7.921875 19.191406 8.15625 19.421875 C 8.386719 19.652344 8.566406 19.917969 8.691406 20.21875 C 8.816406 20.519531 8.878906 20.832031 8.878906 21.160156 Z M 8.878906 21.160156 " fill-opacity="1" fill-rule="nonzero"/></g><path fill="#a9a1a2" d="M 7.558594 21.160156 C 7.558594 21.308594 7.53125 21.457031 7.472656 21.597656 C 7.414062 21.734375 7.332031 21.859375 7.222656 21.96875 C 7.113281 22.074219 6.988281 22.15625 6.847656 22.214844 C 6.707031 22.273438 6.5625 22.300781 6.40625 22.300781 C 6.253906 22.300781 6.109375 22.273438 5.96875 22.214844 C 5.828125 22.15625 5.703125 22.074219 5.59375 21.96875 C 5.484375 21.859375 5.402344 21.734375 5.34375 21.597656 C 5.285156 21.457031 5.257812 21.308594 5.257812 21.160156 C 5.257812 21.007812 5.285156 20.859375 5.34375 20.722656 C 5.402344 20.582031 5.484375 20.457031 5.59375 20.351562 C 5.703125 20.242188 5.828125 20.160156 5.96875 20.101562 C 6.109375 20.042969 6.253906 20.015625 6.40625 20.015625 C 6.5625 20.015625 6.707031 20.042969 6.847656 20.101562 C 6.988281 20.160156 7.113281 20.242188 7.222656 20.351562 C 7.332031 20.457031 7.414062 20.582031 7.472656 20.722656 C 7.53125 20.859375 7.558594 21.007812 7.558594 21.160156 Z M 7.558594 21.160156 " fill-opacity="1" fill-rule="nonzero"/><path fill="#ffad00" d="M 2.433594 19.796875 C 2.492188 19.796875 2.550781 19.820312 2.59375 19.863281 C 2.636719 19.90625 2.660156 19.964844 2.660156 20.023438 C 2.660156 20.195312 2.660156 20.433594 2.660156 20.605469 C 2.660156 20.667969 2.636719 20.722656 2.59375 20.765625 C 2.550781 20.808594 2.492188 20.832031 2.433594 20.832031 C 2.375 20.832031 2.316406 20.808594 2.273438 20.765625 C 2.230469 20.722656 2.207031 20.667969 2.207031 20.605469 C 2.207031 20.433594 2.207031 20.195312 2.207031 20.023438 C 2.207031 19.964844 2.230469 19.90625 2.273438 19.863281 C 2.316406 19.820312 2.375 19.796875 2.433594 19.796875 Z M 2.433594 19.796875 " fill-opacity="1" fill-rule="evenodd"/><path fill="#c2e8f1" d="M 26.300781 14.890625 C 26.3125 15.015625 26.273438 15.136719 26.1875 15.230469 C 26.105469 15.324219 25.984375 15.375 25.859375 15.375 C 24.792969 15.375 22.292969 15.375 21.273438 15.375 C 21.027344 15.375 20.832031 15.179688 20.832031 14.9375 L 20.832031 11.964844 C 20.832031 11.847656 20.875 11.738281 20.960938 11.652344 C 21.042969 11.570312 21.15625 11.523438 21.273438 11.523438 C 22.253906 11.523438 24.597656 11.523438 25.539062 11.523438 C 25.765625 11.523438 25.953125 11.695312 25.980469 11.917969 C 26.054688 12.628906 26.21875 14.117188 26.300781 14.890625 Z M 26.300781 14.890625 " fill-opacity="1" fill-rule="evenodd"/><g clip-path="url(#858f3eb84e)"><g clip-path="url(#c65ba1c74a)"><path fill="#b4d7df" d="M 22.945312 11.441406 L 20.574219 15.632812 L 22.121094 15.578125 L 23.753906 11.496094 Z M 22.945312 11.441406 " fill-opacity="1" fill-rule="evenodd"/></g></g><g clip-path="url(#1d338a4754)"><g clip-path="url(#1fa42412bf)"><path fill="#b4d7df" d="M 25.050781 11.375 L 23.398438 15.441406 L 24.007812 15.574219 L 25.585938 11.445312 Z M 25.050781 11.375 " fill-opacity="1" fill-rule="evenodd"/></g></g><path fill="#d9bdb5" d="M 21.785156 15.949219 C 21.820312 15.949219 21.851562 15.960938 21.875 15.984375 C 21.902344 16.007812 21.914062 16.042969 21.914062 16.074219 C 21.914062 16.109375 21.902344 16.140625 21.875 16.164062 C 21.851562 16.1875 21.820312 16.203125 21.785156 16.203125 C 21.625 16.203125 21.355469 16.203125 21.195312 16.203125 C 21.160156 16.203125 21.128906 16.1875 21.105469 16.164062 C 21.078125 16.140625 21.066406 16.109375 21.066406 16.074219 C 21.066406 16.042969 21.078125 16.007812 21.105469 15.984375 C 21.128906 15.960938 21.160156 15.949219 21.195312 15.949219 C 21.355469 15.949219 21.625 15.949219 21.785156 15.949219 Z M 21.785156 15.949219 " fill-opacity="1" fill-rule="evenodd"/><g clip-path="url(#b6e80488a4)"><path fill="#ebe6e0" d="M 0.738281 15.625 L 19.871094 15.625 L 19.871094 18.535156 L 0.738281 18.535156 Z M 0.738281 15.625 " fill-opacity="1" fill-rule="evenodd"/></g><g clip-path="url(#a6cebc0d48)"><path fill="#e4dfd7" d="M 19.839844 15.289062 C 19.933594 15.289062 20.011719 15.367188 20.011719 15.460938 C 20.011719 15.476562 20.011719 15.488281 20.011719 15.503906 C 20.011719 15.597656 19.933594 15.675781 19.839844 15.675781 C 18.023438 15.675781 2.453125 15.675781 0.652344 15.675781 C 0.609375 15.675781 0.566406 15.65625 0.53125 15.625 C 0.503906 15.59375 0.484375 15.550781 0.484375 15.507812 C 0.484375 15.492188 0.484375 15.472656 0.484375 15.457031 C 0.484375 15.414062 0.503906 15.371094 0.53125 15.339844 C 0.566406 15.308594 0.609375 15.289062 0.652344 15.289062 C 2.453125 15.289062 18.023438 15.289062 19.839844 15.289062 Z M 19.839844 15.289062 " fill-opacity="1" fill-rule="evenodd"/></g><path fill="#e4dfd7" d="M 1.035156 15.773438 L 4.414062 15.773438 L 4.414062 18.320312 L 1.035156 18.320312 Z M 1.035156 15.773438 " fill-opacity="1" fill-rule="evenodd"/><path fill="#e4dfd7" d="M 4.824219 15.765625 L 8.203125 15.765625 L 8.203125 18.3125 L 4.824219 18.3125 Z M 4.824219 15.765625 " fill-opacity="1" fill-rule="evenodd"/><path fill="#e4dfd7" d="M 8.609375 15.757812 L 11.988281 15.757812 L 11.988281 18.304688 L 8.609375 18.304688 Z M 8.609375 15.757812 " fill-opacity="1" fill-rule="evenodd"/><path fill="#e4dfd7" d="M 12.398438 15.75 L 15.777344 15.75 L 15.777344 18.296875 L 12.398438 18.296875 Z M 12.398438 15.75 " fill-opacity="1" fill-rule="evenodd"/><path fill="#e4dfd7" d="M 16.183594 15.742188 L 19.5625 15.742188 L 19.5625 18.289062 L 16.183594 18.289062 Z M 16.183594 15.742188 " fill-opacity="1" fill-rule="evenodd"/><path fill="#a7a7a7" d="M 4.160156 18.144531 L 4.195312 18.085938 L 8.558594 18.085938 L 8.570312 18.105469 C 8.570312 18.105469 9 18.847656 9.203125 19.195312 C 9.257812 19.292969 9.222656 19.417969 9.125 19.472656 C 9.105469 19.484375 9.085938 19.496094 9.070312 19.507812 C 8.96875 19.5625 8.84375 19.53125 8.789062 19.433594 C 8.617188 19.132812 8.28125 18.558594 8.28125 18.558594 L 4.46875 18.558594 C 4.46875 18.558594 4.136719 19.128906 3.964844 19.425781 C 3.910156 19.523438 3.78125 19.558594 3.683594 19.5 C 3.667969 19.492188 3.644531 19.480469 3.628906 19.46875 C 3.527344 19.414062 3.496094 19.289062 3.550781 19.191406 C 3.75 18.851562 4.160156 18.144531 4.160156 18.144531 Z M 4.160156 18.144531 " fill-opacity="1" fill-rule="evenodd"/><g clip-path="url(#5e4a3ecea9)"><path fill="#efeae4" d="M 2.394531 18.003906 C 2.492188 18.003906 2.570312 18.082031 2.570312 18.175781 C 2.570312 18.273438 2.492188 18.351562 2.394531 18.351562 C 2.085938 18.351562 1.449219 18.351562 1.140625 18.351562 C 1.042969 18.351562 0.964844 18.273438 0.964844 18.175781 C 0.964844 18.082031 1.042969 18.003906 1.140625 18.003906 C 1.449219 18.003906 2.085938 18.003906 2.394531 18.003906 Z M 2.394531 18.003906 " fill-opacity="1" fill-rule="evenodd"/></g><path fill="#efeae4" d="M 19.519531 18.003906 C 19.617188 18.003906 19.695312 18.082031 19.695312 18.175781 C 19.695312 18.273438 19.617188 18.351562 19.519531 18.351562 C 19.210938 18.351562 18.574219 18.351562 18.265625 18.351562 C 18.167969 18.351562 18.089844 18.273438 18.089844 18.175781 C 18.089844 18.082031 18.167969 18.003906 18.265625 18.003906 C 18.574219 18.003906 19.210938 18.003906 19.519531 18.003906 Z M 19.519531 18.003906 " fill-opacity="1" fill-rule="evenodd"/><path fill="#cf341c" d="M 1.425781 18.046875 C 1.460938 18.046875 1.496094 18.058594 1.519531 18.085938 C 1.542969 18.109375 1.558594 18.140625 1.558594 18.175781 C 1.558594 18.210938 1.542969 18.246094 1.519531 18.269531 C 1.496094 18.292969 1.460938 18.308594 1.425781 18.308594 C 1.339844 18.308594 1.222656 18.308594 1.136719 18.308594 C 1.101562 18.308594 1.070312 18.292969 1.042969 18.269531 C 1.019531 18.246094 1.003906 18.210938 1.003906 18.175781 C 1.003906 18.140625 1.019531 18.109375 1.042969 18.085938 C 1.070312 18.058594 1.101562 18.046875 1.136719 18.046875 C 1.222656 18.046875 1.339844 18.046875 1.425781 18.046875 Z M 1.425781 18.046875 " fill-opacity="1" fill-rule="evenodd"/><path fill="#cf341c" d="M 18.550781 18.046875 C 18.585938 18.046875 18.617188 18.058594 18.644531 18.085938 C 18.667969 18.109375 18.683594 18.140625 18.683594 18.175781 C 18.683594 18.210938 18.667969 18.246094 18.644531 18.269531 C 18.617188 18.292969 18.585938 18.308594 18.550781 18.308594 C 18.464844 18.308594 18.347656 18.308594 18.261719 18.308594 C 18.226562 18.308594 18.191406 18.292969 18.167969 18.269531 C 18.144531 18.246094 18.128906 18.210938 18.128906 18.175781 C 18.128906 18.140625 18.144531 18.109375 18.167969 18.085938 C 18.191406 18.058594 18.226562 18.046875 18.261719 18.046875 C 18.347656 18.046875 18.464844 18.046875 18.550781 18.046875 Z M 18.550781 18.046875 " fill-opacity="1" fill-rule="evenodd"/><path fill="#cf341c" d="M 2.386719 18.046875 C 2.421875 18.046875 2.457031 18.058594 2.480469 18.085938 C 2.507812 18.109375 2.519531 18.140625 2.519531 18.175781 C 2.519531 18.210938 2.507812 18.246094 2.480469 18.269531 C 2.457031 18.292969 2.421875 18.308594 2.386719 18.308594 C 2.300781 18.308594 2.1875 18.308594 2.097656 18.308594 C 2.0625 18.308594 2.03125 18.292969 2.003906 18.269531 C 1.980469 18.246094 1.96875 18.210938 1.96875 18.175781 C 1.96875 18.140625 1.980469 18.109375 2.003906 18.085938 C 2.03125 18.058594 2.0625 18.046875 2.097656 18.046875 C 2.1875 18.046875 2.300781 18.046875 2.386719 18.046875 Z M 2.386719 18.046875 " fill-opacity="1" fill-rule="evenodd"/><path fill="#cf341c" d="M 19.511719 18.046875 C 19.546875 18.046875 19.582031 18.058594 19.605469 18.085938 C 19.628906 18.109375 19.644531 18.140625 19.644531 18.175781 C 19.644531 18.210938 19.628906 18.246094 19.605469 18.269531 C 19.582031 18.292969 19.546875 18.308594 19.511719 18.308594 C 19.425781 18.308594 19.3125 18.308594 19.222656 18.308594 C 19.1875 18.308594 19.15625 18.292969 19.128906 18.269531 C 19.105469 18.246094 19.09375 18.210938 19.09375 18.175781 C 19.09375 18.140625 19.105469 18.109375 19.128906 18.085938 C 19.15625 18.058594 19.1875 18.046875 19.222656 18.046875 C 19.3125 18.046875 19.425781 18.046875 19.511719 18.046875 Z M 19.511719 18.046875 " fill-opacity="1" fill-rule="evenodd"/><path fill="#ffffff" d="M 1.8125 18.046875 C 1.847656 18.046875 1.878906 18.058594 1.90625 18.085938 C 1.929688 18.109375 1.945312 18.140625 1.945312 18.175781 C 1.945312 18.210938 1.929688 18.246094 1.90625 18.269531 C 1.878906 18.292969 1.847656 18.308594 1.8125 18.308594 C 1.785156 18.308594 1.753906 18.308594 1.722656 18.308594 C 1.6875 18.308594 1.65625 18.292969 1.632812 18.269531 C 1.605469 18.246094 1.59375 18.210938 1.59375 18.175781 C 1.59375 18.140625 1.605469 18.109375 1.632812 18.085938 C 1.65625 18.058594 1.6875 18.046875 1.722656 18.046875 C 1.753906 18.046875 1.785156 18.046875 1.8125 18.046875 Z M 1.8125 18.046875 " fill-opacity="1" fill-rule="evenodd"/><path fill="#ffffff" d="M 18.9375 18.046875 C 18.972656 18.046875 19.003906 18.058594 19.03125 18.085938 C 19.054688 18.109375 19.070312 18.140625 19.070312 18.175781 C 19.070312 18.210938 19.054688 18.246094 19.03125 18.269531 C 19.003906 18.292969 18.972656 18.308594 18.9375 18.308594 C 18.90625 18.308594 18.878906 18.308594 18.847656 18.308594 C 18.8125 18.308594 18.78125 18.292969 18.753906 18.269531 C 18.730469 18.246094 18.71875 18.210938 18.71875 18.175781 C 18.71875 18.140625 18.730469 18.109375 18.753906 18.085938 C 18.78125 18.058594 18.8125 18.046875 18.847656 18.046875 C 18.878906 18.046875 18.90625 18.046875 18.9375 18.046875 Z M 18.9375 18.046875 " fill-opacity="1" fill-rule="evenodd"/><path fill="#a9a1a2" d="M 25.101562 21.160156 C 25.101562 21.308594 25.074219 21.457031 25.015625 21.597656 C 24.957031 21.734375 24.875 21.859375 24.765625 21.96875 C 24.65625 22.074219 24.535156 22.15625 24.390625 22.214844 C 24.25 22.273438 24.105469 22.300781 23.953125 22.300781 C 23.800781 22.300781 23.652344 22.273438 23.511719 22.214844 C 23.371094 22.15625 23.246094 22.074219 23.136719 21.96875 C 23.03125 21.859375 22.945312 21.734375 22.886719 21.597656 C 22.828125 21.457031 22.800781 21.308594 22.800781 21.160156 C 22.800781 21.007812 22.828125 20.859375 22.886719 20.722656 C 22.945312 20.582031 23.03125 20.457031 23.136719 20.351562 C 23.246094 20.242188 23.371094 20.160156 23.511719 20.101562 C 23.652344 20.042969 23.800781 20.015625 23.953125 20.015625 C 24.105469 20.015625 24.25 20.042969 24.390625 20.101562 C 24.535156 20.160156 24.65625 20.242188 24.765625 20.351562 C 24.875 20.457031 24.957031 20.582031 25.015625 20.722656 C 25.074219 20.859375 25.101562 21.007812 25.101562 21.160156 Z M 25.101562 21.160156 " fill-opacity="1" fill-rule="nonzero"/><g clip-path="url(#185164a8d3)"><path fill="#ffad00" d="M 29.03125 18.191406 C 29.179688 18.191406 29.296875 18.3125 29.296875 18.457031 C 29.296875 18.613281 29.296875 18.808594 29.296875 18.964844 C 29.296875 19.109375 29.179688 19.226562 29.03125 19.226562 C 28.878906 19.226562 28.691406 19.226562 28.539062 19.226562 C 28.394531 19.226562 28.273438 19.109375 28.273438 18.964844 C 28.273438 18.808594 28.273438 18.613281 28.273438 18.457031 C 28.273438 18.3125 28.394531 18.191406 28.539062 18.191406 C 28.691406 18.191406 28.878906 18.191406 29.03125 18.191406 Z M 29.03125 18.191406 " fill-opacity="1" fill-rule="evenodd"/></g><g clip-path="url(#7984d1b5c4)"><path fill="#383838" d="M 29.199219 20.285156 C 29.375 20.285156 29.515625 20.425781 29.515625 20.601562 C 29.515625 20.691406 29.515625 20.792969 29.515625 20.882812 C 29.515625 21.054688 29.375 21.199219 29.199219 21.199219 C 28.957031 21.199219 28.621094 21.199219 28.375 21.199219 C 28.199219 21.199219 28.058594 21.054688 28.058594 20.882812 C 28.058594 20.792969 28.058594 20.691406 28.058594 20.601562 C 28.058594 20.425781 28.199219 20.285156 28.375 20.285156 C 28.621094 20.285156 28.957031 20.285156 29.199219 20.285156 Z M 29.199219 20.285156 " fill-opacity="1" fill-rule="evenodd"/></g><g clip-path="url(#a295d295e4)"><path fill="#383838" d="M 29.144531 16.695312 C 29.183594 16.695312 29.222656 16.710938 29.25 16.738281 C 29.277344 16.765625 29.292969 16.800781 29.292969 16.839844 C 29.292969 17.519531 29.292969 20.378906 29.292969 21.058594 C 29.292969 21.097656 29.277344 21.136719 29.25 21.164062 C 29.222656 21.191406 29.183594 21.203125 29.144531 21.203125 C 29.101562 21.203125 29.066406 21.203125 29.066406 21.203125 L 29.066406 16.695312 Z M 29.144531 16.695312 " fill-opacity="1" fill-rule="evenodd"/></g><g transform="matrix(1, 0, 0, 1, 14, 23)"><g clip-path="url(#655f1b8f7e)"><g clip-path="url(#e4c60aa11c)"><g fill="#ffffff" fill-opacity="1"><g transform="translate(0.742961, 2.46855)"><g><path d="M 0.25 0.015625 C 0.21875 0.015625 0.191406 0.00390625 0.171875 -0.015625 C 0.148438 -0.0351562 0.140625 -0.0625 0.140625 -0.09375 C 0.140625 -0.132812 0.148438 -0.164062 0.171875 -0.1875 C 0.191406 -0.207031 0.21875 -0.21875 0.25 -0.21875 C 0.289062 -0.21875 0.320312 -0.207031 0.34375 -0.1875 C 0.363281 -0.164062 0.375 -0.140625 0.375 -0.109375 C 0.375 -0.0664062 0.363281 -0.0351562 0.34375 -0.015625 C 0.320312 0.00390625 0.289062 0.015625 0.25 0.015625 Z M 0.25 0.015625 "/></g></g></g></g></g></g></svg>