<svg xmlns="http://www.w3.org/2000/svg" xmlns:xlink="http://www.w3.org/1999/xlink" width="40" zoomAndPan="magnify" viewBox="0 0 30 30.000001" height="40" preserveAspectRatio="xMidYMid meet" version="1.0"><defs><g/><clipPath id="4e6d1a0615"><path d="M 0.484375 0 L 29.515625 0 L 29.515625 29.03125 L 0.484375 29.03125 Z M 0.484375 0 " clip-rule="nonzero"/></clipPath><clipPath id="7169e24e12"><path d="M 0.652344 2 L 1.347656 2 L 1.347656 3 L 0.652344 3 Z M 0.652344 2 " clip-rule="nonzero"/></clipPath><clipPath id="b5d0d9efcf"><rect x="0" width="2" y="0" height="4"/></clipPath></defs><g clip-path="url(#4e6d1a0615)"><path fill="#a6a6a6" d="M 29.511719 14.511719 C 29.511719 22.527344 23.011719 29.027344 14.996094 29.027344 C 6.980469 29.027344 0.480469 22.527344 0.480469 14.511719 C 0.480469 6.496094 6.980469 -0.00390625 14.996094 -0.00390625 C 23.011719 -0.00390625 29.511719 6.496094 29.511719 14.511719 Z M 20.289062 13.890625 L 11.90625 8.8125 C 11.683594 8.675781 11.402344 8.671875 11.175781 8.800781 C 10.945312 8.929688 10.804688 9.167969 10.804688 9.433594 L 10.804688 19.59375 C 10.804688 19.855469 10.945312 20.097656 11.175781 20.226562 C 11.285156 20.289062 11.40625 20.320312 11.53125 20.320312 C 11.660156 20.320312 11.792969 20.285156 11.90625 20.214844 L 20.289062 15.132812 C 20.503906 15 20.636719 14.765625 20.636719 14.511719 C 20.636719 14.257812 20.507812 14.023438 20.289062 13.890625 Z M 20.289062 13.890625 " fill-opacity="1" fill-rule="nonzero"/></g><g transform="matrix(1, 0, 0, 1, 14, 23)"><g clip-path="url(#b5d0d9efcf)"><g clip-path="url(#7169e24e12)"><g fill="#ffffff" fill-opacity="1"><g transform="translate(0.742961, 2.46855)"><g><path d="M 0.25 0.015625 C 0.21875 0.015625 0.191406 0.00390625 0.171875 -0.015625 C 0.148438 -0.0351562 0.140625 -0.0625 0.140625 -0.09375 C 0.140625 -0.132812 0.148438 -0.164062 0.171875 -0.1875 C 0.191406 -0.207031 0.21875 -0.21875 0.25 -0.21875 C 0.289062 -0.21875 0.320312 -0.207031 0.34375 -0.1875 C 0.363281 -0.164062 0.375 -0.140625 0.375 -0.109375 C 0.375 -0.0664062 0.363281 -0.0351562 0.34375 -0.015625 C 0.320312 0.00390625 0.289062 0.015625 0.25 0.015625 Z M 0.25 0.015625 "/></g></g></g></g></g></g></svg>