<svg xmlns="http://www.w3.org/2000/svg" xmlns:xlink="http://www.w3.org/1999/xlink" width="40" zoomAndPan="magnify" viewBox="0 0 30 30.000001" height="40" preserveAspectRatio="xMidYMid meet" version="1.0"><defs><g/><clipPath id="cc4f6f7a17"><path d="M 0.484375 0 L 29.515625 0 L 29.515625 29.03125 L 0.484375 29.03125 Z M 0.484375 0 " clip-rule="nonzero"/></clipPath><clipPath id="e3eec2bae6"><path d="M 0.652344 2 L 1.347656 2 L 1.347656 3 L 0.652344 3 Z M 0.652344 2 " clip-rule="nonzero"/></clipPath><clipPath id="799c8f1996"><rect x="0" width="2" y="0" height="4"/></clipPath></defs><g clip-path="url(#cc4f6f7a17)"><path fill="#a6a6a6" d="M 29.511719 14.511719 C 29.511719 22.527344 23.011719 29.027344 14.996094 29.027344 C 6.980469 29.027344 0.480469 22.527344 0.480469 14.511719 C 0.480469 6.496094 6.980469 -0.00390625 14.996094 -0.00390625 C 23.011719 -0.00390625 29.511719 6.496094 29.511719 14.511719 Z M 12.128906 8.707031 C 11.328125 8.707031 10.679688 9.355469 10.679688 10.15625 L 10.679688 18.867188 C 10.679688 19.667969 11.328125 20.320312 12.128906 20.320312 C 12.933594 20.320312 13.582031 19.667969 13.582031 18.867188 L 13.582031 10.15625 C 13.582031 9.355469 12.933594 8.707031 12.128906 8.707031 Z M 17.9375 8.707031 C 17.132812 8.707031 16.484375 9.355469 16.484375 10.15625 L 16.484375 18.867188 C 16.484375 19.667969 17.132812 20.320312 17.9375 20.320312 C 18.738281 20.320312 19.386719 19.667969 19.386719 18.867188 L 19.386719 10.15625 C 19.386719 9.355469 18.738281 8.707031 17.9375 8.707031 Z M 17.9375 8.707031 " fill-opacity="1" fill-rule="nonzero"/></g><g transform="matrix(1, 0, 0, 1, 14, 23)"><g clip-path="url(#799c8f1996)"><g clip-path="url(#e3eec2bae6)"><g fill="#ffffff" fill-opacity="1"><g transform="translate(0.742961, 2.46855)"><g><path d="M 0.25 0.015625 C 0.21875 0.015625 0.191406 0.00390625 0.171875 -0.015625 C 0.148438 -0.0351562 0.140625 -0.0625 0.140625 -0.09375 C 0.140625 -0.132812 0.148438 -0.164062 0.171875 -0.1875 C 0.191406 -0.207031 0.21875 -0.21875 0.25 -0.21875 C 0.289062 -0.21875 0.320312 -0.207031 0.34375 -0.1875 C 0.363281 -0.164062 0.375 -0.140625 0.375 -0.109375 C 0.375 -0.0664062 0.363281 -0.0351562 0.34375 -0.015625 C 0.320312 0.00390625 0.289062 0.015625 0.25 0.015625 Z M 0.25 0.015625 "/></g></g></g></g></g></g></svg>