<svg xmlns="http://www.w3.org/2000/svg" xmlns:xlink="http://www.w3.org/1999/xlink" width="96" zoomAndPan="magnify" viewBox="0 0 72 36.000001" height="48" preserveAspectRatio="xMidYMid meet" version="1.0"><defs><g/><clipPath id="e767f37e9d"><path d="M 0.972656 0 L 71.027344 0 L 71.027344 35 L 0.972656 35 Z M 0.972656 0 " clip-rule="nonzero"/></clipPath><clipPath id="601a657eee"><rect x="0" width="72" y="0" height="35"/></clipPath></defs><g clip-path="url(#e767f37e9d)"><g transform="matrix(1, 0, 0, 1, 0.000000000000000111, 0.000000000000010582)"><g clip-path="url(#601a657eee)"><g fill="#ff751f" fill-opacity="1"><g transform="translate(0.972972, 25.496671)"><g><path d="M 10.03125 0.265625 C 8.34375 0.265625 6.851562 -0.0820312 5.5625 -0.78125 C 4.269531 -1.488281 3.257812 -2.546875 2.53125 -3.953125 C 1.800781 -5.367188 1.4375 -7.109375 1.4375 -9.171875 C 1.4375 -11.242188 1.800781 -12.984375 2.53125 -14.390625 C 3.257812 -15.796875 4.269531 -16.847656 5.5625 -17.546875 C 6.851562 -18.253906 8.34375 -18.609375 10.03125 -18.609375 C 11.789062 -18.609375 13.285156 -18.265625 14.515625 -17.578125 C 15.753906 -16.890625 16.640625 -15.835938 17.171875 -14.421875 L 14.515625 -12.796875 L 14.203125 -12.8125 C 13.804688 -13.769531 13.269531 -14.453125 12.59375 -14.859375 C 11.925781 -15.273438 11.070312 -15.484375 10.03125 -15.484375 C 8.507812 -15.484375 7.320312 -14.976562 6.46875 -13.96875 C 5.613281 -12.96875 5.1875 -11.367188 5.1875 -9.171875 C 5.1875 -6.992188 5.613281 -5.398438 6.46875 -4.390625 C 7.320312 -3.378906 8.507812 -2.875 10.03125 -2.875 C 12.414062 -2.875 13.875 -4.03125 14.40625 -6.34375 L 14.71875 -6.34375 L 17.390625 -4.953125 C 16.890625 -3.210938 16.03125 -1.90625 14.8125 -1.03125 C 13.601562 -0.164062 12.007812 0.265625 10.03125 0.265625 Z M 10.03125 0.265625 "/></g></g></g><g fill="#ff751f" fill-opacity="1"><g transform="translate(18.973677, 25.496671)"><g><path d="M 8.765625 0 L 4.703125 0 L 0.5 -18.34375 L 4.109375 -18.34375 L 6.890625 -5.453125 L 7.203125 -5.453125 L 10.484375 -18.34375 L 13.59375 -18.34375 L 16.9375 -5.453125 L 17.25 -5.453125 L 20.046875 -18.34375 L 23.53125 -18.34375 L 19.34375 0 L 15.28125 0 L 12.0625 -11.828125 L 11.796875 -11.828125 Z M 8.765625 0 "/></g></g></g><g fill="#ff751f" fill-opacity="1"><g transform="translate(42.999723, 25.496671)"><g><path d="M 6.015625 0 L 2.390625 0 L 2.390625 -18.34375 L 6.015625 -18.34375 Z M 6.015625 0 "/></g></g></g><g fill="#ff751f" fill-opacity="1"><g transform="translate(51.410095, 25.496671)"><g><path d="M 8.984375 -18.34375 C 11.960938 -18.34375 14.234375 -17.570312 15.796875 -16.03125 C 17.367188 -14.5 18.15625 -12.210938 18.15625 -9.171875 C 18.15625 -6.140625 17.367188 -3.851562 15.796875 -2.3125 C 14.234375 -0.769531 11.960938 0 8.984375 0 L 2.390625 0 L 2.390625 -18.34375 Z M 8.765625 -3.046875 C 10.660156 -3.046875 12.078125 -3.53125 13.015625 -4.5 C 13.953125 -5.46875 14.421875 -7.023438 14.421875 -9.171875 C 14.421875 -11.328125 13.953125 -12.882812 13.015625 -13.84375 C 12.078125 -14.8125 10.660156 -15.296875 8.765625 -15.296875 L 6.015625 -15.296875 L 6.015625 -3.046875 Z M 8.765625 -3.046875 "/></g></g></g></g></g></g></svg>