<svg xmlns="http://www.w3.org/2000/svg" xmlns:xlink="http://www.w3.org/1999/xlink" width="40" zoomAndPan="magnify" viewBox="0 0 30 30.000001" height="40" preserveAspectRatio="xMidYMid meet" version="1.0"><defs><g/><clipPath id="f541afd7e0"><path d="M 5.925781 20 L 24.074219 20 L 24.074219 29.03125 L 5.925781 29.03125 Z M 5.925781 20 " clip-rule="nonzero"/></clipPath><clipPath id="56f931fbdf"><path d="M 0.652344 2 L 1.347656 2 L 1.347656 3 L 0.652344 3 Z M 0.652344 2 " clip-rule="nonzero"/></clipPath><clipPath id="e978d3837b"><rect x="0" width="2" y="0" height="4"/></clipPath></defs><path fill="#003366" d="M 22.246094 13.960938 C 22.207031 14.363281 22.066406 14.941406 21.566406 15.460938 C 21.140625 15.898438 20.546875 16.203125 19.792969 16.375 C 20.035156 15.972656 20.226562 15.546875 20.355469 15.089844 C 20.554688 14.984375 20.703125 14.875 20.8125 14.757812 C 21.042969 14.527344 21.144531 14.273438 21.195312 14.066406 L 21.734375 14.066406 C 21.914062 14.058594 22.085938 14.023438 22.246094 13.960938 Z M 22.246094 13.960938 " fill-opacity="1" fill-rule="nonzero"/><path fill="#003366" d="M 16.734375 18.820312 L 16.734375 19.871094 L 15 22.207031 L 13.265625 19.871094 L 13.265625 18.828125 C 13.8125 19.007812 14.402344 19.097656 14.992188 19.097656 L 15.023438 19.097656 C 15.625 19.09375 16.199219 18.996094 16.734375 18.820312 Z M 16.734375 18.820312 " fill-opacity="1" fill-rule="nonzero"/><g clip-path="url(#f541afd7e0)"><path fill="#003366" d="M 24.066406 24.535156 L 24.066406 29.03125 L 21.894531 29.03125 L 21.894531 25.5625 C 21.894531 25.277344 21.664062 25.042969 21.375 25.042969 C 21.089844 25.042969 20.855469 25.269531 20.855469 25.5625 L 20.855469 29.03125 L 9.136719 29.03125 L 9.136719 25.5625 C 9.136719 25.277344 8.910156 25.042969 8.617188 25.042969 C 8.335938 25.042969 8.101562 25.269531 8.101562 25.5625 L 8.101562 29.03125 L 5.933594 29.03125 L 5.933594 24.535156 C 5.933594 23.332031 6.6875 22.242188 7.804688 21.816406 L 12.546875 20.625 L 14.59375 23.378906 C 14.691406 23.511719 14.84375 23.589844 15.007812 23.589844 C 15.167969 23.589844 15.320312 23.511719 15.421875 23.378906 L 17.464844 20.625 L 22.207031 21.816406 C 23.320312 22.25 24.066406 23.335938 24.066406 24.535156 Z M 24.066406 24.535156 " fill-opacity="1" fill-rule="nonzero"/></g><path fill="#003366" d="M 19.941406 10.074219 C 19.941406 10.074219 19.933594 10.082031 19.941406 10.074219 C 19.933594 10.082031 19.933594 10.082031 19.941406 10.074219 C 19.933594 10.082031 19.933594 10.082031 19.941406 10.074219 C 19.933594 10.09375 19.933594 10.113281 19.929688 10.125 C 19.929688 10.128906 19.929688 10.128906 19.921875 10.136719 C 19.910156 10.179688 19.898438 10.222656 19.886719 10.273438 L 18.324219 8.796875 C 18.304688 8.777344 18.285156 8.765625 18.269531 8.753906 C 16.542969 7.503906 13.917969 6.660156 11.746094 8.011719 C 11.644531 8.074219 11.570312 8.167969 11.535156 8.277344 C 11.238281 9.097656 10.738281 9.996094 10.3125 10.402344 C 10.300781 10.335938 10.285156 10.265625 10.273438 10.199219 C 10.273438 10.167969 10.269531 10.128906 10.257812 10.097656 L 10.257812 10.09375 C 10.019531 8.722656 9.878906 6.621094 10.640625 5.628906 C 10.929688 5.25 11.335938 5.058594 11.886719 5.054688 C 12.015625 5.054688 12.144531 4.996094 12.238281 4.90625 C 12.949219 4.21875 13.894531 3.859375 14.9375 3.859375 C 15.285156 3.859375 15.640625 3.902344 16.007812 3.984375 C 17.738281 4.375 19.183594 5.601562 19.789062 7.195312 C 19.832031 7.355469 20.230469 8.832031 19.941406 10.074219 Z M 19.941406 10.074219 " fill-opacity="1" fill-rule="nonzero"/><path fill="#ff6633" d="M 15.839844 15.867188 C 15.839844 15.972656 15.617188 16.164062 15.253906 16.164062 C 14.890625 16.164062 14.667969 15.972656 14.667969 15.867188 C 14.667969 15.765625 14.890625 15.574219 15.253906 15.574219 C 15.617188 15.574219 15.839844 15.765625 15.839844 15.867188 Z M 15.839844 15.867188 " fill-opacity="1" fill-rule="nonzero"/><path fill="#ff6633" d="M 19.539062 11.367188 L 19.539062 13.539062 C 19.539062 14.21875 19.386719 14.863281 19.113281 15.4375 C 18.519531 15.511719 17.761719 15.515625 16.773438 15.398438 C 16.550781 14.894531 15.964844 14.535156 15.253906 14.535156 C 14.34375 14.535156 13.636719 15.117188 13.636719 15.863281 C 13.636719 16.609375 14.34375 17.191406 15.253906 17.191406 C 15.914062 17.191406 16.464844 16.882812 16.722656 16.429688 C 17.25 16.492188 17.730469 16.523438 18.1875 16.523438 C 18.261719 16.523438 18.335938 16.523438 18.402344 16.523438 C 17.574219 17.460938 16.371094 18.054688 15.03125 18.0625 C 14.320312 18.066406 13.628906 17.90625 13.011719 17.605469 C 12.992188 17.59375 12.972656 17.585938 12.957031 17.578125 C 12.535156 17.371094 12.152344 17.085938 11.804688 16.746094 C 10.949219 15.894531 10.472656 14.757812 10.464844 13.546875 L 10.464844 11.53125 C 11.480469 11.070312 12.195312 9.445312 12.441406 8.800781 C 14.148438 7.851562 16.230469 8.5625 17.644531 9.566406 Z M 19.539062 11.367188 " fill-opacity="1" fill-rule="nonzero"/><path fill="#003366" d="M 22.523438 7.523438 L 22.523438 9.980469 C 22.300781 9.816406 22.023438 9.714844 21.71875 9.714844 L 21.484375 9.714844 L 21.484375 7.523438 C 21.484375 3.941406 18.570312 1.03125 14.992188 1.03125 C 11.410156 1.03125 8.5 3.945312 8.5 7.523438 L 8.5 9.714844 L 8.265625 9.714844 C 7.964844 9.714844 7.6875 9.816406 7.464844 9.980469 L 7.464844 7.523438 C 7.476562 3.371094 10.847656 0 15 0 C 19.152344 0 22.523438 3.371094 22.523438 7.523438 Z M 22.523438 7.523438 " fill-opacity="1" fill-rule="nonzero"/><path fill="#ff6633" d="M 9.429688 11.207031 L 9.429688 13.035156 L 8.273438 13.035156 C 8.125 13.035156 8.019531 12.941406 8.019531 12.855469 L 8.019531 10.925781 C 8.019531 10.867188 8.074219 10.796875 8.160156 10.765625 L 8.167969 10.765625 C 8.199219 10.753906 8.230469 10.75 8.265625 10.75 L 9.324219 10.75 C 9.371094 10.957031 9.410156 11.117188 9.429688 11.207031 Z M 9.429688 11.207031 " fill-opacity="1" fill-rule="nonzero"/><path fill="#ff6633" d="M 21.972656 10.925781 L 21.972656 12.847656 C 21.972656 12.929688 21.886719 13.015625 21.757812 13.027344 C 21.726562 13.027344 21.695312 13.027344 21.664062 13.027344 L 20.570312 13.027344 L 20.570312 11.285156 C 20.671875 11.113281 20.75 10.933594 20.8125 10.75 L 21.71875 10.75 C 21.757812 10.75 21.792969 10.753906 21.824219 10.765625 L 21.832031 10.765625 C 21.917969 10.796875 21.972656 10.867188 21.972656 10.925781 Z M 21.972656 10.925781 " fill-opacity="1" fill-rule="nonzero"/><g transform="matrix(1, 0, 0, 1, 14, 23)"><g clip-path="url(#e978d3837b)"><g clip-path="url(#56f931fbdf)"><g fill="#ffffff" fill-opacity="1"><g transform="translate(0.742961, 2.46855)"><g><path d="M 0.25 0.015625 C 0.21875 0.015625 0.191406 0.00390625 0.171875 -0.015625 C 0.148438 -0.0351562 0.140625 -0.0625 0.140625 -0.09375 C 0.140625 -0.132812 0.148438 -0.164062 0.171875 -0.1875 C 0.191406 -0.207031 0.21875 -0.21875 0.25 -0.21875 C 0.289062 -0.21875 0.320312 -0.207031 0.34375 -0.1875 C 0.363281 -0.164062 0.375 -0.140625 0.375 -0.109375 C 0.375 -0.0664062 0.363281 -0.0351562 0.34375 -0.015625 C 0.320312 0.00390625 0.289062 0.015625 0.25 0.015625 Z M 0.25 0.015625 "/></g></g></g></g></g></g></svg>