<svg xmlns="http://www.w3.org/2000/svg" xmlns:xlink="http://www.w3.org/1999/xlink" width="96" zoomAndPan="magnify" viewBox="0 0 72 36.000001" height="48" preserveAspectRatio="xMidYMid meet" version="1.0"><defs><g/><clipPath id="00bb8653b3"><path d="M 9 0 L 60 0 L 60 35.027344 L 9 35.027344 Z M 9 0 " clip-rule="nonzero"/></clipPath><clipPath id="e56b3815d4"><rect x="0" width="51" y="0" height="36"/></clipPath></defs><g clip-path="url(#00bb8653b3)"><g transform="matrix(1, 0, 0, 1, 9, 0.000000000000010582)"><g clip-path="url(#e56b3815d4)"><g fill="#000000" fill-opacity="1"><g transform="translate(15.02491, 12.794307)"><g><path d="M 7.4375 -9.71875 L 7.4375 -8.109375 L 3.1875 -8.109375 L 3.1875 -5.546875 L 7.03125 -5.546875 L 7.03125 -3.953125 L 3.1875 -3.953125 L 3.1875 0 L 1.265625 0 L 1.265625 -9.71875 Z M 7.4375 -9.71875 "/></g></g></g><g fill="#000000" fill-opacity="1"><g transform="translate(22.890963, 12.794307)"><g><path d="M 3.03125 0 L 1.265625 0 L 1.265625 -9.71875 L 3.78125 -9.71875 L 6.234375 -2.578125 L 6.375 -2.578125 L 8.828125 -9.71875 L 11.28125 -9.71875 L 11.28125 0 L 9.453125 0 L 9.453125 -6.421875 L 9.296875 -6.453125 L 7.046875 0 L 5.4375 0 L 3.1875 -6.453125 L 3.03125 -6.421875 Z M 3.03125 0 "/></g></g></g><g fill="#000000" fill-opacity="1"><g transform="translate(0.20365, 31.671136)"><g><path d="M 4.75 0.140625 C 3.957031 0.140625 3.265625 -0.0351562 2.671875 -0.390625 C 2.085938 -0.742188 1.628906 -1.289062 1.296875 -2.03125 C 0.972656 -2.78125 0.8125 -3.722656 0.8125 -4.859375 C 0.8125 -6.003906 0.972656 -6.945312 1.296875 -7.6875 C 1.628906 -8.4375 2.085938 -8.984375 2.671875 -9.328125 C 3.265625 -9.679688 3.957031 -9.859375 4.75 -9.859375 C 5.550781 -9.859375 6.242188 -9.679688 6.828125 -9.328125 C 7.410156 -8.984375 7.863281 -8.4375 8.1875 -7.6875 C 8.519531 -6.945312 8.6875 -6.003906 8.6875 -4.859375 C 8.6875 -3.722656 8.519531 -2.78125 8.1875 -2.03125 C 7.863281 -1.289062 7.410156 -0.742188 6.828125 -0.390625 C 6.242188 -0.0351562 5.550781 0.140625 4.75 0.140625 Z M 4.75 -1.484375 C 5.1875 -1.484375 5.550781 -1.585938 5.84375 -1.796875 C 6.132812 -2.015625 6.359375 -2.367188 6.515625 -2.859375 C 6.671875 -3.359375 6.75 -4.023438 6.75 -4.859375 C 6.75 -5.691406 6.671875 -6.359375 6.515625 -6.859375 C 6.359375 -7.359375 6.132812 -7.710938 5.84375 -7.921875 C 5.550781 -8.128906 5.1875 -8.234375 4.75 -8.234375 C 4.3125 -8.234375 3.945312 -8.128906 3.65625 -7.921875 C 3.363281 -7.710938 3.140625 -7.359375 2.984375 -6.859375 C 2.828125 -6.359375 2.75 -5.691406 2.75 -4.859375 C 2.75 -4.023438 2.828125 -3.359375 2.984375 -2.859375 C 3.140625 -2.367188 3.363281 -2.015625 3.65625 -1.796875 C 3.945312 -1.585938 4.3125 -1.484375 4.75 -1.484375 Z M 4.75 -1.484375 "/></g></g></g><g fill="#000000" fill-opacity="1"><g transform="translate(9.713461, 31.671136)"><g><path d="M 0.515625 0 L 0.515625 -1.59375 L 2.859375 -1.59375 L 2.859375 -7.640625 L 2.703125 -7.6875 C 2.367188 -7.519531 2.039062 -7.390625 1.71875 -7.296875 C 1.40625 -7.210938 1.039062 -7.140625 0.625 -7.078125 L 0.625 -8.734375 C 1.695312 -8.953125 2.566406 -9.28125 3.234375 -9.71875 L 4.765625 -9.71875 L 4.765625 -1.59375 L 6.859375 -1.59375 L 6.859375 0 Z M 0.515625 0 "/></g></g></g><g fill="#000000" fill-opacity="1"><g transform="translate(16.894069, 31.671136)"><g><path d="M 4.75 0.140625 C 3.957031 0.140625 3.265625 -0.0351562 2.671875 -0.390625 C 2.085938 -0.742188 1.628906 -1.289062 1.296875 -2.03125 C 0.972656 -2.78125 0.8125 -3.722656 0.8125 -4.859375 C 0.8125 -6.003906 0.972656 -6.945312 1.296875 -7.6875 C 1.628906 -8.4375 2.085938 -8.984375 2.671875 -9.328125 C 3.265625 -9.679688 3.957031 -9.859375 4.75 -9.859375 C 5.550781 -9.859375 6.242188 -9.679688 6.828125 -9.328125 C 7.410156 -8.984375 7.863281 -8.4375 8.1875 -7.6875 C 8.519531 -6.945312 8.6875 -6.003906 8.6875 -4.859375 C 8.6875 -3.722656 8.519531 -2.78125 8.1875 -2.03125 C 7.863281 -1.289062 7.410156 -0.742188 6.828125 -0.390625 C 6.242188 -0.0351562 5.550781 0.140625 4.75 0.140625 Z M 4.75 -1.484375 C 5.1875 -1.484375 5.550781 -1.585938 5.84375 -1.796875 C 6.132812 -2.015625 6.359375 -2.367188 6.515625 -2.859375 C 6.671875 -3.359375 6.75 -4.023438 6.75 -4.859375 C 6.75 -5.691406 6.671875 -6.359375 6.515625 -6.859375 C 6.359375 -7.359375 6.132812 -7.710938 5.84375 -7.921875 C 5.550781 -8.128906 5.1875 -8.234375 4.75 -8.234375 C 4.3125 -8.234375 3.945312 -8.128906 3.65625 -7.921875 C 3.363281 -7.710938 3.140625 -7.359375 2.984375 -6.859375 C 2.828125 -6.359375 2.75 -5.691406 2.75 -4.859375 C 2.75 -4.023438 2.828125 -3.359375 2.984375 -2.859375 C 3.140625 -2.367188 3.363281 -2.015625 3.65625 -1.796875 C 3.945312 -1.585938 4.3125 -1.484375 4.75 -1.484375 Z M 4.75 -1.484375 "/></g></g></g><g fill="#000000" fill-opacity="1"><g transform="translate(26.403881, 31.671136)"><g><path d="M 0.515625 0 L 0.515625 -1.59375 L 2.859375 -1.59375 L 2.859375 -7.640625 L 2.703125 -7.6875 C 2.367188 -7.519531 2.039062 -7.390625 1.71875 -7.296875 C 1.40625 -7.210938 1.039062 -7.140625 0.625 -7.078125 L 0.625 -8.734375 C 1.695312 -8.953125 2.566406 -9.28125 3.234375 -9.71875 L 4.765625 -9.71875 L 4.765625 -1.59375 L 6.859375 -1.59375 L 6.859375 0 Z M 0.515625 0 "/></g></g></g><g fill="#000000" fill-opacity="1"><g transform="translate(33.584489, 31.671136)"><g><path d="M 4.75 0.140625 C 3.957031 0.140625 3.265625 -0.0351562 2.671875 -0.390625 C 2.085938 -0.742188 1.628906 -1.289062 1.296875 -2.03125 C 0.972656 -2.78125 0.8125 -3.722656 0.8125 -4.859375 C 0.8125 -6.003906 0.972656 -6.945312 1.296875 -7.6875 C 1.628906 -8.4375 2.085938 -8.984375 2.671875 -9.328125 C 3.265625 -9.679688 3.957031 -9.859375 4.75 -9.859375 C 5.550781 -9.859375 6.242188 -9.679688 6.828125 -9.328125 C 7.410156 -8.984375 7.863281 -8.4375 8.1875 -7.6875 C 8.519531 -6.945312 8.6875 -6.003906 8.6875 -4.859375 C 8.6875 -3.722656 8.519531 -2.78125 8.1875 -2.03125 C 7.863281 -1.289062 7.410156 -0.742188 6.828125 -0.390625 C 6.242188 -0.0351562 5.550781 0.140625 4.75 0.140625 Z M 4.75 -1.484375 C 5.1875 -1.484375 5.550781 -1.585938 5.84375 -1.796875 C 6.132812 -2.015625 6.359375 -2.367188 6.515625 -2.859375 C 6.671875 -3.359375 6.75 -4.023438 6.75 -4.859375 C 6.75 -5.691406 6.671875 -6.359375 6.515625 -6.859375 C 6.359375 -7.359375 6.132812 -7.710938 5.84375 -7.921875 C 5.550781 -8.128906 5.1875 -8.234375 4.75 -8.234375 C 4.3125 -8.234375 3.945312 -8.128906 3.65625 -7.921875 C 3.363281 -7.710938 3.140625 -7.359375 2.984375 -6.859375 C 2.828125 -6.359375 2.75 -5.691406 2.75 -4.859375 C 2.75 -4.023438 2.828125 -3.359375 2.984375 -2.859375 C 3.140625 -2.367188 3.363281 -2.015625 3.65625 -1.796875 C 3.945312 -1.585938 4.3125 -1.484375 4.75 -1.484375 Z M 4.75 -1.484375 "/></g></g></g><g fill="#000000" fill-opacity="1"><g transform="translate(43.0943, 31.671136)"><g><path d="M 0.515625 0 L 0.515625 -1.59375 L 2.859375 -1.59375 L 2.859375 -7.640625 L 2.703125 -7.6875 C 2.367188 -7.519531 2.039062 -7.390625 1.71875 -7.296875 C 1.40625 -7.210938 1.039062 -7.140625 0.625 -7.078125 L 0.625 -8.734375 C 1.695312 -8.953125 2.566406 -9.28125 3.234375 -9.71875 L 4.765625 -9.71875 L 4.765625 -1.59375 L 6.859375 -1.59375 L 6.859375 0 Z M 0.515625 0 "/></g></g></g></g></g></g></svg>