<svg xmlns="http://www.w3.org/2000/svg" xmlns:xlink="http://www.w3.org/1999/xlink" width="96" zoomAndPan="magnify" viewBox="0 0 72 36.000001" height="48" preserveAspectRatio="xMidYMid meet" version="1.0"><defs><g/><clipPath id="ea2f166c34"><path d="M 9 0 L 60 0 L 60 35.027344 L 9 35.027344 Z M 9 0 " clip-rule="nonzero"/></clipPath><clipPath id="ff3980a9a8"><rect x="0" width="51" y="0" height="36"/></clipPath></defs><g clip-path="url(#ea2f166c34)"><g transform="matrix(1, 0, 0, 1, 9, 0.000000000000010582)"><g clip-path="url(#ff3980a9a8)"><g fill="#000000" fill-opacity="1"><g transform="translate(9.199638, 12.794307)"><g><path d="M 4.765625 -9.71875 C 6.335938 -9.71875 7.539062 -9.3125 8.375 -8.5 C 9.207031 -7.6875 9.625 -6.472656 9.625 -4.859375 C 9.625 -3.253906 9.207031 -2.039062 8.375 -1.21875 C 7.539062 -0.40625 6.335938 0 4.765625 0 L 1.265625 0 L 1.265625 -9.71875 Z M 4.65625 -1.609375 C 5.65625 -1.609375 6.398438 -1.863281 6.890625 -2.375 C 7.390625 -2.894531 7.640625 -3.722656 7.640625 -4.859375 C 7.640625 -6.003906 7.390625 -6.832031 6.890625 -7.34375 C 6.398438 -7.851562 5.65625 -8.109375 4.65625 -8.109375 L 3.1875 -8.109375 L 3.1875 -1.609375 Z M 4.65625 -1.609375 "/></g></g></g><g fill="#000000" fill-opacity="1"><g transform="translate(19.601202, 12.794307)"><g><path d="M 3.03125 0 L 1.265625 0 L 1.265625 -9.71875 L 3.78125 -9.71875 L 6.234375 -2.578125 L 6.375 -2.578125 L 8.828125 -9.71875 L 11.28125 -9.71875 L 11.28125 0 L 9.453125 0 L 9.453125 -6.421875 L 9.296875 -6.453125 L 7.046875 0 L 5.4375 0 L 3.1875 -6.453125 L 3.03125 -6.421875 Z M 3.03125 0 "/></g></g></g><g fill="#000000" fill-opacity="1"><g transform="translate(32.158943, 12.794307)"><g><path d="M 1.265625 0 L 1.265625 -9.71875 L 5.171875 -9.71875 C 6.171875 -9.71875 6.925781 -9.488281 7.4375 -9.03125 C 7.957031 -8.570312 8.21875 -7.929688 8.21875 -7.109375 C 8.21875 -6.523438 8.066406 -6.039062 7.765625 -5.65625 C 7.460938 -5.28125 7.015625 -4.992188 6.421875 -4.796875 L 6.421875 -4.65625 C 6.734375 -4.519531 6.984375 -4.320312 7.171875 -4.0625 C 7.359375 -3.800781 7.535156 -3.414062 7.703125 -2.90625 L 8.671875 0 L 6.703125 0 L 5.75 -2.90625 C 5.65625 -3.195312 5.546875 -3.421875 5.421875 -3.578125 C 5.296875 -3.742188 5.140625 -3.863281 4.953125 -3.9375 C 4.765625 -4.007812 4.519531 -4.046875 4.21875 -4.046875 L 3.1875 -4.046875 L 3.1875 0 Z M 4.9375 -5.578125 C 5.863281 -5.578125 6.328125 -6.007812 6.328125 -6.875 C 6.328125 -7.757812 5.863281 -8.203125 4.9375 -8.203125 L 3.1875 -8.203125 L 3.1875 -5.578125 Z M 4.9375 -5.578125 "/></g></g></g><g fill="#000000" fill-opacity="1"><g transform="translate(0.20365, 31.671136)"><g><path d="M 4.75 0.140625 C 3.957031 0.140625 3.265625 -0.0351562 2.671875 -0.390625 C 2.085938 -0.742188 1.628906 -1.289062 1.296875 -2.03125 C 0.972656 -2.78125 0.8125 -3.722656 0.8125 -4.859375 C 0.8125 -6.003906 0.972656 -6.945312 1.296875 -7.6875 C 1.628906 -8.4375 2.085938 -8.984375 2.671875 -9.328125 C 3.265625 -9.679688 3.957031 -9.859375 4.75 -9.859375 C 5.550781 -9.859375 6.242188 -9.679688 6.828125 -9.328125 C 7.410156 -8.984375 7.863281 -8.4375 8.1875 -7.6875 C 8.519531 -6.945312 8.6875 -6.003906 8.6875 -4.859375 C 8.6875 -3.722656 8.519531 -2.78125 8.1875 -2.03125 C 7.863281 -1.289062 7.410156 -0.742188 6.828125 -0.390625 C 6.242188 -0.0351562 5.550781 0.140625 4.75 0.140625 Z M 4.75 -1.484375 C 5.1875 -1.484375 5.550781 -1.585938 5.84375 -1.796875 C 6.132812 -2.015625 6.359375 -2.367188 6.515625 -2.859375 C 6.671875 -3.359375 6.75 -4.023438 6.75 -4.859375 C 6.75 -5.691406 6.671875 -6.359375 6.515625 -6.859375 C 6.359375 -7.359375 6.132812 -7.710938 5.84375 -7.921875 C 5.550781 -8.128906 5.1875 -8.234375 4.75 -8.234375 C 4.3125 -8.234375 3.945312 -8.128906 3.65625 -7.921875 C 3.363281 -7.710938 3.140625 -7.359375 2.984375 -6.859375 C 2.828125 -6.359375 2.75 -5.691406 2.75 -4.859375 C 2.75 -4.023438 2.828125 -3.359375 2.984375 -2.859375 C 3.140625 -2.367188 3.363281 -2.015625 3.65625 -1.796875 C 3.945312 -1.585938 4.3125 -1.484375 4.75 -1.484375 Z M 4.75 -1.484375 "/></g></g></g><g fill="#000000" fill-opacity="1"><g transform="translate(9.713461, 31.671136)"><g><path d="M 0.515625 0 L 0.515625 -1.59375 L 2.859375 -1.59375 L 2.859375 -7.640625 L 2.703125 -7.6875 C 2.367188 -7.519531 2.039062 -7.390625 1.71875 -7.296875 C 1.40625 -7.210938 1.039062 -7.140625 0.625 -7.078125 L 0.625 -8.734375 C 1.695312 -8.953125 2.566406 -9.28125 3.234375 -9.71875 L 4.765625 -9.71875 L 4.765625 -1.59375 L 6.859375 -1.59375 L 6.859375 0 Z M 0.515625 0 "/></g></g></g><g fill="#000000" fill-opacity="1"><g transform="translate(16.894069, 31.671136)"><g><path d="M 4.75 0.140625 C 3.957031 0.140625 3.265625 -0.0351562 2.671875 -0.390625 C 2.085938 -0.742188 1.628906 -1.289062 1.296875 -2.03125 C 0.972656 -2.78125 0.8125 -3.722656 0.8125 -4.859375 C 0.8125 -6.003906 0.972656 -6.945312 1.296875 -7.6875 C 1.628906 -8.4375 2.085938 -8.984375 2.671875 -9.328125 C 3.265625 -9.679688 3.957031 -9.859375 4.75 -9.859375 C 5.550781 -9.859375 6.242188 -9.679688 6.828125 -9.328125 C 7.410156 -8.984375 7.863281 -8.4375 8.1875 -7.6875 C 8.519531 -6.945312 8.6875 -6.003906 8.6875 -4.859375 C 8.6875 -3.722656 8.519531 -2.78125 8.1875 -2.03125 C 7.863281 -1.289062 7.410156 -0.742188 6.828125 -0.390625 C 6.242188 -0.0351562 5.550781 0.140625 4.75 0.140625 Z M 4.75 -1.484375 C 5.1875 -1.484375 5.550781 -1.585938 5.84375 -1.796875 C 6.132812 -2.015625 6.359375 -2.367188 6.515625 -2.859375 C 6.671875 -3.359375 6.75 -4.023438 6.75 -4.859375 C 6.75 -5.691406 6.671875 -6.359375 6.515625 -6.859375 C 6.359375 -7.359375 6.132812 -7.710938 5.84375 -7.921875 C 5.550781 -8.128906 5.1875 -8.234375 4.75 -8.234375 C 4.3125 -8.234375 3.945312 -8.128906 3.65625 -7.921875 C 3.363281 -7.710938 3.140625 -7.359375 2.984375 -6.859375 C 2.828125 -6.359375 2.75 -5.691406 2.75 -4.859375 C 2.75 -4.023438 2.828125 -3.359375 2.984375 -2.859375 C 3.140625 -2.367188 3.363281 -2.015625 3.65625 -1.796875 C 3.945312 -1.585938 4.3125 -1.484375 4.75 -1.484375 Z M 4.75 -1.484375 "/></g></g></g><g fill="#000000" fill-opacity="1"><g transform="translate(26.403881, 31.671136)"><g><path d="M 0.515625 0 L 0.515625 -1.59375 L 2.859375 -1.59375 L 2.859375 -7.640625 L 2.703125 -7.6875 C 2.367188 -7.519531 2.039062 -7.390625 1.71875 -7.296875 C 1.40625 -7.210938 1.039062 -7.140625 0.625 -7.078125 L 0.625 -8.734375 C 1.695312 -8.953125 2.566406 -9.28125 3.234375 -9.71875 L 4.765625 -9.71875 L 4.765625 -1.59375 L 6.859375 -1.59375 L 6.859375 0 Z M 0.515625 0 "/></g></g></g><g fill="#000000" fill-opacity="1"><g transform="translate(33.584489, 31.671136)"><g><path d="M 4.75 0.140625 C 3.957031 0.140625 3.265625 -0.0351562 2.671875 -0.390625 C 2.085938 -0.742188 1.628906 -1.289062 1.296875 -2.03125 C 0.972656 -2.78125 0.8125 -3.722656 0.8125 -4.859375 C 0.8125 -6.003906 0.972656 -6.945312 1.296875 -7.6875 C 1.628906 -8.4375 2.085938 -8.984375 2.671875 -9.328125 C 3.265625 -9.679688 3.957031 -9.859375 4.75 -9.859375 C 5.550781 -9.859375 6.242188 -9.679688 6.828125 -9.328125 C 7.410156 -8.984375 7.863281 -8.4375 8.1875 -7.6875 C 8.519531 -6.945312 8.6875 -6.003906 8.6875 -4.859375 C 8.6875 -3.722656 8.519531 -2.78125 8.1875 -2.03125 C 7.863281 -1.289062 7.410156 -0.742188 6.828125 -0.390625 C 6.242188 -0.0351562 5.550781 0.140625 4.75 0.140625 Z M 4.75 -1.484375 C 5.1875 -1.484375 5.550781 -1.585938 5.84375 -1.796875 C 6.132812 -2.015625 6.359375 -2.367188 6.515625 -2.859375 C 6.671875 -3.359375 6.75 -4.023438 6.75 -4.859375 C 6.75 -5.691406 6.671875 -6.359375 6.515625 -6.859375 C 6.359375 -7.359375 6.132812 -7.710938 5.84375 -7.921875 C 5.550781 -8.128906 5.1875 -8.234375 4.75 -8.234375 C 4.3125 -8.234375 3.945312 -8.128906 3.65625 -7.921875 C 3.363281 -7.710938 3.140625 -7.359375 2.984375 -6.859375 C 2.828125 -6.359375 2.75 -5.691406 2.75 -4.859375 C 2.75 -4.023438 2.828125 -3.359375 2.984375 -2.859375 C 3.140625 -2.367188 3.363281 -2.015625 3.65625 -1.796875 C 3.945312 -1.585938 4.3125 -1.484375 4.75 -1.484375 Z M 4.75 -1.484375 "/></g></g></g><g fill="#000000" fill-opacity="1"><g transform="translate(43.0943, 31.671136)"><g><path d="M 0.515625 0 L 0.515625 -1.59375 L 2.859375 -1.59375 L 2.859375 -7.640625 L 2.703125 -7.6875 C 2.367188 -7.519531 2.039062 -7.390625 1.71875 -7.296875 C 1.40625 -7.210938 1.039062 -7.140625 0.625 -7.078125 L 0.625 -8.734375 C 1.695312 -8.953125 2.566406 -9.28125 3.234375 -9.71875 L 4.765625 -9.71875 L 4.765625 -1.59375 L 6.859375 -1.59375 L 6.859375 0 Z M 0.515625 0 "/></g></g></g></g></g></g></svg>