<svg xmlns="http://www.w3.org/2000/svg" xmlns:xlink="http://www.w3.org/1999/xlink" width="40" zoomAndPan="magnify" viewBox="0 0 30 30.000001" height="40" preserveAspectRatio="xMidYMid meet" version="1.0"><defs><g/><clipPath id="90245b7f9f"><path d="M 3 7.167969 L 21 7.167969 L 21 19 L 3 19 Z M 3 7.167969 " clip-rule="nonzero"/></clipPath><clipPath id="e74160dfa7"><path d="M 20 8 L 29.5 8 L 29.5 21 L 20 21 Z M 20 8 " clip-rule="nonzero"/></clipPath><clipPath id="ffddc626e1"><path d="M 5 16 L 11 16 L 11 21.683594 L 5 21.683594 Z M 5 16 " clip-rule="nonzero"/></clipPath><clipPath id="6b088a2c0f"><path d="M 11 16 L 17 16 L 17 21.683594 L 11 21.683594 Z M 11 16 " clip-rule="nonzero"/></clipPath><clipPath id="3b0cab8a1c"><path d="M 21 16 L 27 16 L 27 21.683594 L 21 21.683594 Z M 21 16 " clip-rule="nonzero"/></clipPath><clipPath id="e4c2add52d"><path d="M 0.5 7.167969 L 9 7.167969 L 9 20 L 0.5 20 Z M 0.5 7.167969 " clip-rule="nonzero"/></clipPath><clipPath id="3256e92170"><path d="M 3 7.167969 L 9 7.167969 L 9 19 L 3 19 Z M 3 7.167969 " clip-rule="nonzero"/></clipPath><clipPath id="373f7bd82e"><path d="M 28 15 L 29.5 15 L 29.5 18 L 28 18 Z M 28 15 " clip-rule="nonzero"/></clipPath><clipPath id="2421da88ab"><path d="M 20 7.167969 L 21 7.167969 L 21 18 L 20 18 Z M 20 7.167969 " clip-rule="nonzero"/></clipPath><clipPath id="b279a95724"><path d="M 0.5 16 L 3 16 L 3 18 L 0.5 18 Z M 0.5 16 " clip-rule="nonzero"/></clipPath><clipPath id="2f3030aad5"><path d="M 8 7.167969 L 20 7.167969 L 20 9 L 8 9 Z M 8 7.167969 " clip-rule="nonzero"/></clipPath><clipPath id="ba289d15f9"><path d="M 0.652344 2 L 1.347656 2 L 1.347656 3 L 0.652344 3 Z M 0.652344 2 " clip-rule="nonzero"/></clipPath><clipPath id="d3faba0fcf"><rect x="0" width="2" y="0" height="4"/></clipPath></defs><path fill="#05100b" d="M 28.257812 15.273438 L 20.066406 15.273438 L 20.066406 19.757812 L 28.257812 19.757812 Z M 28.257812 15.273438 " fill-opacity="1" fill-rule="nonzero"/><g clip-path="url(#90245b7f9f)"><path fill="#82c341" d="M 20.550781 8.183594 L 20.550781 16.679688 C 20.550781 17.480469 19.894531 18.128906 19.085938 18.128906 L 3.914062 18.128906 L 3.914062 14.285156 L 8.367188 7.921875 C 8.695312 7.449219 9.242188 7.167969 9.824219 7.167969 L 19.523438 7.167969 C 20.09375 7.167969 20.550781 7.621094 20.550781 8.183594 Z M 20.550781 8.183594 " fill-opacity="1" fill-rule="nonzero"/></g><path fill="#05100b" d="M 27.445312 17.515625 L 4.535156 17.515625 C 4.191406 17.515625 3.914062 17.789062 3.914062 18.128906 L 3.914062 19.183594 C 3.914062 19.523438 4.191406 19.800781 4.535156 19.800781 L 27.445312 19.800781 C 27.789062 19.800781 28.066406 19.523438 28.066406 19.183594 L 28.066406 18.128906 C 28.066406 17.789062 27.789062 17.515625 27.445312 17.515625 Z M 27.445312 17.515625 " fill-opacity="1" fill-rule="nonzero"/><g clip-path="url(#e74160dfa7)"><path fill="#fed14a" d="M 25.773438 8.140625 L 21.023438 8.140625 C 20.496094 8.140625 20.066406 8.5625 20.066406 9.082031 L 20.066406 16.71875 C 20.066406 17.015625 20.453125 17.140625 20.628906 16.902344 C 21.339844 15.929688 22.496094 15.296875 23.800781 15.296875 C 25.957031 15.296875 27.703125 17.023438 27.703125 19.152344 C 27.703125 19.261719 27.699219 19.371094 27.691406 19.476562 C 27.667969 19.765625 27.898438 20.007812 28.191406 20.007812 L 28.527344 20.007812 C 28.804688 20.007812 29.058594 19.847656 29.175781 19.597656 L 29.378906 19.164062 C 29.460938 18.988281 29.5 18.796875 29.5 18.605469 L 29.5 13.929688 C 29.5 13.375 29.386719 12.828125 29.164062 12.320312 L 27.941406 9.546875 C 27.566406 8.691406 26.714844 8.140625 25.773438 8.140625 Z M 25.773438 8.140625 " fill-opacity="1" fill-rule="nonzero"/></g><g clip-path="url(#ffddc626e1)"><path fill="#05100b" d="M 7.871094 21.660156 C 9.351562 21.660156 10.546875 20.476562 10.546875 19.015625 C 10.546875 17.558594 9.351562 16.375 7.871094 16.375 C 6.394531 16.375 5.195312 17.558594 5.195312 19.015625 C 5.195312 20.476562 6.394531 21.660156 7.871094 21.660156 Z M 7.871094 21.660156 " fill-opacity="1" fill-rule="nonzero"/></g><path fill="#82c341" d="M 7.871094 20.785156 C 8.859375 20.785156 9.660156 19.992188 9.660156 19.015625 C 9.660156 18.039062 8.859375 17.25 7.871094 17.25 C 6.882812 17.25 6.082031 18.039062 6.082031 19.015625 C 6.082031 19.992188 6.882812 20.785156 7.871094 20.785156 Z M 7.871094 20.785156 " fill-opacity="1" fill-rule="nonzero"/><path fill="#05100b" d="M 7.871094 20.613281 C 6.980469 20.613281 6.253906 19.898438 6.253906 19.015625 C 6.253906 18.136719 6.980469 17.417969 7.871094 17.417969 C 8.765625 17.417969 9.492188 18.136719 9.492188 19.015625 C 9.492188 19.898438 8.765625 20.613281 7.871094 20.613281 Z M 7.871094 17.5625 C 7.0625 17.5625 6.402344 18.214844 6.402344 19.015625 C 6.402344 19.816406 7.0625 20.46875 7.871094 20.46875 C 8.683594 20.46875 9.34375 19.816406 9.34375 19.015625 C 9.34375 18.214844 8.683594 17.5625 7.871094 17.5625 Z M 7.871094 17.5625 " fill-opacity="1" fill-rule="nonzero"/><path fill="#fbfbfb" d="M 7.871094 19.429688 C 8.101562 19.429688 8.289062 19.246094 8.289062 19.015625 C 8.289062 18.789062 8.101562 18.601562 7.871094 18.601562 C 7.640625 18.601562 7.453125 18.789062 7.453125 19.015625 C 7.453125 19.246094 7.640625 19.429688 7.871094 19.429688 Z M 7.871094 19.429688 " fill-opacity="0.5" fill-rule="nonzero"/><path fill="#246e40" d="M 7.871094 20.097656 C 7.269531 20.097656 6.777344 19.613281 6.777344 19.015625 C 6.777344 18.421875 7.269531 17.933594 7.871094 17.933594 C 8.476562 17.933594 8.96875 18.421875 8.96875 19.015625 C 8.96875 19.613281 8.476562 20.097656 7.871094 20.097656 Z M 7.871094 18.078125 C 7.351562 18.078125 6.925781 18.5 6.925781 19.015625 C 6.925781 19.53125 7.351562 19.953125 7.871094 19.953125 C 8.394531 19.953125 8.820312 19.53125 8.820312 19.015625 C 8.820312 18.5 8.394531 18.078125 7.871094 18.078125 Z M 7.871094 18.078125 " fill-opacity="0.75" fill-rule="nonzero"/><path fill="#05100b" d="M 8.441406 18.578125 C 8.488281 18.527344 8.484375 18.445312 8.429688 18.394531 C 8.375 18.34375 8.292969 18.34375 8.246094 18.394531 C 8.195312 18.445312 8.199219 18.527344 8.253906 18.578125 C 8.308594 18.628906 8.390625 18.628906 8.441406 18.578125 Z M 8.441406 18.578125 " fill-opacity="1" fill-rule="nonzero"/><path fill="#05100b" d="M 7.5 19.558594 C 7.546875 19.507812 7.542969 19.425781 7.488281 19.375 C 7.4375 19.324219 7.351562 19.324219 7.304688 19.375 C 7.257812 19.425781 7.261719 19.507812 7.316406 19.558594 C 7.367188 19.605469 7.449219 19.605469 7.5 19.558594 Z M 7.5 19.558594 " fill-opacity="1" fill-rule="nonzero"/><path fill="#05100b" d="M 7.488281 18.574219 C 7.542969 18.527344 7.546875 18.445312 7.5 18.394531 C 7.453125 18.34375 7.367188 18.34375 7.316406 18.394531 C 7.261719 18.445312 7.257812 18.527344 7.304688 18.574219 C 7.355469 18.625 7.4375 18.625 7.488281 18.574219 Z M 7.488281 18.574219 " fill-opacity="1" fill-rule="nonzero"/><path fill="#05100b" d="M 8.429688 19.554688 C 8.484375 19.503906 8.488281 19.425781 8.4375 19.375 C 8.390625 19.324219 8.308594 19.324219 8.253906 19.375 C 8.199219 19.425781 8.195312 19.503906 8.246094 19.554688 C 8.292969 19.605469 8.375 19.605469 8.429688 19.554688 Z M 8.429688 19.554688 " fill-opacity="1" fill-rule="nonzero"/><path fill="#05100b" d="M 7.1875 19.109375 C 7.257812 19.109375 7.316406 19.046875 7.316406 18.976562 C 7.316406 18.902344 7.257812 18.84375 7.1875 18.84375 C 7.117188 18.84375 7.0625 18.902344 7.0625 18.976562 C 7.0625 19.046875 7.117188 19.109375 7.1875 19.109375 Z M 7.1875 19.109375 " fill-opacity="1" fill-rule="nonzero"/><path fill="#05100b" d="M 8.554688 19.109375 C 8.625 19.109375 8.683594 19.046875 8.683594 18.976562 C 8.683594 18.902344 8.625 18.84375 8.554688 18.84375 C 8.484375 18.84375 8.429688 18.902344 8.429688 18.976562 C 8.429688 19.046875 8.484375 19.109375 8.554688 19.109375 Z M 8.554688 19.109375 " fill-opacity="1" fill-rule="nonzero"/><path fill="#05100b" d="M 7.871094 18.425781 C 7.945312 18.425781 8.007812 18.371094 8.007812 18.300781 C 8.007812 18.230469 7.945312 18.175781 7.871094 18.175781 C 7.796875 18.175781 7.738281 18.230469 7.738281 18.300781 C 7.738281 18.371094 7.796875 18.425781 7.871094 18.425781 Z M 7.871094 18.425781 " fill-opacity="1" fill-rule="nonzero"/><path fill="#05100b" d="M 7.871094 19.777344 C 7.945312 19.777344 8.007812 19.71875 8.007812 19.652344 C 8.007812 19.582031 7.945312 19.523438 7.871094 19.523438 C 7.796875 19.523438 7.738281 19.582031 7.738281 19.652344 C 7.738281 19.71875 7.796875 19.777344 7.871094 19.777344 Z M 7.871094 19.777344 " fill-opacity="1" fill-rule="nonzero"/><path fill="#05100b" d="M 7.871094 19.167969 C 7.945312 19.167969 8.007812 19.109375 8.007812 19.039062 C 8.007812 18.972656 7.945312 18.914062 7.871094 18.914062 C 7.796875 18.914062 7.738281 18.972656 7.738281 19.039062 C 7.738281 19.109375 7.796875 19.167969 7.871094 19.167969 Z M 7.871094 19.167969 " fill-opacity="1" fill-rule="nonzero"/><g clip-path="url(#6b088a2c0f)"><path fill="#05100b" d="M 14.0625 21.683594 C 15.539062 21.683594 16.738281 20.5 16.738281 19.039062 C 16.738281 17.582031 15.539062 16.398438 14.0625 16.398438 C 12.585938 16.398438 11.386719 17.582031 11.386719 19.039062 C 11.386719 20.5 12.585938 21.683594 14.0625 21.683594 Z M 14.0625 21.683594 " fill-opacity="1" fill-rule="nonzero"/></g><path fill="#82c341" d="M 14.0625 20.808594 C 15.050781 20.808594 15.851562 20.015625 15.851562 19.039062 C 15.851562 18.066406 15.050781 17.273438 14.0625 17.273438 C 13.074219 17.273438 12.273438 18.066406 12.273438 19.039062 C 12.273438 20.015625 13.074219 20.808594 14.0625 20.808594 Z M 14.0625 20.808594 " fill-opacity="1" fill-rule="nonzero"/><path fill="#05100b" d="M 14.0625 20.640625 C 13.167969 20.640625 12.445312 19.921875 12.445312 19.039062 C 12.445312 18.160156 13.167969 17.441406 14.0625 17.441406 C 14.953125 17.441406 15.679688 18.160156 15.679688 19.039062 C 15.679688 19.921875 14.953125 20.640625 14.0625 20.640625 Z M 14.0625 17.589844 C 13.25 17.589844 12.589844 18.238281 12.589844 19.039062 C 12.589844 19.839844 13.25 20.492188 14.0625 20.492188 C 14.871094 20.492188 15.53125 19.839844 15.53125 19.039062 C 15.53125 18.238281 14.871094 17.589844 14.0625 17.589844 Z M 14.0625 17.589844 " fill-opacity="1" fill-rule="nonzero"/><path fill="#fbfbfb" d="M 14.0625 19.453125 C 14.292969 19.453125 14.480469 19.269531 14.480469 19.039062 C 14.480469 18.8125 14.292969 18.628906 14.0625 18.628906 C 13.832031 18.628906 13.644531 18.8125 13.644531 19.039062 C 13.644531 19.269531 13.832031 19.453125 14.0625 19.453125 Z M 14.0625 19.453125 " fill-opacity="0.5" fill-rule="nonzero"/><path fill="#246e40" d="M 14.0625 20.121094 C 13.457031 20.121094 12.96875 19.636719 12.96875 19.039062 C 12.96875 18.445312 13.457031 17.957031 14.0625 17.957031 C 14.664062 17.957031 15.15625 18.445312 15.15625 19.039062 C 15.15625 19.636719 14.664062 20.121094 14.0625 20.121094 Z M 14.0625 18.105469 C 13.539062 18.105469 13.113281 18.523438 13.113281 19.039062 C 13.113281 19.554688 13.539062 19.976562 14.0625 19.976562 C 14.585938 19.976562 15.011719 19.554688 15.011719 19.039062 C 15.011719 18.523438 14.585938 18.105469 14.0625 18.105469 Z M 14.0625 18.105469 " fill-opacity="0.75" fill-rule="nonzero"/><path fill="#05100b" d="M 14.628906 18.601562 C 14.675781 18.550781 14.671875 18.46875 14.621094 18.417969 C 14.566406 18.371094 14.484375 18.371094 14.433594 18.417969 C 14.386719 18.46875 14.390625 18.550781 14.445312 18.601562 C 14.5 18.652344 14.582031 18.652344 14.628906 18.601562 Z M 14.628906 18.601562 " fill-opacity="1" fill-rule="nonzero"/><path fill="#05100b" d="M 13.691406 19.582031 C 13.738281 19.53125 13.734375 19.449219 13.679688 19.398438 C 13.625 19.347656 13.542969 19.347656 13.496094 19.398438 C 13.445312 19.449219 13.453125 19.53125 13.503906 19.582031 C 13.558594 19.632812 13.640625 19.632812 13.691406 19.582031 Z M 13.691406 19.582031 " fill-opacity="1" fill-rule="nonzero"/><path fill="#05100b" d="M 13.679688 18.601562 C 13.734375 18.550781 13.738281 18.46875 13.6875 18.417969 C 13.640625 18.367188 13.558594 18.367188 13.503906 18.417969 C 13.449219 18.46875 13.445312 18.550781 13.496094 18.601562 C 13.542969 18.652344 13.625 18.652344 13.679688 18.601562 Z M 13.679688 18.601562 " fill-opacity="1" fill-rule="nonzero"/><path fill="#05100b" d="M 14.621094 19.582031 C 14.671875 19.53125 14.675781 19.449219 14.628906 19.398438 C 14.582031 19.347656 14.5 19.347656 14.445312 19.398438 C 14.390625 19.449219 14.386719 19.53125 14.433594 19.578125 C 14.484375 19.628906 14.566406 19.628906 14.621094 19.582031 Z M 14.621094 19.582031 " fill-opacity="1" fill-rule="nonzero"/><path fill="#05100b" d="M 13.378906 19.132812 C 13.449219 19.132812 13.507812 19.074219 13.507812 19 C 13.507812 18.925781 13.449219 18.867188 13.378906 18.867188 C 13.308594 18.867188 13.253906 18.925781 13.253906 19 C 13.253906 19.074219 13.308594 19.132812 13.378906 19.132812 Z M 13.378906 19.132812 " fill-opacity="1" fill-rule="nonzero"/><path fill="#05100b" d="M 14.746094 19.132812 C 14.816406 19.132812 14.871094 19.074219 14.871094 19 C 14.871094 18.925781 14.816406 18.867188 14.746094 18.867188 C 14.675781 18.867188 14.617188 18.925781 14.617188 19 C 14.617188 19.074219 14.675781 19.132812 14.746094 19.132812 Z M 14.746094 19.132812 " fill-opacity="1" fill-rule="nonzero"/><path fill="#05100b" d="M 14.0625 18.449219 C 14.136719 18.449219 14.195312 18.394531 14.195312 18.324219 C 14.195312 18.253906 14.136719 18.199219 14.0625 18.199219 C 13.988281 18.199219 13.929688 18.253906 13.929688 18.324219 C 13.929688 18.394531 13.988281 18.449219 14.0625 18.449219 Z M 14.0625 18.449219 " fill-opacity="1" fill-rule="nonzero"/><path fill="#05100b" d="M 14.0625 19.800781 C 14.136719 19.800781 14.195312 19.742188 14.195312 19.675781 C 14.195312 19.605469 14.136719 19.550781 14.0625 19.550781 C 13.988281 19.550781 13.929688 19.605469 13.929688 19.675781 C 13.929688 19.742188 13.988281 19.800781 14.0625 19.800781 Z M 14.0625 19.800781 " fill-opacity="1" fill-rule="nonzero"/><path fill="#05100b" d="M 14.0625 19.191406 C 14.136719 19.191406 14.195312 19.132812 14.195312 19.066406 C 14.195312 18.996094 14.136719 18.9375 14.0625 18.9375 C 13.988281 18.9375 13.929688 18.996094 13.929688 19.066406 C 13.929688 19.132812 13.988281 19.191406 14.0625 19.191406 Z M 14.0625 19.191406 " fill-opacity="1" fill-rule="nonzero"/><g clip-path="url(#3b0cab8a1c)"><path fill="#05100b" d="M 24.050781 21.640625 C 25.527344 21.640625 26.726562 20.460938 26.726562 19 C 26.726562 17.539062 25.527344 16.355469 24.050781 16.355469 C 22.574219 16.355469 21.375 17.539062 21.375 19 C 21.375 20.460938 22.574219 21.640625 24.050781 21.640625 Z M 24.050781 21.640625 " fill-opacity="1" fill-rule="nonzero"/></g><path fill="#82c341" d="M 24.050781 20.765625 C 25.039062 20.765625 25.839844 19.976562 25.839844 19 C 25.839844 18.023438 25.039062 17.234375 24.050781 17.234375 C 23.0625 17.234375 22.261719 18.023438 22.261719 19 C 22.261719 19.976562 23.0625 20.765625 24.050781 20.765625 Z M 24.050781 20.765625 " fill-opacity="1" fill-rule="nonzero"/><path fill="#05100b" d="M 24.050781 20.597656 C 23.160156 20.597656 22.433594 19.882812 22.433594 19 C 22.433594 18.117188 23.160156 17.402344 24.050781 17.402344 C 24.941406 17.402344 25.667969 18.117188 25.667969 19 C 25.667969 19.882812 24.941406 20.597656 24.050781 20.597656 Z M 24.050781 17.546875 C 23.238281 17.546875 22.582031 18.199219 22.582031 19 C 22.582031 19.800781 23.238281 20.453125 24.050781 20.453125 C 24.859375 20.453125 25.519531 19.800781 25.519531 19 C 25.519531 18.199219 24.859375 17.546875 24.050781 17.546875 Z M 24.050781 17.546875 " fill-opacity="1" fill-rule="nonzero"/><path fill="#fbfbfb" d="M 24.050781 19.414062 C 24.28125 19.414062 24.46875 19.226562 24.46875 19 C 24.46875 18.773438 24.28125 18.585938 24.050781 18.585938 C 23.820312 18.585938 23.632812 18.773438 23.632812 19 C 23.632812 19.226562 23.820312 19.414062 24.050781 19.414062 Z M 24.050781 19.414062 " fill-opacity="0.5" fill-rule="nonzero"/><path fill="#246e40" d="M 24.050781 20.082031 C 23.445312 20.082031 22.957031 19.597656 22.957031 19 C 22.957031 18.402344 23.445312 17.917969 24.050781 17.917969 C 24.65625 17.917969 25.144531 18.402344 25.144531 19 C 25.144531 19.597656 24.65625 20.082031 24.050781 20.082031 Z M 24.050781 18.0625 C 23.527344 18.0625 23.101562 18.484375 23.101562 19 C 23.101562 19.515625 23.527344 19.9375 24.050781 19.9375 C 24.574219 19.9375 25 19.515625 25 19 C 25 18.484375 24.574219 18.0625 24.050781 18.0625 Z M 24.050781 18.0625 " fill-opacity="0.75" fill-rule="nonzero"/><path fill="#05100b" d="M 24.617188 18.5625 C 24.667969 18.511719 24.664062 18.429688 24.609375 18.378906 C 24.554688 18.328125 24.472656 18.328125 24.425781 18.378906 C 24.375 18.429688 24.378906 18.511719 24.433594 18.5625 C 24.488281 18.613281 24.570312 18.613281 24.617188 18.5625 Z M 24.617188 18.5625 " fill-opacity="1" fill-rule="nonzero"/><path fill="#05100b" d="M 23.679688 19.539062 C 23.726562 19.492188 23.722656 19.410156 23.667969 19.359375 C 23.613281 19.308594 23.53125 19.308594 23.484375 19.359375 C 23.4375 19.410156 23.441406 19.492188 23.492188 19.542969 C 23.546875 19.589844 23.628906 19.589844 23.679688 19.539062 Z M 23.679688 19.539062 " fill-opacity="1" fill-rule="nonzero"/><path fill="#05100b" d="M 23.667969 18.558594 C 23.722656 18.507812 23.726562 18.425781 23.679688 18.378906 C 23.628906 18.328125 23.546875 18.328125 23.492188 18.375 C 23.441406 18.425781 23.433594 18.507812 23.484375 18.558594 C 23.53125 18.609375 23.613281 18.609375 23.667969 18.558594 Z M 23.667969 18.558594 " fill-opacity="1" fill-rule="nonzero"/><path fill="#05100b" d="M 24.609375 19.539062 C 24.660156 19.488281 24.667969 19.40625 24.617188 19.355469 C 24.570312 19.304688 24.488281 19.304688 24.433594 19.355469 C 24.378906 19.40625 24.375 19.488281 24.421875 19.539062 C 24.472656 19.589844 24.554688 19.589844 24.609375 19.539062 Z M 24.609375 19.539062 " fill-opacity="1" fill-rule="nonzero"/><path fill="#05100b" d="M 23.367188 19.089844 C 23.4375 19.089844 23.496094 19.03125 23.496094 18.957031 C 23.496094 18.886719 23.4375 18.828125 23.367188 18.828125 C 23.296875 18.828125 23.242188 18.886719 23.242188 18.957031 C 23.242188 19.03125 23.296875 19.089844 23.367188 19.089844 Z M 23.367188 19.089844 " fill-opacity="1" fill-rule="nonzero"/><path fill="#05100b" d="M 24.734375 19.089844 C 24.804688 19.089844 24.859375 19.03125 24.859375 18.957031 C 24.859375 18.886719 24.804688 18.828125 24.734375 18.828125 C 24.664062 18.828125 24.605469 18.886719 24.605469 18.957031 C 24.605469 19.03125 24.664062 19.089844 24.734375 19.089844 Z M 24.734375 19.089844 " fill-opacity="1" fill-rule="nonzero"/><path fill="#05100b" d="M 24.050781 18.410156 C 24.125 18.410156 24.183594 18.351562 24.183594 18.285156 C 24.183594 18.214844 24.125 18.160156 24.050781 18.160156 C 23.976562 18.160156 23.917969 18.214844 23.917969 18.285156 C 23.917969 18.351562 23.976562 18.410156 24.050781 18.410156 Z M 24.050781 18.410156 " fill-opacity="1" fill-rule="nonzero"/><path fill="#05100b" d="M 24.050781 19.757812 C 24.125 19.757812 24.183594 19.703125 24.183594 19.632812 C 24.183594 19.566406 24.125 19.507812 24.050781 19.507812 C 23.976562 19.507812 23.917969 19.566406 23.917969 19.632812 C 23.917969 19.703125 23.976562 19.757812 24.050781 19.757812 Z M 24.050781 19.757812 " fill-opacity="1" fill-rule="nonzero"/><path fill="#05100b" d="M 24.050781 19.148438 C 24.125 19.148438 24.183594 19.09375 24.183594 19.023438 C 24.183594 18.953125 24.125 18.898438 24.050781 18.898438 C 23.976562 18.898438 23.917969 18.953125 23.917969 19.023438 C 23.917969 19.09375 23.976562 19.148438 24.050781 19.148438 Z M 24.050781 19.148438 " fill-opacity="1" fill-rule="nonzero"/><g clip-path="url(#e4c2add52d)"><path fill="#82c341" d="M 7.726562 7.679688 L 7.164062 7.679688 C 6.964844 7.679688 6.773438 7.761719 6.640625 7.90625 L 1.691406 13.269531 C 0.769531 14.269531 0.347656 15.625 0.546875 16.964844 L 0.765625 18.441406 C 0.816406 18.785156 1.113281 19.039062 1.464844 19.039062 L 2.460938 19.039062 C 2.722656 19.039062 2.964844 18.894531 3.085938 18.664062 L 8.351562 8.703125 C 8.597656 8.238281 8.257812 7.679688 7.726562 7.679688 Z M 7.726562 7.679688 " fill-opacity="1" fill-rule="nonzero"/></g><g clip-path="url(#3256e92170)"><path fill="#246e40" d="M 3.085938 18.738281 C 3.074219 18.738281 3.066406 18.734375 3.054688 18.730469 C 3.019531 18.710938 3.003906 18.667969 3.023438 18.632812 L 8.289062 8.667969 C 8.390625 8.472656 8.382812 8.242188 8.269531 8.054688 C 8.152344 7.867188 7.949219 7.753906 7.726562 7.753906 C 7.683594 7.753906 7.652344 7.71875 7.652344 7.679688 C 7.652344 7.640625 7.683594 7.605469 7.726562 7.605469 C 8 7.605469 8.25 7.746094 8.394531 7.980469 C 8.539062 8.210938 8.546875 8.496094 8.417969 8.738281 L 3.152344 18.699219 C 3.140625 18.722656 3.113281 18.738281 3.085938 18.738281 Z M 3.085938 18.738281 " fill-opacity="1" fill-rule="nonzero"/></g><g clip-path="url(#373f7bd82e)"><path fill="#05100b" d="M 29.5 17.699219 L 29.5 15.105469 L 29.484375 15.105469 C 28.972656 15.105469 28.550781 15.519531 28.550781 16.027344 L 28.550781 16.777344 C 28.550781 17.285156 28.972656 17.699219 29.484375 17.699219 Z M 29.5 17.699219 " fill-opacity="0.45" fill-rule="nonzero"/></g><path fill="#fbfbfb" d="M 23.453125 9.234375 L 25.976562 9.234375 C 26.207031 9.234375 26.417969 9.367188 26.511719 9.574219 L 27.792969 12.363281 C 27.824219 12.4375 27.84375 12.519531 27.84375 12.601562 L 27.84375 12.613281 C 27.84375 12.933594 27.582031 13.191406 27.257812 13.191406 L 23.453125 13.191406 C 23.128906 13.191406 22.867188 12.933594 22.867188 12.613281 L 22.867188 9.8125 C 22.867188 9.492188 23.128906 9.234375 23.453125 9.234375 Z M 23.453125 9.234375 " fill-opacity="0.75" fill-rule="nonzero"/><path fill="#05100b" d="M 28.257812 11.703125 C 28.257812 11.433594 28.035156 11.210938 27.761719 11.210938 C 27.488281 11.210938 27.265625 11.433594 27.265625 11.703125 L 27.265625 13.582031 C 27.265625 13.855469 27.488281 14.074219 27.761719 14.074219 C 28.035156 14.074219 28.257812 13.855469 28.257812 13.582031 Z M 28.257812 11.703125 " fill-opacity="1" fill-rule="nonzero"/><path fill="#05100b" d="M 19.929688 17.988281 L 18.027344 17.988281 C 17.683594 17.988281 17.40625 18.265625 17.40625 18.605469 L 17.40625 19.710938 C 17.40625 20.050781 17.683594 20.328125 18.027344 20.328125 L 19.929688 20.328125 C 20.273438 20.328125 20.550781 20.050781 20.550781 19.710938 L 20.550781 18.605469 C 20.550781 18.265625 20.273438 17.988281 19.929688 17.988281 Z M 19.929688 17.988281 " fill-opacity="1" fill-rule="nonzero"/><path fill="#fbfbfb" d="M 19.929688 17.988281 L 18.027344 17.988281 C 17.683594 17.988281 17.40625 18.265625 17.40625 18.605469 L 17.40625 19.710938 C 17.40625 20.050781 17.683594 20.328125 18.027344 20.328125 L 19.929688 20.328125 C 20.273438 20.328125 20.550781 20.050781 20.550781 19.710938 L 20.550781 18.605469 C 20.550781 18.265625 20.273438 17.988281 19.929688 17.988281 Z M 19.929688 17.988281 " fill-opacity="0.5" fill-rule="nonzero"/><path fill="#fed14a" d="M 19.789062 18.726562 L 18.167969 18.726562 C 18.015625 18.726562 17.890625 18.847656 17.890625 19 C 17.890625 19.152344 18.015625 19.273438 18.167969 19.273438 L 19.789062 19.273438 C 19.945312 19.273438 20.066406 19.152344 20.066406 19 C 20.066406 18.847656 19.945312 18.726562 19.789062 18.726562 Z M 19.789062 18.726562 " fill-opacity="1" fill-rule="nonzero"/><g clip-path="url(#2421da88ab)"><path fill="#82c341" d="M 20.554688 8.261719 C 20.554688 8.113281 20.433594 7.996094 20.285156 7.996094 C 20.132812 7.996094 20.011719 8.113281 20.011719 8.261719 L 20.011719 17.25 C 20.011719 17.398438 20.132812 17.515625 20.285156 17.515625 C 20.433594 17.515625 20.554688 17.398438 20.554688 17.25 Z M 20.554688 8.261719 " fill-opacity="1" fill-rule="nonzero"/></g><path fill="#246e40" d="M 20.554688 17.003906 C 20.515625 17.003906 20.484375 16.96875 20.484375 16.929688 L 20.484375 8.261719 C 20.484375 8.222656 20.515625 8.191406 20.554688 8.191406 C 20.597656 8.191406 20.628906 8.222656 20.628906 8.261719 L 20.628906 16.929688 C 20.628906 16.96875 20.597656 17.003906 20.554688 17.003906 Z M 20.554688 17.003906 " fill-opacity="1" fill-rule="nonzero"/><path fill="#246e40" d="M 5.984375 11.042969 C 6.171875 11.042969 6.328125 10.886719 6.328125 10.699219 C 6.328125 10.511719 6.171875 10.359375 5.984375 10.359375 L 4.378906 10.359375 L 3.746094 11.042969 Z M 5.984375 11.042969 " fill-opacity="0.75" fill-rule="nonzero"/><path fill="#246e40" d="M 3.394531 13.875 C 3.582031 13.875 3.738281 13.722656 3.738281 13.535156 C 3.738281 13.347656 3.582031 13.191406 3.394531 13.191406 L 1.761719 13.191406 L 1.691406 13.265625 C 1.515625 13.457031 1.359375 13.660156 1.21875 13.875 Z M 3.394531 13.875 " fill-opacity="0.75" fill-rule="nonzero"/><g clip-path="url(#b279a95724)"><path fill="#246e40" d="M 2.492188 16.398438 L 0.5 16.398438 C 0.503906 16.585938 0.519531 16.777344 0.546875 16.964844 L 0.5625 17.082031 L 2.492188 17.082031 C 2.683594 17.082031 2.835938 16.925781 2.835938 16.738281 C 2.835938 16.550781 2.683594 16.398438 2.492188 16.398438 Z M 2.492188 16.398438 " fill-opacity="0.75" fill-rule="nonzero"/></g><path fill="#246e40" d="M 11.246094 11.535156 L 12.195312 12.148438 C 12.238281 12.175781 12.292969 12.167969 12.324219 12.125 L 13.179688 10.917969 C 13.210938 10.878906 13.203125 10.820312 13.160156 10.789062 L 12.433594 10.234375 C 12.414062 10.21875 12.386719 10.210938 12.359375 10.214844 C 12.273438 10.230469 12.0625 10.273438 11.910156 10.390625 C 11.75 10.519531 11.351562 11.179688 11.214844 11.410156 C 11.1875 11.453125 11.203125 11.507812 11.246094 11.535156 Z M 11.246094 11.535156 " fill-opacity="0.75" fill-rule="nonzero"/><path fill="#fbfbfb" d="M 11.910156 10.394531 C 11.910156 10.394531 12.363281 10.222656 12.671875 10.546875 C 12.910156 10.796875 13.207031 11.335938 13.332031 11.570312 C 13.363281 11.628906 13.335938 11.703125 13.273438 11.726562 L 13.183594 11.761719 C 13.148438 11.777344 13.152344 11.832031 13.195312 11.839844 L 14.230469 12.003906 C 14.3125 12.015625 14.398438 11.976562 14.441406 11.90625 L 14.976562 11.023438 C 15 10.988281 14.964844 10.945312 14.921875 10.960938 L 14.78125 11.015625 C 14.75 11.027344 14.71875 11.015625 14.699219 10.988281 C 14.585938 10.824219 14.160156 10.234375 13.882812 10.164062 C 13.5625 10.089844 12.789062 10.148438 12.316406 10.222656 C 12.046875 10.265625 11.910156 10.394531 11.910156 10.394531 Z M 11.910156 10.394531 " fill-opacity="1" fill-rule="nonzero"/><path fill="#246e40" d="M 14.9375 11.765625 L 14 12.394531 C 13.957031 12.421875 13.945312 12.476562 13.972656 12.519531 L 14.761719 13.769531 C 14.789062 13.8125 14.847656 13.824219 14.890625 13.800781 L 15.691406 13.351562 C 15.714844 13.339844 15.730469 13.320312 15.738281 13.292969 C 15.761719 13.207031 15.800781 13 15.746094 12.816406 C 15.691406 12.617188 15.230469 12 15.066406 11.789062 C 15.039062 11.75 14.980469 11.738281 14.9375 11.765625 Z M 14.9375 11.765625 " fill-opacity="0.75" fill-rule="nonzero"/><path fill="#fbfbfb" d="M 15.746094 12.816406 C 15.746094 12.816406 15.730469 13.292969 15.308594 13.449219 C 14.984375 13.566406 14.363281 13.632812 14.097656 13.65625 C 14.03125 13.660156 13.972656 13.609375 13.972656 13.542969 L 13.976562 13.445312 C 13.976562 13.40625 13.921875 13.390625 13.902344 13.421875 L 13.347656 14.304688 C 13.304688 14.375 13.304688 14.46875 13.355469 14.535156 L 13.96875 15.363281 C 13.996094 15.398438 14.046875 15.382812 14.050781 15.339844 L 14.054688 15.1875 C 14.058594 15.15625 14.078125 15.128906 14.109375 15.125 C 14.308594 15.082031 15.027344 14.925781 15.195312 14.699219 C 15.390625 14.4375 15.632812 13.710938 15.746094 13.25 C 15.8125 12.988281 15.746094 12.816406 15.746094 12.816406 Z M 15.746094 12.816406 " fill-opacity="1" fill-rule="nonzero"/><path fill="#246e40" d="M 13.007812 14.941406 L 13.011719 13.824219 C 13.011719 13.773438 12.972656 13.730469 12.921875 13.726562 L 11.429688 13.675781 C 11.378906 13.671875 11.335938 13.710938 11.332031 13.761719 L 11.257812 14.667969 C 11.253906 14.695312 11.265625 14.71875 11.28125 14.738281 C 11.339844 14.804688 11.492188 14.957031 11.675781 15.015625 C 11.875 15.082031 12.652344 15.050781 12.917969 15.035156 C 12.96875 15.035156 13.007812 14.992188 13.007812 14.941406 Z M 13.007812 14.941406 " fill-opacity="0.75" fill-rule="nonzero"/><path fill="#fbfbfb" d="M 11.675781 15.015625 C 11.675781 15.015625 11.285156 14.734375 11.394531 14.300781 C 11.476562 13.96875 11.769531 13.425781 11.898438 13.195312 C 11.933594 13.136719 12.007812 13.117188 12.0625 13.15625 L 12.144531 13.210938 C 12.179688 13.234375 12.21875 13.199219 12.203125 13.164062 L 11.777344 12.21875 C 11.742188 12.140625 11.664062 12.089844 11.578125 12.09375 L 10.539062 12.128906 C 10.496094 12.132812 10.480469 12.183594 10.515625 12.210938 L 10.640625 12.300781 C 10.664062 12.320312 10.671875 12.351562 10.660156 12.378906 C 10.582031 12.566406 10.3125 13.242188 10.40625 13.503906 C 10.515625 13.8125 10.992188 14.417969 11.3125 14.769531 C 11.496094 14.96875 11.675781 15.015625 11.675781 15.015625 Z M 11.675781 15.015625 " fill-opacity="1" fill-rule="nonzero"/><g clip-path="url(#2f3030aad5)"><path fill="#246e40" d="M 19.515625 7.871094 L 9.066406 7.871094 C 8.972656 7.871094 8.894531 7.945312 8.894531 8.042969 L 8.894531 8.09375 C 8.894531 8.1875 8.972656 8.265625 9.066406 8.265625 L 19.515625 8.265625 C 19.609375 8.265625 19.6875 8.1875 19.6875 8.09375 L 19.6875 8.042969 C 19.6875 7.945312 19.609375 7.871094 19.515625 7.871094 Z M 19.515625 7.871094 " fill-opacity="0.75" fill-rule="nonzero"/></g><path fill="#246e40" d="M 15.210938 8.9375 L 8.527344 8.9375 C 8.414062 8.9375 8.328125 9.027344 8.328125 9.136719 C 8.328125 9.246094 8.414062 9.332031 8.527344 9.332031 L 15.210938 9.332031 C 15.324219 9.332031 15.410156 9.246094 15.410156 9.136719 C 15.410156 9.027344 15.324219 8.9375 15.210938 8.9375 Z M 15.210938 8.9375 " fill-opacity="0.75" fill-rule="nonzero"/><path fill="#fbfbfb" d="M 25.375 9.234375 L 23.503906 13.191406 L 24.375 13.191406 L 26.21875 9.285156 C 26.144531 9.25 26.0625 9.234375 25.976562 9.234375 Z M 25.375 9.234375 " fill-opacity="1" fill-rule="nonzero"/><path fill="#fbfbfb" d="M 25.535156 13.191406 L 26.871094 10.359375 L 26.675781 9.925781 L 25.132812 13.191406 Z M 25.535156 13.191406 " fill-opacity="1" fill-rule="nonzero"/><path fill="#fbfbfb" d="M 23.984375 9.234375 L 22.867188 11.601562 L 22.867188 12.613281 C 22.867188 12.632812 22.867188 12.652344 22.871094 12.671875 L 24.492188 9.234375 Z M 23.984375 9.234375 " fill-opacity="1" fill-rule="nonzero"/><path fill="#05100b" d="M 22.867188 10.996094 C 22.824219 10.996094 22.792969 10.960938 22.792969 10.921875 L 22.792969 9.8125 C 22.792969 9.453125 23.089844 9.160156 23.453125 9.160156 L 25.976562 9.160156 C 26.019531 9.160156 26.050781 9.191406 26.050781 9.234375 C 26.050781 9.273438 26.019531 9.304688 25.976562 9.304688 L 23.453125 9.304688 C 23.171875 9.304688 22.941406 9.53125 22.941406 9.8125 L 22.941406 10.921875 C 22.941406 10.960938 22.90625 10.996094 22.867188 10.996094 Z M 22.867188 10.996094 " fill-opacity="1" fill-rule="nonzero"/><path fill="#05100b" d="M 27.253906 13.265625 L 24.375 13.265625 C 24.332031 13.265625 24.300781 13.234375 24.300781 13.191406 C 24.300781 13.152344 24.332031 13.121094 24.375 13.121094 L 27.253906 13.121094 C 27.539062 13.121094 27.769531 12.890625 27.769531 12.613281 L 27.769531 12.601562 C 27.769531 12.527344 27.753906 12.457031 27.722656 12.390625 C 27.707031 12.355469 27.722656 12.3125 27.761719 12.296875 C 27.796875 12.277344 27.839844 12.296875 27.859375 12.332031 C 27.898438 12.417969 27.917969 12.507812 27.917969 12.601562 L 27.917969 12.613281 C 27.917969 12.972656 27.621094 13.265625 27.253906 13.265625 Z M 27.253906 13.265625 " fill-opacity="1" fill-rule="nonzero"/><g transform="matrix(1, 0, 0, 1, 14, 23)"><g clip-path="url(#d3faba0fcf)"><g clip-path="url(#ba289d15f9)"><g fill="#ffffff" fill-opacity="1"><g transform="translate(0.742961, 2.46855)"><g><path d="M 0.25 0.015625 C 0.21875 0.015625 0.191406 0.00390625 0.171875 -0.015625 C 0.148438 -0.0351562 0.140625 -0.0625 0.140625 -0.09375 C 0.140625 -0.132812 0.148438 -0.164062 0.171875 -0.1875 C 0.191406 -0.207031 0.21875 -0.21875 0.25 -0.21875 C 0.289062 -0.21875 0.320312 -0.207031 0.34375 -0.1875 C 0.363281 -0.164062 0.375 -0.140625 0.375 -0.109375 C 0.375 -0.0664062 0.363281 -0.0351562 0.34375 -0.015625 C 0.320312 0.00390625 0.289062 0.015625 0.25 0.015625 Z M 0.25 0.015625 "/></g></g></g></g></g></g></svg>