<svg xmlns="http://www.w3.org/2000/svg" xmlns:xlink="http://www.w3.org/1999/xlink" width="96" zoomAndPan="magnify" viewBox="0 0 72 36.000001" height="48" preserveAspectRatio="xMidYMid meet" version="1.0"><defs><g/><clipPath id="a3f4c51751"><path d="M 9 0 L 64 0 L 64 35.027344 L 9 35.027344 Z M 9 0 " clip-rule="nonzero"/></clipPath><clipPath id="dd4538ce21"><rect x="0" width="55" y="0" height="36"/></clipPath></defs><g clip-path="url(#a3f4c51751)"><g transform="matrix(1, 0, 0, 1, 9, 0.000000000000010582)"><g clip-path="url(#dd4538ce21)"><g fill="#000000" fill-opacity="1"><g transform="translate(0.686535, 12.112254)"><g><path d="M 2.953125 -8.984375 L 2.953125 -1.484375 L 6.984375 -1.484375 L 6.984375 0 L 1.171875 0 L 1.171875 -8.984375 Z M 2.953125 -8.984375 "/></g></g></g><g fill="#000000" fill-opacity="1"><g transform="translate(7.962503, 12.112254)"><g><path d="M 7.203125 -8.984375 L 7.203125 -7.5 L 4.609375 -7.5 L 4.609375 0 L 2.84375 0 L 2.84375 -7.5 L 0.25 -7.5 L 0.25 -8.984375 Z M 7.203125 -8.984375 "/></g></g></g><g fill="#000000" fill-opacity="1"><g transform="translate(15.410537, 12.112254)"><g><path d="M 1.171875 0 L 1.171875 -8.984375 L 4.78125 -8.984375 C 5.707031 -8.984375 6.40625 -8.769531 6.875 -8.34375 C 7.351562 -7.914062 7.59375 -7.328125 7.59375 -6.578125 C 7.59375 -6.023438 7.453125 -5.570312 7.171875 -5.21875 C 6.898438 -4.875 6.488281 -4.613281 5.9375 -4.4375 L 5.9375 -4.296875 C 6.21875 -4.179688 6.445312 -4 6.625 -3.75 C 6.800781 -3.507812 6.96875 -3.15625 7.125 -2.6875 L 8.015625 0 L 6.1875 0 L 5.3125 -2.6875 C 5.21875 -2.957031 5.113281 -3.164062 5 -3.3125 C 4.894531 -3.46875 4.753906 -3.578125 4.578125 -3.640625 C 4.398438 -3.710938 4.175781 -3.75 3.90625 -3.75 L 2.953125 -3.75 L 2.953125 0 Z M 4.5625 -5.15625 C 5.425781 -5.15625 5.859375 -5.554688 5.859375 -6.359375 C 5.859375 -7.171875 5.425781 -7.578125 4.5625 -7.578125 L 2.953125 -7.578125 L 2.953125 -5.15625 Z M 4.5625 -5.15625 "/></g></g></g><g fill="#000000" fill-opacity="1"><g transform="translate(23.811084, 12.112254)"><g><path d="M 4.296875 -3.609375 L 0.53125 -3.609375 L 0.53125 -5.109375 L 4.296875 -5.109375 Z M 4.296875 -3.609375 "/></g></g></g><g fill="#000000" fill-opacity="1"><g transform="translate(28.659681, 12.112254)"><g><path d="M 2.890625 0 L 1.171875 0 L 1.171875 -8.984375 L 3.203125 -8.984375 L 6.8125 -3.203125 L 6.96875 -3.21875 L 6.96875 -8.984375 L 8.6875 -8.984375 L 8.6875 0 L 6.859375 0 L 3.046875 -6.1875 L 2.890625 -6.15625 Z M 2.890625 0 "/></g></g></g><g fill="#000000" fill-opacity="1"><g transform="translate(38.510506, 12.112254)"><g><path d="M 2.953125 -3.953125 L 2.953125 -1.484375 L 7.234375 -1.484375 L 7.234375 0 L 1.171875 0 L 1.171875 -8.984375 L 7.140625 -8.984375 L 7.140625 -7.5 L 2.953125 -7.5 L 2.953125 -5.40625 L 6.609375 -5.40625 L 6.609375 -3.953125 Z M 2.953125 -3.953125 "/></g></g></g><g fill="#000000" fill-opacity="1"><g transform="translate(46.235076, 12.112254)"><g><path d="M 7.203125 -8.984375 L 7.203125 -7.5 L 4.609375 -7.5 L 4.609375 0 L 2.84375 0 L 2.84375 -7.5 L 0.25 -7.5 L 0.25 -8.984375 Z M 7.203125 -8.984375 "/></g></g></g><g fill="#000000" fill-opacity="1"><g transform="translate(0.194916, 30.990441)"><g><path d="M 5.125 0.15625 C 4.269531 0.15625 3.523438 -0.03125 2.890625 -0.40625 C 2.253906 -0.789062 1.757812 -1.382812 1.40625 -2.1875 C 1.050781 -3 0.875 -4.019531 0.875 -5.25 C 0.875 -6.46875 1.050781 -7.476562 1.40625 -8.28125 C 1.757812 -9.09375 2.253906 -9.6875 2.890625 -10.0625 C 3.523438 -10.445312 4.269531 -10.640625 5.125 -10.640625 C 5.976562 -10.640625 6.722656 -10.445312 7.359375 -10.0625 C 7.992188 -9.6875 8.484375 -9.09375 8.828125 -8.28125 C 9.179688 -7.476562 9.359375 -6.46875 9.359375 -5.25 C 9.359375 -4.019531 9.179688 -3 8.828125 -2.1875 C 8.484375 -1.382812 7.992188 -0.789062 7.359375 -0.40625 C 6.722656 -0.03125 5.976562 0.15625 5.125 0.15625 Z M 5.125 -1.609375 C 5.59375 -1.609375 5.984375 -1.71875 6.296875 -1.9375 C 6.609375 -2.164062 6.847656 -2.546875 7.015625 -3.078125 C 7.191406 -3.617188 7.28125 -4.34375 7.28125 -5.25 C 7.28125 -6.144531 7.191406 -6.859375 7.015625 -7.390625 C 6.847656 -7.929688 6.609375 -8.3125 6.296875 -8.53125 C 5.984375 -8.757812 5.59375 -8.875 5.125 -8.875 C 4.65625 -8.875 4.257812 -8.757812 3.9375 -8.53125 C 3.625 -8.3125 3.382812 -7.929688 3.21875 -7.390625 C 3.050781 -6.859375 2.96875 -6.144531 2.96875 -5.25 C 2.96875 -4.34375 3.050781 -3.617188 3.21875 -3.078125 C 3.382812 -2.546875 3.625 -2.164062 3.9375 -1.9375 C 4.257812 -1.71875 4.65625 -1.609375 5.125 -1.609375 Z M 5.125 -1.609375 "/></g></g></g><g fill="#000000" fill-opacity="1"><g transform="translate(10.442924, 30.990441)"><g><path d="M 0.546875 0 L 0.546875 -1.71875 L 3.078125 -1.71875 L 3.078125 -8.234375 L 2.921875 -8.28125 C 2.554688 -8.113281 2.203125 -7.976562 1.859375 -7.875 C 1.515625 -7.769531 1.117188 -7.691406 0.671875 -7.640625 L 0.671875 -9.40625 C 1.835938 -9.65625 2.78125 -10.015625 3.5 -10.484375 L 5.140625 -10.484375 L 5.140625 -1.71875 L 7.390625 -1.71875 L 7.390625 0 Z M 0.546875 0 "/></g></g></g><g fill="#000000" fill-opacity="1"><g transform="translate(18.180926, 30.990441)"><g><path d="M 5.125 0.15625 C 4.269531 0.15625 3.523438 -0.03125 2.890625 -0.40625 C 2.253906 -0.789062 1.757812 -1.382812 1.40625 -2.1875 C 1.050781 -3 0.875 -4.019531 0.875 -5.25 C 0.875 -6.46875 1.050781 -7.476562 1.40625 -8.28125 C 1.757812 -9.09375 2.253906 -9.6875 2.890625 -10.0625 C 3.523438 -10.445312 4.269531 -10.640625 5.125 -10.640625 C 5.976562 -10.640625 6.722656 -10.445312 7.359375 -10.0625 C 7.992188 -9.6875 8.484375 -9.09375 8.828125 -8.28125 C 9.179688 -7.476562 9.359375 -6.46875 9.359375 -5.25 C 9.359375 -4.019531 9.179688 -3 8.828125 -2.1875 C 8.484375 -1.382812 7.992188 -0.789062 7.359375 -0.40625 C 6.722656 -0.03125 5.976562 0.15625 5.125 0.15625 Z M 5.125 -1.609375 C 5.59375 -1.609375 5.984375 -1.71875 6.296875 -1.9375 C 6.609375 -2.164062 6.847656 -2.546875 7.015625 -3.078125 C 7.191406 -3.617188 7.28125 -4.34375 7.28125 -5.25 C 7.28125 -6.144531 7.191406 -6.859375 7.015625 -7.390625 C 6.847656 -7.929688 6.609375 -8.3125 6.296875 -8.53125 C 5.984375 -8.757812 5.59375 -8.875 5.125 -8.875 C 4.65625 -8.875 4.257812 -8.757812 3.9375 -8.53125 C 3.625 -8.3125 3.382812 -7.929688 3.21875 -7.390625 C 3.050781 -6.859375 2.96875 -6.144531 2.96875 -5.25 C 2.96875 -4.34375 3.050781 -3.617188 3.21875 -3.078125 C 3.382812 -2.546875 3.625 -2.164062 3.9375 -1.9375 C 4.257812 -1.71875 4.65625 -1.609375 5.125 -1.609375 Z M 5.125 -1.609375 "/></g></g></g><g fill="#000000" fill-opacity="1"><g transform="translate(28.428934, 30.990441)"><g><path d="M 0.546875 0 L 0.546875 -1.71875 L 3.078125 -1.71875 L 3.078125 -8.234375 L 2.921875 -8.28125 C 2.554688 -8.113281 2.203125 -7.976562 1.859375 -7.875 C 1.515625 -7.769531 1.117188 -7.691406 0.671875 -7.640625 L 0.671875 -9.40625 C 1.835938 -9.65625 2.78125 -10.015625 3.5 -10.484375 L 5.140625 -10.484375 L 5.140625 -1.71875 L 7.390625 -1.71875 L 7.390625 0 Z M 0.546875 0 "/></g></g></g><g fill="#000000" fill-opacity="1"><g transform="translate(36.166936, 30.990441)"><g><path d="M 5.125 0.15625 C 4.269531 0.15625 3.523438 -0.03125 2.890625 -0.40625 C 2.253906 -0.789062 1.757812 -1.382812 1.40625 -2.1875 C 1.050781 -3 0.875 -4.019531 0.875 -5.25 C 0.875 -6.46875 1.050781 -7.476562 1.40625 -8.28125 C 1.757812 -9.09375 2.253906 -9.6875 2.890625 -10.0625 C 3.523438 -10.445312 4.269531 -10.640625 5.125 -10.640625 C 5.976562 -10.640625 6.722656 -10.445312 7.359375 -10.0625 C 7.992188 -9.6875 8.484375 -9.09375 8.828125 -8.28125 C 9.179688 -7.476562 9.359375 -6.46875 9.359375 -5.25 C 9.359375 -4.019531 9.179688 -3 8.828125 -2.1875 C 8.484375 -1.382812 7.992188 -0.789062 7.359375 -0.40625 C 6.722656 -0.03125 5.976562 0.15625 5.125 0.15625 Z M 5.125 -1.609375 C 5.59375 -1.609375 5.984375 -1.71875 6.296875 -1.9375 C 6.609375 -2.164062 6.847656 -2.546875 7.015625 -3.078125 C 7.191406 -3.617188 7.28125 -4.34375 7.28125 -5.25 C 7.28125 -6.144531 7.191406 -6.859375 7.015625 -7.390625 C 6.847656 -7.929688 6.609375 -8.3125 6.296875 -8.53125 C 5.984375 -8.757812 5.59375 -8.875 5.125 -8.875 C 4.65625 -8.875 4.257812 -8.757812 3.9375 -8.53125 C 3.625 -8.3125 3.382812 -7.929688 3.21875 -7.390625 C 3.050781 -6.859375 2.96875 -6.144531 2.96875 -5.25 C 2.96875 -4.34375 3.050781 -3.617188 3.21875 -3.078125 C 3.382812 -2.546875 3.625 -2.164062 3.9375 -1.9375 C 4.257812 -1.71875 4.65625 -1.609375 5.125 -1.609375 Z M 5.125 -1.609375 "/></g></g></g><g fill="#000000" fill-opacity="1"><g transform="translate(46.414944, 30.990441)"><g><path d="M 0.546875 0 L 0.546875 -1.71875 L 3.078125 -1.71875 L 3.078125 -8.234375 L 2.921875 -8.28125 C 2.554688 -8.113281 2.203125 -7.976562 1.859375 -7.875 C 1.515625 -7.769531 1.117188 -7.691406 0.671875 -7.640625 L 0.671875 -9.40625 C 1.835938 -9.65625 2.78125 -10.015625 3.5 -10.484375 L 5.140625 -10.484375 L 5.140625 -1.71875 L 7.390625 -1.71875 L 7.390625 0 Z M 0.546875 0 "/></g></g></g></g></g></g></svg>