<svg xmlns="http://www.w3.org/2000/svg" xmlns:xlink="http://www.w3.org/1999/xlink" width="96" zoomAndPan="magnify" viewBox="0 0 72 36.000001" height="48" preserveAspectRatio="xMidYMid meet" version="1.0"><defs><g/><clipPath id="b3d3eb0d78"><path d="M 4 0 L 69 0 L 69 35.027344 L 4 35.027344 Z M 4 0 " clip-rule="nonzero"/></clipPath><clipPath id="59ff41c47f"><rect x="0" width="65" y="0" height="36"/></clipPath></defs><g clip-path="url(#b3d3eb0d78)"><g transform="matrix(1, 0, 0, 1, 4, 0.000000000000010582)"><g clip-path="url(#59ff41c47f)"><g fill="#000000" fill-opacity="1"><g transform="translate(1.122669, 12.112254)"><g><path d="M 2.796875 0 L 1.171875 0 L 1.171875 -8.984375 L 3.5 -8.984375 L 5.765625 -2.375 L 5.890625 -2.375 L 8.15625 -8.984375 L 10.421875 -8.984375 L 10.421875 0 L 8.75 0 L 8.75 -5.9375 L 8.59375 -5.96875 L 6.515625 0 L 5.03125 0 L 2.953125 -5.96875 L 2.796875 -5.9375 Z M 2.796875 0 "/></g></g></g><g fill="#000000" fill-opacity="1"><g transform="translate(12.718743, 12.112254)"><g><path d="M 4.90625 0.125 C 4.082031 0.125 3.351562 -0.0390625 2.71875 -0.375 C 2.09375 -0.707031 1.597656 -1.21875 1.234375 -1.90625 C 0.878906 -2.601562 0.703125 -3.46875 0.703125 -4.5 C 0.703125 -5.519531 0.878906 -6.375 1.234375 -7.0625 C 1.597656 -7.757812 2.09375 -8.273438 2.71875 -8.609375 C 3.351562 -8.953125 4.082031 -9.125 4.90625 -9.125 C 5.726562 -9.125 6.453125 -8.953125 7.078125 -8.609375 C 7.703125 -8.273438 8.191406 -7.757812 8.546875 -7.0625 C 8.898438 -6.375 9.078125 -5.519531 9.078125 -4.5 C 9.078125 -3.46875 8.898438 -2.601562 8.546875 -1.90625 C 8.191406 -1.21875 7.703125 -0.707031 7.078125 -0.375 C 6.453125 -0.0390625 5.726562 0.125 4.90625 0.125 Z M 4.90625 -1.421875 C 5.664062 -1.421875 6.242188 -1.664062 6.640625 -2.15625 C 7.046875 -2.644531 7.25 -3.425781 7.25 -4.5 C 7.25 -5.570312 7.046875 -6.351562 6.640625 -6.84375 C 6.242188 -7.332031 5.664062 -7.578125 4.90625 -7.578125 C 4.132812 -7.578125 3.546875 -7.332031 3.140625 -6.84375 C 2.742188 -6.351562 2.546875 -5.570312 2.546875 -4.5 C 2.546875 -3.425781 2.742188 -2.644531 3.140625 -2.15625 C 3.546875 -1.664062 4.132812 -1.421875 4.90625 -1.421875 Z M 4.90625 -1.421875 "/></g></g></g><g fill="#000000" fill-opacity="1"><g transform="translate(22.508115, 12.112254)"><g><path d="M 7.203125 -8.984375 L 7.203125 -7.5 L 4.609375 -7.5 L 4.609375 0 L 2.84375 0 L 2.84375 -7.5 L 0.25 -7.5 L 0.25 -8.984375 Z M 7.203125 -8.984375 "/></g></g></g><g fill="#000000" fill-opacity="1"><g transform="translate(29.956149, 12.112254)"><g><path d="M 4.90625 0.125 C 4.082031 0.125 3.351562 -0.0390625 2.71875 -0.375 C 2.09375 -0.707031 1.597656 -1.21875 1.234375 -1.90625 C 0.878906 -2.601562 0.703125 -3.46875 0.703125 -4.5 C 0.703125 -5.519531 0.878906 -6.375 1.234375 -7.0625 C 1.597656 -7.757812 2.09375 -8.273438 2.71875 -8.609375 C 3.351562 -8.953125 4.082031 -9.125 4.90625 -9.125 C 5.726562 -9.125 6.453125 -8.953125 7.078125 -8.609375 C 7.703125 -8.273438 8.191406 -7.757812 8.546875 -7.0625 C 8.898438 -6.375 9.078125 -5.519531 9.078125 -4.5 C 9.078125 -3.46875 8.898438 -2.601562 8.546875 -1.90625 C 8.191406 -1.21875 7.703125 -0.707031 7.078125 -0.375 C 6.453125 -0.0390625 5.726562 0.125 4.90625 0.125 Z M 4.90625 -1.421875 C 5.664062 -1.421875 6.242188 -1.664062 6.640625 -2.15625 C 7.046875 -2.644531 7.25 -3.425781 7.25 -4.5 C 7.25 -5.570312 7.046875 -6.351562 6.640625 -6.84375 C 6.242188 -7.332031 5.664062 -7.578125 4.90625 -7.578125 C 4.132812 -7.578125 3.546875 -7.332031 3.140625 -6.84375 C 2.742188 -6.351562 2.546875 -5.570312 2.546875 -4.5 C 2.546875 -3.425781 2.742188 -2.644531 3.140625 -2.15625 C 3.546875 -1.664062 4.132812 -1.421875 4.90625 -1.421875 Z M 4.90625 -1.421875 "/></g></g></g><g fill="#000000" fill-opacity="1"><g transform="translate(39.745521, 12.112254)"><g/></g></g><g fill="#000000" fill-opacity="1"><g transform="translate(42.713674, 12.112254)"><g><path d="M 7.203125 -8.984375 L 7.203125 -7.5 L 4.609375 -7.5 L 4.609375 0 L 2.84375 0 L 2.84375 -7.5 L 0.25 -7.5 L 0.25 -8.984375 Z M 7.203125 -8.984375 "/></g></g></g><g fill="#000000" fill-opacity="1"><g transform="translate(50.161708, 12.112254)"><g><path d="M 4.296875 -3.609375 L 0.53125 -3.609375 L 0.53125 -5.109375 L 4.296875 -5.109375 Z M 4.296875 -3.609375 "/></g></g></g><g fill="#000000" fill-opacity="1"><g transform="translate(55.010305, 12.112254)"><g><path d="M 2.953125 0 L 1.171875 0 L 1.171875 -8.984375 L 2.953125 -8.984375 Z M 2.953125 0 "/></g></g></g><g fill="#000000" fill-opacity="1"><g transform="translate(59.127617, 12.112254)"><g><path d="M 2.953125 0 L 1.171875 0 L 1.171875 -8.984375 L 2.953125 -8.984375 Z M 2.953125 0 "/></g></g></g><g fill="#000000" fill-opacity="1"><g transform="translate(5.20311, 30.990441)"><g><path d="M 5.125 0.15625 C 4.269531 0.15625 3.523438 -0.03125 2.890625 -0.40625 C 2.253906 -0.789062 1.757812 -1.382812 1.40625 -2.1875 C 1.050781 -3 0.875 -4.019531 0.875 -5.25 C 0.875 -6.46875 1.050781 -7.476562 1.40625 -8.28125 C 1.757812 -9.09375 2.253906 -9.6875 2.890625 -10.0625 C 3.523438 -10.445312 4.269531 -10.640625 5.125 -10.640625 C 5.976562 -10.640625 6.722656 -10.445312 7.359375 -10.0625 C 7.992188 -9.6875 8.484375 -9.09375 8.828125 -8.28125 C 9.179688 -7.476562 9.359375 -6.46875 9.359375 -5.25 C 9.359375 -4.019531 9.179688 -3 8.828125 -2.1875 C 8.484375 -1.382812 7.992188 -0.789062 7.359375 -0.40625 C 6.722656 -0.03125 5.976562 0.15625 5.125 0.15625 Z M 5.125 -1.609375 C 5.59375 -1.609375 5.984375 -1.71875 6.296875 -1.9375 C 6.609375 -2.164062 6.847656 -2.546875 7.015625 -3.078125 C 7.191406 -3.617188 7.28125 -4.34375 7.28125 -5.25 C 7.28125 -6.144531 7.191406 -6.859375 7.015625 -7.390625 C 6.847656 -7.929688 6.609375 -8.3125 6.296875 -8.53125 C 5.984375 -8.757812 5.59375 -8.875 5.125 -8.875 C 4.65625 -8.875 4.257812 -8.757812 3.9375 -8.53125 C 3.625 -8.3125 3.382812 -7.929688 3.21875 -7.390625 C 3.050781 -6.859375 2.96875 -6.144531 2.96875 -5.25 C 2.96875 -4.34375 3.050781 -3.617188 3.21875 -3.078125 C 3.382812 -2.546875 3.625 -2.164062 3.9375 -1.9375 C 4.257812 -1.71875 4.65625 -1.609375 5.125 -1.609375 Z M 5.125 -1.609375 "/></g></g></g><g fill="#000000" fill-opacity="1"><g transform="translate(15.451119, 30.990441)"><g><path d="M 0.546875 0 L 0.546875 -1.71875 L 3.078125 -1.71875 L 3.078125 -8.234375 L 2.921875 -8.28125 C 2.554688 -8.113281 2.203125 -7.976562 1.859375 -7.875 C 1.515625 -7.769531 1.117188 -7.691406 0.671875 -7.640625 L 0.671875 -9.40625 C 1.835938 -9.65625 2.78125 -10.015625 3.5 -10.484375 L 5.140625 -10.484375 L 5.140625 -1.71875 L 7.390625 -1.71875 L 7.390625 0 Z M 0.546875 0 "/></g></g></g><g fill="#000000" fill-opacity="1"><g transform="translate(23.18912, 30.990441)"><g><path d="M 5.125 0.15625 C 4.269531 0.15625 3.523438 -0.03125 2.890625 -0.40625 C 2.253906 -0.789062 1.757812 -1.382812 1.40625 -2.1875 C 1.050781 -3 0.875 -4.019531 0.875 -5.25 C 0.875 -6.46875 1.050781 -7.476562 1.40625 -8.28125 C 1.757812 -9.09375 2.253906 -9.6875 2.890625 -10.0625 C 3.523438 -10.445312 4.269531 -10.640625 5.125 -10.640625 C 5.976562 -10.640625 6.722656 -10.445312 7.359375 -10.0625 C 7.992188 -9.6875 8.484375 -9.09375 8.828125 -8.28125 C 9.179688 -7.476562 9.359375 -6.46875 9.359375 -5.25 C 9.359375 -4.019531 9.179688 -3 8.828125 -2.1875 C 8.484375 -1.382812 7.992188 -0.789062 7.359375 -0.40625 C 6.722656 -0.03125 5.976562 0.15625 5.125 0.15625 Z M 5.125 -1.609375 C 5.59375 -1.609375 5.984375 -1.71875 6.296875 -1.9375 C 6.609375 -2.164062 6.847656 -2.546875 7.015625 -3.078125 C 7.191406 -3.617188 7.28125 -4.34375 7.28125 -5.25 C 7.28125 -6.144531 7.191406 -6.859375 7.015625 -7.390625 C 6.847656 -7.929688 6.609375 -8.3125 6.296875 -8.53125 C 5.984375 -8.757812 5.59375 -8.875 5.125 -8.875 C 4.65625 -8.875 4.257812 -8.757812 3.9375 -8.53125 C 3.625 -8.3125 3.382812 -7.929688 3.21875 -7.390625 C 3.050781 -6.859375 2.96875 -6.144531 2.96875 -5.25 C 2.96875 -4.34375 3.050781 -3.617188 3.21875 -3.078125 C 3.382812 -2.546875 3.625 -2.164062 3.9375 -1.9375 C 4.257812 -1.71875 4.65625 -1.609375 5.125 -1.609375 Z M 5.125 -1.609375 "/></g></g></g><g fill="#000000" fill-opacity="1"><g transform="translate(33.437129, 30.990441)"><g><path d="M 0.546875 0 L 0.546875 -1.71875 L 3.078125 -1.71875 L 3.078125 -8.234375 L 2.921875 -8.28125 C 2.554688 -8.113281 2.203125 -7.976562 1.859375 -7.875 C 1.515625 -7.769531 1.117188 -7.691406 0.671875 -7.640625 L 0.671875 -9.40625 C 1.835938 -9.65625 2.78125 -10.015625 3.5 -10.484375 L 5.140625 -10.484375 L 5.140625 -1.71875 L 7.390625 -1.71875 L 7.390625 0 Z M 0.546875 0 "/></g></g></g><g fill="#000000" fill-opacity="1"><g transform="translate(41.17513, 30.990441)"><g><path d="M 5.125 0.15625 C 4.269531 0.15625 3.523438 -0.03125 2.890625 -0.40625 C 2.253906 -0.789062 1.757812 -1.382812 1.40625 -2.1875 C 1.050781 -3 0.875 -4.019531 0.875 -5.25 C 0.875 -6.46875 1.050781 -7.476562 1.40625 -8.28125 C 1.757812 -9.09375 2.253906 -9.6875 2.890625 -10.0625 C 3.523438 -10.445312 4.269531 -10.640625 5.125 -10.640625 C 5.976562 -10.640625 6.722656 -10.445312 7.359375 -10.0625 C 7.992188 -9.6875 8.484375 -9.09375 8.828125 -8.28125 C 9.179688 -7.476562 9.359375 -6.46875 9.359375 -5.25 C 9.359375 -4.019531 9.179688 -3 8.828125 -2.1875 C 8.484375 -1.382812 7.992188 -0.789062 7.359375 -0.40625 C 6.722656 -0.03125 5.976562 0.15625 5.125 0.15625 Z M 5.125 -1.609375 C 5.59375 -1.609375 5.984375 -1.71875 6.296875 -1.9375 C 6.609375 -2.164062 6.847656 -2.546875 7.015625 -3.078125 C 7.191406 -3.617188 7.28125 -4.34375 7.28125 -5.25 C 7.28125 -6.144531 7.191406 -6.859375 7.015625 -7.390625 C 6.847656 -7.929688 6.609375 -8.3125 6.296875 -8.53125 C 5.984375 -8.757812 5.59375 -8.875 5.125 -8.875 C 4.65625 -8.875 4.257812 -8.757812 3.9375 -8.53125 C 3.625 -8.3125 3.382812 -7.929688 3.21875 -7.390625 C 3.050781 -6.859375 2.96875 -6.144531 2.96875 -5.25 C 2.96875 -4.34375 3.050781 -3.617188 3.21875 -3.078125 C 3.382812 -2.546875 3.625 -2.164062 3.9375 -1.9375 C 4.257812 -1.71875 4.65625 -1.609375 5.125 -1.609375 Z M 5.125 -1.609375 "/></g></g></g><g fill="#000000" fill-opacity="1"><g transform="translate(51.423139, 30.990441)"><g><path d="M 0.546875 0 L 0.546875 -1.71875 L 3.078125 -1.71875 L 3.078125 -8.234375 L 2.921875 -8.28125 C 2.554688 -8.113281 2.203125 -7.976562 1.859375 -7.875 C 1.515625 -7.769531 1.117188 -7.691406 0.671875 -7.640625 L 0.671875 -9.40625 C 1.835938 -9.65625 2.78125 -10.015625 3.5 -10.484375 L 5.140625 -10.484375 L 5.140625 -1.71875 L 7.390625 -1.71875 L 7.390625 0 Z M 0.546875 0 "/></g></g></g></g></g></g></svg>