<svg xmlns="http://www.w3.org/2000/svg" xmlns:xlink="http://www.w3.org/1999/xlink" width="96" zoomAndPan="magnify" viewBox="0 0 72 36.000001" height="48" preserveAspectRatio="xMidYMid meet" version="1.0"><defs><g/><clipPath id="08a222dfe8"><path d="M 12 0 L 65 0 L 65 35.027344 L 12 35.027344 Z M 12 0 " clip-rule="nonzero"/></clipPath><clipPath id="e6d4b59222"><rect x="0" width="53" y="0" height="36"/></clipPath></defs><g clip-path="url(#08a222dfe8)"><g transform="matrix(1, 0, 0, 1, 12, 0.000000000000010582)"><g clip-path="url(#e6d4b59222)"><g fill="#000000" fill-opacity="1"><g transform="translate(0.339086, 12.433296)"><g><path d="M 3.015625 0 L 1.265625 0 L 1.265625 -9.6875 L 3.765625 -9.6875 L 6.21875 -2.5625 L 6.34375 -2.5625 L 8.78125 -9.6875 L 11.234375 -9.6875 L 11.234375 0 L 9.421875 0 L 9.421875 -6.390625 L 9.25 -6.421875 L 7.015625 0 L 5.421875 0 L 3.171875 -6.421875 L 3.015625 -6.390625 Z M 3.015625 0 "/></g></g></g><g fill="#000000" fill-opacity="1"><g transform="translate(12.824833, 12.433296)"><g><path d="M 5 -9.6875 C 5.695312 -9.6875 6.289062 -9.554688 6.78125 -9.296875 C 7.269531 -9.046875 7.640625 -8.691406 7.890625 -8.234375 C 8.140625 -7.773438 8.265625 -7.242188 8.265625 -6.640625 C 8.265625 -6.035156 8.140625 -5.503906 7.890625 -5.046875 C 7.640625 -4.597656 7.269531 -4.242188 6.78125 -3.984375 C 6.289062 -3.734375 5.695312 -3.609375 5 -3.609375 L 3.171875 -3.609375 L 3.171875 0 L 1.265625 0 L 1.265625 -9.6875 Z M 4.75 -5.125 C 5.8125 -5.125 6.34375 -5.628906 6.34375 -6.640625 C 6.34375 -7.660156 5.8125 -8.171875 4.75 -8.171875 L 3.171875 -8.171875 L 3.171875 -5.125 Z M 4.75 -5.125 "/></g></g></g><g fill="#000000" fill-opacity="1"><g transform="translate(21.664765, 12.433296)"><g><path d="M 7.765625 -9.6875 L 7.765625 -8.078125 L 4.96875 -8.078125 L 4.96875 0 L 3.0625 0 L 3.0625 -8.078125 L 0.265625 -8.078125 L 0.265625 -9.6875 Z M 7.765625 -9.6875 "/></g></g></g><g fill="#000000" fill-opacity="1"><g transform="translate(29.684224, 12.433296)"><g><path d="M 0.515625 0 L 0.515625 -1.578125 L 2.84375 -1.578125 L 2.84375 -7.609375 L 2.6875 -7.65625 C 2.363281 -7.488281 2.039062 -7.359375 1.71875 -7.265625 C 1.394531 -7.171875 1.03125 -7.097656 0.625 -7.046875 L 0.625 -8.6875 C 1.695312 -8.914062 2.5625 -9.25 3.21875 -9.6875 L 4.734375 -9.6875 L 4.734375 -1.578125 L 6.828125 -1.578125 L 6.828125 0 Z M 0.515625 0 "/></g></g></g><g fill="#000000" fill-opacity="1"><g transform="translate(36.823665, 12.433296)"><g><path d="M 3.953125 0.140625 C 2.910156 0.140625 2.082031 -0.078125 1.46875 -0.515625 C 0.863281 -0.953125 0.476562 -1.578125 0.3125 -2.390625 L 1.765625 -3.0625 L 1.921875 -3.03125 C 2.085938 -2.5 2.320312 -2.109375 2.625 -1.859375 C 2.925781 -1.617188 3.34375 -1.5 3.875 -1.5 C 4.394531 -1.5 4.789062 -1.617188 5.0625 -1.859375 C 5.34375 -2.097656 5.484375 -2.453125 5.484375 -2.921875 C 5.484375 -3.378906 5.347656 -3.726562 5.078125 -3.96875 C 4.804688 -4.207031 4.40625 -4.328125 3.875 -4.328125 L 2.421875 -4.328125 L 2.421875 -5.828125 L 3.6875 -5.828125 C 4.125 -5.828125 4.46875 -5.929688 4.71875 -6.140625 C 4.976562 -6.359375 5.109375 -6.671875 5.109375 -7.078125 C 5.109375 -7.472656 4.988281 -7.769531 4.75 -7.96875 C 4.507812 -8.164062 4.175781 -8.265625 3.75 -8.265625 C 3.320312 -8.265625 2.941406 -8.160156 2.609375 -7.953125 C 2.273438 -7.753906 2.003906 -7.484375 1.796875 -7.140625 L 1.65625 -7.125 L 0.640625 -8.296875 C 0.984375 -8.753906 1.421875 -9.125 1.953125 -9.40625 C 2.484375 -9.6875 3.117188 -9.828125 3.859375 -9.828125 C 4.878906 -9.828125 5.65625 -9.613281 6.1875 -9.1875 C 6.71875 -8.757812 6.984375 -8.160156 6.984375 -7.390625 C 6.984375 -6.929688 6.875 -6.535156 6.65625 -6.203125 C 6.445312 -5.878906 6.140625 -5.597656 5.734375 -5.359375 L 5.734375 -5.21875 C 6.847656 -4.820312 7.40625 -4.023438 7.40625 -2.828125 C 7.40625 -2.234375 7.273438 -1.710938 7.015625 -1.265625 C 6.765625 -0.816406 6.378906 -0.46875 5.859375 -0.21875 C 5.347656 0.0195312 4.710938 0.140625 3.953125 0.140625 Z M 3.953125 0.140625 "/></g></g></g><g fill="#000000" fill-opacity="1"><g transform="translate(44.829891, 12.433296)"><g><path d="M 0.46875 -0.765625 C 0.46875 -1.296875 0.523438 -1.742188 0.640625 -2.109375 C 0.765625 -2.484375 0.957031 -2.820312 1.21875 -3.125 C 1.476562 -3.425781 1.851562 -3.75 2.34375 -4.09375 L 3.640625 -5.03125 C 3.992188 -5.28125 4.265625 -5.5 4.453125 -5.6875 C 4.648438 -5.875 4.796875 -6.066406 4.890625 -6.265625 C 4.992188 -6.472656 5.046875 -6.707031 5.046875 -6.96875 C 5.046875 -7.363281 4.925781 -7.664062 4.6875 -7.875 C 4.457031 -8.09375 4.101562 -8.203125 3.625 -8.203125 C 3.164062 -8.203125 2.753906 -8.09375 2.390625 -7.875 C 2.035156 -7.65625 1.742188 -7.351562 1.515625 -6.96875 L 1.390625 -6.9375 L 0.328125 -8.125 C 0.671875 -8.632812 1.117188 -9.046875 1.671875 -9.359375 C 2.234375 -9.671875 2.90625 -9.828125 3.6875 -9.828125 C 4.414062 -9.828125 5.023438 -9.707031 5.515625 -9.46875 C 6.003906 -9.226562 6.363281 -8.898438 6.59375 -8.484375 C 6.832031 -8.078125 6.953125 -7.601562 6.953125 -7.0625 C 6.953125 -6.601562 6.851562 -6.179688 6.65625 -5.796875 C 6.46875 -5.421875 6.203125 -5.070312 5.859375 -4.75 C 5.523438 -4.425781 5.09375 -4.082031 4.5625 -3.71875 L 3.421875 -2.90625 C 3.078125 -2.664062 2.832031 -2.445312 2.6875 -2.25 C 2.550781 -2.0625 2.484375 -1.847656 2.484375 -1.609375 L 6.859375 -1.609375 L 6.859375 0 L 0.46875 0 Z M 0.46875 -0.765625 "/></g></g></g><g fill="#000000" fill-opacity="1"><g transform="translate(1.473064, 31.302684)"><g><path d="M 4.734375 0.140625 C 3.941406 0.140625 3.25 -0.03125 2.65625 -0.375 C 2.070312 -0.726562 1.617188 -1.273438 1.296875 -2.015625 C 0.972656 -2.765625 0.8125 -3.707031 0.8125 -4.84375 C 0.8125 -5.976562 0.972656 -6.914062 1.296875 -7.65625 C 1.617188 -8.394531 2.070312 -8.941406 2.65625 -9.296875 C 3.25 -9.648438 3.941406 -9.828125 4.734375 -9.828125 C 5.523438 -9.828125 6.210938 -9.648438 6.796875 -9.296875 C 7.378906 -8.941406 7.832031 -8.394531 8.15625 -7.65625 C 8.488281 -6.914062 8.65625 -5.976562 8.65625 -4.84375 C 8.65625 -3.707031 8.488281 -2.765625 8.15625 -2.015625 C 7.832031 -1.273438 7.378906 -0.726562 6.796875 -0.375 C 6.210938 -0.03125 5.523438 0.140625 4.734375 0.140625 Z M 4.734375 -1.484375 C 5.160156 -1.484375 5.519531 -1.585938 5.8125 -1.796875 C 6.101562 -2.003906 6.328125 -2.351562 6.484375 -2.84375 C 6.640625 -3.34375 6.71875 -4.007812 6.71875 -4.84375 C 6.71875 -5.664062 6.640625 -6.320312 6.484375 -6.8125 C 6.328125 -7.3125 6.101562 -7.664062 5.8125 -7.875 C 5.519531 -8.09375 5.160156 -8.203125 4.734375 -8.203125 C 4.296875 -8.203125 3.929688 -8.09375 3.640625 -7.875 C 3.347656 -7.664062 3.125 -7.3125 2.96875 -6.8125 C 2.8125 -6.320312 2.734375 -5.664062 2.734375 -4.84375 C 2.734375 -4.007812 2.8125 -3.34375 2.96875 -2.84375 C 3.125 -2.351562 3.347656 -2.003906 3.640625 -1.796875 C 3.929688 -1.585938 4.296875 -1.484375 4.734375 -1.484375 Z M 4.734375 -1.484375 "/></g></g></g><g fill="#000000" fill-opacity="1"><g transform="translate(10.928355, 31.302684)"><g><path d="M 0.515625 0 L 0.515625 -1.578125 L 2.84375 -1.578125 L 2.84375 -7.609375 L 2.6875 -7.65625 C 2.363281 -7.488281 2.039062 -7.359375 1.71875 -7.265625 C 1.394531 -7.171875 1.03125 -7.097656 0.625 -7.046875 L 0.625 -8.6875 C 1.695312 -8.914062 2.5625 -9.25 3.21875 -9.6875 L 4.734375 -9.6875 L 4.734375 -1.578125 L 6.828125 -1.578125 L 6.828125 0 Z M 0.515625 0 "/></g></g></g><g fill="#000000" fill-opacity="1"><g transform="translate(18.067797, 31.302684)"><g><path d="M 4.734375 0.140625 C 3.941406 0.140625 3.25 -0.03125 2.65625 -0.375 C 2.070312 -0.726562 1.617188 -1.273438 1.296875 -2.015625 C 0.972656 -2.765625 0.8125 -3.707031 0.8125 -4.84375 C 0.8125 -5.976562 0.972656 -6.914062 1.296875 -7.65625 C 1.617188 -8.394531 2.070312 -8.941406 2.65625 -9.296875 C 3.25 -9.648438 3.941406 -9.828125 4.734375 -9.828125 C 5.523438 -9.828125 6.210938 -9.648438 6.796875 -9.296875 C 7.378906 -8.941406 7.832031 -8.394531 8.15625 -7.65625 C 8.488281 -6.914062 8.65625 -5.976562 8.65625 -4.84375 C 8.65625 -3.707031 8.488281 -2.765625 8.15625 -2.015625 C 7.832031 -1.273438 7.378906 -0.726562 6.796875 -0.375 C 6.210938 -0.03125 5.523438 0.140625 4.734375 0.140625 Z M 4.734375 -1.484375 C 5.160156 -1.484375 5.519531 -1.585938 5.8125 -1.796875 C 6.101562 -2.003906 6.328125 -2.351562 6.484375 -2.84375 C 6.640625 -3.34375 6.71875 -4.007812 6.71875 -4.84375 C 6.71875 -5.664062 6.640625 -6.320312 6.484375 -6.8125 C 6.328125 -7.3125 6.101562 -7.664062 5.8125 -7.875 C 5.519531 -8.09375 5.160156 -8.203125 4.734375 -8.203125 C 4.296875 -8.203125 3.929688 -8.09375 3.640625 -7.875 C 3.347656 -7.664062 3.125 -7.3125 2.96875 -6.8125 C 2.8125 -6.320312 2.734375 -5.664062 2.734375 -4.84375 C 2.734375 -4.007812 2.8125 -3.34375 2.96875 -2.84375 C 3.125 -2.351562 3.347656 -2.003906 3.640625 -1.796875 C 3.929688 -1.585938 4.296875 -1.484375 4.734375 -1.484375 Z M 4.734375 -1.484375 "/></g></g></g><g fill="#000000" fill-opacity="1"><g transform="translate(27.523088, 31.302684)"><g><path d="M 0.515625 0 L 0.515625 -1.578125 L 2.84375 -1.578125 L 2.84375 -7.609375 L 2.6875 -7.65625 C 2.363281 -7.488281 2.039062 -7.359375 1.71875 -7.265625 C 1.394531 -7.171875 1.03125 -7.097656 0.625 -7.046875 L 0.625 -8.6875 C 1.695312 -8.914062 2.5625 -9.25 3.21875 -9.6875 L 4.734375 -9.6875 L 4.734375 -1.578125 L 6.828125 -1.578125 L 6.828125 0 Z M 0.515625 0 "/></g></g></g><g fill="#000000" fill-opacity="1"><g transform="translate(34.66253, 31.302684)"><g><path d="M 4.734375 0.140625 C 3.941406 0.140625 3.25 -0.03125 2.65625 -0.375 C 2.070312 -0.726562 1.617188 -1.273438 1.296875 -2.015625 C 0.972656 -2.765625 0.8125 -3.707031 0.8125 -4.84375 C 0.8125 -5.976562 0.972656 -6.914062 1.296875 -7.65625 C 1.617188 -8.394531 2.070312 -8.941406 2.65625 -9.296875 C 3.25 -9.648438 3.941406 -9.828125 4.734375 -9.828125 C 5.523438 -9.828125 6.210938 -9.648438 6.796875 -9.296875 C 7.378906 -8.941406 7.832031 -8.394531 8.15625 -7.65625 C 8.488281 -6.914062 8.65625 -5.976562 8.65625 -4.84375 C 8.65625 -3.707031 8.488281 -2.765625 8.15625 -2.015625 C 7.832031 -1.273438 7.378906 -0.726562 6.796875 -0.375 C 6.210938 -0.03125 5.523438 0.140625 4.734375 0.140625 Z M 4.734375 -1.484375 C 5.160156 -1.484375 5.519531 -1.585938 5.8125 -1.796875 C 6.101562 -2.003906 6.328125 -2.351562 6.484375 -2.84375 C 6.640625 -3.34375 6.71875 -4.007812 6.71875 -4.84375 C 6.71875 -5.664062 6.640625 -6.320312 6.484375 -6.8125 C 6.328125 -7.3125 6.101562 -7.664062 5.8125 -7.875 C 5.519531 -8.09375 5.160156 -8.203125 4.734375 -8.203125 C 4.296875 -8.203125 3.929688 -8.09375 3.640625 -7.875 C 3.347656 -7.664062 3.125 -7.3125 2.96875 -6.8125 C 2.8125 -6.320312 2.734375 -5.664062 2.734375 -4.84375 C 2.734375 -4.007812 2.8125 -3.34375 2.96875 -2.84375 C 3.125 -2.351562 3.347656 -2.003906 3.640625 -1.796875 C 3.929688 -1.585938 4.296875 -1.484375 4.734375 -1.484375 Z M 4.734375 -1.484375 "/></g></g></g><g fill="#000000" fill-opacity="1"><g transform="translate(44.117822, 31.302684)"><g><path d="M 0.515625 0 L 0.515625 -1.578125 L 2.84375 -1.578125 L 2.84375 -7.609375 L 2.6875 -7.65625 C 2.363281 -7.488281 2.039062 -7.359375 1.71875 -7.265625 C 1.394531 -7.171875 1.03125 -7.097656 0.625 -7.046875 L 0.625 -8.6875 C 1.695312 -8.914062 2.5625 -9.25 3.21875 -9.6875 L 4.734375 -9.6875 L 4.734375 -1.578125 L 6.828125 -1.578125 L 6.828125 0 Z M 0.515625 0 "/></g></g></g></g></g></g></svg>