<?xml version="1.0" encoding="UTF-8"?>
<svg version="1.1" xmlns="http://www.w3.org/2000/svg" width="16" height="16">
<path d="M0 0 C1.32 0 2.64 0 4 0 C4 0.66 4 1.32 4 2 C4.66 2 5.32 2 6 2 C6 1.34 6 0.68 6 0 C7.65 0.33 9.3 0.66 11 1 C10.34 2.65 9.68 4.3 9 6 C10.32 5.67 11.64 5.34 13 5 C13 6.32 13 7.64 13 9 C11.68 9 10.36 9 9 9 C9.66 10.65 10.32 12.3 11 14 C9.35 14.33 7.7 14.66 6 15 C6 14.34 6 13.68 6 13 C5.34 13 4.68 13 4 13 C4 13.66 4 14.32 4 15 C2.35 14.67 0.7 14.34 -1 14 C-0.34 12.35 0.32 10.7 1 9 C-0.32 9 -1.64 9 -3 9 C-3 7.68 -3 6.36 -3 5 C-1.68 5.33 -0.36 5.66 1 6 C0.34 4.35 -0.32 2.7 -1 1 C-0.67 0.67 -0.34 0.34 0 0 Z " fill="#E8A805" transform="translate(3,1)"/>
<path d="M0 0 C0.66 0 1.32 0 2 0 C2.66 0.99 3.32 1.98 4 3 C4.66 2.01 5.32 1.02 6 0 C6.66 0 7.32 0 8 0 C7.49396008 2.16874252 7.00016187 3.99967627 6 6 C7.65 6 9.3 6 11 6 C11 6.33 11 6.66 11 7 C9.35 7 7.7 7 6 7 C6.66 8.98 7.32 10.96 8 13 C7.34 13 6.68 13 6 13 C5.34 12.01 4.68 11.02 4 10 C3.01 11.485 3.01 11.485 2 13 C1.34 13 0.68 13 0 13 C0.66 11.02 1.32 9.04 2 7 C0.35 7 -1.3 7 -3 7 C-3 6.67 -3 6.34 -3 6 C-1.35 6 0.3 6 2 6 C1.34 4.02 0.68 2.04 0 0 Z " fill="#F8CF5F" transform="translate(4,2)"/>
<path d="M0 0 C0.66 0 1.32 0 2 0 C2.99 1.98 3.98 3.96 5 6 C4 7 4 7 0.4375 7.0625 C-0.696875 7.041875 -1.83125 7.02125 -3 7 C-3 6.67 -3 6.34 -3 6 C-1.35 6 0.3 6 2 6 C1.34 4.02 0.68 2.04 0 0 Z " fill="#FDDE75" transform="translate(4,2)"/>
<path d="M0 0 C0.66 0 1.32 0 2 0 C1.49396008 2.16874252 1.00016187 3.99967627 0 6 C1.65 6 3.3 6 5 6 C5 6.33 5 6.66 5 7 C3.02 7 1.04 7 -1 7 C-1.625 5.1875 -1.625 5.1875 -2 3 C-1.34 2.01 -0.68 1.02 0 0 Z " fill="#FAD568" transform="translate(10,2)"/>
</svg>
