<svg xmlns="http://www.w3.org/2000/svg" xmlns:xlink="http://www.w3.org/1999/xlink" width="96" zoomAndPan="magnify" viewBox="0 0 72 36.000001" height="48" preserveAspectRatio="xMidYMid meet" version="1.0"><defs><g/><clipPath id="23324cff03"><path d="M 12 0 L 66 0 L 66 35.027344 L 12 35.027344 Z M 12 0 " clip-rule="nonzero"/></clipPath><clipPath id="56446d87c6"><rect x="0" width="54" y="0" height="36"/></clipPath></defs><g clip-path="url(#23324cff03)"><g transform="matrix(1, 0, 0, 1, 12, 0.000000000000010582)"><g clip-path="url(#56446d87c6)"><g fill="#000000" fill-opacity="1"><g transform="translate(0.301287, 12.433296)"><g><path d="M 5 -9.6875 C 5.695312 -9.6875 6.289062 -9.554688 6.78125 -9.296875 C 7.269531 -9.046875 7.640625 -8.691406 7.890625 -8.234375 C 8.140625 -7.773438 8.265625 -7.242188 8.265625 -6.640625 C 8.265625 -6.035156 8.140625 -5.503906 7.890625 -5.046875 C 7.640625 -4.597656 7.269531 -4.242188 6.78125 -3.984375 C 6.289062 -3.734375 5.695312 -3.609375 5 -3.609375 L 3.171875 -3.609375 L 3.171875 0 L 1.265625 0 L 1.265625 -9.6875 Z M 4.75 -5.125 C 5.8125 -5.125 6.34375 -5.628906 6.34375 -6.640625 C 6.34375 -7.660156 5.8125 -8.171875 4.75 -8.171875 L 3.171875 -8.171875 L 3.171875 -5.125 Z M 4.75 -5.125 "/></g></g></g><g fill="#000000" fill-opacity="1"><g transform="translate(9.141218, 12.433296)"><g><path d="M 0.46875 -0.765625 C 0.46875 -1.296875 0.523438 -1.742188 0.640625 -2.109375 C 0.765625 -2.484375 0.957031 -2.820312 1.21875 -3.125 C 1.476562 -3.425781 1.851562 -3.75 2.34375 -4.09375 L 3.640625 -5.03125 C 3.992188 -5.28125 4.265625 -5.5 4.453125 -5.6875 C 4.648438 -5.875 4.796875 -6.066406 4.890625 -6.265625 C 4.992188 -6.472656 5.046875 -6.707031 5.046875 -6.96875 C 5.046875 -7.363281 4.925781 -7.664062 4.6875 -7.875 C 4.457031 -8.09375 4.101562 -8.203125 3.625 -8.203125 C 3.164062 -8.203125 2.753906 -8.09375 2.390625 -7.875 C 2.035156 -7.65625 1.742188 -7.351562 1.515625 -6.96875 L 1.390625 -6.9375 L 0.328125 -8.125 C 0.671875 -8.632812 1.117188 -9.046875 1.671875 -9.359375 C 2.234375 -9.671875 2.90625 -9.828125 3.6875 -9.828125 C 4.414062 -9.828125 5.023438 -9.707031 5.515625 -9.46875 C 6.003906 -9.226562 6.363281 -8.898438 6.59375 -8.484375 C 6.832031 -8.078125 6.953125 -7.601562 6.953125 -7.0625 C 6.953125 -6.601562 6.851562 -6.179688 6.65625 -5.796875 C 6.46875 -5.421875 6.203125 -5.070312 5.859375 -4.75 C 5.523438 -4.425781 5.09375 -4.082031 4.5625 -3.71875 L 3.421875 -2.90625 C 3.078125 -2.664062 2.832031 -2.445312 2.6875 -2.25 C 2.550781 -2.0625 2.484375 -1.847656 2.484375 -1.609375 L 6.859375 -1.609375 L 6.859375 0 L 0.46875 0 Z M 0.46875 -0.765625 "/></g></g></g><g fill="#000000" fill-opacity="1"><g transform="translate(16.690896, 12.433296)"><g><path d="M 4.03125 0.140625 C 3.0625 0.140625 2.289062 -0.0625 1.71875 -0.46875 C 1.15625 -0.875 0.789062 -1.441406 0.625 -2.171875 L 2.078125 -2.8125 L 2.21875 -2.78125 C 2.363281 -2.351562 2.578125 -2.03125 2.859375 -1.8125 C 3.140625 -1.601562 3.523438 -1.5 4.015625 -1.5 C 4.515625 -1.5 4.898438 -1.640625 5.171875 -1.921875 C 5.453125 -2.210938 5.59375 -2.644531 5.59375 -3.21875 C 5.59375 -3.78125 5.457031 -4.207031 5.1875 -4.5 C 4.914062 -4.789062 4.546875 -4.9375 4.078125 -4.9375 C 3.710938 -4.9375 3.410156 -4.859375 3.171875 -4.703125 C 2.929688 -4.546875 2.726562 -4.316406 2.5625 -4.015625 L 0.984375 -4.125 L 1.171875 -9.6875 L 6.9375 -9.6875 L 6.9375 -8.078125 L 2.78125 -8.078125 L 2.6875 -5.609375 L 2.828125 -5.578125 C 3.054688 -5.867188 3.328125 -6.09375 3.640625 -6.25 C 3.953125 -6.40625 4.332031 -6.484375 4.78125 -6.484375 C 5.332031 -6.484375 5.8125 -6.359375 6.21875 -6.109375 C 6.632812 -5.859375 6.953125 -5.492188 7.171875 -5.015625 C 7.398438 -4.535156 7.515625 -3.945312 7.515625 -3.25 C 7.515625 -2.53125 7.378906 -1.914062 7.109375 -1.40625 C 6.835938 -0.90625 6.441406 -0.519531 5.921875 -0.25 C 5.398438 0.0078125 4.769531 0.140625 4.03125 0.140625 Z M 4.03125 0.140625 "/></g></g></g><g fill="#000000" fill-opacity="1"><g transform="translate(24.842689, 12.433296)"><g/></g></g><g fill="#000000" fill-opacity="1"><g transform="translate(28.038568, 12.433296)"><g><path d="M 4.640625 -3.890625 L 0.578125 -3.890625 L 0.578125 -5.515625 L 4.640625 -5.515625 Z M 4.640625 -3.890625 "/></g></g></g><g fill="#000000" fill-opacity="1"><g transform="translate(33.259162, 12.433296)"><g/></g></g><g fill="#000000" fill-opacity="1"><g transform="translate(36.455041, 12.433296)"><g><path d="M 5 -9.6875 C 5.695312 -9.6875 6.289062 -9.554688 6.78125 -9.296875 C 7.269531 -9.046875 7.640625 -8.691406 7.890625 -8.234375 C 8.140625 -7.773438 8.265625 -7.242188 8.265625 -6.640625 C 8.265625 -6.035156 8.140625 -5.503906 7.890625 -5.046875 C 7.640625 -4.597656 7.269531 -4.242188 6.78125 -3.984375 C 6.289062 -3.734375 5.695312 -3.609375 5 -3.609375 L 3.171875 -3.609375 L 3.171875 0 L 1.265625 0 L 1.265625 -9.6875 Z M 4.75 -5.125 C 5.8125 -5.125 6.34375 -5.628906 6.34375 -6.640625 C 6.34375 -7.660156 5.8125 -8.171875 4.75 -8.171875 L 3.171875 -8.171875 L 3.171875 -5.125 Z M 4.75 -5.125 "/></g></g></g><g fill="#000000" fill-opacity="1"><g transform="translate(45.294973, 12.433296)"><g><path d="M 0.515625 0 L 0.515625 -1.578125 L 2.84375 -1.578125 L 2.84375 -7.609375 L 2.6875 -7.65625 C 2.363281 -7.488281 2.039062 -7.359375 1.71875 -7.265625 C 1.394531 -7.171875 1.03125 -7.097656 0.625 -7.046875 L 0.625 -8.6875 C 1.695312 -8.914062 2.5625 -9.25 3.21875 -9.6875 L 4.734375 -9.6875 L 4.734375 -1.578125 L 6.828125 -1.578125 L 6.828125 0 Z M 0.515625 0 "/></g></g></g><g fill="#000000" fill-opacity="1"><g transform="translate(1.469284, 31.302684)"><g><path d="M 4.734375 0.140625 C 3.941406 0.140625 3.25 -0.03125 2.65625 -0.375 C 2.070312 -0.726562 1.617188 -1.273438 1.296875 -2.015625 C 0.972656 -2.765625 0.8125 -3.707031 0.8125 -4.84375 C 0.8125 -5.976562 0.972656 -6.914062 1.296875 -7.65625 C 1.617188 -8.394531 2.070312 -8.941406 2.65625 -9.296875 C 3.25 -9.648438 3.941406 -9.828125 4.734375 -9.828125 C 5.523438 -9.828125 6.210938 -9.648438 6.796875 -9.296875 C 7.378906 -8.941406 7.832031 -8.394531 8.15625 -7.65625 C 8.488281 -6.914062 8.65625 -5.976562 8.65625 -4.84375 C 8.65625 -3.707031 8.488281 -2.765625 8.15625 -2.015625 C 7.832031 -1.273438 7.378906 -0.726562 6.796875 -0.375 C 6.210938 -0.03125 5.523438 0.140625 4.734375 0.140625 Z M 4.734375 -1.484375 C 5.160156 -1.484375 5.519531 -1.585938 5.8125 -1.796875 C 6.101562 -2.003906 6.328125 -2.351562 6.484375 -2.84375 C 6.640625 -3.34375 6.71875 -4.007812 6.71875 -4.84375 C 6.71875 -5.664062 6.640625 -6.320312 6.484375 -6.8125 C 6.328125 -7.3125 6.101562 -7.664062 5.8125 -7.875 C 5.519531 -8.09375 5.160156 -8.203125 4.734375 -8.203125 C 4.296875 -8.203125 3.929688 -8.09375 3.640625 -7.875 C 3.347656 -7.664062 3.125 -7.3125 2.96875 -6.8125 C 2.8125 -6.320312 2.734375 -5.664062 2.734375 -4.84375 C 2.734375 -4.007812 2.8125 -3.34375 2.96875 -2.84375 C 3.125 -2.351562 3.347656 -2.003906 3.640625 -1.796875 C 3.929688 -1.585938 4.296875 -1.484375 4.734375 -1.484375 Z M 4.734375 -1.484375 "/></g></g></g><g fill="#000000" fill-opacity="1"><g transform="translate(10.924575, 31.302684)"><g><path d="M 0.515625 0 L 0.515625 -1.578125 L 2.84375 -1.578125 L 2.84375 -7.609375 L 2.6875 -7.65625 C 2.363281 -7.488281 2.039062 -7.359375 1.71875 -7.265625 C 1.394531 -7.171875 1.03125 -7.097656 0.625 -7.046875 L 0.625 -8.6875 C 1.695312 -8.914062 2.5625 -9.25 3.21875 -9.6875 L 4.734375 -9.6875 L 4.734375 -1.578125 L 6.828125 -1.578125 L 6.828125 0 Z M 0.515625 0 "/></g></g></g><g fill="#000000" fill-opacity="1"><g transform="translate(18.064017, 31.302684)"><g><path d="M 4.734375 0.140625 C 3.941406 0.140625 3.25 -0.03125 2.65625 -0.375 C 2.070312 -0.726562 1.617188 -1.273438 1.296875 -2.015625 C 0.972656 -2.765625 0.8125 -3.707031 0.8125 -4.84375 C 0.8125 -5.976562 0.972656 -6.914062 1.296875 -7.65625 C 1.617188 -8.394531 2.070312 -8.941406 2.65625 -9.296875 C 3.25 -9.648438 3.941406 -9.828125 4.734375 -9.828125 C 5.523438 -9.828125 6.210938 -9.648438 6.796875 -9.296875 C 7.378906 -8.941406 7.832031 -8.394531 8.15625 -7.65625 C 8.488281 -6.914062 8.65625 -5.976562 8.65625 -4.84375 C 8.65625 -3.707031 8.488281 -2.765625 8.15625 -2.015625 C 7.832031 -1.273438 7.378906 -0.726562 6.796875 -0.375 C 6.210938 -0.03125 5.523438 0.140625 4.734375 0.140625 Z M 4.734375 -1.484375 C 5.160156 -1.484375 5.519531 -1.585938 5.8125 -1.796875 C 6.101562 -2.003906 6.328125 -2.351562 6.484375 -2.84375 C 6.640625 -3.34375 6.71875 -4.007812 6.71875 -4.84375 C 6.71875 -5.664062 6.640625 -6.320312 6.484375 -6.8125 C 6.328125 -7.3125 6.101562 -7.664062 5.8125 -7.875 C 5.519531 -8.09375 5.160156 -8.203125 4.734375 -8.203125 C 4.296875 -8.203125 3.929688 -8.09375 3.640625 -7.875 C 3.347656 -7.664062 3.125 -7.3125 2.96875 -6.8125 C 2.8125 -6.320312 2.734375 -5.664062 2.734375 -4.84375 C 2.734375 -4.007812 2.8125 -3.34375 2.96875 -2.84375 C 3.125 -2.351562 3.347656 -2.003906 3.640625 -1.796875 C 3.929688 -1.585938 4.296875 -1.484375 4.734375 -1.484375 Z M 4.734375 -1.484375 "/></g></g></g><g fill="#000000" fill-opacity="1"><g transform="translate(27.519308, 31.302684)"><g><path d="M 0.515625 0 L 0.515625 -1.578125 L 2.84375 -1.578125 L 2.84375 -7.609375 L 2.6875 -7.65625 C 2.363281 -7.488281 2.039062 -7.359375 1.71875 -7.265625 C 1.394531 -7.171875 1.03125 -7.097656 0.625 -7.046875 L 0.625 -8.6875 C 1.695312 -8.914062 2.5625 -9.25 3.21875 -9.6875 L 4.734375 -9.6875 L 4.734375 -1.578125 L 6.828125 -1.578125 L 6.828125 0 Z M 0.515625 0 "/></g></g></g><g fill="#000000" fill-opacity="1"><g transform="translate(34.65875, 31.302684)"><g><path d="M 4.734375 0.140625 C 3.941406 0.140625 3.25 -0.03125 2.65625 -0.375 C 2.070312 -0.726562 1.617188 -1.273438 1.296875 -2.015625 C 0.972656 -2.765625 0.8125 -3.707031 0.8125 -4.84375 C 0.8125 -5.976562 0.972656 -6.914062 1.296875 -7.65625 C 1.617188 -8.394531 2.070312 -8.941406 2.65625 -9.296875 C 3.25 -9.648438 3.941406 -9.828125 4.734375 -9.828125 C 5.523438 -9.828125 6.210938 -9.648438 6.796875 -9.296875 C 7.378906 -8.941406 7.832031 -8.394531 8.15625 -7.65625 C 8.488281 -6.914062 8.65625 -5.976562 8.65625 -4.84375 C 8.65625 -3.707031 8.488281 -2.765625 8.15625 -2.015625 C 7.832031 -1.273438 7.378906 -0.726562 6.796875 -0.375 C 6.210938 -0.03125 5.523438 0.140625 4.734375 0.140625 Z M 4.734375 -1.484375 C 5.160156 -1.484375 5.519531 -1.585938 5.8125 -1.796875 C 6.101562 -2.003906 6.328125 -2.351562 6.484375 -2.84375 C 6.640625 -3.34375 6.71875 -4.007812 6.71875 -4.84375 C 6.71875 -5.664062 6.640625 -6.320312 6.484375 -6.8125 C 6.328125 -7.3125 6.101562 -7.664062 5.8125 -7.875 C 5.519531 -8.09375 5.160156 -8.203125 4.734375 -8.203125 C 4.296875 -8.203125 3.929688 -8.09375 3.640625 -7.875 C 3.347656 -7.664062 3.125 -7.3125 2.96875 -6.8125 C 2.8125 -6.320312 2.734375 -5.664062 2.734375 -4.84375 C 2.734375 -4.007812 2.8125 -3.34375 2.96875 -2.84375 C 3.125 -2.351562 3.347656 -2.003906 3.640625 -1.796875 C 3.929688 -1.585938 4.296875 -1.484375 4.734375 -1.484375 Z M 4.734375 -1.484375 "/></g></g></g><g fill="#000000" fill-opacity="1"><g transform="translate(44.114041, 31.302684)"><g><path d="M 0.515625 0 L 0.515625 -1.578125 L 2.84375 -1.578125 L 2.84375 -7.609375 L 2.6875 -7.65625 C 2.363281 -7.488281 2.039062 -7.359375 1.71875 -7.265625 C 1.394531 -7.171875 1.03125 -7.097656 0.625 -7.046875 L 0.625 -8.6875 C 1.695312 -8.914062 2.5625 -9.25 3.21875 -9.6875 L 4.734375 -9.6875 L 4.734375 -1.578125 L 6.828125 -1.578125 L 6.828125 0 Z M 0.515625 0 "/></g></g></g></g></g></g></svg>