<?xml version="1.0" encoding="UTF-8"?>
<svg version="1.1" xmlns="http://www.w3.org/2000/svg" width="512" height="512">
<path d="M0 0 C1.01942446 -0.00384115 2.03884892 -0.00768229 3.08916503 -0.01163983 C4.77415352 -0.01034011 4.77415352 -0.01034011 6.49318218 -0.00901413 C8.27927294 -0.01347081 8.27927294 -0.01347081 10.10144633 -0.01801753 C13.41236007 -0.02520542 16.72322193 -0.02787744 20.03413975 -0.028615 C23.6027482 -0.03046449 27.17134538 -0.03801129 30.73994732 -0.04475021 C38.54570716 -0.05833822 46.35146187 -0.06435894 54.15723157 -0.06876087 C59.02998574 -0.07152242 63.90273793 -0.07575961 68.77549076 -0.08026505 C82.26335335 -0.09245817 95.75121435 -0.1027575 109.23908234 -0.10614014 C110.10251009 -0.1063597 110.96593784 -0.10657927 111.85553006 -0.10680549 C112.72103782 -0.10702377 113.58654558 -0.10724204 114.47828084 -0.10746694 C116.23216458 -0.1079104 117.98604832 -0.10835697 119.73993206 -0.10880661 C120.60992121 -0.10902804 121.47991035 -0.10924947 122.37626281 -0.10947761 C136.47553676 -0.11342625 150.57475906 -0.13088207 164.67401306 -0.15416613 C179.14507787 -0.17787158 193.61611675 -0.19034161 208.0872013 -0.19150805 C216.21397953 -0.19242525 224.34069044 -0.19818886 232.46745014 -0.21632767 C239.38714303 -0.23171776 246.30674779 -0.23685558 253.22645453 -0.22858956 C256.75732471 -0.2246792 260.28801737 -0.22563129 263.81886578 -0.23964691 C267.64617252 -0.25470046 271.47322859 -0.24653073 275.30055523 -0.23606491 C276.41718872 -0.24412132 277.53382222 -0.25217772 278.68429309 -0.26047826 C284.19266264 -0.2251418 288.40621373 -0.13106281 293.08734417 3.13142776 C295.20305341 6.30499163 295.34693988 7.14115028 295.39374065 10.78303909 C295.40972805 11.72444244 295.42571545 12.66584579 295.44218731 13.63577652 C295.45023136 15.15922935 295.45023136 15.15922935 295.45843792 16.71345901 C295.46746639 17.76039429 295.47649487 18.80732956 295.48579693 19.88599014 C295.50031181 22.10262055 295.50918923 24.31929392 295.51288128 26.53596878 C295.52476278 29.92074105 295.5739256 33.30368179 295.62445354 36.68806839 C295.63391944 38.84235637 295.64115368 40.99665555 295.64593792 43.15095901 C295.66547024 44.16052155 295.68500256 45.17008408 295.70512676 46.21023941 C295.67631745 50.71745321 295.63198312 54.10271587 292.80243206 57.75520706 C288.58335893 61.44770223 285.70362526 61.25702104 280.22796917 61.22908401 C279.11293011 61.22586136 277.99789104 61.2226387 276.84906292 61.21931839 C275.69019573 61.21093948 274.53132854 61.20256058 273.33734417 61.19392776 C271.57584026 61.18716019 271.57584026 61.18716019 269.77875042 61.18025589 C266.88159322 61.16847883 263.98446224 61.15054365 261.08734417 61.13142776 C261.08734417 66.41142776 261.08734417 71.69142776 261.08734417 77.13142776 C262.15984417 77.19330276 263.23234417 77.25517776 264.33734417 77.31892776 C276.66983019 78.95309111 286.00729363 85.60554021 293.52093792 95.25764847 C296.25993332 99.14325064 297.85839346 103.11624858 299.40375042 107.58845901 C299.84008549 108.81131355 299.84008549 108.81131355 300.2852354 110.05887222 C304.01441867 120.59398971 307.51816911 131.20822009 311.02484417 141.81892776 C311.71531393 143.90040268 312.4060677 145.98178341 313.09710979 148.06306839 C314.76378216 153.08477863 316.42700142 158.10762141 318.08734417 163.13142776 C318.29826702 162.59775589 318.50918987 162.06408401 318.72650433 161.51424026 C319.70941332 159.04816799 320.71072169 156.58995568 321.71234417 154.13142776 C322.04363323 153.29224808 322.37492229 152.45306839 322.71625042 151.58845901 C326.27638498 142.92322583 331.41612364 134.46703803 340.08734417 130.13142776 C342.93395365 129.9956877 345.75485749 129.91868114 348.60296917 129.89314651 C349.45155499 129.88507477 350.3001408 129.87700302 351.17444134 129.86868668 C352.97335039 129.85484336 354.77228574 129.84412231 356.57123089 129.83626175 C359.31279145 129.81908163 362.05313573 129.77520293 364.79437542 129.73103714 C366.54306448 129.72090716 368.29176378 129.71239201 370.04046917 129.70564651 C370.85630474 129.68813843 371.67214031 129.67063034 372.51269817 129.65259171 C379.07606493 129.67740312 382.60471839 131.78299798 387.39984417 136.31892776 C390.20325357 140.99127677 390.52980562 145.34477152 389.68109417 150.69002151 C387.9557682 157.43727843 385.03464033 162.63679744 379.06000042 166.41267776 C373.21778879 169.45889612 368.54070177 170.25623661 361.91546917 170.22908401 C360.89184277 170.22696159 360.89184277 170.22696159 359.84753704 170.2247963 C357.67742733 170.21921861 355.50742247 170.2066703 353.33734417 170.19392776 C351.86208525 170.18890988 350.3868247 170.18434747 348.91156292 170.18025589 C345.30345619 170.16925651 341.69541042 170.15200729 338.08734417 170.13142776 C337.89700603 171.21170242 337.89700603 171.21170242 337.70282269 172.31380081 C337.09699334 175.0872544 336.26219764 177.567918 335.23968792 180.21345901 C334.88197308 181.14480667 334.52425823 182.07615433 334.15570354 183.03572464 C333.78251995 183.99543167 333.40933636 184.9551387 333.02484417 185.94392776 C332.64779339 186.92297073 332.27074261 187.9020137 331.88226604 188.91072464 C330.95418822 191.31902787 330.02244301 193.7258439 329.08734417 196.13142776 C330.28895184 196.10786209 330.28895184 196.10786209 331.5148344 196.08382034 C335.18476431 196.02101629 338.85458066 195.98229289 342.52484417 195.94392776 C343.78490276 195.91879105 345.04496136 195.89365433 346.34320354 195.86775589 C356.41845763 195.78883745 365.56699097 196.84496115 373.08734417 204.13142776 C378.76325769 211.20670246 381.40973421 217.65259708 381.31439495 226.78914261 C381.314687 227.53129013 381.31497906 228.27343765 381.31527996 229.03807449 C381.31389489 231.47296012 381.29837288 233.90753359 381.28265667 236.34236526 C381.27892361 238.03772693 381.27607802 239.73309076 381.27408123 241.42845535 C381.26646787 245.87707414 381.24683922 250.32556105 381.22467327 254.77412796 C381.20416524 259.318991 381.19506893 263.86387548 381.18500042 268.40877151 C381.16359107 277.31638134 381.12948299 286.22389356 381.08734417 295.13142776 C381.70295208 295.11620071 382.31855999 295.10097366 382.95282269 295.08528519 C383.76162884 295.07344193 384.57043499 295.06159866 385.40375042 295.04939651 C386.20498333 295.03416946 387.00621624 295.01894241 387.83172894 295.00325394 C390.93014237 295.17931921 392.70715481 296.1840001 395.08734417 298.13142776 C397.70408301 302.05653603 397.41125974 305.44089078 397.42328167 309.99861526 C397.42993847 310.87035385 397.43659527 311.74209244 397.44345379 312.64024734 C397.45357807 314.48445399 397.45827088 316.32869726 397.45794964 318.17293167 C397.46231736 320.98914151 397.49862298 323.80377706 397.53656292 326.61970901 C397.54243229 328.41267241 397.54640088 330.20564325 397.54828167 331.99861526 C397.56983822 333.25821564 397.56983822 333.25821564 397.59183025 334.54326248 C397.56024838 338.60192084 397.40497824 340.62951869 395.18353558 344.13972855 C391.97222872 347.19095628 390.19000849 347.25287098 385.86078167 347.22908401 C384.82953167 347.22586136 383.79828167 347.2226387 382.73578167 347.21931839 C381.65554729 347.21093948 380.57531292 347.20256058 379.46234417 347.19392776 C377.83039104 347.18716019 377.83039104 347.18716019 376.16546917 347.18025589 C373.47270628 347.16844553 370.78005229 347.15197555 368.08734417 347.13142776 C368.094006 347.74006668 368.10066784 348.3487056 368.10753155 348.97578812 C368.17412471 355.33523122 368.21924407 361.69457455 368.25213909 368.05427933 C368.26718516 370.424763 368.2876269 372.79521901 368.31366253 375.16560745 C368.35022923 378.58136716 368.36711285 381.99675738 368.38031292 385.41267776 C368.39579678 386.46507645 368.41128063 387.51747513 368.4272337 388.60176468 C368.42869686 395.06179675 368.27413555 401.63262578 363.67051983 406.68696976 C359.02238623 410.74433724 355.49704344 411.2585118 349.50799847 411.29256058 C348.51230343 411.30000793 348.51230343 411.30000793 347.49649334 411.30760574 C345.30150595 411.32220448 343.10659087 411.32902592 340.91156292 411.33455276 C339.38322733 411.34030662 337.85489176 411.34606432 336.32655621 411.35182571 C333.12124578 411.36232954 329.91596039 411.36817608 326.71063519 411.37166214 C322.6116592 411.37714205 318.5130162 411.40116167 314.41414452 411.42963409 C311.25620349 411.44829721 308.09834204 411.45346805 304.94035053 411.45499802 C303.42973099 411.45801738 301.91911262 411.4660217 300.4085474 411.4791832 C298.29040171 411.4963194 296.17306116 411.49434545 294.05487347 411.48787308 C292.85146816 411.49151871 291.64806286 411.49516434 290.40819073 411.49892044 C285.4959404 410.95531929 282.22552138 409.33283704 278.83734417 405.75642776 C275.99528004 401.49333157 274.83487712 398.00353749 274.86029339 392.88216019 C274.86044445 391.86147949 274.86059551 390.8407988 274.86075115 389.78918839 C274.87623501 388.15455391 274.87623501 388.15455391 274.89203167 386.48689651 C274.89627651 384.79951118 274.89627651 384.79951118 274.90060711 383.07803726 C274.91178581 379.49155841 274.93688654 375.90533092 274.96234417 372.31892776 C274.97237694 369.88468658 274.98150227 367.45044148 274.98968792 365.01619339 C275.01001442 359.05443051 275.0491684 353.09320993 275.08734417 347.13142776 C266.17734417 347.13142776 257.26734417 347.13142776 248.08734417 347.13142776 C247.75734417 349.77142776 247.42734417 352.41142776 247.08734417 355.13142776 C244.59374857 361.00096817 240.63386425 365.37476463 234.89714813 368.21627617 C231.43673272 369.34333156 228.22839258 369.41504711 224.63048077 369.3988533 C223.88864664 369.40338441 223.14681251 369.40791553 222.38249856 369.41258395 C219.90148174 369.42522481 217.42068452 369.42360779 214.93963909 369.42195511 C213.15879821 369.42794058 211.37795993 369.43474617 209.59712505 369.44231033 C204.76231355 369.45997622 199.92757285 369.46466598 195.09273219 369.46594191 C192.07092761 369.4673638 189.04914101 369.47163414 186.02734089 369.47693634 C175.48181929 369.49543899 164.93634826 369.50360671 154.39081097 369.50203323 C144.56657011 369.50083197 134.742549 369.52193084 124.91836375 369.55352056 C116.47913143 369.57968826 108.03997086 369.59040031 99.60069829 369.58912241 C94.56239237 369.5886129 89.52428172 369.59429022 84.48601627 369.61547852 C79.74582207 369.63486901 75.00600923 369.63497979 70.26580143 369.62044525 C68.52920251 369.61835702 66.79257966 369.62305891 65.05602169 369.63516617 C48.705553 369.74174895 48.705553 369.74174895 42.08734417 365.13142776 C38.17114896 361.21523256 35.8939697 357.36113325 34.08734417 352.13142776 C34.08734417 350.48142776 34.08734417 348.83142776 34.08734417 347.13142776 C25.17734417 347.13142776 16.26734417 347.13142776 7.08734417 347.13142776 C7.1395512 352.40627151 7.1395512 352.40627151 7.19281292 357.78767776 C7.21623822 361.20987004 7.23443792 364.63205322 7.25213909 368.05427933 C7.26718516 370.424763 7.2876269 372.79521901 7.31366253 375.16560745 C7.35022923 378.58136716 7.36711285 381.99675738 7.38031292 385.41267776 C7.39579678 386.46507645 7.41128063 387.51747513 7.4272337 388.60176468 C7.42869686 395.06179675 7.27413555 401.63262578 2.67051983 406.68696976 C-1.97761377 410.74433724 -5.50295656 411.2585118 -11.49200153 411.29256058 C-12.15579823 411.29752548 -12.81959492 411.30249039 -13.50350666 411.30760574 C-15.69849405 411.32220448 -17.89340913 411.32902592 -20.08843708 411.33455276 C-21.61677267 411.34030662 -23.14510824 411.34606432 -24.67344379 411.35182571 C-27.87875422 411.36232954 -31.08403961 411.36817608 -34.28936481 411.37166214 C-38.3883408 411.37714205 -42.4869838 411.40116167 -46.58585548 411.42963409 C-49.74379651 411.44829721 -52.90165796 411.45346805 -56.05964947 411.45499802 C-57.57026901 411.45801738 -59.08088738 411.4660217 -60.5914526 411.4791832 C-62.70959829 411.4963194 -64.82693884 411.49434545 -66.94512653 411.48787308 C-68.14853184 411.49151871 -69.35193714 411.49516434 -70.59180927 411.49892044 C-75.5040596 410.95531929 -78.77447862 409.33283704 -82.16265583 405.75642776 C-85.00471996 401.49333157 -86.16512288 398.00353749 -86.13970661 392.88216019 C-86.13955555 391.86147949 -86.13940449 390.8407988 -86.13924885 389.78918839 C-86.12376499 388.15455391 -86.12376499 388.15455391 -86.10796833 386.48689651 C-86.10513844 385.36197296 -86.10230854 384.23704941 -86.09939289 383.07803726 C-86.08821419 379.49155841 -86.06311346 375.90533092 -86.03765583 372.31892776 C-86.02762306 369.88468658 -86.01849773 367.45044148 -86.01031208 365.01619339 C-85.98828239 359.05451935 -85.95482757 353.09299152 -85.91265583 347.13142776 C-86.58321003 347.15237503 -87.25376423 347.1733223 -87.94463825 347.19490433 C-90.99632363 347.27828804 -94.047769 347.33015792 -97.10015583 347.38142776 C-98.15525349 347.41494339 -99.21035114 347.44845901 -100.29742146 347.48299026 C-108.15555996 347.58214659 -108.15555996 347.58214659 -112.08843708 345.24080276 C-116.82260845 339.76660033 -115.2183359 331.08790496 -115.26275349 324.16536331 C-115.27930915 322.27298557 -115.30659418 320.38067027 -115.34478474 318.4886055 C-115.39960055 315.75853962 -115.42143401 313.02993886 -115.43609333 310.29939651 C-115.47009739 309.03509056 -115.47009739 309.03509056 -115.5047884 307.74524307 C-115.48900621 303.34845234 -115.34585358 301.67307869 -112.50494099 298.12092972 C-109.07717166 295.49021845 -107.525194 295.00839151 -103.28765583 295.06892776 C-102.06175739 295.08246292 -102.06175739 295.08246292 -100.81109333 295.09627151 C-99.87136677 295.11367386 -99.87136677 295.11367386 -98.91265583 295.13142776 C-98.92153828 294.20150009 -98.93042072 293.27157242 -98.93957233 292.31346512 C-99.0209335 283.51639534 -99.08075266 274.71940269 -99.11990452 265.92204094 C-99.14071017 261.40004194 -99.16889813 256.87834857 -99.21441364 252.35652542 C-99.25812372 247.98633096 -99.28184565 243.61642904 -99.2921648 239.24603271 C-99.2995113 237.58518118 -99.31385656 235.92434424 -99.33557606 234.26361847 C-99.46646239 223.83354137 -98.80546593 215.47526644 -93.22515583 206.38142776 C-83.20211947 196.62928428 -73.94256449 195.82967228 -60.47515583 196.00642776 C-59.17126911 196.0154512 -57.86738239 196.02447464 -56.52398396 196.03377151 C-53.32001751 196.0572438 -50.11643319 196.09008049 -46.91265583 196.13142776 C-48.03725128 193.23543716 -49.16240458 190.33966361 -50.28765583 187.44392776 C-50.60476521 186.62730667 -50.92187458 185.81068558 -51.24859333 184.96931839 C-51.55796833 184.1733223 -51.86734333 183.3773262 -52.18609333 182.55720901 C-52.48483356 181.78586624 -52.7835738 181.01452347 -53.09136677 180.21980667 C-53.74858643 178.54862444 -54.43856857 176.89034069 -55.13921833 175.23689651 C-55.91265583 173.13142776 -55.91265583 173.13142776 -55.91265583 170.13142776 C-56.80460651 170.14713821 -57.6965572 170.16284866 -58.61553669 170.17903519 C-61.96471842 170.23054768 -65.31347149 170.26796224 -68.66289997 170.29622269 C-70.10502538 170.31119285 -71.54710619 170.33157645 -72.98907185 170.35774612 C-84.1040884 170.55423342 -93.70763386 170.32307364 -102.17828083 162.27595901 C-106.48208957 156.95435767 -108.29644005 150.68227697 -108.03765583 143.88142776 C-107.24880174 138.77420747 -104.8663735 135.39069854 -100.91265583 132.13142776 C-97.05759896 129.52231092 -92.90362995 129.80809287 -88.42046833 129.79549026 C-87.18512852 129.78550507 -87.18512852 129.78550507 -85.92483234 129.77531815 C-84.18495633 129.76520774 -82.44504166 129.76050063 -80.7051363 129.7608223 C-78.05360175 129.75645403 -75.40373926 129.72013312 -72.75249958 129.68220901 C-71.05849483 129.67633937 -69.36448221 129.67237096 -67.67046833 129.67049026 C-66.88278065 129.65611923 -66.09509296 129.6417482 -65.28353596 129.62694168 C-60.02946384 129.67019643 -57.1084957 130.70339669 -52.91265583 134.13142776 C-45.19780866 142.58715797 -40.42178344 154.38029911 -36.91265583 165.13142776 C-36.52521198 163.99415237 -36.13776814 162.85687698 -35.73858356 161.6851387 C-34.26513072 157.36079917 -32.79057642 153.03683584 -31.315732 148.71297073 C-30.68425863 146.86118106 -30.05306231 145.00929688 -29.42217731 143.15730667 C-27.57162321 137.72527316 -25.71484975 132.2954271 -23.85082722 126.86800003 C-23.22071148 125.0300019 -22.5926893 123.19128482 -21.96667194 121.35188675 C-21.04901643 118.6567614 -20.12415369 115.96420306 -19.19781208 113.27205276 C-18.92625797 112.46934952 -18.65470387 111.66664627 -18.37492085 110.83961868 C-13.98609607 98.16029047 -7.55486837 87.96949489 4.52875042 81.31502151 C9.96293349 78.80119332 15.0844108 77.13142776 21.08734417 77.13142776 C21.08734417 71.85142776 21.08734417 66.57142776 21.08734417 61.13142776 C19.36386761 61.16623245 17.64039104 61.20103714 15.86468792 61.23689651 C13.58474978 61.2650439 11.30480106 61.29234304 9.02484417 61.31892776 C7.32424847 61.35663284 7.32424847 61.35663284 5.58929729 61.39509964 C-0.67161228 61.44985978 -5.46701329 61.37162284 -10.91265583 58.13142776 C-13.04534821 54.93238919 -13.17288399 54.05499773 -13.21905231 50.37215042 C-13.23503971 49.40749863 -13.25102711 48.44284683 -13.26749897 47.44896317 C-13.27286167 46.40831711 -13.27822437 45.36767105 -13.28374958 44.29549026 C-13.29277805 43.22398727 -13.30180653 42.15248428 -13.31110859 41.04851151 C-13.32562304 38.78060582 -13.33450078 36.51265814 -13.33819294 34.24470901 C-13.35008685 30.77654245 -13.39926101 27.31015608 -13.44976521 23.84236526 C-13.45922954 21.63924895 -13.46646452 19.43612171 -13.47124958 17.23299026 C-13.4907819 16.19639267 -13.51031422 15.15979507 -13.53043842 14.09178543 C-13.48539265 6.89543426 -13.48539265 6.89543426 -10.56524372 3.00008011 C-6.92753036 0.43744246 -4.33603156 0.00612354 0 0 Z " fill="#444D56" transform="translate(114.9126558303833,99.86857223510742)"/>
<path d="M0 0 C0.99208296 -0.00538554 1.98416593 -0.01077108 3.00631201 -0.01631981 C6.31639835 -0.03057828 9.62608359 -0.02350071 12.93618774 -0.01637268 C15.31520407 -0.02207735 17.69421765 -0.02904199 20.07322693 -0.03717041 C25.85610157 -0.05324518 31.63885137 -0.05520446 37.42174362 -0.04995751 C42.12447219 -0.04590888 46.82716873 -0.04736757 51.52989578 -0.05270576 C52.20033742 -0.05345419 52.87077905 -0.05420261 53.56153709 -0.05497371 C54.92373852 -0.05650526 56.28593993 -0.05804361 57.64814134 -0.05958868 C70.4106343 -0.07330336 83.17306589 -0.06788346 95.93555744 -0.05640347 C107.59720125 -0.0464737 119.25868633 -0.05940909 130.92030565 -0.08333766 C142.91005528 -0.10775312 154.89973105 -0.11733043 166.88950503 -0.11068493 C173.61459953 -0.10719793 180.33957203 -0.10939021 187.06464767 -0.12693596 C193.38978829 -0.14241513 199.71462617 -0.13843828 206.03975487 -0.11963081 C208.35764318 -0.11594761 210.67555397 -0.1190455 212.99342155 -0.1295166 C216.16466277 -0.14274618 219.33490467 -0.13116066 222.50610352 -0.11352539 C223.41701858 -0.1231304 224.32793364 -0.1327354 225.26645219 -0.14263147 C234.43998046 -0.03811873 242.46282739 2.94963131 249.1592865 9.32164001 C256.08104517 17.63234157 258.70139434 30.28098917 262.05581665 40.41893005 C262.6312025 42.14493235 263.20698977 43.87080086 263.78315735 45.59654236 C264.98112783 49.18907813 266.17494705 52.78295733 267.3656311 56.37791443 C268.89286698 60.98819054 270.42954852 65.59525215 271.96915913 70.20140839 C273.15551476 73.75353318 274.33745683 77.30711383 275.51799583 80.86117554 C276.08332505 82.56167883 276.64990905 84.2617655 277.21776772 85.96142578 C278.00715353 88.32668093 278.79070724 90.69378779 279.57266235 93.06150818 C279.80792633 93.76279846 280.04319031 94.46408875 280.2855835 95.18663025 C281.22586633 98.0515038 281.8800354 100.34965399 281.8800354 103.38768005 C265.0500354 103.38768005 248.2200354 103.38768005 230.8800354 103.38768005 C225.4350354 93.48768005 225.4350354 93.48768005 219.8800354 83.38768005 C212.90800278 77.57765287 209.77732251 76.08162881 201.00556946 76.12698364 C200.21881625 76.1231581 199.43206305 76.11933255 198.62146884 76.11539108 C195.98843259 76.10508255 193.35561527 76.10904916 190.7225647 76.11302185 C188.83335163 76.10867413 186.94414032 76.10349078 185.05493164 76.09753418 C179.92466904 76.08413793 174.79448009 76.08356632 169.66420341 76.08609748 C165.37999466 76.08716698 161.09580082 76.08228424 156.81159526 76.07749206 C146.70231723 76.06639424 136.59307635 76.06596071 126.48379517 76.07200623 C116.05974608 76.07804424 105.63583204 76.06573998 95.211806 76.04443616 C86.25877926 76.02681237 77.30579547 76.02082012 68.35275203 76.0240739 C63.0070849 76.025886 57.66151406 76.02325805 52.31586266 76.00935936 C47.28680683 75.99677341 42.25796118 75.99873247 37.22890854 76.01177025 C35.38588578 76.01413407 33.54284821 76.01140831 31.69984245 76.00314713 C29.17813654 75.99266121 26.65713338 76.00079492 24.13545227 76.01345825 C23.41121258 76.00608397 22.68697289 75.99870968 21.94078654 75.99111193 C16.96696271 76.04342834 12.15170529 76.69267164 7.8800354 79.38768005 C1.31516689 86.88622301 1.31516689 86.88622301 -7.1199646 103.38768005 C-23.9499646 103.38768005 -40.7799646 103.38768005 -58.1199646 103.38768005 C-56.83829759 97.62017853 -55.53416646 92.18295275 -53.67733765 86.62400818 C-53.44123779 85.90563278 -53.20513794 85.18725739 -52.96188354 84.44711304 C-52.18984731 82.10280325 -51.41121253 79.76075805 -50.63168335 77.41893005 C-50.08588529 75.7718779 -49.54021802 74.12478241 -48.99467468 72.47764587 C-47.8538378 69.03724514 -46.70933206 65.59808989 -45.56259155 62.15965271 C-44.10098083 57.77512552 -42.65180689 53.38659836 -41.20578289 48.9969101 C-40.08379493 45.59743811 -38.95354349 42.20075534 -37.82102394 38.80477905 C-37.28353037 37.18878219 -36.74892158 35.5718226 -36.21738243 33.95385742 C-29.07388583 12.23920918 -29.07388583 12.23920918 -22.3074646 6.51268005 C-21.40060913 5.71217224 -21.40060913 5.71217224 -20.47543335 4.89549255 C-13.81309789 0.63071397 -7.70381167 -0.05058056 0 0 Z " fill="#9FD8F1" transform="translate(144.11996459960938,192.61231994628906)"/>
<path d="M0 0 C22.01082326 -0.12032643 22.01082326 -0.12032643 31.39257812 -0.14648438 C37.79442808 -0.16441839 44.19614932 -0.18563548 50.59790039 -0.22631836 C55.75908634 -0.25891227 60.92013425 -0.27685317 66.08141518 -0.28463173 C68.05060308 -0.29017516 70.01978343 -0.30100008 71.98891258 -0.31719017 C74.74692491 -0.33896475 77.50436673 -0.3419669 80.26245117 -0.34057617 C81.07669052 -0.351362 81.89092987 -0.36214783 82.72984314 -0.3732605 C87.33614942 -0.34812414 90.36660991 0.0878849 94 3 C96.61673884 6.92510826 96.32391557 10.30946301 96.3359375 14.8671875 C96.3425943 15.73892609 96.3492511 16.61066467 96.35610962 17.50881958 C96.3662339 19.35302623 96.37092671 21.1972695 96.37060547 23.04150391 C96.37497319 25.85771375 96.41127881 28.6723493 96.44921875 31.48828125 C96.45508812 33.28124465 96.45905671 35.07421548 96.4609375 36.8671875 C96.47530853 37.70692108 96.48967957 38.54665466 96.50448608 39.41183472 C96.47290421 43.47049307 96.31763407 45.49809092 94.09619141 49.00830078 C90.88488455 52.05952852 89.10266432 52.12144321 84.7734375 52.09765625 C83.7421875 52.09443359 82.7109375 52.09121094 81.6484375 52.08789062 C80.02808594 52.07532227 80.02808594 52.07532227 78.375 52.0625 C76.74304688 52.05573242 76.74304688 52.05573242 75.078125 52.04882812 C72.38536211 52.03701776 69.69270812 52.02054778 67 52 C67.00999275 52.91295837 67.00999275 52.91295837 67.02018738 53.84436035 C67.08678054 60.20380345 67.1318999 66.56314678 67.16479492 72.92285156 C67.17984099 75.29333523 67.20028273 77.66379125 67.22631836 80.03417969 C67.26288506 83.4499394 67.27976868 86.86532962 67.29296875 90.28125 C67.30845261 91.33364868 67.32393646 92.38604736 67.33988953 93.47033691 C67.34135269 99.93036898 67.18679138 106.50119802 62.58317566 111.55554199 C57.93504207 115.61290948 54.40969927 116.12708403 48.4206543 116.16113281 C47.7568576 116.16609772 47.09306091 116.17106262 46.40914917 116.17617798 C44.21416179 116.19077671 42.0192467 116.19759816 39.82421875 116.203125 C38.29588316 116.20887885 36.76754759 116.21463656 35.23921204 116.22039795 C32.03390161 116.23090178 28.82861622 116.23674831 25.62329102 116.24023438 C21.52431503 116.24571429 17.42567203 116.2697339 13.32680035 116.29820633 C10.16885932 116.31686945 7.01099787 116.32204028 3.85300636 116.32357025 C2.34238683 116.32658962 0.83176845 116.33459394 -0.67879677 116.34775543 C-2.79694246 116.36489163 -4.91428301 116.36291769 -7.0324707 116.35644531 C-8.23587601 116.36009094 -9.43928131 116.36373657 -10.67915344 116.36749268 C-15.59140377 115.82389152 -18.86182279 114.20140928 -22.25 110.625 C-25.09206413 106.3619038 -26.25246705 102.87210972 -26.22705078 97.75073242 C-26.22689972 96.73005173 -26.22674866 95.70937103 -26.22659302 94.65776062 C-26.21110916 93.02312614 -26.21110916 93.02312614 -26.1953125 91.35546875 C-26.19106766 89.66808342 -26.19106766 89.66808342 -26.18673706 87.9466095 C-26.17555836 84.36013064 -26.15045763 80.77390315 -26.125 77.1875 C-26.11496723 74.75325882 -26.1058419 72.31901372 -26.09765625 69.88476562 C-26.07732975 63.92300275 -26.03817577 57.96178217 -26 52 C-34.91 52 -43.82 52 -53 52 C-53.33 54.64 -53.66 57.28 -54 60 C-56.4935956 65.8695404 -60.45347992 70.24333686 -66.19019604 73.0848484 C-69.65061145 74.21190379 -72.85895159 74.28361934 -76.4568634 74.26742554 C-77.19869753 74.27195665 -77.94053166 74.27648776 -78.70484561 74.28115618 C-81.18586243 74.29379704 -83.66665965 74.29218003 -86.14770508 74.29052734 C-87.92854596 74.29651282 -89.70938424 74.30331841 -91.49021912 74.31088257 C-96.32503062 74.32854846 -101.15977132 74.33323822 -105.99461198 74.33451414 C-109.01641656 74.33593603 -112.03820316 74.34020637 -115.06000328 74.34550858 C-125.60552488 74.36401123 -136.15099591 74.37217894 -146.6965332 74.37060547 C-156.52077406 74.3694042 -166.34479517 74.39050307 -176.16898042 74.4220928 C-184.60821274 74.44826049 -193.04737331 74.45897255 -201.48664588 74.45769465 C-206.5249518 74.45718514 -211.56306245 74.46286245 -216.6013279 74.48405075 C-221.3415221 74.50344124 -226.08133494 74.50355203 -230.82154274 74.48901749 C-232.55814166 74.48692926 -234.29476451 74.49163115 -236.03132248 74.5037384 C-252.38179117 74.61032119 -252.38179117 74.61032119 -259 70 C-262.91619521 66.08380479 -265.19337447 62.22970549 -267 57 C-267 55.35 -267 53.7 -267 52 C-275.91 52 -284.82 52 -294 52 C-293.96519531 55.5165625 -293.93039062 59.033125 -293.89453125 62.65625 C-293.87110595 66.07844227 -293.85290625 69.50062546 -293.83520508 72.92285156 C-293.82015901 75.29333523 -293.79971727 77.66379125 -293.77368164 80.03417969 C-293.73711494 83.4499394 -293.72023132 86.86532962 -293.70703125 90.28125 C-293.69154739 91.33364868 -293.67606354 92.38604736 -293.66011047 93.47033691 C-293.65864731 99.93036898 -293.81320862 106.50119802 -298.41682434 111.55554199 C-303.06495793 115.61290948 -306.59030073 116.12708403 -312.5793457 116.16113281 C-313.2431424 116.16609772 -313.90693909 116.17106262 -314.59085083 116.17617798 C-316.78583821 116.19077671 -318.9807533 116.19759816 -321.17578125 116.203125 C-322.70411684 116.20887885 -324.23245241 116.21463656 -325.76078796 116.22039795 C-328.96609839 116.23090178 -332.17138378 116.23674831 -335.37670898 116.24023438 C-339.47568497 116.24571429 -343.57432797 116.2697339 -347.67319965 116.29820633 C-350.83114068 116.31686945 -353.98900213 116.32204028 -357.14699364 116.32357025 C-358.65761317 116.32658962 -360.16823155 116.33459394 -361.67879677 116.34775543 C-363.79694246 116.36489163 -365.91428301 116.36291769 -368.0324707 116.35644531 C-369.23587601 116.36009094 -370.43928131 116.36373657 -371.67915344 116.36749268 C-376.59140377 115.82389152 -379.86182279 114.20140928 -383.25 110.625 C-386.09206413 106.3619038 -387.25246705 102.87210972 -387.22705078 97.75073242 C-387.22689972 96.73005173 -387.22674866 95.70937103 -387.22659302 94.65776062 C-387.21110916 93.02312614 -387.21110916 93.02312614 -387.1953125 91.35546875 C-387.1924826 90.2305452 -387.18965271 89.10562164 -387.18673706 87.9466095 C-387.17555836 84.36013064 -387.15045763 80.77390315 -387.125 77.1875 C-387.11496723 74.75325882 -387.1058419 72.31901372 -387.09765625 69.88476562 C-387.07732975 63.92300275 -387.03817577 57.96178217 -387 52 C-378.75 52 -370.5 52 -362 52 C-361.505 60.415 -361.505 60.415 -361 69 C-355.67245871 70.7758471 -349.9015017 70.18591223 -344.3215332 70.18530273 C-342.07418872 70.18748863 -339.82733576 70.20565452 -337.58007812 70.22460938 C-336.14843917 70.2275437 -334.7167979 70.22952823 -333.28515625 70.23046875 C-331.98457275 70.23457764 -330.68398926 70.23868652 -329.34399414 70.24291992 C-326.23891609 70.01735574 -324.53212523 69.74975508 -322 68 C-318.40989013 60.81978026 -320.36452043 52.01944944 -320 44 C-214.4 44 -108.8 44 0 44 C0 29.48 0 14.96 0 0 Z " fill="#83919F" transform="translate(416,395)"/>
<path d="M0 0 C0.69285253 -0.00115384 1.38570505 -0.00230769 2.09955311 -0.0034965 C4.4444358 -0.0061644 6.7892512 -0.00163958 9.13413048 0.00279331 C10.8229001 0.00235765 12.51166966 0.00148282 14.20043886 0.00020415 C18.85917241 -0.00204171 23.51788316 0.00198172 28.17661381 0.00698221 C33.19366711 0.01128522 38.21071904 0.00984039 43.22777367 0.00907993 C51.92618301 0.0085546 60.62458487 0.01170235 69.32299232 0.01731777 C81.89955851 0.02543155 94.47612107 0.02804787 107.0526896 0.02930576 C127.45543879 0.03149648 147.85818399 0.03815708 168.26093102 0.04760838 C188.08482404 0.05678199 207.90871598 0.06386307 227.7326107 0.06811619 C229.56434432 0.06851027 229.56434432 0.06851027 231.43308266 0.06891232 C237.55902652 0.07021732 243.6849704 0.07148104 249.81091428 0.07272422 C300.66274568 0.08309744 351.5145722 0.10099075 402.36639977 0.12304783 C402.36639977 14.64304783 402.36639977 29.16304783 402.36639977 44.12304783 C296.76639977 44.12304783 191.16639977 44.12304783 82.36639977 44.12304783 C82.36639977 51.38304783 82.36639977 58.64304783 82.36639977 66.12304783 C79.36639977 70.12304783 79.36639977 70.12304783 76.36639977 71.12304783 C71.80962761 71.37395235 67.2506942 71.39379273 62.68793297 71.41821384 C60.44016567 71.43546138 58.19385715 71.47937219 55.94647789 71.52343845 C54.51484805 71.5335633 53.08320575 71.54208006 51.65155602 71.54882908 C50.35097252 71.5634116 49.05038902 71.57799412 47.71039391 71.59301853 C44.36639977 71.12304783 44.36639977 71.12304783 41.9267025 69.5808115 C39.78739339 66.21100634 39.92714952 63.22356233 40.11639977 59.37304783 C40.13444664 58.67566502 40.15249352 57.9782822 40.17108727 57.25976658 C40.21801423 55.54693244 40.28975372 53.83480959 40.36639977 52.12304783 C39.77615517 52.13193027 39.18591057 52.14081272 38.57777977 52.14996433 C32.42970026 52.23851791 26.28180218 52.29881531 20.13324547 52.34277439 C17.83922529 52.36287889 15.54525628 52.39016674 13.25140953 52.42480564 C9.9523715 52.47337342 6.65401155 52.49602859 3.35468102 52.51367283 C2.33054604 52.53431797 1.30641106 52.55496311 0.25124168 52.57623386 C-6.8844818 52.57847812 -6.8844818 52.57847812 -10.75786781 50.22363377 C-15.57948663 44.82402316 -13.93937264 36.06513322 -13.98369789 29.15698338 C-14.00025356 27.26460564 -14.02753858 25.37229033 -14.06572914 23.48022556 C-14.12054496 20.75015969 -14.14237841 18.02155892 -14.15703773 15.29101658 C-14.17970711 14.44814594 -14.20237648 13.60527531 -14.2257328 12.73686314 C-14.20995061 8.3400724 -14.06679798 6.66469875 -11.22588539 3.11254978 C-7.18163352 0.00870645 -5.08569322 -0.00155526 0 0 Z " fill="#99A6B7" transform="translate(13.633600234985352,394.8769521713257)"/>
<path d="M0 0 C1.3537557 -0.00701996 1.3537557 -0.00701996 2.73486 -0.01418173 C5.7595924 -0.02614955 8.78387323 -0.01666738 11.80860901 -0.00723267 C13.97692632 -0.01129759 16.14524155 -0.01663903 18.31355286 -0.02316284 C24.2040192 -0.03685235 30.0943281 -0.03153076 35.98479724 -0.02202559 C42.14661763 -0.01443653 48.30842444 -0.02147259 54.47024536 -0.02618408 C64.81954877 -0.03164423 75.16878799 -0.02444361 85.51808167 -0.01016235 C97.48495933 0.0061603 109.45168364 0.00087942 121.41855758 -0.01564157 C131.68959346 -0.02925415 141.96058316 -0.03117707 152.23162514 -0.02332556 C158.36752051 -0.01864726 164.5033438 -0.0180285 170.63923454 -0.02793503 C176.40862584 -0.03659887 182.1778194 -0.03059321 187.94718933 -0.01325226 C190.06518284 -0.00928415 192.18319298 -0.01042698 194.30117989 -0.01704025 C197.19140869 -0.02523295 200.08100307 -0.01496133 202.97119141 0 C204.2297093 -0.01003825 204.2297093 -0.01003825 205.51365179 -0.02027929 C210.39936343 0.02880564 213.88983943 0.54154846 218.04908752 3.38095093 C229.55100552 22.55081426 221.04908752 48.02524074 221.04908752 70.38095093 C142.50908752 70.38095093 63.96908752 70.38095093 -16.95091248 70.38095093 C-16.95091248 8.38095093 -16.95091248 8.38095093 -13.95091248 3.38095093 C-9.61007208 -0.26762627 -5.40190006 -0.04297263 0 0 Z " fill="#60686F" transform="translate(153.95091247558594,324.6190490722656)"/>
<path d="M0 0 C27.66812879 -0.06769662 55.33619063 -0.12296997 83.00438118 -0.15543652 C95.8509327 -0.17091136 108.69742914 -0.19201274 121.54394531 -0.22631836 C132.73978044 -0.25620174 143.93557568 -0.27557051 155.13144958 -0.28226548 C161.06064597 -0.28617952 166.98972824 -0.29539102 172.91888809 -0.31719017 C178.49858343 -0.33753845 184.07811754 -0.3438371 189.65784645 -0.33932304 C191.70650801 -0.34014898 193.75517491 -0.34612442 195.8038044 -0.35761642 C198.60012444 -0.37253444 201.39583515 -0.36895601 204.19216919 -0.36076355 C205.00346413 -0.36950207 205.81475907 -0.3782406 206.6506387 -0.38724393 C211.48680778 -0.34892747 214.82328551 0.29889231 219 3 C221.11570924 6.17356386 221.25959571 7.00972251 221.30639648 10.65161133 C221.32238388 11.59301468 221.33837128 12.53441803 221.35484314 13.50434875 C221.36020584 14.51998398 221.36556854 15.5356192 221.37109375 16.58203125 C221.38012222 17.62896652 221.3891507 18.67590179 221.39845276 19.75456238 C221.41296764 21.97119279 221.42184506 24.18786616 221.42553711 26.40454102 C221.43741861 29.78931328 221.48658143 33.17225403 221.53710938 36.55664062 C221.54657527 38.71092861 221.55380951 40.86522778 221.55859375 43.01953125 C221.57812607 44.02909378 221.59765839 45.03865631 221.61778259 46.07881165 C221.58897328 50.58602544 221.54463895 53.9712881 218.71508789 57.6237793 C214.06548646 61.69306899 209.42907494 61.13214117 203.47064209 61.08229065 C202.16694589 61.07744696 202.16694589 61.07744696 200.83691239 61.07250541 C197.91955074 61.0604248 195.00228294 61.04105301 192.08496094 61.02172852 C189.99572962 61.01158632 187.90649608 61.00189258 185.81726074 60.99261475 C180.13996221 60.96612788 174.46271521 60.9333495 168.78545666 60.89946485 C162.85440555 60.86512768 156.92332682 60.83654432 150.99224854 60.80735779 C139.75841283 60.75119871 128.5246117 60.68984443 117.29081368 60.62663645 C104.50259273 60.55493436 91.71434407 60.48900441 78.92608976 60.42356598 C52.61735594 60.28881261 26.30867383 60.14602685 0 60 C0 40.2 0 20.4 0 0 Z " fill="#C8E8EE" transform="translate(189,100)"/>
<path d="M0 0 C0.78760763 -0.00453111 1.57521526 -0.00906223 2.38668978 -0.01373065 C5.01661197 -0.02635555 7.64632656 -0.02475552 10.27627563 -0.02310181 C12.16563685 -0.02908821 14.05499563 -0.03589401 15.9443512 -0.04345703 C21.07041573 -0.0611118 26.19641348 -0.06581217 31.32250547 -0.0670886 C34.52639808 -0.06851093 37.73027374 -0.07278206 40.93416214 -0.07808304 C52.11510546 -0.09658083 63.29600111 -0.10475387 74.47695923 -0.10317993 C84.89367851 -0.10197826 95.31019068 -0.12308642 105.72685754 -0.15466726 C114.67565935 -0.1808296 123.6243935 -0.19154726 132.57323325 -0.19026911 C137.91556877 -0.18975951 143.25772017 -0.19544178 148.60001755 -0.21662521 C153.6250273 -0.23600705 158.64967724 -0.23613234 163.67469978 -0.22159195 C165.51611546 -0.21950277 167.35755365 -0.22421124 169.19893074 -0.23631287 C171.71857169 -0.25179618 174.23697663 -0.24243762 176.7565918 -0.22705078 C177.48014937 -0.23733791 178.20370694 -0.24762503 178.9491905 -0.25822389 C185.73594264 -0.16703379 190.93941089 2.17464977 195.70449829 7.00180054 C198.32926491 10.72727573 200.6222202 14.52815633 202.81777954 18.51742554 C203.22447876 19.23672241 203.63117798 19.95601929 204.05020142 20.69711304 C207.00527954 26.00135411 207.00527954 26.00135411 207.00527954 28.26742554 C223.83527954 28.26742554 240.66527954 28.26742554 258.00527954 28.26742554 C258.00527954 28.59742554 258.00527954 28.92742554 258.00527954 29.26742554 C145.80527954 29.26742554 33.60527954 29.26742554 -81.99472046 29.26742554 C-81.99472046 28.93742554 -81.99472046 28.60742554 -81.99472046 28.26742554 C-65.16472046 28.26742554 -48.33472046 28.26742554 -30.99472046 28.26742554 C-30.33472046 26.28742554 -29.67472046 24.30742554 -28.99472046 22.26742554 C-27.7299237 19.65499493 -26.2372278 17.19326971 -24.74472046 14.70492554 C-24.37475952 14.05846069 -24.00479858 13.41199585 -23.62362671 12.74594116 C-17.98064026 3.27997584 -11.02797337 -0.0469162 0 0 Z " fill="#616A71" transform="translate(167.99472045898438,267.7325744628906)"/>
<path d="M0 0 C0.77097015 -0.00014603 1.54194031 -0.00029205 2.33627319 -0.0004425 C4.88477389 0.0002542 7.43320152 0.00803529 9.98168945 0.01586914 C11.74860087 0.01773418 13.51551281 0.01915768 15.28242493 0.02015686 C19.93325223 0.02397527 24.58404831 0.03379981 29.23486328 0.04486084 C34.81490687 0.05688782 40.39496089 0.06148042 45.97501373 0.06731415 C54.4525211 0.0770119 62.92995997 0.0961732 71.4074707 0.11352539 C71.4074707 19.91352539 71.4074707 39.71352539 71.4074707 60.11352539 C63.1780957 60.27852539 54.9487207 60.44352539 46.4699707 60.61352539 C42.66091187 60.69183594 42.66091187 60.69183594 38.77490234 60.77172852 C33.15454447 60.88444741 27.53402931 60.97695886 21.91314697 61.05932617 C19.557719 61.09574207 17.20236351 61.1371594 14.84710693 61.18334961 C11.42845556 61.2482064 8.01009017 61.29266771 4.59106445 61.33227539 C3.56586197 61.3555188 2.54065948 61.37876221 1.48439026 61.40270996 C-4.33021858 61.44537816 -8.50214501 61.02547155 -13.5925293 58.11352539 C-15.72522168 54.91448682 -15.85275745 54.03709536 -15.89892578 50.35424805 C-15.91491318 49.38959625 -15.93090057 48.42494446 -15.94737244 47.43106079 C-15.95273514 46.39041473 -15.95809784 45.34976868 -15.96362305 44.27758789 C-15.97265152 43.2060849 -15.98167999 42.13458191 -15.99098206 41.03060913 C-16.0054965 38.76270344 -16.01437425 36.49475577 -16.01806641 34.22680664 C-16.02996031 30.75864008 -16.07913447 27.2922537 -16.12963867 23.82446289 C-16.139103 21.62134658 -16.14633799 19.41821933 -16.15112305 17.21508789 C-16.17065536 16.1784903 -16.19018768 15.1418927 -16.21031189 14.07388306 C-16.16526612 6.87753189 -16.16526612 6.87753189 -13.24511719 2.98217773 C-8.88062014 -0.09245277 -5.13865374 -0.02538028 0 0 Z " fill="#E8373B" transform="translate(117.592529296875,99.886474609375)"/>
<path d="M0 0 C19.4750552 -0.12032643 19.4750552 -0.12032643 27.7890625 -0.14648438 C33.45776819 -0.16440417 39.12632824 -0.18558287 44.79492188 -0.22631836 C49.36608347 -0.25896121 53.93708883 -0.27686344 58.508358 -0.28463173 C60.25064426 -0.29016639 61.99292217 -0.3009743 63.73514175 -0.31719017 C66.17924599 -0.33903013 68.6227081 -0.34196422 71.06689453 -0.34057617 C71.78403122 -0.351362 72.50116791 -0.36214783 73.24003601 -0.3732605 C77.89034036 -0.34476304 81.07022005 0.50954592 85 3 C87.11570924 6.17356386 87.25959571 7.00972251 87.30639648 10.65161133 C87.32238388 11.59301468 87.33837128 12.53441803 87.35484314 13.50434875 C87.36020584 14.51998398 87.36556854 15.5356192 87.37109375 16.58203125 C87.38012222 17.62896652 87.3891507 18.67590179 87.39845276 19.75456238 C87.41296764 21.97119279 87.42184506 24.18786616 87.42553711 26.40454102 C87.43741861 29.78931328 87.48658143 33.17225403 87.53710938 36.55664062 C87.54657527 38.71092861 87.55380951 40.86522778 87.55859375 43.01953125 C87.57812607 44.02909378 87.59765839 45.03865631 87.61778259 46.07881165 C87.58897328 50.58602544 87.54463895 53.9712881 84.71508789 57.6237793 C80.90991947 60.95402876 78.06846728 61.1272083 73.12719727 61.11523438 C72.15685043 61.11463013 71.1865036 61.11402588 70.18675232 61.11340332 C69.13641312 61.10691772 68.08607391 61.10043213 67.00390625 61.09375 C65.35099327 61.08837219 65.35099327 61.08837219 63.66468811 61.08288574 C50.75344595 61.02161786 37.84584825 60.76538309 24.9375 60.5 C16.708125 60.335 8.47875 60.17 0 60 C0 40.2 0 20.4 0 0 Z " fill="#61D6FE" transform="translate(323,100)"/>
<path d="M0 0 C8.25 0 16.5 0 25 0 C25.495 8.415 25.495 8.415 26 17 C31.32754129 18.7758471 37.0984983 18.18591223 42.6784668 18.18530273 C44.92581128 18.18748863 47.17266424 18.20565452 49.41992188 18.22460938 C50.85156083 18.2275437 52.2832021 18.22952823 53.71484375 18.23046875 C55.01542725 18.23457764 56.31601074 18.23868652 57.65600586 18.24291992 C60.76108391 18.01735574 62.46787477 17.74975508 65 16 C66.4807848 13.0384304 66.35314037 10.16493705 66.5625 6.875 C66.706875 4.60625 66.85125 2.3375 67 0 C75.58 0 84.16 0 93 0 C93.06903071 6.97465888 93.12871874 13.94812274 93.16479492 20.92285156 C93.17984099 23.29333523 93.20028273 25.66379125 93.22631836 28.03417969 C93.26288506 31.4499394 93.27976868 34.86532962 93.29296875 38.28125 C93.30845261 39.33364868 93.32393646 40.38604736 93.33988953 41.47033691 C93.34135269 47.93036898 93.18679138 54.50119802 88.58317566 59.55554199 C83.93504207 63.61290948 80.40969927 64.12708403 74.4206543 64.16113281 C73.7568576 64.16609772 73.09306091 64.17106262 72.40914917 64.17617798 C70.21416179 64.19077671 68.0192467 64.19759816 65.82421875 64.203125 C64.29588316 64.20887885 62.76754759 64.21463656 61.23921204 64.22039795 C58.03390161 64.23090178 54.82861622 64.23674831 51.62329102 64.24023438 C47.52431503 64.24571429 43.42567203 64.2697339 39.32680035 64.29820633 C36.16885932 64.31686945 33.01099787 64.32204028 29.85300636 64.32357025 C28.34238683 64.32658962 26.83176845 64.33459394 25.32120323 64.34775543 C23.20305754 64.36489163 21.08571699 64.36291769 18.9675293 64.35644531 C17.76412399 64.36009094 16.56071869 64.36373657 15.32084656 64.36749268 C10.40859623 63.82389152 7.13817721 62.20140928 3.75 58.625 C0.90793587 54.3619038 -0.25246705 50.87210972 -0.22705078 45.75073242 C-0.22689972 44.73005173 -0.22674866 43.70937103 -0.22659302 42.65776062 C-0.21627045 41.5680043 -0.20594788 40.47824799 -0.1953125 39.35546875 C-0.1924826 38.2305452 -0.18965271 37.10562164 -0.18673706 35.9466095 C-0.17555836 32.36013064 -0.15045763 28.77390315 -0.125 25.1875 C-0.11496723 22.75325882 -0.1058419 20.31901372 -0.09765625 17.88476562 C-0.07732975 11.92300275 -0.03817577 5.96178217 0 0 Z " fill="#2B2A32" transform="translate(29,447)"/>
<path d="M0 0 C8.58 0 17.16 0 26 0 C26.3125 7.3125 26.3125 7.3125 26.38793945 9.6027832 C26.5896268 13.33113928 26.5896268 13.33113928 28.05541992 16.69848633 C31.05144461 18.70373524 34.14059664 18.4278745 37.625 18.3984375 C38.36830566 18.40130768 39.11161133 18.40417786 39.87744141 18.40713501 C41.4475989 18.40917476 43.01778186 18.403651 44.58789062 18.39111328 C46.99146332 18.37505703 49.39335461 18.39096352 51.796875 18.41015625 C53.32292038 18.4081738 54.84896471 18.40433009 56.375 18.3984375 C57.09381348 18.40451019 57.81262695 18.41058289 58.55322266 18.4168396 C61.44466574 18.37607775 63.50298346 18.33265476 65.94458008 16.69848633 C67.73126881 13.82316976 67.57906033 10.60464416 67.6875 7.3125 C67.790625 4.899375 67.89375 2.48625 68 0 C76.25 0 84.5 0 93 0 C93.06903071 6.97465888 93.12871874 13.94812274 93.16479492 20.92285156 C93.17984099 23.29333523 93.20028273 25.66379125 93.22631836 28.03417969 C93.26288506 31.4499394 93.27976868 34.86532962 93.29296875 38.28125 C93.30845261 39.33364868 93.32393646 40.38604736 93.33988953 41.47033691 C93.34135269 47.93036898 93.18679138 54.50119802 88.58317566 59.55554199 C83.93504207 63.61290948 80.40969927 64.12708403 74.4206543 64.16113281 C73.7568576 64.16609772 73.09306091 64.17106262 72.40914917 64.17617798 C70.21416179 64.19077671 68.0192467 64.19759816 65.82421875 64.203125 C64.29588316 64.20887885 62.76754759 64.21463656 61.23921204 64.22039795 C58.03390161 64.23090178 54.82861622 64.23674831 51.62329102 64.24023438 C47.52431503 64.24571429 43.42567203 64.2697339 39.32680035 64.29820633 C36.16885932 64.31686945 33.01099787 64.32204028 29.85300636 64.32357025 C28.34238683 64.32658962 26.83176845 64.33459394 25.32120323 64.34775543 C23.20305754 64.36489163 21.08571699 64.36291769 18.9675293 64.35644531 C17.76412399 64.36009094 16.56071869 64.36373657 15.32084656 64.36749268 C10.40859623 63.82389152 7.13817721 62.20140928 3.75 58.625 C0.90793587 54.3619038 -0.25246705 50.87210972 -0.22705078 45.75073242 C-0.22689972 44.73005173 -0.22674866 43.70937103 -0.22659302 42.65776062 C-0.21627045 41.5680043 -0.20594788 40.47824799 -0.1953125 39.35546875 C-0.1924826 38.2305452 -0.18965271 37.10562164 -0.18673706 35.9466095 C-0.17555836 32.36013064 -0.15045763 28.77390315 -0.125 25.1875 C-0.11496723 22.75325882 -0.1058419 20.31901372 -0.09765625 17.88476562 C-0.07732975 11.92300275 -0.03817577 5.96178217 0 0 Z " fill="#2B2A32" transform="translate(390,447)"/>
<path d="M0 0 C0.99208296 -0.00538554 1.98416593 -0.01077108 3.00631201 -0.01631981 C6.31639835 -0.03057828 9.62608359 -0.02350071 12.93618774 -0.01637268 C15.31520407 -0.02207735 17.69421765 -0.02904199 20.07322693 -0.03717041 C25.85610157 -0.05324518 31.63885137 -0.05520446 37.42174362 -0.04995751 C42.12447219 -0.04590888 46.82716873 -0.04736757 51.52989578 -0.05270576 C52.20033742 -0.05345419 52.87077905 -0.05420261 53.56153709 -0.05497371 C54.92373852 -0.05650526 56.28593993 -0.05804361 57.64814134 -0.05958868 C70.4106343 -0.07330336 83.17306589 -0.06788346 95.93555744 -0.05640347 C107.59720125 -0.0464737 119.25868633 -0.05940909 130.92030565 -0.08333766 C142.91005528 -0.10775312 154.89973105 -0.11733043 166.88950503 -0.11068493 C173.61459953 -0.10719793 180.33957203 -0.10939021 187.06464767 -0.12693596 C193.38978829 -0.14241513 199.71462617 -0.13843828 206.03975487 -0.11963081 C208.35764318 -0.11594761 210.67555397 -0.1190455 212.99342155 -0.1295166 C216.16466277 -0.14274618 219.33490467 -0.13116066 222.50610352 -0.11352539 C223.41701858 -0.1231304 224.32793364 -0.1327354 225.26645219 -0.14263147 C234.57663901 -0.03656179 242.40824219 3.06560387 249.1847229 9.45799255 C253.29058296 14.13148304 254.97652141 18.21130565 254.8800354 24.38768005 C254.01459012 23.96319391 253.14914484 23.53870777 252.25747395 23.10135841 C239.64614483 17.40521454 227.5578088 17.5490704 213.92178345 17.64305115 C211.43483371 17.63818665 208.94788789 17.63073963 206.46095276 17.6209259 C200.44468353 17.60415867 194.42906197 17.61502301 188.41286793 17.63945179 C181.39221093 17.66688342 174.37166544 17.6633996 167.35096846 17.65918513 C154.8194617 17.65282639 142.28818341 17.67602348 129.75674438 17.71531677 C117.62158257 17.75335697 105.48668813 17.76747867 93.35147095 17.7563324 C80.10048975 17.7441971 66.84962562 17.74460381 53.59865409 17.76730406 C52.18406888 17.7697184 50.76948367 17.77213037 49.35489845 17.77453995 C48.3111739 17.77635056 48.3111739 17.77635056 47.24636399 17.77819776 C42.36215785 17.78592981 37.47799553 17.78517923 32.59378624 17.78136826 C26.01490452 17.77666344 19.43631564 17.79388652 12.85749245 17.82548904 C10.44811541 17.83395011 8.03870366 17.83569245 5.62931824 17.83010864 C2.33183878 17.82362759 -0.96463279 17.84191965 -4.26200867 17.86628723 C-5.20735436 17.85872858 -6.15270006 17.85116994 -7.12669259 17.84338224 C-14.09867231 17.93406282 -19.71979524 19.70825946 -26.1199646 22.38768005 C-27.78613611 23.05558329 -29.45265788 23.72261575 -31.1199646 24.38768005 C-30.64002892 16.70870923 -27.44080375 11.28311831 -21.8074646 6.07518005 C-15.49342395 0.52454986 -7.99194101 -0.05247232 0 0 Z " fill="#BFE8F7" transform="translate(144.11996459960938,192.61231994628906)"/>
<path d="M0 0 C70.62 0 141.24 0 214 0 C212.93976427 8.48188588 211.55624674 12.6215656 205.5 18.375 C200.55764625 21.58752994 196.36399675 22.29362459 190.5431366 22.26742554 C189.43038541 22.27422221 189.43038541 22.27422221 188.29515439 22.28115618 C185.81413757 22.29379704 183.33334035 22.29218003 180.85229492 22.29052734 C179.07145404 22.29651282 177.29061576 22.30331841 175.50978088 22.31088257 C170.67496938 22.32854846 165.84022868 22.33323822 161.00538802 22.33451414 C157.98358344 22.33593603 154.96179684 22.34020637 151.93999672 22.34550858 C141.39447512 22.36401123 130.84900409 22.37217894 120.3034668 22.37060547 C110.47922594 22.3694042 100.65520483 22.39050307 90.83101958 22.4220928 C82.39178726 22.44826049 73.95262669 22.45897255 65.51335412 22.45769465 C60.4750482 22.45718514 55.43693755 22.46286245 50.3986721 22.48405075 C45.6584779 22.50344124 40.91866506 22.50355203 36.17845726 22.48901749 C34.44185834 22.48692926 32.70523549 22.49163115 30.96867752 22.5037384 C14.61820883 22.61032119 14.61820883 22.61032119 8 18 C4.08380479 14.08380479 1.80662553 10.22970549 0 5 C0 3.35 0 1.7 0 0 Z " fill="#0D1B24" transform="translate(149,447)"/>
<path d="M0 0 C0.67328842 -0.00014603 1.34657684 -0.00029205 2.04026794 -0.0004425 C4.26955366 0.00025512 6.4987562 0.0080405 8.72802734 0.01586914 C10.27216547 0.01773385 11.81630419 0.01915751 13.36044312 0.02015686 C17.42766957 0.02397785 21.49486039 0.03380457 25.56207275 0.04486084 C29.71113605 0.05508395 33.86020509 0.05965641 38.00927734 0.06469727 C46.15252287 0.0754272 54.29573943 0.09249862 62.43896484 0.11352539 C62.45442604 1.29956612 62.45442604 1.29956612 62.47019958 2.50956726 C62.56826719 9.96916729 62.67079461 17.42868649 62.7783041 24.88815594 C62.83341621 28.72293495 62.88681706 32.55772174 62.9362793 36.39257812 C62.98409614 40.09494764 63.03644443 43.79722812 63.09190559 47.49949074 C63.1122509 48.91041655 63.13097654 50.32136671 63.14803886 51.73233604 C63.17225665 53.71191436 63.2028207 55.69141193 63.23364258 57.67089844 C63.256959 59.35967354 63.256959 59.35967354 63.28074646 61.08256531 C63.38406171 64.46618189 63.38406171 64.46618189 64.43896484 69.11352539 C68.39896484 69.44352539 72.35896484 69.77352539 76.43896484 70.11352539 C76.43896484 70.44352539 76.43896484 70.77352539 76.43896484 71.11352539 C71.954977 71.21256012 67.47157193 71.28507022 62.98681641 71.33325195 C61.46196399 71.35334138 59.93718837 71.38061855 58.41259766 71.4152832 C56.21806886 71.46392335 54.02456016 71.48651935 51.82958984 71.50415039 C50.50991211 71.52509766 49.19023438 71.54604492 47.83056641 71.56762695 C44.43896484 71.11352539 44.43896484 71.11352539 41.99267578 69.57348633 C39.86289304 66.20144187 39.99982028 63.21188985 40.18896484 59.36352539 C40.20701172 58.66614258 40.22505859 57.96875977 40.24365234 57.25024414 C40.29057931 55.53741 40.36231879 53.82528715 40.43896484 52.11352539 C39.84872025 52.12240784 39.25847565 52.13129028 38.65034485 52.14044189 C32.50226534 52.22899547 26.35436726 52.28929287 20.20581055 52.33325195 C17.91179037 52.35335645 15.61782136 52.3806443 13.32397461 52.4152832 C10.02493658 52.46385099 6.72657662 52.48650616 3.42724609 52.50415039 C2.40311111 52.52479553 1.37897614 52.54544067 0.32380676 52.56671143 C-6.81191672 52.56895568 -6.81191672 52.56895568 -10.68530273 50.21411133 C-15.50692155 44.81450072 -13.86680756 36.05561078 -13.91113281 29.14746094 C-13.92768848 27.2550832 -13.9549735 25.36276789 -13.99316406 23.47070312 C-14.04797988 20.74063725 -14.06981333 18.01203649 -14.08447266 15.28149414 C-14.10714203 14.4386235 -14.1298114 13.59575287 -14.15316772 12.7273407 C-14.13738553 8.33054996 -13.9942329 6.65517632 -11.15332031 3.10302734 C-7.12921708 0.0146475 -5.05693641 -0.00919443 0 0 Z " fill="#83919F" transform="translate(13.56103515625,394.886474609375)"/>
<path d="M0 0 C8.51894615 -0.06957011 17.03777322 -0.12284666 25.5569334 -0.15543652 C29.51291134 -0.17107957 33.46869463 -0.1922927 37.42456055 -0.22631836 C41.24359355 -0.25896078 45.06243956 -0.27686325 48.88160133 -0.28463173 C50.33723709 -0.29016651 51.79286285 -0.30097472 53.24841881 -0.31719017 C55.29042903 -0.33903021 57.33167071 -0.34196431 59.3737793 -0.34057617 C61.11584908 -0.35056892 61.11584908 -0.35056892 62.89311218 -0.36076355 C66.37988199 0.04411089 68.2123422 0.89908366 71 3 C73.61673884 6.92510826 73.32391557 10.30946301 73.3359375 14.8671875 C73.3459227 16.17479538 73.3459227 16.17479538 73.35610962 17.50881958 C73.3662339 19.35302623 73.37092671 21.1972695 73.37060547 23.04150391 C73.37497319 25.85771375 73.41127881 28.6723493 73.44921875 31.48828125 C73.45508812 33.28124465 73.45905671 35.07421548 73.4609375 36.8671875 C73.47530853 37.70692108 73.48967957 38.54665466 73.50448608 39.41183472 C73.47290421 43.47049307 73.31763407 45.49809092 71.09619141 49.00830078 C68.05738137 51.89563042 66.44846382 52.12421064 62.36669922 52.11352539 C61.40585419 52.11344986 60.44500916 52.11337433 59.45504761 52.11329651 C58.41542877 52.10813522 57.37580994 52.10297394 56.3046875 52.09765625 C55.24210724 52.0962413 54.17952698 52.09482635 53.08474731 52.09336853 C49.68146991 52.08775834 46.27825762 52.07520409 42.875 52.0625 C40.57161553 52.05748631 38.26823003 52.05292318 35.96484375 52.04882812 C30.30987351 52.0377856 24.65494141 52.02103752 19 52 C19.05220703 53.57201172 19.05220703 53.57201172 19.10546875 55.17578125 C19.13360937 56.55467147 19.16090924 57.93357902 19.1875 59.3125 C19.21263672 60.00279297 19.23777344 60.69308594 19.26367188 61.40429688 C19.33753429 66.50080324 19.33753429 66.50080324 17.67773438 68.95556641 C15.00985607 70.61639053 12.59919613 70.39594051 9.5 70.375 C7.78296875 70.38660156 7.78296875 70.38660156 6.03125 70.3984375 C3 70 3 70 1.33183289 68.88078308 C-0.63878295 66.09792573 -0.35962725 63.89377522 -0.34057617 60.5090332 C-0.34101425 59.8551059 -0.34145233 59.20117859 -0.34190369 58.5274353 C-0.33981539 56.36824577 -0.31648388 54.20983495 -0.29296875 52.05078125 C-0.28737291 50.55291671 -0.28310275 49.05504668 -0.28010559 47.55717468 C-0.2686558 43.61641254 -0.23918778 39.67598255 -0.20599365 35.73535156 C-0.17529548 31.71358738 -0.16160082 27.69176947 -0.14648438 23.66992188 C-0.11431793 15.77979556 -0.06312028 7.88993911 0 0 Z " fill="#99A6B7" transform="translate(439,395)"/>
<path d="M0 0 C79.2 0 158.4 0 240 0 C240 5.94 240 11.88 240 18 C160.8 18 81.6 18 0 18 C0 12.06 0 6.12 0 0 Z " fill="#39424B" transform="translate(136,160)"/>
<path d="M0 0 C0.98396507 0.00424484 0.98396507 0.00424484 1.98780823 0.00857544 C4.05587034 0.01965266 6.12347798 0.04473187 8.19140625 0.0703125 C9.6048114 0.08035848 11.01822342 0.08948148 12.43164062 0.09765625 C15.87254019 0.11955066 19.31317877 0.15399199 22.75390625 0.1953125 C22.75390625 0.8553125 22.75390625 1.5153125 22.75390625 2.1953125 C21.79291016 2.50662109 21.79291016 2.50662109 20.8125 2.82421875 C13.44992836 5.44665485 8.12001368 8.57851751 4.47265625 15.6953125 C2.75527259 19.81703329 1.55164719 23.79991636 0.75390625 28.1953125 C-0.89609375 28.1953125 -2.54609375 28.1953125 -4.24609375 28.1953125 C-4.24609375 40.0753125 -4.24609375 51.9553125 -4.24609375 64.1953125 C-2.59609375 64.1953125 -0.94609375 64.1953125 0.75390625 64.1953125 C0.75390625 75.7453125 0.75390625 87.2953125 0.75390625 99.1953125 C-9.80609375 99.1953125 -20.36609375 99.1953125 -31.24609375 99.1953125 C-31.33674319 89.45886489 -31.41000981 79.72270112 -31.45334244 69.98592567 C-31.47414809 65.46392667 -31.50233604 60.94223331 -31.54785156 56.42041016 C-31.59156164 52.05021569 -31.61528357 47.68031377 -31.62560272 43.30991745 C-31.63294922 41.64906591 -31.64729448 39.98822897 -31.66901398 38.3275032 C-31.79990031 27.89742611 -31.13890385 19.53915118 -25.55859375 10.4453125 C-18.13105647 3.21851947 -10.43742417 -0.08959162 0 0 Z " fill="#333B42" transform="translate(47.24609375,295.8046875)"/>
<path d="M0 0 C0.84575592 -0.0066568 1.69151184 -0.0133136 2.56289673 -0.02017212 C4.34985178 -0.03028373 6.13684449 -0.0349896 7.92382812 -0.03466797 C10.64777353 -0.03903638 13.37009163 -0.07535689 16.09375 -0.11328125 C17.83332782 -0.11915083 19.5729133 -0.12311928 21.3125 -0.125 C22.52684219 -0.14655655 22.52684219 -0.14655655 23.76571655 -0.16854858 C30.29401619 -0.11620568 33.83316855 2.01279458 38.6015625 6.5234375 C41.4049719 11.19578651 41.73152395 15.54928125 40.8828125 20.89453125 C39.15748653 27.64178817 36.23635866 32.84130717 30.26171875 36.6171875 C24.41950712 39.66340585 19.7424201 40.46074634 13.1171875 40.43359375 C12.4347699 40.4321788 11.75235229 40.43076385 11.04925537 40.42930603 C8.87914566 40.42372834 6.7091408 40.41118004 4.5390625 40.3984375 C3.06380358 40.39341961 1.58854303 40.38885721 0.11328125 40.38476562 C-3.49482548 40.37376625 -7.10287125 40.35651703 -10.7109375 40.3359375 C-10.90127563 41.41621216 -10.90127563 41.41621216 -11.09545898 42.51831055 C-11.70128833 45.29176414 -12.53608403 47.77242773 -13.55859375 50.41796875 C-13.91630859 51.34931641 -14.27402344 52.28066406 -14.64257812 53.24023438 C-15.01576172 54.19994141 -15.38894531 55.15964844 -15.7734375 56.1484375 C-16.15048828 57.12748047 -16.52753906 58.10652344 -16.91601562 59.11523438 C-17.84409345 61.5235376 -18.77583866 63.93035364 -19.7109375 66.3359375 C-24.03185557 64.17547847 -24.93956687 56.6229915 -26.3984375 52.2734375 C-26.82705078 51.05720703 -27.25566406 49.84097656 -27.69726562 48.58789062 C-31.29387706 37.91388921 -30.79502252 31.65167751 -26.2109375 21.4609375 C-25.85999023 20.67589844 -25.50904297 19.89085937 -25.14746094 19.08203125 C-19.68042231 7.42543788 -13.37393602 0.03658468 0 0 Z " fill="#99A6B7" transform="translate(463.7109375,229.6640625)"/>
<path d="M0 0 C1.23533981 -0.0099852 1.23533981 -0.0099852 2.49563599 -0.02017212 C4.235512 -0.03028253 5.97542667 -0.03498964 7.71533203 -0.03466797 C10.36686658 -0.03903623 13.01672907 -0.07535715 15.66796875 -0.11328125 C17.3619735 -0.1191509 19.05598612 -0.1231193 20.75 -0.125 C21.53768768 -0.13937103 22.32537537 -0.15374207 23.13693237 -0.16854858 C28.39100449 -0.12529383 31.31197263 0.90790643 35.5078125 4.3359375 C41.96531407 11.41357492 45.82686767 20.59490757 49.5078125 29.3359375 C49.92417969 30.28984375 50.34054688 31.24375 50.76953125 32.2265625 C52.65525174 40.16853875 49.64092614 47.84922159 47.0703125 55.3359375 C46.75771484 56.28855469 46.44511719 57.24117188 46.12304688 58.22265625 C43.76690865 65.20638943 43.76690865 65.20638943 41.5078125 66.3359375 C41.30623535 65.81684814 41.1046582 65.29775879 40.89697266 64.76293945 C39.97584437 62.39133833 39.05433171 60.01988674 38.1328125 57.6484375 C37.81570312 56.83181641 37.49859375 56.01519531 37.171875 55.17382812 C36.8625 54.37783203 36.553125 53.58183594 36.234375 52.76171875 C35.93563477 51.99037598 35.63689453 51.2190332 35.32910156 50.42431641 C34.6718819 48.75313418 33.98189976 47.09485043 33.28125 45.44140625 C32.5078125 43.3359375 32.5078125 43.3359375 32.5078125 40.3359375 C31.61586182 40.35164795 30.72391113 40.3673584 29.80493164 40.38354492 C26.45574991 40.43505742 23.10699684 40.47247197 19.75756836 40.50073242 C18.31544295 40.51570258 16.87336214 40.53608618 15.43139648 40.56225586 C4.31637993 40.75874315 -5.28716553 40.52758338 -13.7578125 32.48046875 C-18.06162124 27.15886741 -19.87597172 20.8867867 -19.6171875 14.0859375 C-18.82833341 8.9787172 -16.44590517 5.59520827 -12.4921875 2.3359375 C-8.63713063 -0.27317934 -4.48316162 0.0126026 0 0 Z " fill="#99A6B7" transform="translate(26.4921875,229.6640625)"/>
<path d="M0 0 C21.78 0 43.56 0 66 0 C66 11.22 66 22.44 66 34 C44.22 34 22.44 34 0 34 C0 22.78 0 11.56 0 0 Z " fill="#FDFEFE" transform="translate(403,325)"/>
<path d="M0 0 C21.78 0 43.56 0 66 0 C66 11.22 66 22.44 66 34 C44.22 34 22.44 34 0 34 C0 22.78 0 11.56 0 0 Z " fill="#FDFEFE" transform="translate(43,325)"/>
<path d="M0 0 C1.11181641 0.01611328 2.22363281 0.03222656 3.36914062 0.04882812 C4.51962891 0.09072266 5.67011719 0.13261719 6.85546875 0.17578125 C8.02529297 0.19833984 9.19511719 0.22089844 10.40039062 0.24414062 C13.28255644 0.30296034 16.16210556 0.38510984 19.04296875 0.48828125 C18.39465088 1.09099854 17.74633301 1.69371582 17.07836914 2.31469727 C14.13422078 6.90519558 14.45017172 10.91649428 14.4765625 16.265625 C14.47036392 17.30973038 14.46416534 18.35383575 14.45777893 19.42958069 C14.45068563 21.63427805 14.45384615 23.83902902 14.46655273 26.04370117 C14.48040793 29.41100016 14.44635055 32.77551416 14.40820312 36.14257812 C14.40725179 38.28776109 14.40911153 40.43294753 14.4140625 42.578125 C14.40080429 43.58141342 14.38754608 44.58470184 14.37388611 45.61839294 C14.43579127 50.28311721 14.53526566 53.487296 17.58227539 57.17016602 C18.3943042 57.93514404 19.20633301 58.70012207 20.04296875 59.48828125 C15.81416464 59.63370092 11.58600462 59.72239652 7.35546875 59.80078125 C6.15728516 59.84267578 4.95910156 59.88457031 3.72460938 59.92773438 C2.56767578 59.94384766 1.41074219 59.95996094 0.21875 59.9765625 C-0.84432373 60.00274658 -1.90739746 60.02893066 -3.00268555 60.0559082 C-7.23208099 59.24330227 -8.52633873 58.0504888 -10.95703125 54.48828125 C-11.68446231 50.80800311 -11.65785207 47.19899147 -11.62109375 43.45703125 C-11.6282692 41.85402161 -11.6282692 41.85402161 -11.6355896 40.21862793 C-11.63898706 37.96263148 -11.62979555 35.7065857 -11.60888672 33.45068359 C-11.58212105 29.99985861 -11.60864196 26.55228645 -11.640625 23.1015625 C-11.63732088 20.90754491 -11.6309146 18.71352935 -11.62109375 16.51953125 C-11.6312149 15.48920776 -11.64133606 14.45888428 -11.65176392 13.39733887 C-11.57575727 8.74602373 -11.47005917 6.23539079 -8.7878418 2.3293457 C-5.51867512 0.20318909 -3.8670325 -0.09915468 0 0 Z " fill="#D32A32" transform="translate(112.95703125,100.51171875)"/>
<path d="M0 0 C1.20970459 0.00523682 2.41940918 0.01047363 3.66577148 0.01586914 C4.84083252 0.0183667 6.01589355 0.02086426 7.2265625 0.0234375 C8.7314624 0.0325415 10.2363623 0.04164551 11.78686523 0.05102539 C16.55124023 0.07165039 21.31561523 0.09227539 26.22436523 0.11352539 C26.22436523 14.63352539 26.22436523 29.15352539 26.22436523 44.11352539 C3.72436523 44.11352539 3.72436523 44.11352539 -1.52563477 39.61352539 C-4.48137107 36.06664183 -3.92059472 31.7694793 -3.90844727 27.41821289 C-3.90940399 26.67016388 -3.91036072 25.92211487 -3.91134644 25.15139771 C-3.91202619 23.57285477 -3.91018614 21.99430903 -3.90600586 20.41577148 C-3.90063967 17.99074084 -3.90596541 15.56589414 -3.91235352 13.14086914 C-3.91169299 11.60831665 -3.91041237 10.07576427 -3.90844727 8.54321289 C-3.9104715 7.81407684 -3.91249573 7.0849408 -3.9145813 6.33370972 C-3.88557167 0.15892258 -3.88557167 0.15892258 0 0 Z " fill="#99A6B7" transform="translate(27.775634765625,394.886474609375)"/>
<path d="M0 0 C1.90625 0.375 1.90625 0.375 4.40625 1.875 C6.85073212 5.94913686 6.42503473 10.21599485 5.34558105 14.70831299 C4.54738655 17.28157453 3.67461635 19.81532752 2.765625 22.3515625 C2.44217102 23.28044281 2.11871704 24.20932312 1.78546143 25.16635132 C1.10204778 27.11983861 0.4125431 29.07120455 -0.28271484 31.02050781 C-1.34115031 33.99269982 -2.37700312 36.97206311 -3.41015625 39.953125 C-4.0794021 41.85723778 -4.74993213 43.7608998 -5.421875 45.6640625 C-5.72933655 46.54857086 -6.0367981 47.43307922 -6.35357666 48.34439087 C-8.09289779 53.18313672 -9.87848846 57.33463261 -13.09375 61.375 C-16.49509559 62.53290488 -18.38775981 62.56754278 -21.84375 61.625 C-24.09375 60.375 -24.09375 60.375 -26.09375 57.375 C-26.80273616 50.97293766 -24.82831714 45.71141861 -22.734375 39.76953125 C-22.21589996 38.26709114 -22.21589996 38.26709114 -21.68695068 36.73429871 C-20.95584635 34.62544114 -20.21926199 32.51847636 -19.47753906 30.41333008 C-18.3457708 27.19324954 -17.23827915 23.96551905 -16.1328125 20.73632812 C-15.41811192 18.68439187 -14.7020133 16.63294192 -13.984375 14.58203125 C-13.65503967 13.61844193 -13.32570435 12.6548526 -12.98638916 11.6620636 C-10.43642756 4.50643546 -8.29431745 -0.49518313 0 0 Z " fill="#60D6FF" transform="translate(338.09375,14.625)"/>
<path d="M0 0 C3.13317168 0.98523563 4.1366668 2.96188565 6 5.62890625 C7.22744224 8.24954777 8.18143001 10.94323448 9.12890625 13.67578125 C9.40468002 14.44641907 9.6804538 15.21705688 9.96458435 16.01104736 C10.83975291 18.46384422 11.70119655 20.92121101 12.5625 23.37890625 C13.14430495 25.01463524 13.72697933 26.65005526 14.31054688 28.28515625 C15.89099164 32.72718149 17.46059337 37.17247978 19 41.62890625 C19.2765744 42.42147827 19.5531488 43.21405029 19.83810425 44.03063965 C20.10930084 44.82135864 20.38049744 45.61207764 20.65991211 46.42675781 C20.90623886 47.14043518 21.15256561 47.85411255 21.40635681 48.5894165 C22.32826602 51.75667996 22.4470792 54.37161491 22 57.62890625 C19.94502229 60.63233521 18.52366286 61.46177981 15.0625 62.56640625 C11.23923369 62.64443209 10.00108172 61.98022105 7 59.62890625 C5.70319386 57.13247851 4.73558909 54.88516626 3.8125 52.25390625 C3.53204834 51.49094238 3.25159668 50.72797852 2.96264648 49.94189453 C2.32612421 48.19302795 1.69929349 46.44061589 1.08007812 44.68554688 C0.07746787 41.84814174 -0.94647667 39.01910067 -1.97550964 36.19119263 C-2.91055527 33.61087893 -3.83171545 31.02576063 -4.74917603 28.43914795 C-5.20462645 27.15863661 -5.66354069 25.87935152 -6.12606812 24.60137939 C-10.80534799 11.6196589 -10.80534799 11.6196589 -10 4.62890625 C-7.45728372 0.39104579 -4.59464958 0.15255672 0 0 Z " fill="#E93438" transform="translate(178,14.37109375)"/>
<path d="M0 0 C0.66 -0.0103125 1.32 -0.020625 2 -0.03125 C4.9192339 0.7441715 6.09362068 2.18867521 8 4.5 C8.50793457 7.08007812 8.50793457 7.08007812 8.51757812 10.03125 C8.53018677 11.13919922 8.54279541 12.24714844 8.55578613 13.38867188 C8.54768921 14.58041016 8.53959229 15.77214844 8.53125 17 C8.5350769 18.22783203 8.53890381 19.45566406 8.54284668 20.72070312 C8.54556842 23.31641459 8.53818911 25.91215336 8.52148438 28.5078125 C8.50008075 32.48499599 8.52127963 36.46037282 8.546875 40.4375 C8.54423177 42.95833733 8.53910691 45.47917353 8.53125 48 C8.53934692 49.19173828 8.54744385 50.38347656 8.55578613 51.61132812 C8.54317749 52.71927734 8.53056885 53.82722656 8.51757812 54.96875 C8.51280457 56.42958008 8.51280457 56.42958008 8.50793457 57.91992188 C7.85635509 61.22965126 6.58794275 62.40516223 4 64.5 C0.51035729 65.87749054 -0.72477566 65.61114829 -4.25 64.1875 C-7 62.5 -7 62.5 -8 60.5 C-8.11106292 58.73443921 -8.15920218 56.96476179 -8.17700195 55.19580078 C-8.18983719 54.0877005 -8.20267242 52.97960022 -8.21589661 51.83792114 C-8.22328354 50.63586029 -8.23067047 49.43379944 -8.23828125 48.1953125 C-8.25038887 46.34931961 -8.25038887 46.34931961 -8.26274109 44.46603394 C-8.27659032 41.85839247 -8.2873087 39.25073281 -8.29516602 36.64306641 C-8.30403561 33.96770519 -8.32492948 31.29286178 -8.35668945 28.61767578 C-8.3991954 24.76839414 -8.41551205 20.91979918 -8.42578125 17.0703125 C-8.44328934 15.87230011 -8.46079742 14.67428772 -8.47883606 13.43997192 C-8.47591049 12.32556732 -8.47298492 11.21116272 -8.4699707 10.06298828 C-8.47583694 9.08306915 -8.48170319 8.10315002 -8.48774719 7.09353638 C-7.62333653 2.4971378 -4.66774284 -0.07293348 0 0 Z " fill="#C8E8EE" transform="translate(256,0.5)"/>
<path d="M0 0 C17.82 0 35.64 0 54 0 C51.59860451 6.00348874 51.59860451 6.00348874 48 8 C45.69671631 8.36076355 45.69671631 8.36076355 43.13964844 8.34057617 C42.17895447 8.34034958 41.2182605 8.34012299 40.22845459 8.33988953 C39.19915833 8.32440567 38.16986206 8.30892181 37.109375 8.29296875 C35.51974945 8.28660149 35.51974945 8.28660149 33.89801025 8.28010559 C30.51508113 8.2633203 27.13274891 8.22566755 23.75 8.1875 C21.45573777 8.17245301 19.1614662 8.15876463 16.8671875 8.14648438 C11.2445882 8.11341728 5.62233675 8.06321903 0 8 C0 5.36 0 2.72 0 0 Z " fill="#83919F" transform="translate(458,439)"/>
</svg>
