<svg xmlns="http://www.w3.org/2000/svg" xmlns:xlink="http://www.w3.org/1999/xlink" width="40" zoomAndPan="magnify" viewBox="0 0 30 30.000001" height="40" preserveAspectRatio="xMidYMid meet" version="1.0"><defs><g/><clipPath id="496dfed2d7"><path d="M 0.484375 7 L 19 7 L 19 19 L 0.484375 19 Z M 0.484375 7 " clip-rule="nonzero"/></clipPath><clipPath id="cd0471626e"><path d="M 19 8 L 29.515625 8 L 29.515625 22 L 19 22 Z M 19 8 " clip-rule="nonzero"/></clipPath><clipPath id="fed51b3659"><path d="M 0.484375 17 L 29.515625 17 L 29.515625 22 L 0.484375 22 Z M 0.484375 17 " clip-rule="nonzero"/></clipPath><clipPath id="58a373644a"><path d="M 0.484375 17 L 16 17 L 16 22 L 0.484375 22 Z M 0.484375 17 " clip-rule="nonzero"/></clipPath><clipPath id="5fe74b0fb9"><path d="M 0.484375 23 L 29.515625 23 L 29.515625 25 L 0.484375 25 Z M 0.484375 23 " clip-rule="nonzero"/></clipPath><clipPath id="f0ca28fb2b"><path d="M 0.652344 2 L 1.347656 2 L 1.347656 3 L 0.652344 3 Z M 0.652344 2 " clip-rule="nonzero"/></clipPath><clipPath id="7704ec6eeb"><rect x="0" width="2" y="0" height="4"/></clipPath></defs><g clip-path="url(#496dfed2d7)"><path fill="#ffa91a" d="M 15.007812 18.613281 C 14.90625 18.613281 14.839844 18.578125 14.769531 18.527344 C 14.703125 18.457031 14.667969 18.375 14.667969 18.273438 L 14.667969 7.4375 C 14.667969 7.351562 14.703125 7.265625 14.769531 7.199219 C 14.839844 7.132812 14.921875 7.097656 15.007812 7.097656 C 15.910156 7.132812 16.742188 7.523438 17.390625 8.167969 C 18.054688 8.847656 18.410156 9.714844 18.410156 10.617188 L 18.410156 15.109375 C 18.410156 16.007812 18.054688 16.878906 17.390625 17.539062 C 16.742188 18.203125 15.910156 18.59375 15.007812 18.613281 Z M 12.847656 18.613281 L 6.046875 18.613281 C 5.859375 18.613281 5.707031 18.457031 5.707031 18.273438 L 5.707031 7.4375 C 5.707031 7.25 5.859375 7.097656 6.046875 7.097656 L 12.847656 7.097656 C 13.035156 7.097656 13.1875 7.25 13.1875 7.4375 L 13.1875 18.273438 C 13.1875 18.457031 13.035156 18.613281 12.847656 18.613281 Z M 3.886719 18.613281 C 3.886719 18.613281 3.886719 18.613281 3.867188 18.613281 C 2.96875 18.59375 2.117188 18.203125 1.46875 17.539062 C 0.839844 16.878906 0.484375 16.007812 0.484375 15.109375 L 0.484375 10.617188 C 0.484375 9.714844 0.839844 8.847656 1.46875 8.1875 C 2.117188 7.523438 2.96875 7.132812 3.867188 7.097656 C 3.96875 7.097656 4.054688 7.132812 4.125 7.199219 C 4.191406 7.265625 4.226562 7.351562 4.226562 7.4375 L 4.226562 18.273438 C 4.226562 18.375 4.191406 18.457031 4.125 18.527344 C 4.054688 18.578125 3.96875 18.613281 3.886719 18.613281 Z M 3.886719 18.613281 " fill-opacity="1" fill-rule="evenodd"/></g><path fill="#ef7816" d="M 6.046875 18.613281 L 3.886719 18.613281 C 3.699219 18.613281 3.546875 18.457031 3.546875 18.273438 L 3.546875 6.585938 C 3.546875 6.367188 3.730469 6.144531 4.054688 6.144531 L 5.875 6.144531 C 6.078125 6.144531 6.386719 6.316406 6.386719 6.585938 L 6.386719 18.273438 C 6.386719 18.457031 6.234375 18.613281 6.046875 18.613281 Z M 15.007812 18.613281 L 12.847656 18.613281 C 12.660156 18.613281 12.507812 18.457031 12.507812 18.273438 L 12.507812 6.585938 C 12.507812 6.367188 12.695312 6.144531 13.019531 6.144531 L 14.839844 6.144531 C 15.042969 6.144531 15.347656 6.316406 15.347656 6.585938 L 15.347656 18.273438 C 15.347656 18.457031 15.195312 18.613281 15.007812 18.613281 Z M 15.007812 18.613281 " fill-opacity="1" fill-rule="evenodd"/><path fill="#ef7816" d="M 9.445312 15.839844 C 8.171875 15.839844 7.167969 14.835938 7.167969 13.578125 C 7.167969 12.964844 7.796875 11.859375 9.175781 10.023438 C 9.242188 9.9375 9.34375 9.886719 9.445312 9.886719 C 9.550781 9.886719 9.652344 9.9375 9.71875 10.023438 C 11.097656 11.859375 11.710938 12.964844 11.710938 13.578125 C 11.710938 14.835938 10.722656 15.839844 9.445312 15.839844 Z M 9.445312 15.839844 " fill-opacity="1" fill-rule="evenodd"/><g clip-path="url(#cd0471626e)"><path fill="#e94444" d="M 29.175781 21.453125 L 19.429688 21.453125 C 19.242188 21.453125 19.089844 21.300781 19.089844 21.113281 L 19.089844 8.695312 C 19.089844 8.507812 19.242188 8.355469 19.429688 8.355469 L 26.914062 8.355469 C 27.050781 8.355469 27.167969 8.441406 27.21875 8.558594 L 29.5 13.714844 C 29.515625 13.765625 29.515625 13.816406 29.515625 13.847656 L 29.515625 21.113281 C 29.515625 21.300781 29.363281 21.453125 29.175781 21.453125 Z M 29.175781 21.453125 " fill-opacity="1" fill-rule="evenodd"/></g><g clip-path="url(#fed51b3659)"><path fill="#808285" d="M 29.175781 21.453125 L 0.941406 21.453125 C 0.757812 21.453125 0.601562 21.300781 0.601562 21.113281 L 0.601562 18.273438 C 0.601562 18.085938 0.757812 17.929688 0.941406 17.929688 L 29.175781 17.929688 C 29.363281 17.929688 29.515625 18.085938 29.515625 18.273438 L 29.515625 21.113281 C 29.515625 21.300781 29.363281 21.453125 29.175781 21.453125 Z M 29.175781 21.453125 " fill-opacity="1" fill-rule="evenodd"/></g><g clip-path="url(#58a373644a)"><path fill="#58595b" d="M 15.398438 21.453125 L 0.941406 21.453125 C 0.757812 21.453125 0.601562 21.300781 0.601562 21.113281 L 0.601562 18.273438 C 0.601562 18.085938 0.757812 17.929688 0.941406 17.929688 L 15.398438 17.929688 Z M 15.398438 21.453125 " fill-opacity="1" fill-rule="evenodd"/></g><path fill="#414042" d="M 23.207031 16.792969 L 21.929688 16.792969 C 21.421875 16.792969 20.996094 16.367188 20.996094 15.839844 C 20.996094 15.328125 21.402344 14.957031 21.929688 14.957031 L 23.207031 14.957031 C 23.734375 14.957031 24.109375 15.328125 24.109375 15.839844 C 24.109375 16.382812 23.714844 16.792969 23.207031 16.792969 Z M 23.207031 16.792969 " fill-opacity="1" fill-rule="evenodd"/><path fill="#5e9cf7" d="M 27.253906 13.96875 L 21.300781 13.96875 C 21.113281 13.96875 20.960938 13.816406 20.960938 13.628906 L 20.960938 10.789062 C 20.960938 10.601562 21.113281 10.449219 21.300781 10.449219 L 25.84375 10.449219 C 25.960938 10.449219 26.082031 10.53125 26.148438 10.636719 L 27.558594 13.476562 C 27.609375 13.578125 27.609375 13.714844 27.542969 13.796875 C 27.476562 13.902344 27.375 13.96875 27.253906 13.96875 Z M 27.253906 13.96875 " fill-opacity="1" fill-rule="evenodd"/><path fill="#414042" d="M 4.957031 24.410156 C 3.578125 24.410156 2.472656 23.289062 2.472656 21.910156 C 2.472656 20.484375 3.5625 19.359375 4.957031 19.359375 C 6.386719 19.359375 7.507812 20.484375 7.507812 21.910156 C 7.507812 23.304688 6.386719 24.410156 4.957031 24.410156 Z M 11.367188 24.410156 C 10.707031 24.410156 10.078125 24.15625 9.582031 23.679688 C 9.089844 23.203125 8.816406 22.574219 8.816406 21.910156 C 8.816406 20.5 9.972656 19.359375 11.367188 19.359375 C 12.78125 19.359375 13.867188 20.484375 13.867188 21.910156 C 13.867188 23.289062 12.746094 24.410156 11.367188 24.410156 Z M 24.3125 24.410156 C 23.632812 24.410156 23.003906 24.15625 22.527344 23.679688 C 22.03125 23.203125 21.742188 22.574219 21.742188 21.910156 C 21.742188 20.5 22.898438 19.359375 24.3125 19.359375 C 25.707031 19.359375 26.863281 20.5 26.863281 21.910156 C 26.863281 22.574219 26.589844 23.203125 26.097656 23.679688 C 25.605469 24.15625 24.976562 24.410156 24.3125 24.410156 Z M 24.3125 24.410156 " fill-opacity="1" fill-rule="evenodd"/><path fill="#656466" d="M 11.367188 23.050781 C 10.757812 23.050781 10.246094 22.523438 10.246094 21.910156 C 10.246094 21.265625 10.722656 20.773438 11.367188 20.773438 C 11.980469 20.773438 12.507812 21.300781 12.507812 21.910156 C 12.507812 22.488281 11.964844 23.050781 11.367188 23.050781 Z M 24.3125 23.050781 C 23.699219 23.050781 23.171875 22.523438 23.171875 21.910156 C 23.171875 21.265625 23.664062 20.773438 24.3125 20.773438 C 24.957031 20.773438 25.433594 21.265625 25.433594 21.910156 C 25.433594 22.523438 24.925781 23.050781 24.3125 23.050781 Z M 4.957031 23.050781 C 4.394531 23.050781 3.886719 22.523438 3.886719 21.910156 C 3.886719 21.28125 4.363281 20.773438 4.957031 20.773438 C 5.601562 20.773438 6.097656 21.265625 6.097656 21.910156 C 6.097656 22.523438 5.570312 23.050781 4.957031 23.050781 Z M 4.957031 23.050781 " fill-opacity="1" fill-rule="evenodd"/><g clip-path="url(#5fe74b0fb9)"><path fill="#656466" d="M 28.835938 24.410156 L 1.285156 24.410156 C 1.097656 24.410156 0.941406 24.257812 0.941406 24.070312 C 0.941406 23.882812 1.097656 23.730469 1.285156 23.730469 L 28.835938 23.730469 C 29.023438 23.730469 29.175781 23.882812 29.175781 24.070312 C 29.175781 24.257812 29.023438 24.410156 28.835938 24.410156 Z M 28.835938 24.410156 " fill-opacity="1" fill-rule="evenodd"/></g><g transform="matrix(1, 0, 0, 1, 14, 23)"><g clip-path="url(#7704ec6eeb)"><g clip-path="url(#f0ca28fb2b)"><g fill="#ffffff" fill-opacity="1"><g transform="translate(0.742961, 2.46855)"><g><path d="M 0.25 0.015625 C 0.21875 0.015625 0.191406 0.00390625 0.171875 -0.015625 C 0.148438 -0.0351562 0.140625 -0.0625 0.140625 -0.09375 C 0.140625 -0.132812 0.148438 -0.164062 0.171875 -0.1875 C 0.191406 -0.207031 0.21875 -0.21875 0.25 -0.21875 C 0.289062 -0.21875 0.320312 -0.207031 0.34375 -0.1875 C 0.363281 -0.164062 0.375 -0.140625 0.375 -0.109375 C 0.375 -0.0664062 0.363281 -0.0351562 0.34375 -0.015625 C 0.320312 0.00390625 0.289062 0.015625 0.25 0.015625 Z M 0.25 0.015625 "/></g></g></g></g></g></g></svg>