<svg xmlns="http://www.w3.org/2000/svg" xmlns:xlink="http://www.w3.org/1999/xlink" width="40" zoomAndPan="magnify" viewBox="0 0 30 30.000001" height="40" preserveAspectRatio="xMidYMid meet" version="1.0"><defs><g/><clipPath id="236939a87c"><path d="M 3.386719 0 L 25.886719 0 L 25.886719 29 L 3.386719 29 Z M 3.386719 0 " clip-rule="nonzero"/></clipPath><clipPath id="a2b3efc77d"><path d="M 0.652344 2 L 1.347656 2 L 1.347656 3 L 0.652344 3 Z M 0.652344 2 " clip-rule="nonzero"/></clipPath><clipPath id="a313f677d4"><rect x="0" width="2" y="0" height="4"/></clipPath></defs><g clip-path="url(#236939a87c)"><path fill="#000000" d="M 14.984375 22 C 18.433594 22.183594 21.175781 25.007812 21.175781 28.457031 C 21.175781 28.75 20.9375 28.984375 20.640625 28.984375 L 8.609375 28.984375 C 8.3125 28.984375 8.074219 28.75 8.074219 28.457031 C 8.074219 25.136719 10.617188 22.394531 13.882812 22.03125 L 14.132812 10.082031 C 13.199219 9.863281 12.503906 9.03125 12.503906 8.042969 C 12.503906 6.890625 13.453125 5.953125 14.625 5.953125 C 15.796875 5.953125 16.746094 6.890625 16.746094 8.042969 C 16.746094 8.988281 16.109375 9.789062 15.234375 10.046875 Z M 15.671875 8.042969 C 15.671875 7.472656 15.203125 7.011719 14.625 7.011719 C 14.046875 7.011719 13.578125 7.472656 13.578125 8.042969 C 13.578125 8.613281 14.046875 9.078125 14.625 9.078125 C 15.203125 9.078125 15.671875 8.613281 15.671875 8.042969 Z M 20.078125 27.929688 C 19.808594 25.191406 17.46875 23.046875 14.625 23.046875 C 11.78125 23.046875 9.441406 25.191406 9.171875 27.929688 Z M 21.816406 0.941406 C 21.609375 0.734375 21.605469 0.398438 21.816406 0.195312 C 22.027344 -0.0117188 22.367188 -0.0117188 22.574219 0.191406 C 24.613281 2.203125 25.875 4.980469 25.875 8.042969 C 25.875 11.113281 24.609375 13.894531 22.566406 15.902344 C 22.355469 16.109375 22.015625 16.109375 21.808594 15.902344 C 21.597656 15.695312 21.597656 15.359375 21.808594 15.15625 C 23.65625 13.335938 24.800781 10.820312 24.800781 8.042969 C 24.800781 5.273438 23.660156 2.761719 21.816406 0.941406 Z M 19.523438 3.210938 C 19.316406 3.003906 19.316406 2.667969 19.523438 2.464844 C 19.734375 2.257812 20.074219 2.257812 20.28125 2.464844 C 21.730469 3.894531 22.625 5.867188 22.625 8.042969 C 22.625 10.226562 21.726562 12.203125 20.277344 13.632812 C 20.066406 13.835938 19.726562 13.835938 19.515625 13.628906 C 19.308594 13.425781 19.308594 13.089844 19.519531 12.882812 C 20.773438 11.644531 21.554688 9.933594 21.554688 8.042969 C 21.554688 6.15625 20.777344 4.449219 19.523438 3.210938 Z M 17.226562 5.476562 C 17.019531 5.273438 17.019531 4.9375 17.226562 4.730469 C 17.4375 4.523438 17.777344 4.523438 17.988281 4.730469 C 18.84375 5.578125 19.378906 6.75 19.378906 8.042969 C 19.378906 9.34375 18.839844 10.519531 17.976562 11.367188 C 17.765625 11.574219 17.425781 11.574219 17.21875 11.367188 C 17.011719 11.160156 17.011719 10.824219 17.222656 10.617188 C 17.890625 9.960938 18.304688 9.050781 18.304688 8.042969 C 18.304688 7.042969 17.894531 6.136719 17.226562 5.476562 Z M 6.675781 0.191406 C 6.886719 -0.0117188 7.226562 -0.0117188 7.433594 0.195312 C 7.644531 0.398438 7.644531 0.734375 7.433594 0.941406 C 5.589844 2.757812 4.449219 5.269531 4.449219 8.042969 C 4.449219 10.820312 5.59375 13.335938 7.441406 15.15625 C 7.652344 15.359375 7.652344 15.695312 7.441406 15.902344 C 7.234375 16.109375 6.894531 16.109375 6.683594 15.902344 C 4.640625 13.894531 3.378906 11.113281 3.378906 8.042969 C 3.378906 4.980469 4.636719 2.203125 6.675781 0.191406 Z M 8.96875 2.464844 C 9.179688 2.257812 9.515625 2.257812 9.726562 2.464844 C 9.9375 2.667969 9.9375 3.003906 9.726562 3.210938 C 8.472656 4.449219 7.699219 6.15625 7.699219 8.042969 C 7.699219 9.933594 8.476562 11.644531 9.734375 12.882812 C 9.941406 13.089844 9.941406 13.425781 9.734375 13.628906 C 9.523438 13.835938 9.183594 13.835938 8.976562 13.632812 C 7.523438 12.203125 6.625 10.226562 6.625 8.042969 C 6.625 5.867188 7.519531 3.894531 8.96875 2.464844 Z M 11.265625 4.730469 C 11.472656 4.523438 11.8125 4.523438 12.023438 4.730469 C 12.230469 4.9375 12.230469 5.273438 12.023438 5.476562 C 11.355469 6.136719 10.945312 7.042969 10.945312 8.042969 C 10.945312 9.050781 11.359375 9.960938 12.03125 10.617188 C 12.238281 10.824219 12.242188 11.160156 12.03125 11.367188 C 11.824219 11.574219 11.484375 11.574219 11.273438 11.367188 C 10.410156 10.519531 9.875 9.34375 9.875 8.042969 C 9.875 6.75 10.40625 5.578125 11.265625 4.730469 Z M 11.265625 4.730469 " fill-opacity="1" fill-rule="evenodd"/></g><g transform="matrix(1, 0, 0, 1, 14, 23)"><g clip-path="url(#a313f677d4)"><g clip-path="url(#a2b3efc77d)"><g fill="#ffffff" fill-opacity="1"><g transform="translate(0.742961, 2.46855)"><g><path d="M 0.25 0.015625 C 0.21875 0.015625 0.191406 0.00390625 0.171875 -0.015625 C 0.148438 -0.0351562 0.140625 -0.0625 0.140625 -0.09375 C 0.140625 -0.132812 0.148438 -0.164062 0.171875 -0.1875 C 0.191406 -0.207031 0.21875 -0.21875 0.25 -0.21875 C 0.289062 -0.21875 0.320312 -0.207031 0.34375 -0.1875 C 0.363281 -0.164062 0.375 -0.140625 0.375 -0.109375 C 0.375 -0.0664062 0.363281 -0.0351562 0.34375 -0.015625 C 0.320312 0.00390625 0.289062 0.015625 0.25 0.015625 Z M 0.25 0.015625 "/></g></g></g></g></g></g></svg>