<svg xmlns="http://www.w3.org/2000/svg" xmlns:xlink="http://www.w3.org/1999/xlink" width="40" zoomAndPan="magnify" viewBox="0 0 30 30.000001" height="40" preserveAspectRatio="xMidYMid meet" version="1.0"><defs><g/><clipPath id="031db2646d"><path d="M 0.484375 12.101562 L 7.015625 12.101562 L 7.015625 20.085938 L 0.484375 20.085938 Z M 0.484375 12.101562 " clip-rule="nonzero"/></clipPath><clipPath id="706ddebca8"><path d="M 0.652344 2 L 1.347656 2 L 1.347656 3 L 0.652344 3 Z M 0.652344 2 " clip-rule="nonzero"/></clipPath><clipPath id="a9895e6689"><rect x="0" width="2" y="0" height="4"/></clipPath><clipPath id="0706aecd71"><path d="M 10.550781 8.699219 L 19.257812 8.699219 L 19.257812 20.3125 L 10.550781 20.3125 Z M 10.550781 8.699219 " clip-rule="nonzero"/></clipPath><clipPath id="33371f82f7"><path d="M 23.21875 12.101562 L 29.515625 12.101562 L 29.515625 20.085938 L 23.21875 20.085938 Z M 23.21875 12.101562 " clip-rule="nonzero"/></clipPath></defs><g clip-path="url(#031db2646d)"><path fill="#000000" d="M 3.851562 18.152344 C 4.851562 18.203125 5.648438 18.980469 5.648438 19.929688 C 5.648438 20.011719 5.578125 20.078125 5.492188 20.078125 L 2 20.078125 C 1.914062 20.078125 1.84375 20.011719 1.84375 19.929688 C 1.84375 19.015625 2.582031 18.261719 3.53125 18.164062 L 3.605469 14.871094 C 3.332031 14.8125 3.132812 14.585938 3.132812 14.3125 C 3.132812 13.996094 3.40625 13.738281 3.746094 13.738281 C 4.085938 13.738281 4.363281 13.996094 4.363281 14.3125 C 4.363281 14.574219 4.175781 14.792969 3.921875 14.863281 Z M 4.050781 14.3125 C 4.050781 14.15625 3.914062 14.027344 3.746094 14.027344 C 3.578125 14.027344 3.441406 14.15625 3.441406 14.3125 C 3.441406 14.46875 3.578125 14.597656 3.746094 14.597656 C 3.914062 14.597656 4.050781 14.46875 4.050781 14.3125 Z M 5.332031 19.785156 C 5.25 19.03125 4.570312 18.441406 3.746094 18.441406 C 2.921875 18.441406 2.242188 19.03125 2.164062 19.785156 Z M 5.835938 12.355469 C 5.773438 12.300781 5.773438 12.207031 5.835938 12.152344 C 5.894531 12.09375 5.992188 12.09375 6.054688 12.152344 C 6.644531 12.703125 7.011719 13.46875 7.011719 14.3125 C 7.011719 15.15625 6.644531 15.921875 6.050781 16.476562 C 5.992188 16.53125 5.890625 16.53125 5.832031 16.476562 C 5.769531 16.417969 5.769531 16.324219 5.832031 16.269531 C 6.367188 15.769531 6.699219 15.078125 6.699219 14.3125 C 6.699219 13.550781 6.371094 12.859375 5.835938 12.359375 Z M 5.167969 12.980469 C 5.109375 12.925781 5.109375 12.832031 5.167969 12.777344 C 5.230469 12.71875 5.328125 12.71875 5.390625 12.777344 C 5.808594 13.167969 6.070312 13.710938 6.070312 14.3125 C 6.070312 14.914062 5.808594 15.457031 5.386719 15.851562 C 5.324219 15.90625 5.226562 15.90625 5.167969 15.851562 C 5.105469 15.792969 5.105469 15.699219 5.167969 15.644531 C 5.53125 15.304688 5.757812 14.832031 5.757812 14.3125 C 5.757812 13.792969 5.53125 13.324219 5.167969 12.980469 Z M 4.503906 13.605469 C 4.441406 13.550781 4.441406 13.457031 4.503906 13.398438 C 4.5625 13.34375 4.660156 13.34375 4.722656 13.398438 C 4.972656 13.632812 5.125 13.957031 5.125 14.3125 C 5.125 14.667969 4.96875 14.992188 4.71875 15.226562 C 4.660156 15.285156 4.558594 15.285156 4.5 15.226562 C 4.4375 15.167969 4.4375 15.078125 4.5 15.019531 C 4.695312 14.839844 4.816406 14.589844 4.816406 14.3125 C 4.816406 14.035156 4.695312 13.785156 4.503906 13.605469 Z M 1.4375 12.152344 C 1.5 12.09375 1.597656 12.09375 1.660156 12.152344 C 1.71875 12.207031 1.71875 12.300781 1.660156 12.355469 C 1.125 12.859375 0.792969 13.550781 0.792969 14.3125 C 0.792969 15.078125 1.125 15.769531 1.660156 16.269531 C 1.722656 16.324219 1.722656 16.417969 1.660156 16.476562 C 1.601562 16.53125 1.503906 16.53125 1.441406 16.476562 C 0.847656 15.921875 0.480469 15.15625 0.480469 14.3125 C 0.480469 13.46875 0.847656 12.703125 1.4375 12.152344 Z M 2.105469 12.777344 C 2.164062 12.71875 2.261719 12.71875 2.324219 12.777344 C 2.386719 12.832031 2.386719 12.925781 2.324219 12.980469 C 1.960938 13.324219 1.734375 13.792969 1.734375 14.3125 C 1.734375 14.832031 1.960938 15.304688 2.324219 15.644531 C 2.386719 15.699219 2.386719 15.792969 2.328125 15.851562 C 2.265625 15.90625 2.167969 15.90625 2.105469 15.851562 C 1.683594 15.457031 1.425781 14.914062 1.425781 14.3125 C 1.425781 13.710938 1.683594 13.167969 2.105469 12.777344 Z M 2.769531 13.398438 C 2.832031 13.34375 2.929688 13.34375 2.992188 13.398438 C 3.050781 13.457031 3.050781 13.550781 2.992188 13.605469 C 2.796875 13.785156 2.679688 14.035156 2.679688 14.3125 C 2.679688 14.589844 2.796875 14.839844 2.992188 15.019531 C 3.054688 15.078125 3.054688 15.167969 2.992188 15.226562 C 2.933594 15.285156 2.835938 15.285156 2.773438 15.226562 C 2.523438 14.992188 2.367188 14.667969 2.367188 14.3125 C 2.367188 13.957031 2.519531 13.632812 2.769531 13.398438 Z M 2.769531 13.398438 " fill-opacity="1" fill-rule="evenodd"/></g><g transform="matrix(1, 0, 0, 1, 14, 16)"><g clip-path="url(#a9895e6689)"><g clip-path="url(#706ddebca8)"><g fill="#ffffff" fill-opacity="1"><g transform="translate(0.742961, 2.958582)"><g><path d="M 0.25 0.015625 C 0.21875 0.015625 0.191406 0.00390625 0.171875 -0.015625 C 0.148438 -0.0351562 0.140625 -0.0625 0.140625 -0.09375 C 0.140625 -0.132812 0.148438 -0.164062 0.171875 -0.1875 C 0.191406 -0.207031 0.21875 -0.21875 0.25 -0.21875 C 0.289062 -0.21875 0.320312 -0.207031 0.34375 -0.1875 C 0.363281 -0.164062 0.375 -0.140625 0.375 -0.109375 C 0.375 -0.0664062 0.363281 -0.0351562 0.34375 -0.015625 C 0.320312 0.00390625 0.289062 0.015625 0.25 0.015625 Z M 0.25 0.015625 "/></g></g></g></g></g></g><g clip-path="url(#0706aecd71)"><path fill="#000000" d="M 15.039062 17.496094 C 16.375 17.570312 17.4375 18.695312 17.4375 20.074219 C 17.4375 20.191406 17.34375 20.289062 17.226562 20.289062 L 12.570312 20.289062 C 12.457031 20.289062 12.363281 20.191406 12.363281 20.074219 C 12.363281 18.75 13.347656 17.652344 14.613281 17.507812 L 14.710938 12.730469 C 14.347656 12.644531 14.078125 12.3125 14.078125 11.917969 C 14.078125 11.457031 14.445312 11.082031 14.898438 11.082031 C 15.351562 11.082031 15.71875 11.457031 15.71875 11.917969 C 15.71875 12.296875 15.472656 12.617188 15.136719 12.71875 Z M 15.304688 11.917969 C 15.304688 11.691406 15.125 11.503906 14.898438 11.503906 C 14.675781 11.503906 14.492188 11.691406 14.492188 11.917969 C 14.492188 12.148438 14.675781 12.332031 14.898438 12.332031 C 15.125 12.332031 15.304688 12.148438 15.304688 11.917969 Z M 17.011719 19.863281 C 16.90625 18.769531 16 17.914062 14.898438 17.914062 C 13.796875 17.914062 12.894531 18.769531 12.789062 19.863281 Z M 17.683594 9.078125 C 17.601562 8.996094 17.601562 8.863281 17.683594 8.78125 C 17.765625 8.699219 17.894531 8.699219 17.976562 8.78125 C 18.765625 9.585938 19.253906 10.695312 19.253906 11.917969 C 19.253906 13.144531 18.765625 14.257812 17.972656 15.058594 C 17.890625 15.140625 17.761719 15.140625 17.679688 15.058594 C 17.597656 14.976562 17.597656 14.84375 17.679688 14.761719 C 18.394531 14.03125 18.839844 13.027344 18.839844 11.917969 C 18.839844 10.808594 18.398438 9.808594 17.683594 9.082031 Z M 16.796875 9.988281 C 16.714844 9.90625 16.714844 9.769531 16.796875 9.6875 C 16.875 9.605469 17.007812 9.605469 17.089844 9.6875 C 17.648438 10.257812 17.996094 11.046875 17.996094 11.917969 C 17.996094 12.789062 17.648438 13.578125 17.085938 14.152344 C 17.003906 14.234375 16.875 14.234375 16.792969 14.152344 C 16.710938 14.066406 16.710938 13.933594 16.792969 13.851562 C 17.28125 13.355469 17.582031 12.671875 17.582031 11.917969 C 17.582031 11.164062 17.28125 10.480469 16.796875 9.988281 Z M 15.90625 10.894531 C 15.828125 10.808594 15.828125 10.675781 15.90625 10.59375 C 15.988281 10.511719 16.121094 10.511719 16.199219 10.59375 C 16.535156 10.933594 16.738281 11.402344 16.738281 11.917969 C 16.738281 12.4375 16.53125 12.90625 16.195312 13.246094 C 16.117188 13.328125 15.984375 13.328125 15.902344 13.246094 C 15.824219 13.164062 15.824219 13.027344 15.90625 12.945312 C 16.164062 12.683594 16.324219 12.320312 16.324219 11.917969 C 16.324219 11.519531 16.164062 11.15625 15.90625 10.894531 Z M 11.824219 8.78125 C 11.902344 8.699219 12.035156 8.699219 12.117188 8.78125 C 12.195312 8.863281 12.195312 8.996094 12.117188 9.078125 C 11.402344 9.804688 10.960938 10.808594 10.960938 11.917969 C 10.960938 13.027344 11.402344 14.03125 12.117188 14.757812 C 12.199219 14.84375 12.199219 14.976562 12.121094 15.058594 C 12.039062 15.140625 11.90625 15.140625 11.824219 15.058594 C 11.035156 14.253906 10.546875 13.144531 10.546875 11.917969 C 10.546875 10.695312 11.035156 9.582031 11.824219 8.78125 Z M 12.710938 9.6875 C 12.789062 9.605469 12.921875 9.605469 13.003906 9.6875 C 13.085938 9.769531 13.085938 9.90625 13.003906 9.988281 C 12.519531 10.480469 12.21875 11.164062 12.21875 11.917969 C 12.21875 12.671875 12.519531 13.355469 13.003906 13.851562 C 13.085938 13.933594 13.085938 14.066406 13.007812 14.152344 C 12.925781 14.234375 12.792969 14.234375 12.710938 14.152344 C 12.152344 13.578125 11.804688 12.789062 11.804688 11.917969 C 11.804688 11.046875 12.148438 10.257812 12.710938 9.6875 Z M 13.597656 10.59375 C 13.679688 10.511719 13.8125 10.511719 13.890625 10.59375 C 13.972656 10.675781 13.972656 10.808594 13.890625 10.894531 C 13.632812 11.15625 13.476562 11.519531 13.476562 11.917969 C 13.476562 12.320312 13.636719 12.683594 13.894531 12.945312 C 13.976562 13.027344 13.976562 13.164062 13.894531 13.246094 C 13.816406 13.328125 13.683594 13.328125 13.601562 13.246094 C 13.265625 12.90625 13.058594 12.4375 13.058594 11.917969 C 13.058594 11.402344 13.265625 10.933594 13.597656 10.59375 Z M 13.597656 10.59375 " fill-opacity="1" fill-rule="evenodd"/></g><g clip-path="url(#33371f82f7)"><path fill="#000000" d="M 26.585938 18.152344 C 27.585938 18.203125 28.382812 18.980469 28.382812 19.929688 C 28.382812 20.011719 28.3125 20.078125 28.226562 20.078125 L 24.734375 20.078125 C 24.648438 20.078125 24.578125 20.011719 24.578125 19.929688 C 24.578125 19.015625 25.316406 18.261719 26.265625 18.164062 L 26.339844 14.871094 C 26.066406 14.8125 25.867188 14.585938 25.867188 14.3125 C 25.867188 13.996094 26.140625 13.738281 26.480469 13.738281 C 26.820312 13.738281 27.097656 13.996094 27.097656 14.3125 C 27.097656 14.574219 26.910156 14.792969 26.65625 14.863281 Z M 26.785156 14.3125 C 26.785156 14.15625 26.648438 14.027344 26.480469 14.027344 C 26.3125 14.027344 26.175781 14.15625 26.175781 14.3125 C 26.175781 14.46875 26.3125 14.597656 26.480469 14.597656 C 26.648438 14.597656 26.785156 14.46875 26.785156 14.3125 Z M 28.066406 19.785156 C 27.984375 19.03125 27.308594 18.441406 26.480469 18.441406 C 25.65625 18.441406 24.976562 19.03125 24.898438 19.785156 Z M 28.570312 12.355469 C 28.507812 12.300781 28.507812 12.207031 28.570312 12.152344 C 28.628906 12.09375 28.726562 12.09375 28.789062 12.152344 C 29.378906 12.703125 29.746094 13.46875 29.746094 14.3125 C 29.746094 15.15625 29.378906 15.921875 28.785156 16.476562 C 28.726562 16.53125 28.628906 16.53125 28.566406 16.476562 C 28.503906 16.417969 28.503906 16.324219 28.566406 16.269531 C 29.101562 15.769531 29.433594 15.078125 29.433594 14.3125 C 29.433594 13.550781 29.105469 12.859375 28.570312 12.359375 Z M 27.902344 12.980469 C 27.84375 12.925781 27.84375 12.832031 27.902344 12.777344 C 27.964844 12.71875 28.0625 12.71875 28.125 12.777344 C 28.542969 13.167969 28.804688 13.710938 28.804688 14.3125 C 28.804688 14.914062 28.542969 15.457031 28.121094 15.851562 C 28.0625 15.90625 27.960938 15.90625 27.902344 15.851562 C 27.839844 15.792969 27.839844 15.699219 27.902344 15.644531 C 28.265625 15.304688 28.492188 14.832031 28.492188 14.3125 C 28.492188 13.792969 28.265625 13.324219 27.902344 12.980469 Z M 27.238281 13.605469 C 27.175781 13.550781 27.175781 13.457031 27.238281 13.398438 C 27.296875 13.34375 27.394531 13.34375 27.457031 13.398438 C 27.707031 13.632812 27.859375 13.957031 27.859375 14.3125 C 27.859375 14.667969 27.707031 14.992188 27.453125 15.226562 C 27.394531 15.285156 27.292969 15.285156 27.234375 15.226562 C 27.171875 15.167969 27.171875 15.078125 27.234375 15.019531 C 27.429688 14.839844 27.550781 14.589844 27.550781 14.3125 C 27.550781 14.035156 27.429688 13.785156 27.238281 13.605469 Z M 24.171875 12.152344 C 24.234375 12.09375 24.332031 12.09375 24.394531 12.152344 C 24.453125 12.207031 24.453125 12.300781 24.394531 12.355469 C 23.859375 12.859375 23.527344 13.550781 23.527344 14.3125 C 23.527344 15.078125 23.859375 15.769531 24.394531 16.269531 C 24.457031 16.324219 24.457031 16.417969 24.394531 16.476562 C 24.335938 16.53125 24.238281 16.53125 24.175781 16.476562 C 23.582031 15.921875 23.214844 15.15625 23.214844 14.3125 C 23.214844 13.46875 23.582031 12.703125 24.171875 12.152344 Z M 24.839844 12.777344 C 24.898438 12.71875 25 12.71875 25.058594 12.777344 C 25.121094 12.832031 25.121094 12.925781 25.058594 12.980469 C 24.695312 13.324219 24.46875 13.792969 24.46875 14.3125 C 24.46875 14.832031 24.695312 15.304688 25.0625 15.644531 C 25.121094 15.699219 25.121094 15.792969 25.0625 15.851562 C 25 15.90625 24.902344 15.90625 24.839844 15.851562 C 24.417969 15.457031 24.160156 14.914062 24.160156 14.3125 C 24.160156 13.710938 24.417969 13.167969 24.839844 12.777344 Z M 25.503906 13.398438 C 25.566406 13.34375 25.664062 13.34375 25.726562 13.398438 C 25.785156 13.457031 25.785156 13.550781 25.726562 13.605469 C 25.53125 13.785156 25.414062 14.035156 25.414062 14.3125 C 25.414062 14.589844 25.535156 14.839844 25.726562 15.019531 C 25.789062 15.078125 25.789062 15.167969 25.726562 15.226562 C 25.667969 15.285156 25.570312 15.285156 25.507812 15.226562 C 25.257812 14.992188 25.101562 14.667969 25.101562 14.3125 C 25.101562 13.957031 25.257812 13.632812 25.503906 13.398438 Z M 25.503906 13.398438 " fill-opacity="1" fill-rule="evenodd"/></g></svg>