<?xml version="1.0" encoding="UTF-8"?>
<svg version="1.1" xmlns="http://www.w3.org/2000/svg" width="512" height="512">
<path d="M0 0 C0.86905975 -0.00525696 1.73811951 -0.01051392 2.6335144 -0.01593018 C5.49414263 -0.02908837 8.35421027 -0.02040691 11.21484375 -0.01025391 C13.20971788 -0.01227584 15.20459129 -0.01518828 17.19946289 -0.01895142 C21.37556003 -0.02336911 25.55146437 -0.01696151 29.72753906 -0.00292969 C35.07411548 0.01416178 40.42024007 0.00431763 45.76679993 -0.01364708 C49.88467804 -0.02449985 54.00244945 -0.0210317 58.12033081 -0.0132637 C60.09146173 -0.01126583 62.06260241 -0.01370644 64.03372192 -0.02070236 C66.79097062 -0.02834136 69.54749276 -0.01667832 72.3046875 0 C73.11525604 -0.00607269 73.92582458 -0.01214539 74.76095581 -0.0184021 C79.61280934 0.03582803 82.94927222 0.7051729 87.15234375 3.38818359 C90.79485549 8.41286436 90.5144242 13.31849553 90.33984375 19.26318359 C90.32630859 20.14232422 90.31277344 21.02146484 90.29882812 21.92724609 C90.26370998 24.08115911 90.20991069 26.23475363 90.15234375 28.38818359 C91.41046875 28.57380859 92.66859375 28.75943359 93.96484375 28.95068359 C108.47947255 31.88645717 122.19200896 38.40719909 135.15234375 45.38818359 C135.75916992 45.70899902 136.36599609 46.02981445 136.99121094 46.36035156 C157.49587082 57.25448953 178.59948646 74.56037492 191.15234375 94.38818359 C191.15234375 95.04818359 191.15234375 95.70818359 191.15234375 96.38818359 C192.32812988 96.37770996 193.50391602 96.36723633 194.71533203 96.35644531 C286.1402803 95.61590358 286.1402803 95.61590358 308.015625 116.04052734 C326.58677228 136.44502371 324.68977425 170.28580581 324.59838867 195.98608398 C324.58667197 199.44468866 324.60754477 202.90230622 324.63630581 206.36078167 C324.65900745 209.70720957 324.65221275 213.05339932 324.6484375 216.39990234 C324.65967148 217.63310715 324.67090546 218.86631195 324.68247986 220.1368866 C324.67309891 221.28031021 324.66371796 222.42373383 324.65405273 223.60180664 C324.65380348 225.10205635 324.65380348 225.10205635 324.65354919 226.63261414 C324.00127694 230.2187314 322.72560169 231.83499575 320.15234375 234.38818359 C316.47216976 236.401239 313.43158294 236.61361179 309.27978516 236.5324707 C307.54240585 236.50901833 307.54240585 236.50901833 305.76992798 236.48509216 C303.90574722 236.45065758 303.90574722 236.45065758 302.00390625 236.41552734 C299.36325233 236.40172277 296.72269666 236.39067354 294.08203125 236.38232422 C289.92485979 236.36480985 285.76957674 236.33079834 281.61328125 236.2409668 C278.8977482 236.18348673 276.18498092 236.15531027 273.46884155 236.1598053 C270.9164728 236.16354777 268.36361528 236.12554774 265.81265259 236.04075623 C262.27308787 236.07946165 259.5017003 236.23263169 256.15234375 237.38818359 C253.71678724 239.9428731 252.1946179 242.39420273 250.60263062 245.53663635 C245.23284492 256.09468382 233.97264981 262.48655499 223.15234375 266.38818359 C208.1476422 270.94446022 192.78453327 268.50898719 179.10546875 261.23974609 C169.99231154 255.52594118 163.03179944 247.98056065 158.15234375 238.38818359 C158.15234375 237.72818359 158.15234375 237.06818359 158.15234375 236.38818359 C98.75234375 236.38818359 39.35234375 236.38818359 -21.84765625 236.38818359 C-22.83765625 239.35818359 -22.83765625 239.35818359 -23.84765625 242.38818359 C-32.06841287 254.87369893 -44.17935959 264.41332939 -58.91015625 267.82568359 C-73.81010946 270.01685318 -88.27322522 267.96420713 -100.84765625 259.38818359 C-107.47162176 254.22324132 -115.63974106 247.42955973 -118.61035156 239.30126953 C-119.69286018 237.14656917 -119.69286018 237.14656917 -122.14746094 236.82983398 C-123.09524414 236.79881592 -124.04302734 236.76779785 -125.01953125 236.73583984 C-126.59468506 236.65934204 -126.59468506 236.65934204 -128.20166016 236.58129883 C-129.32233887 236.5381958 -130.44301758 236.49509277 -131.59765625 236.45068359 C-152.72726257 235.1620016 -170.93519404 226.41041731 -185.94050598 211.27754211 C-188.37741799 207.58558738 -188.4320258 204.51649015 -188.4128418 200.23657227 C-188.42466995 199.42939255 -188.43649811 198.62221283 -188.44868469 197.79057312 C-188.48151423 195.12882109 -188.48452872 192.46809336 -188.484375 189.80615234 C-188.49469403 187.94915858 -188.50575764 186.09216882 -188.51753235 184.23518372 C-188.53695721 180.3439383 -188.54038903 176.45305222 -188.53393555 172.56176758 C-188.52794496 167.58805822 -188.57213918 162.61621883 -188.62982464 157.64289379 C-188.66689585 153.80709811 -188.67172109 149.97174988 -188.66755104 146.1357975 C-188.67041493 144.30303096 -188.68442597 142.47024521 -188.71002769 140.63765526 C-188.91141339 124.52750287 -188.91141339 124.52750287 -184.57617188 119.49243164 C-183.36545838 118.42027182 -182.1250988 117.37989645 -180.84765625 116.38818359 C-180.06108643 115.55367676 -179.2745166 114.71916992 -178.46411133 113.859375 C-176.20130281 111.57206524 -173.93431305 109.28921521 -171.66015625 107.01318359 C-170.86673828 106.20751953 -170.07332031 105.40185547 -169.25585938 104.57177734 C-168.48822266 103.80220703 -167.72058594 103.03263672 -166.9296875 102.23974609 C-166.24108643 101.54703613 -165.55248535 100.85432617 -164.84301758 100.140625 C-160.18628666 96.05081532 -156.40438979 96.2372283 -150.3828125 96.53662109 C-131.62297645 98.19183904 -131.62297645 98.19183904 -114.80078125 92.18896484 C-111.96853918 88.93901512 -109.93501946 85.30135657 -108.00195312 81.46240234 C-106.15604792 78.14539502 -103.64129325 75.67639256 -100.91015625 73.07568359 C-100.4205542 72.59663574 -99.93095215 72.11758789 -99.42651367 71.62402344 C-89.62094519 62.19948787 -78.51785946 54.32321314 -66.84765625 47.38818359 C-65.98865723 46.87626465 -65.98865723 46.87626465 -65.11230469 46.35400391 C-52.11456318 38.73614643 -33.14539002 28.38818359 -17.84765625 28.38818359 C-17.88246094 27.08623047 -17.91726562 25.78427734 -17.953125 24.44287109 C-17.98127526 22.71632156 -18.00857409 20.98975799 -18.03515625 19.26318359 C-18.06029297 18.40724609 -18.08542969 17.55130859 -18.11132812 16.66943359 C-18.17068507 11.52516512 -17.97599311 7.70358328 -14.84765625 3.38818359 C-9.83688665 0.18958268 -5.74414037 -0.04303449 0 0 Z " fill="#FECD54" transform="translate(187.84765625,121.61181640625)"/>
<path d="M0 0 C0.80550293 0.31453125 1.61100586 0.6290625 2.44091797 0.953125 C23.74173211 9.3713638 51.14174986 22.36384445 63 43 C42.43756981 43.17563699 21.87506844 43.34144962 1.3125 43.5 C0.54241513 43.50594854 -0.22766973 43.51189708 -1.02109051 43.51802588 C-48.05614038 43.88073324 -95.08850396 44.09416641 -142.125 44.0625 C-143.4059341 44.06164398 -144.68686821 44.06078796 -146.0066185 44.05990601 C-161.33776125 44.04886804 -176.66888158 44.02936537 -192 44 C-181.75346046 22.32386223 -149.07607455 7.56728614 -127.625 -0.1875 C-88.16234606 -13.83600308 -39.29544844 -15.66060363 0 0 Z " fill="#50C2E7" transform="translate(288,175)"/>
<path d="M0 0 C0.74137207 0.00563965 1.48274414 0.0112793 2.24658203 0.01708984 C17.44167137 0.34734679 29.57422917 5.43181458 40.58984375 15.90625 C51.85269476 27.76593585 55.5942451 39.82564597 55.40087891 55.84667969 C54.83030339 72.13888762 48.64638235 84.10775251 36.875 95.3125 C24.58753576 104.85527918 11.24305266 108.23766705 -4.125 107.3125 C-20.06463347 105.11777801 -31.76368955 97.11217563 -42 84.9375 C-50.53293896 73.43309053 -52.4692666 58.23502647 -51.125 44.3125 C-50.23612143 40.06510184 -48.90679073 36.2629176 -47.125 32.3125 C-46.774375 31.52617187 -46.42375 30.73984375 -46.0625 29.9296875 C-39.86743868 17.58258611 -28.22158339 6.84593271 -15.125 2.3125 C-10.01970318 0.63361877 -5.34835692 -0.0430031 0 0 Z " fill="#434A54" transform="translate(115.125,282.6875)"/>
<path d="M0 0 C1.55329521 1.38099691 3.07476443 2.79861399 4.5625 4.25 C5.35269531 5.00152344 6.14289063 5.75304687 6.95703125 6.52734375 C17.06346427 16.86842033 22.02009985 29.97798969 21.99633789 44.33813477 C21.62694277 58.6709721 16.62170849 70.26194828 7.1875 80.9375 C-5.56815738 92.17462674 -17.96705232 97.83843507 -35.14453125 97.49609375 C-50.39974821 96.35602416 -63.16518093 89.42965324 -73.4375 78.25 C-84.56952592 64.30393035 -86.19514049 48.52325223 -84.4375 31.25 C-82.06930986 17.94912255 -72.12844983 6.00056165 -61.4375 -1.75 C-42.08974257 -12.8398585 -18.22863655 -13.84026108 0 0 Z " fill="#434A54" transform="translate(426.4375,292.75)"/>
<path d="M0 0 C0.86905975 -0.00525696 1.73811951 -0.01051392 2.6335144 -0.01593018 C5.49414263 -0.02908837 8.35421027 -0.02040691 11.21484375 -0.01025391 C13.20971788 -0.01227584 15.20459129 -0.01518828 17.19946289 -0.01895142 C21.37556003 -0.02336911 25.55146437 -0.01696151 29.72753906 -0.00292969 C35.07411548 0.01416178 40.42024007 0.00431763 45.76679993 -0.01364708 C49.88467804 -0.02449985 54.00244945 -0.0210317 58.12033081 -0.0132637 C60.09146173 -0.01126583 62.06260241 -0.01370644 64.03372192 -0.02070236 C66.79097062 -0.02834136 69.54749276 -0.01667832 72.3046875 0 C73.52054031 -0.00910904 73.52054031 -0.00910904 74.76095581 -0.0184021 C79.61280934 0.03582803 82.94927222 0.7051729 87.15234375 3.38818359 C90.79485549 8.41286436 90.5144242 13.31849553 90.33984375 19.26318359 C90.31954102 20.58189453 90.31954102 20.58189453 90.29882812 21.92724609 C90.26370998 24.08115911 90.20991069 26.23475363 90.15234375 28.38818359 C83.79347497 27.64008138 77.51479521 26.62989359 71.21484375 25.49365234 C46.71028814 21.25247926 14.26080208 20.14691632 -9.8203125 27.48974609 C-12.68547111 28.34005123 -14.88397985 28.56780035 -17.84765625 28.38818359 C-17.92898267 25.34597294 -17.98830999 22.30595979 -18.03515625 19.26318359 C-18.06029297 18.40724609 -18.08542969 17.55130859 -18.11132812 16.66943359 C-18.17068507 11.52516512 -17.97599311 7.70358328 -14.84765625 3.38818359 C-9.83688665 0.18958268 -5.74414037 -0.04303449 0 0 Z " fill="#444A54" transform="translate(187.84765625,121.61181640625)"/>
<path d="M0 0 C0 17.49 0 34.98 0 53 C-6.93 53 -13.86 53 -21 53 C-21 36.17 -21 19.34 -21 2 C-13 0 -13 0 0 0 Z " fill="#3CAFD9" transform="translate(213,166)"/>
<path d="M0 0 C0.79198288 0.0028299 1.58396576 0.00565979 2.39994812 0.00857544 C4.91652874 0.01972387 7.43274664 0.04481828 9.94921875 0.0703125 C11.66080213 0.08034921 13.37239112 0.08947386 15.08398438 0.09765625 C19.26836781 0.11964569 23.45248189 0.15413842 27.63671875 0.1953125 C30.52960723 7.45561999 32.4997101 14.46066154 33.63671875 22.1953125 C27.48038019 22.31917099 21.32477128 22.40977507 15.16748047 22.4699707 C13.07425295 22.4950713 10.9811127 22.52915927 8.88818359 22.57250977 C5.87445516 22.63335701 2.86188816 22.661567 -0.15234375 22.68359375 C-1.08382233 22.70940018 -2.0153009 22.7352066 -2.9750061 22.76179504 C-7.40540074 22.76369537 -10.41391279 22.63976045 -13.93896484 19.78979492 C-17.28196371 16.21214649 -17.71608614 14.15881212 -17.64453125 9.23046875 C-17.19337426 5.96584661 -15.74450261 4.38346186 -13.36328125 2.1953125 C-9.00503783 -0.10641772 -4.81242075 -0.06522232 0 0 Z " fill="#F5F5F3" transform="translate(476.36328125,249.8046875)"/>
<path d="M0 0 C1.26328125 0.01804688 2.5265625 0.03609375 3.828125 0.0546875 C4.79234375 0.07789063 5.7565625 0.10109375 6.75 0.125 C6.83756305 3.83318297 6.89058015 7.54109763 6.9375 11.25 C6.96263672 12.29671875 6.98777344 13.3434375 7.01367188 14.421875 C7.06729547 20.07022714 7.04089079 24.28826704 3.75 29.125 C-0.72201472 33.17776334 -4.97541338 33.26493662 -10.76171875 33.22265625 C-11.48994339 33.2212413 -12.21816803 33.21982635 -12.96846008 33.21836853 C-15.29151539 33.21277659 -17.61447388 33.20022562 -19.9375 33.1875 C-21.51367048 33.18248396 -23.08984248 33.17792123 -24.66601562 33.17382812 C-28.52738098 33.1628098 -32.38867408 33.14555074 -36.25 33.125 C-35.92014323 27.20372504 -34.22665804 24.24174498 -30.04296875 20.26171875 C-29.52116531 19.74366165 -28.99936188 19.22560455 -28.46174622 18.69184875 C-27.3615997 17.60508599 -26.25431022 16.52551175 -25.14038086 15.45288086 C-23.43909215 13.81403371 -21.76020832 12.15467295 -20.08398438 10.49023438 C-19.00904861 9.43363679 -17.93291601 8.37825516 -16.85546875 7.32421875 C-16.35428024 6.83153 -15.85309174 6.33884125 -15.3367157 5.83122253 C-10.14349676 0.84721702 -7.18596859 -0.13307349 0 0 Z " fill="#FC7251" transform="translate(36.25,217.875)"/>
<path d="M0 0 C3 2.4375 3 2.4375 5 5 C5.33 5.33 5.66 5.66 6 6 C6.40965323 10.178463 6.23455138 12.53958434 4.3125 16.3125 C1.8538694 19.16982745 0.65454168 20.21688392 -3 21 C-7.88561843 20.79643257 -10.46862842 19.32957892 -14 16 C-15.60086627 12.79826746 -15.49917089 9.47422941 -15 6 C-11.10575284 -0.10098722 -6.9646399 -1.11867273 0 0 Z " fill="#EFF2F5" transform="translate(122,326)"/>
<path d="M0 0 C3.56458044 0.06243692 4.63871191 0.30312645 7.75 2.3125 C10.34465395 6.28556387 11.20574586 9.63696286 10.75 14.375 C8.73549754 17.75648627 7.02152454 19.19398364 3.75 21.375 C0.45701945 21.80992196 -2.05334957 22.06793789 -5.00390625 20.359375 C-7.70601856 18.19768515 -9.1466607 16.68501789 -10.25 13.375 C-10.625 10 -10.625 10 -10.25 6.375 C-7.8125 3.5 -7.8125 3.5 -5.25 1.375 C-3.69049449 -0.18450551 -2.16122869 0.09303302 0 0 Z " fill="#484D54" transform="translate(277.25,282.625)"/>
<path d="M0 0 C2.875 2.5 2.875 2.5 5 5 C5.33 5.33 5.66 5.66 6 6 C6.38387346 10.99035504 6.08713243 13.99816167 3 18 C-0.99808546 20.66539031 -4.29751653 20.84149704 -9 20 C-12 17.5625 -12 17.5625 -14 15 C-14.33 14.67 -14.66 14.34 -15 14 C-15.58638743 6.96335079 -15.58638743 6.96335079 -13.25 3.125 C-8.7761967 -1.10025867 -6.10309491 -1.60607761 0 0 Z " fill="#484D54" transform="translate(346,262)"/>
<path d="M0 0 C2.875 2.5 2.875 2.5 5 5 C5.33 5.33 5.66 5.66 6 6 C6.38387346 10.99035504 6.08713243 13.99816167 3 18 C-0.99808546 20.66539031 -4.29751653 20.84149704 -9 20 C-12 17.5625 -12 17.5625 -14 15 C-14.33 14.67 -14.66 14.34 -15 14 C-15.58638743 6.96335079 -15.58638743 6.96335079 -13.25 3.125 C-8.7761967 -1.10025867 -6.10309491 -1.60607761 0 0 Z " fill="#484D54" transform="translate(218,262)"/>
<path d="M0 0 C3.35782255 0.90902378 5.03084552 2.8960882 7.12109375 5.57421875 C7.45109375 5.90421875 7.78109375 6.23421875 8.12109375 6.57421875 C8.58187136 11.10519861 8.83455722 14.26189268 6.05859375 18.01171875 C2.53470169 21.08575225 0.77133513 21.65580193 -3.87890625 21.57421875 C-7.96540594 20.08107463 -10.90095256 18.53012613 -12.87890625 14.57421875 C-13.47031933 11.09145282 -13.48182208 8.7480776 -11.84765625 5.56640625 C-8.52656782 1.00913491 -5.63814331 -0.42785236 0 0 Z " fill="#484D54" transform="translate(236.87890625,282.42578125)"/>
<path d="M0 0 C3.39890142 2.06889652 5.88937011 4.11279537 7 8 C6.92253683 12.26047438 6.42183291 14.42928489 3.875 17.875 C0.37862445 20.45927758 -1.66360584 21 -6 21 C-10.01519063 19.48483372 -11.60368353 18.5944747 -14 15 C-14.73965025 10.40728797 -14.60961194 6.97537911 -12.125 3 C-8.4549301 -0.45418344 -4.88768258 -0.68483844 0 0 Z " fill="#474C54" transform="translate(324,283)"/>
<path d="M0 0 C3.39890142 2.06889652 5.88937011 4.11279537 7 8 C6.92253683 12.26047438 6.42183291 14.42928489 3.875 17.875 C0.37862445 20.45927758 -1.66360584 21 -6 21 C-10.01519063 19.48483372 -11.60368353 18.5944747 -14 15 C-14.73965025 10.40728797 -14.60961194 6.97537911 -12.125 3 C-8.4549301 -0.45418344 -4.88768258 -0.68483844 0 0 Z " fill="#474C54" transform="translate(196,283)"/>
<path d="M0 0 C2.87029869 1.79393668 4.49131638 2.98263276 6 6 C6.5811138 13.08958838 6.5811138 13.08958838 4.125 16.9375 C0.64240255 20.31766811 -2.03637499 20.40798732 -6.73828125 20.33984375 C-9 20 -9 20 -12 17.9375 C-14.40813237 14.40055558 -15 12.27436594 -15 8 C-12.09343948 0.29761462 -7.71725419 -1.13727956 0 0 Z " fill="#F1F3F6" transform="translate(399,326)"/>
<path d="M0 0 C3.05533136 1.27926476 3.81524971 2.25505733 6 5 C6.73461067 8.14914495 6.68593323 10.84470714 6 14 C4.20606332 16.87029869 3.01736724 18.49131638 0 20 C-4.74616694 20.65271451 -7.98277746 20.69934049 -12 17.9375 C-14.40813237 14.40055558 -15 12.27436594 -15 8 C-12.10479173 0.32769808 -7.70707456 -1.23208335 0 0 Z " fill="#464C54" transform="translate(303,262)"/>
<path d="M0 0 C3.05533136 1.27926476 3.81524971 2.25505733 6 5 C6.73461067 8.14914495 6.68593323 10.84470714 6 14 C4.20606332 16.87029869 3.01736724 18.49131638 0 20 C-4.74616694 20.65271451 -7.98277746 20.69934049 -12 17.9375 C-14.40813237 14.40055558 -15 12.27436594 -15 8 C-12.10479173 0.32769808 -7.70707456 -1.23208335 0 0 Z " fill="#464C54" transform="translate(175,262)"/>
<path d="M0 0 C3.125 1.875 3.125 1.875 5 5 C5.98876625 10.02622846 5.7769173 13.70513784 3.125 18.125 C-1.28186979 20.76912187 -4.99127228 21.13312201 -10 20 C-13.41019725 17.34004615 -14.59370586 15.92989716 -15.46875 11.7734375 C-15.74309826 7.67193094 -15.29681659 5.48480043 -13.125 1.9375 C-8.71542397 -0.79643714 -5.05501501 -0.99442918 0 0 Z " fill="#454B54" transform="translate(261,262)"/>
</svg>
