<?xml version="1.0" encoding="UTF-8"?>
<svg version="1.1" xmlns="http://www.w3.org/2000/svg" width="512" height="512">
<path d="M0 0 C3.67981764 0.0154966 7.35904522 -0.00668105 11.03880191 -0.02841622 C19.73553866 -0.07916413 28.43069349 -0.06897903 37.12739086 -0.0185473 C46.03692145 0.03215785 54.94203584 -0.01524161 63.85108399 -0.11221594 C71.55736167 -0.19285444 79.26228022 -0.21398612 86.96893668 -0.18867069 C91.54675195 -0.17403343 96.12191799 -0.179672 100.69938946 -0.24203324 C121.77430647 -0.50019087 137.08854968 0.06983989 153.5814352 14.82660747 C157.16848809 17.90986067 161.11063718 20.43174029 165.06635571 23.011482 C166.54339524 24.00689049 168.01902661 25.00439486 169.49262524 26.0048902 C170.98195971 27.01112117 172.47138205 28.01722209 173.96088696 29.02320075 C174.74477795 29.55263282 175.52866894 30.08206489 176.3363142 30.62754035 C207.26984981 51.6063554 207.26984981 51.6063554 238.77338696 71.71070075 C239.55133617 72.1916822 240.32928539 72.67266364 241.13080883 73.16822028 C254.72731371 81.54611532 268.63080254 89.29465432 282.77338696 96.71070075 C283.82864574 97.26435309 284.88390453 97.81800544 285.97114086 98.38843513 C311.73657112 111.81093427 338.70279338 123.08246746 367.00361156 129.93848395 C371.52120342 131.09688158 374.59158874 132.26869573 377.77338696 135.71070075 C378.51728681 138.77316244 378.44633629 141.77506464 378.40449047 144.91382575 C378.41522343 146.30957831 378.41522343 146.30957831 378.42617321 147.7335279 C378.44308389 150.80975139 378.42364342 153.88452244 378.40229321 156.96070075 C378.40312168 159.09774625 378.40558026 161.23479169 378.40960217 163.37183356 C378.4124618 167.8508698 378.3977424 172.32940644 378.37031078 176.808357 C378.33622812 182.55215052 378.34224486 188.2950505 378.36097336 194.03888679 C378.37153756 198.45182479 378.36261072 202.86455457 378.34758854 207.27747321 C378.34240203 209.39538685 378.34289419 211.51332218 378.34913349 213.63123298 C378.35457856 216.59049022 378.3342328 219.54846463 378.30683422 222.50757575 C378.31662304 223.82308417 378.31662304 223.82308417 378.32660961 225.16516852 C378.2330079 231.10500643 378.2330079 231.10500643 375.868083 234.22153449 C373.76247916 235.71845534 371.96460002 236.65763191 369.52729321 237.49976325 C368.70092358 237.79592536 367.87455395 238.09208747 367.02314281 238.39722419 C366.13634838 238.70692145 365.24955395 239.01661872 364.33588696 239.33570075 C317.73532264 256.42836892 278.38787081 287.7046824 242.39252758 321.20484138 C241.25500923 322.2627746 240.1155081 323.31857795 238.97455883 324.37281013 C230.98878297 331.75248607 223.12382913 339.24594265 215.39838696 346.89820075 C214.66660229 347.61701423 213.93481762 348.3358277 213.18085766 349.07642341 C212.50240795 349.75366462 211.82395824 350.43090583 211.12494946 351.1286695 C210.52505199 351.72445807 209.92515453 352.32024665 209.30707836 352.93408942 C207.6895306 354.65870927 207.6895306 354.65870927 206.72236156 356.83008552 C205.51745962 359.21788065 203.84932929 360.00223778 201.62836742 361.38452888 C197.43189213 364.38469389 193.94594445 368.29701457 190.33588696 371.96070075 C189.51539867 372.78183356 188.69491039 373.60296638 187.84955883 374.448982 C183.68972398 378.63869596 179.68346715 382.90194483 175.82245922 387.36646247 C171.40789354 392.41694021 166.89651321 397.36387258 162.27118969 402.22217536 C161.0672021 403.50312723 159.87974641 404.79982676 158.70966625 406.1118238 C156.98412934 408.0408769 155.20617659 409.9060128 153.41010571 411.7692945 C152.9125024 412.3515026 152.4148991 412.9337107 151.90221691 413.53356147 C149.89705154 415.53146413 148.41646264 416.63744687 145.77338696 417.71070075 C143.8303786 417.63379629 141.88686438 417.55021162 139.94792652 417.40284896 C132.88955613 417.00987844 128.15910075 417.95932633 122.55459118 422.46462226 C117.09343064 427.37092791 112.02878902 432.65818959 106.99555326 437.99535847 C104.4365008 440.68803304 101.82504488 443.32886979 99.21813488 445.97508979 C94.29894196 450.98280327 89.42182367 456.02926612 84.56149071 461.09406632 C75.84423541 470.17621857 67.06568233 479.19874395 58.25807112 488.19324034 C55.17227459 491.34801112 52.10849024 494.52227701 49.06135523 497.71439159 C47.62274985 499.21686531 46.17642139 500.71138604 44.72645092 502.20288825 C42.96145496 504.01950616 41.20944087 505.84886442 39.4732008 507.6929853 C33.0607609 514.22782613 33.0607609 514.22782613 28.82152843 514.35631537 C25.77338696 513.71070075 25.77338696 513.71070075 23.77338696 512.08570075 C22.39112219 508.80282192 22.81848039 507.13567738 23.77338696 503.71070075 C25.50580314 501.553807 27.13555411 499.76168087 29.12104321 497.87476325 C29.65233334 497.35054786 30.18362347 496.82633246 30.7310133 496.28623176 C32.42121436 494.62389312 34.12799479 492.97983866 35.83588696 491.33570075 C36.98872097 490.20796002 38.14042718 489.07906516 39.29096508 487.948982 C42.10555496 485.18935296 44.93514104 482.44598541 47.77338696 479.71070075 C30.99597519 479.12244091 14.22198291 478.68385758 -2.56329727 478.41539645 C-10.36046578 478.28733128 -18.15111268 478.11272092 -25.94414234 477.82471442 C-63.01278141 474.55223092 -63.01278141 474.55223092 -95.89653969 487.00892329 C-100.6390779 491.55177344 -104.4556938 496.67843349 -107.7767992 502.32704902 C-109.22661304 504.71070075 -109.22661304 504.71070075 -111.22661304 505.71070075 C-116.48127143 506.15790572 -116.48127143 506.15790572 -119.10161304 504.58570075 C-120.88613554 501.6114966 -120.87507304 500.14753873 -120.22661304 496.71070075 C-118.88817215 494.89504981 -118.88817215 494.89504981 -117.13882923 492.96204352 C-116.5018001 492.25790824 -115.86477097 491.55377295 -115.20843792 490.82830024 C-112.20124213 487.61508179 -109.12682461 484.47956051 -106.00615406 481.37671638 C-105.32238194 480.69279822 -104.63860981 480.00888007 -103.93411732 479.30423713 C-101.70195002 477.07275944 -99.46627547 474.84483216 -97.23051929 472.61695075 C-95.67088761 471.05918663 -94.11147841 469.50119973 -92.55228138 467.94300056 C-88.46927492 463.8637926 -84.38327315 459.78759806 -80.29662037 455.71204352 C-76.11846125 451.54415615 -71.94316942 447.37339851 -67.76762867 443.20288825 C-59.59007908 435.03602889 -51.40935928 426.87235312 -43.22661304 418.71070075 C-43.90946873 418.67372581 -44.59232441 418.63675086 -45.29587269 418.59865546 C-46.19364933 418.5332305 -47.09142597 418.46780555 -48.01640797 418.40039802 C-48.90551365 418.34279807 -49.79461933 418.28519813 -50.71066761 418.22585273 C-55.15527014 417.3157989 -57.04365993 414.20633272 -59.53911304 410.64820075 C-60.64378817 409.18405997 -61.74928099 407.72053583 -62.85551929 406.25757575 C-63.4099773 405.50411872 -63.96443531 404.75066169 -64.53569508 403.97437263 C-66.71543612 401.05630174 -69.0034259 398.23812525 -71.31450367 395.42359138 C-72.41915856 394.07749605 -73.5156058 392.72462157 -74.60356617 391.36499763 C-76.98477701 388.39214522 -79.36998211 385.50459355 -82.04301929 382.78882575 C-87.12325185 377.41443262 -88.93515095 373.81399355 -88.78911304 366.52320075 C-88.64627455 364.24912128 -88.47421162 361.97576923 -88.22661304 359.71070075 C-88.91287769 359.72117438 -89.59914234 359.73164802 -90.30620289 359.74243903 C-93.40463593 359.78391949 -96.50301065 359.81000144 -99.60161304 359.83570075 C-100.68184742 359.85245856 -101.76208179 359.86921638 -102.87505054 359.886482 C-103.90630054 359.89292731 -104.93755054 359.89937263 -106.00005054 359.90601325 C-106.95315113 359.91648688 -107.90625172 359.92696052 -108.88823414 359.93775153 C-111.22661304 359.71070075 -111.22661304 359.71070075 -113.22661304 357.71070075 C-113.51422596 354.6589582 -113.51422596 354.6589582 -113.56474781 350.68164802 C-113.57628391 349.95775382 -113.58782001 349.23385962 -113.5997057 348.48802924 C-113.63410863 346.08436671 -113.65254252 343.68096221 -113.66801929 341.277107 C-113.6749222 340.45419606 -113.6818251 339.63128512 -113.68893719 338.78343749 C-113.72482824 334.42007855 -113.74833062 330.05684963 -113.76201344 325.69336677 C-113.77848426 321.20754379 -113.83677565 316.72331901 -113.90515709 312.2380302 C-113.95019683 308.77275376 -113.96352717 305.30784983 -113.96863079 301.8423059 C-113.97647684 300.19060159 -113.9959757 298.53890628 -114.02785397 296.88749099 C-114.21762717 286.35309357 -113.09211787 279.16806079 -106.22661304 270.71070075 C-105.17237924 269.20198878 -104.12642901 267.68740678 -103.09380054 266.16382575 C-102.09908055 264.76088301 -101.10172374 263.35980575 -100.10161304 261.96070075 C-99.60274586 261.25816169 -99.10387867 260.55562263 -98.58989429 259.8317945 C-94.3092355 253.80757756 -94.3092355 253.80757756 -93.00057518 252.27314204 C-89.15807281 247.51729454 -88.52258593 244.00123267 -88.66139698 237.9883039 C-88.66080253 237.13450501 -88.66020808 236.28070612 -88.65959561 235.40103453 C-88.66339353 232.55253452 -88.70271499 229.70564744 -88.74174976 226.85742927 C-88.7513101 224.81029924 -88.75850803 222.76315702 -88.76352406 220.71601081 C-88.77843411 216.31352763 -88.8082031 211.91148302 -88.84898472 207.50916457 C-88.91154297 200.5459579 -88.92962561 193.58307603 -88.93953419 186.61962104 C-88.97421502 166.82077551 -89.06371387 147.02246882 -89.20903492 127.22412848 C-89.28894121 116.28486635 -89.32941843 105.34616494 -89.32726777 94.40660399 C-89.32822457 87.48579466 -89.37816963 80.56762062 -89.46438766 73.64737499 C-89.50650756 69.33978211 -89.50260168 65.03313806 -89.48573208 60.72541022 C-89.48712114 58.73069875 -89.50734277 56.73589632 -89.54795742 54.74159789 C-89.84003006 39.66149944 -89.84003006 39.66149944 -85.80439186 34.78196883 C-83.02165329 32.72831181 -80.34713227 31.18387302 -77.22661304 29.71070075 C-76.18174732 28.98914802 -75.1368816 28.26759528 -74.06035328 27.52417731 C-73.22705494 26.9721363 -72.3937566 26.42009528 -71.53520679 25.85132575 C-70.56905445 25.20937263 -69.60290211 24.5674195 -68.60747242 23.90601325 C-67.15050953 22.94308356 -67.15050953 22.94308356 -65.66411304 21.96070075 C-63.7252651 20.67431153 -61.78646447 19.387851 -59.84770679 18.10132575 C-58.83951389 17.46364768 -57.83132099 16.82596961 -56.79257679 16.16896796 C-54.29580294 14.52949913 -52.15062763 12.76148412 -49.97681141 10.71666694 C-35.67179708 -1.81870931 -17.89543813 -0.10970808 0 0 Z M-89.22661304 262.71070075 C-90.21957595 263.96031691 -91.16805989 265.24532208 -92.09770679 266.542732 C-92.67198414 267.34130622 -93.24626148 268.13988044 -93.83794117 268.96265388 C-94.74189625 270.23012458 -94.74189625 270.23012458 -95.66411304 271.52320075 C-96.26288258 272.35657966 -96.86165211 273.18995856 -97.47856617 274.04859138 C-102.9926082 281.36783444 -102.9926082 281.36783444 -104.45366383 290.20166755 C-104.45395588 290.85559485 -104.45424793 291.50952216 -104.45454884 292.18326545 C-104.45315675 294.34228564 -104.43760162 296.50095968 -104.42192554 298.6599195 C-104.41819498 300.15778644 -104.41534821 301.65565582 -104.41335011 303.15352607 C-104.40571708 307.09420242 -104.38607149 311.03473113 -104.36394215 314.97534919 C-104.34347657 318.99713877 -104.33434687 323.01895222 -104.32426929 327.04077888 C-104.30282521 334.9308281 -104.26764582 342.82072905 -104.22661304 350.71070075 C-98.94661304 350.71070075 -93.66661304 350.71070075 -88.22661304 350.71070075 C-88.22661304 321.67070075 -88.22661304 292.63070075 -88.22661304 262.71070075 C-88.55661304 262.71070075 -88.88661304 262.71070075 -89.22661304 262.71070075 Z M-28.36728191 423.20738864 C-28.79265082 423.95152813 -28.79265082 423.95152813 -29.22661304 424.71070075 C-11.98930951 424.8742866 5.2477515 424.99769255 22.48565388 425.07338595 C30.4897066 425.10946741 38.49327679 425.15865059 46.49701977 425.23877692 C53.47384079 425.30858928 60.45031234 425.35371798 67.42747295 425.36932021 C71.12140506 425.37843964 74.81433749 425.39983964 78.50794888 425.45081115 C82.63349861 425.50728057 86.75731525 425.50862744 90.88325024 425.50537848 C92.71636509 425.54312888 92.71636509 425.54312888 94.58651257 425.58164191 C100.63666518 425.66219683 100.63666518 425.66219683 105.89972591 423.09890151 C107.39838692 421.36948047 108.63939371 419.69450621 109.77338696 417.71070075 C92.53608342 417.5471149 75.29902241 417.42370895 58.06112003 417.34801555 C50.05706731 417.31193409 42.05349712 417.26275091 34.04975414 417.18262458 C27.07293312 417.11281222 20.09646157 417.06768352 13.11930096 417.05208129 C9.42536885 417.04296186 5.73243642 417.02156186 2.03882504 416.97059035 C-2.0867247 416.91412093 -6.21054134 416.91277406 -10.33647633 416.91602302 C-12.16959118 416.87827262 -12.16959118 416.87827262 -14.03973866 416.83975959 C-20.85151943 416.89790348 -24.39505028 417.41427111 -28.36728191 423.20738864 Z M-60.8809557 454.24456 C-62.30644412 456.38877364 -62.30644412 456.38877364 -62.22661304 457.71070075 C-45.0758399 457.96821943 -27.92567409 458.16190639 -10.77340698 458.28063464 C-2.80833785 458.33724019 5.1555268 458.41434011 13.1198225 458.54053473 C20.06556703 458.65053745 27.01043901 458.72122477 33.95703048 458.74567419 C37.63221948 458.75995719 41.30491353 458.79325699 44.97929859 458.87373137 C61.91911667 460.129607 61.91911667 460.129607 76.74755669 453.74882197 C80.23506425 450.19588226 80.23506425 450.19588226 81.77338696 445.71070075 C64.62261381 445.45318207 47.472448 445.25949511 30.32018089 445.14076686 C22.35511176 445.08416131 14.39124711 445.00706139 6.42695141 444.88086677 C-0.51879312 444.77086405 -7.4636651 444.70017673 -14.41025656 444.67572731 C-18.08544557 444.66144431 -21.75813962 444.62814451 -25.43252468 444.54767013 C-45.50822525 443.32222318 -45.50822525 443.32222318 -60.8809557 454.24456 Z " fill="#DB8744" transform="translate(127.22661304473877,-1.7107007503509521)"/>
<path d="M0 0 C3.67981764 0.0154966 7.35904522 -0.00668105 11.03880191 -0.02841622 C19.73553866 -0.07916413 28.43069349 -0.06897903 37.12739086 -0.0185473 C46.03692145 0.03215785 54.94203584 -0.01524161 63.85108399 -0.11221594 C71.55736167 -0.19285444 79.26228022 -0.21398612 86.96893668 -0.18867069 C91.54675195 -0.17403343 96.12191799 -0.179672 100.69938946 -0.24203324 C121.77430647 -0.50019087 137.08854968 0.06983989 153.5814352 14.82660747 C157.16848809 17.90986067 161.11063718 20.43174029 165.06635571 23.011482 C166.54339524 24.00689049 168.01902661 25.00439486 169.49262524 26.0048902 C170.98195971 27.01112117 172.47138205 28.01722209 173.96088696 29.02320075 C174.74477795 29.55263282 175.52866894 30.08206489 176.3363142 30.62754035 C207.26984981 51.6063554 207.26984981 51.6063554 238.77338696 71.71070075 C239.55133617 72.1916822 240.32928539 72.67266364 241.13080883 73.16822028 C254.72731371 81.54611532 268.63080254 89.29465432 282.77338696 96.71070075 C283.82864574 97.26435309 284.88390453 97.81800544 285.97114086 98.38843513 C311.73657112 111.81093427 338.70279338 123.08246746 367.00361156 129.93848395 C371.50772349 131.09342507 374.54683217 132.33721545 377.77338696 135.71070075 C378.25278759 138.5157389 378.40958882 140.7097738 378.34101391 143.50855231 C378.34174404 144.28942206 378.34247417 145.07029181 378.34322643 145.87482429 C378.33974814 148.45103609 378.30087831 151.02543061 378.26166821 153.60132575 C378.25234087 155.38921853 378.24522438 157.17712411 378.24022961 158.96503425 C378.2211534 163.66715605 378.17204748 168.36850365 378.11670971 173.07031989 C378.06553051 177.86961114 378.04271842 182.66902768 378.01752758 187.46851325 C377.96392915 196.88291561 377.87860895 206.29674376 377.77338696 215.71070075 C376.75059139 216.04737769 375.72779583 216.38405463 374.67400646 216.7309339 C370.81578106 218.00210718 366.95926739 219.27840903 363.10320568 220.55612922 C361.446002 221.10448851 359.78836004 221.65152534 358.13024426 222.19712043 C344.37086768 226.72612832 330.98670759 231.74705969 317.77338696 237.71070075 C316.45225903 238.30117194 316.45225903 238.30117194 315.10444164 238.90357184 C281.26324616 254.14145821 249.33658842 274.48285506 221.24213696 298.7536695 C220.61734447 299.29298102 219.99255199 299.83229255 219.34882641 300.38794684 C218.1222499 301.45035593 216.89921283 302.51687018 215.68036938 303.58814216 C215.11680737 304.07846931 214.55324535 304.56879645 213.97260571 305.073982 C213.47591381 305.51008796 212.97922192 305.94619391 212.46747875 306.3955152 C210.347976 308.04096286 208.09178237 309.36484526 205.77338696 310.71070075 C205.83792065 309.50462165 205.83792065 309.50462165 205.90375805 308.27417731 C206.66450854 290.07328674 205.59534995 277.16195821 192.72382641 263.09229255 C192.08018139 262.30636725 191.43653637 261.52044196 190.77338696 260.71070075 C190.26491222 260.17893729 189.75643749 259.64717383 189.23255444 259.09929633 C182.92149933 251.48528772 184.01663612 242.44028801 184.18744946 233.1130445 C184.19865565 231.30988205 184.2071891 229.50670119 184.21317577 227.70351386 C184.23596239 222.98321834 184.29479607 218.26405031 184.36139965 213.54419684 C184.42304318 208.7176918 184.45023768 203.89100256 184.48041821 199.06421638 C184.5445507 189.61255216 184.64680503 180.16172062 184.77338696 170.71070075 C181.18200294 169.22606548 177.58845555 167.74679532 173.99305248 166.27191901 C172.18745466 165.53004751 170.3834702 164.78425311 168.5795393 164.03833747 C138.62076221 151.76284679 107.05481479 143.56514827 74.77338696 140.71070075 C73.61903149 140.60701179 73.61903149 140.60701179 72.44135571 140.50122809 C52.16908342 138.79536859 31.55267789 138.95447075 11.36127758 141.40308356 C8.70415207 141.71893056 6.04471206 141.99346862 3.38276196 142.26538825 C-26.07379271 145.46848133 -56.08676044 153.54768972 -83.22661304 165.46070075 C-86.22661304 166.71070075 -86.22661304 166.71070075 -88.22661304 166.71070075 C-88.48387897 150.02964181 -88.67769511 133.34922878 -88.79654694 116.66666389 C-88.85320604 108.92008779 -88.93040871 101.17474606 -89.05644703 93.42896247 C-89.16628548 86.67551977 -89.23709824 79.92297103 -89.26158649 73.16865993 C-89.27589731 69.59358545 -89.30937481 66.02106768 -89.38964367 62.44681525 C-89.4786626 58.45030438 -89.48049101 54.45820026 -89.47539234 50.46070075 C-89.51494038 49.28321769 -89.55448841 48.10573462 -89.59523487 46.89257026 C-89.52596726 41.87008013 -89.40192309 38.91807845 -85.80509949 35.22311759 C-83.02427157 33.18105988 -80.22539983 31.41159109 -77.22661304 29.71070075 C-76.18174732 28.98914802 -75.1368816 28.26759528 -74.06035328 27.52417731 C-72.81040577 26.69611579 -72.81040577 26.69611579 -71.53520679 25.85132575 C-70.56905445 25.20937263 -69.60290211 24.5674195 -68.60747242 23.90601325 C-67.63616383 23.26406013 -66.66485523 22.622107 -65.66411304 21.96070075 C-63.7252651 20.67431153 -61.78646447 19.387851 -59.84770679 18.10132575 C-58.83951389 17.46364768 -57.83132099 16.82596961 -56.79257679 16.16896796 C-54.29580294 14.52949913 -52.15062763 12.76148412 -49.97681141 10.71666694 C-35.67179708 -1.81870931 -17.89543813 -0.10970808 0 0 Z " fill="#FBD362" transform="translate(127.22661304473877,-1.7107007503509521)"/>
<path d="M0 0 C64.68 0 129.36 0 196 0 C196.33 8.91 196.66 17.82 197 27 C215.48 27.33 233.96 27.66 253 28 C251.15652951 31.68694097 249.770156 33.45534825 246.89453125 36.265625 C246.07533203 37.07386719 245.25613281 37.88210938 244.41210938 38.71484375 C243.55423828 39.55144531 242.69636719 40.38804687 241.8125 41.25 C236.70818501 46.24838378 231.703226 51.24200035 227.0402832 56.65576172 C222.63770103 61.71422696 218.1217428 66.65462497 213.49780273 71.51147461 C212.29381515 72.79242648 211.10635946 74.08912601 209.9362793 75.40112305 C208.21074238 77.33017615 206.43278964 79.19531205 204.63671875 81.05859375 C204.13911545 81.64080185 203.64151215 82.22300995 203.12882996 82.82286072 C201.12366459 84.82076338 199.64307568 85.92674612 197 87 C195.05699164 86.92309554 193.11347743 86.83951087 191.17453957 86.69214821 C184.11616918 86.29917769 179.38571379 87.24862558 173.78120422 91.75392151 C168.32004368 96.66022716 163.25540206 101.94748884 158.2221663 107.28465772 C155.66311384 109.97733229 153.05165793 112.61816904 150.44474792 115.26438904 C145.52555501 120.27210252 140.64843672 125.31856537 135.78810376 130.38336557 C127.07084845 139.46551782 118.29229538 148.4880432 109.48468417 157.48253959 C106.39888764 160.63731037 103.33510329 163.81157626 100.28796828 167.00369084 C98.84936289 168.50616456 97.40303443 170.00068529 95.95306396 171.4921875 C94.188068 173.30880541 92.43605391 175.13816367 90.69981384 176.98228455 C84.28737395 183.51712538 84.28737395 183.51712538 80.04814148 183.64561462 C77 183 77 183 75 181.375 C73.61773523 178.09212117 74.04509343 176.42497663 75 173 C76.73241618 170.84310625 78.36216715 169.05098012 80.34765625 167.1640625 C80.87894638 166.63984711 81.41023651 166.11563171 81.95762634 165.57553101 C83.6478274 163.91319237 85.35460783 162.26913791 87.0625 160.625 C88.21533401 159.49725927 89.36704023 158.36836441 90.51757812 157.23828125 C93.33216801 154.47865221 96.16175408 151.73528466 99 149 C82.22258823 148.41174016 65.44859596 147.97315683 48.66331577 147.7046957 C40.86614726 147.57663053 33.07550036 147.40202017 25.2824707 147.11401367 C-11.78616836 143.84153017 -11.78616836 143.84153017 -44.66992664 156.29822254 C-49.41246486 160.84107269 -53.22908075 165.96773274 -56.55018616 171.61634827 C-58 174 -58 174 -60 175 C-65.25465839 175.44720497 -65.25465839 175.44720497 -67.875 173.875 C-69.65952249 170.90079585 -69.64846 169.43683798 -69 166 C-67.6615591 164.18434906 -67.6615591 164.18434906 -65.91221619 162.25134277 C-65.27518705 161.54720749 -64.63815792 160.8430722 -63.98182487 160.11759949 C-60.97462909 156.90438104 -57.90021156 153.76885976 -54.77954102 150.66601562 C-53.75388283 149.6401384 -53.75388283 149.6401384 -52.70750427 148.59353638 C-50.47533697 146.36205869 -48.23966242 144.13413141 -46.00390625 141.90625 C-44.44427456 140.34848588 -42.88486536 138.79049898 -41.32566833 137.2322998 C-37.24266188 133.15309185 -33.1566601 129.07689731 -29.07000732 125.00134277 C-24.8918482 120.83345539 -20.71655638 116.66269776 -16.54101562 112.4921875 C-8.36346604 104.32532814 -0.18274623 96.16165237 8 88 C7.31714432 87.96302505 6.63428864 87.92605011 5.93074036 87.88795471 C5.03296371 87.82252975 4.13518707 87.7571048 3.21020508 87.68969727 C1.87654655 87.60329735 1.87654655 87.60329735 0.51594543 87.51515198 C-3.92865709 86.60509815 -5.81704688 83.49563197 -8.3125 79.9375 C-9.41717513 78.47335922 -10.52266795 77.00983508 -11.62890625 75.546875 C-12.18336426 74.79341797 -12.73782227 74.03996094 -13.30908203 73.26367188 C-15.48882307 70.34560099 -17.77681286 67.5274245 -20.08789062 64.71289062 C-21.19254551 63.3667953 -22.28899275 62.01392082 -23.37695312 60.65429688 C-25.75816397 57.68144447 -28.14336906 54.7938928 -30.81640625 52.078125 C-35.06463384 47.5839124 -37.43965592 44.60066353 -37.32409668 38.19006348 C-37.29319946 37.52019409 -37.26230225 36.85032471 -37.23046875 36.16015625 C-37.21383179 35.46925903 -37.19719482 34.77836182 -37.18005371 34.06652832 C-37.13696153 32.37716894 -37.07083456 30.68842368 -37 29 C-35.9805127 28.98018066 -34.96102539 28.96036133 -33.91064453 28.93994141 C-30.13467352 28.86397192 -26.35909227 28.77524191 -22.58349609 28.68261719 C-20.9481576 28.64429148 -19.31273376 28.60944493 -17.67724609 28.578125 C-15.3287909 28.53255158 -12.98092505 28.47454633 -10.6328125 28.4140625 C-9.89942657 28.40251129 -9.16604065 28.39096008 -8.41043091 28.37905884 C-4.25022895 28.38131903 -4.25022895 28.38131903 -1 26 C-0.67 17.42 -0.34 8.84 0 0 Z M22.85933113 92.49668789 C22.43396222 93.24082738 22.43396222 93.24082738 22 94 C39.23730354 94.16358585 56.47436455 94.2869918 73.71226692 94.3626852 C81.71631965 94.39876666 89.71988983 94.44794984 97.72363281 94.52807617 C104.70045383 94.59788853 111.67692539 94.64301723 118.65408599 94.65861946 C122.3480181 94.66773889 126.04095054 94.68913889 129.73456192 94.7401104 C133.86011165 94.79657982 137.9839283 94.79792669 142.10986328 94.79467773 C143.94297813 94.83242813 143.94297813 94.83242813 145.81312561 94.87094116 C151.86327822 94.95149608 151.86327822 94.95149608 157.12633896 92.38820076 C158.62499997 90.65877972 159.86600675 88.98380546 161 87 C143.76269646 86.83641415 126.52563545 86.7130082 109.28773308 86.6373148 C101.28368035 86.60123334 93.28011017 86.55205016 85.27636719 86.47192383 C78.29954617 86.40211147 71.32307461 86.35698277 64.34591401 86.34138054 C60.6519819 86.33226111 56.95904946 86.31086111 53.26543808 86.2598896 C49.13988835 86.20342018 45.0160717 86.20207331 40.89013672 86.20532227 C39.05702187 86.16757187 39.05702187 86.16757187 37.18687439 86.12905884 C30.37509362 86.18720273 26.83156276 86.70357036 22.85933113 92.49668789 Z M-9.65434265 123.53385925 C-11.07983108 125.67807289 -11.07983108 125.67807289 -11 127 C6.15077315 127.25751868 23.30093896 127.45120564 40.45320606 127.56993389 C48.4182752 127.62653944 56.38213985 127.70363936 64.34643555 127.82983398 C71.29218008 127.9398367 78.23705206 128.01052402 85.18364352 128.03497344 C88.85883253 128.04925644 92.53152657 128.08255624 96.20591164 128.16303062 C113.14572972 129.41890625 113.14572972 129.41890625 127.97416973 123.03812122 C131.46167729 119.48518151 131.46167729 119.48518151 133 115 C115.84922685 114.74248132 98.69906104 114.54879436 81.54679394 114.43006611 C73.5817248 114.37346056 65.61786015 114.29636064 57.65356445 114.17016602 C50.70781992 114.0601633 43.76294794 113.98947598 36.81635648 113.96502656 C33.14116747 113.95074356 29.46847343 113.91744376 25.79408836 113.83696938 C5.71838779 112.61152243 5.71838779 112.61152243 -9.65434265 123.53385925 Z " fill="#3A556A" transform="translate(76,329)"/>
<path d="M0 0 C90.42 0 180.84 0 274 0 C274 39.27 274 78.54 274 119 C264.43 115.37 254.86 111.74 245 108 C221.79695271 100.68945085 198.17634952 94.16261921 174 91 C173.22994629 90.89703613 172.45989258 90.79407227 171.66650391 90.68798828 C146.20538302 87.44710963 119.43811057 87.75239386 94 91 C92.98212402 91.12890625 91.96424805 91.2578125 90.91552734 91.390625 C61.4976526 95.24929265 31.90640209 102.28544638 4.5625 113.96875 C2 115 2 115 0 115 C0 77.05 0 39.1 0 0 Z " fill="#DB8744" transform="translate(39,37)"/>
<path d="M0 0 C1.28498383 -0.01591187 2.56996765 -0.03182373 3.89389038 -0.04821777 C5.29856308 -0.04948513 6.70323713 -0.04966183 8.10791016 -0.04882812 C9.54896339 -0.05592942 10.99001379 -0.06362837 12.43106079 -0.07189941 C15.45233007 -0.0853502 18.47333805 -0.08691092 21.49462891 -0.08105469 C25.36088953 -0.07516394 29.22589203 -0.10571898 33.09190941 -0.14617157 C36.06886514 -0.17206314 39.04551876 -0.17492465 42.02257156 -0.17127991 C43.44750755 -0.17297047 44.87245758 -0.18260707 46.29728317 -0.20042419 C48.29311805 -0.22263125 50.28924965 -0.20969562 52.28515625 -0.1953125 C53.4197226 -0.19736694 54.55428894 -0.19942139 55.72323608 -0.20153809 C61.04316003 0.88288481 63.78961951 5.13778518 66.68212891 9.46679688 C67.19074463 10.22041504 67.69936035 10.9740332 68.22338867 11.75048828 C68.75504639 12.54890137 69.2867041 13.34731445 69.83447266 14.16992188 C70.98966493 15.88157371 72.14593734 17.592497 73.30322266 19.30273438 C73.88330078 20.16157227 74.46337891 21.02041016 75.06103516 21.90527344 C77.60859496 25.64954655 80.21525192 29.35056061 82.83447266 33.04492188 C83.3250415 33.7374707 83.81561035 34.43001953 84.32104492 35.14355469 C85.30966044 36.53836823 86.29867249 37.9329008 87.28808594 39.32714844 C89.78870092 42.85384664 92.27985135 46.38721923 94.77197266 49.91992188 C97.88773601 54.334992 101.00450827 58.74934402 104.12353516 63.16210938 C104.9453125 64.32516602 104.9453125 64.32516602 105.78369141 65.51171875 C106.83545233 67.00022786 107.88752082 68.48851972 108.93994141 69.9765625 C109.41302734 70.64623047 109.88611328 71.31589844 110.37353516 72.00585938 C110.78941895 72.59415527 111.20530273 73.18245117 111.63378906 73.78857422 C114.50555465 77.90464836 115.05448871 80.03595111 115.18603516 85.05664062 C115.22470703 86.35537109 115.26337891 87.65410156 115.30322266 88.9921875 C115.33467782 90.3639276 115.36592516 91.73567248 115.39697266 93.10742188 C115.43516462 94.49090972 115.47421708 95.8743741 115.51416016 97.2578125 C115.60857783 100.64504638 115.69415384 104.03227256 115.77197266 107.41992188 C117.026875 106.329375 117.026875 106.329375 118.30712891 105.21679688 C148.43312001 79.14353145 180.80838195 56.84041745 216.71044922 39.42626953 C218.83015496 38.39151976 220.93756627 37.33406639 223.04541016 36.27539062 C236.55271933 29.58512987 250.56803992 24.42729908 264.77197266 19.41992188 C265.72813477 19.08234863 266.68429687 18.74477539 267.66943359 18.39697266 C270.17892219 17.51778568 272.69219969 16.65153591 275.20947266 15.79492188 C275.93013916 15.54718018 276.65080566 15.29943848 277.39331055 15.04418945 C280.7427269 13.93316952 283.19371525 13.41992188 286.77197266 13.41992188 C286.88015926 16.00437961 286.95934503 18.5842954 287.02197266 21.16992188 C287.05548828 21.89953125 287.08900391 22.62914062 287.12353516 23.38085938 C287.18259399 26.62909524 287.08337125 28.91997783 285.34619141 31.70898438 C281.58292071 34.2102174 277.58405854 35.5608292 273.33447266 37.04492188 C226.73390834 54.13759004 187.38645652 85.41390352 151.39111328 118.9140625 C150.25359493 119.97199573 149.1140938 121.02779908 147.97314453 122.08203125 C139.98736867 129.4617072 132.12241483 136.95516377 124.39697266 144.60742188 C123.29929565 145.68564209 123.29929565 145.68564209 122.17944336 146.78564453 C121.50099365 147.46288574 120.82254395 148.14012695 120.12353516 148.83789062 C119.5236377 149.4336792 118.92374023 150.02946777 118.30566406 150.64331055 C116.67313808 152.36073434 116.67313808 152.36073434 115.8125 154.58129883 C114.77197266 156.41992188 114.77197266 156.41992188 113.05561829 157.03248596 C110.38464206 157.48563513 107.90311355 157.50430468 105.19311523 157.45751953 C104.07548294 157.44065094 102.95785065 157.42378235 101.80635071 157.40640259 C100.60520126 157.38250458 99.40405182 157.35860657 98.16650391 157.33398438 C96.93155685 157.31274506 95.6966098 157.29150574 94.42424011 157.2696228 C91.14811066 157.21154472 87.87212837 157.14829196 84.59613037 157.08331299 C82.58195058 157.04487374 80.56774407 157.01044989 78.5534668 156.97753906 C74.69519644 156.91415302 70.83711266 156.84398465 66.97900391 156.77148438 C65.77178177 156.75163483 64.56455963 156.73178528 63.320755 156.71133423 C62.21257919 156.68816132 61.10440338 156.6649884 59.96264648 156.64111328 C58.98209793 156.6225528 58.00154938 156.60399231 56.99128723 156.58486938 C54.77197266 156.41992188 54.77197266 156.41992188 53.77197266 155.41992188 C53.68323131 152.31740987 53.65678811 149.23724067 53.67431641 146.13476562 C53.67573135 145.20394669 53.6771463 144.27312775 53.67860413 143.31410217 C53.68422094 140.32850996 53.69677626 137.34299158 53.70947266 134.35742188 C53.71448549 132.33854275 53.71904877 130.31966245 53.72314453 128.30078125 C53.73419583 123.34046616 53.7514717 118.38020655 53.77197266 113.41992188 C53.01220123 113.4243631 52.25242981 113.42880432 51.46963501 113.43338013 C44.31821949 113.47341282 37.16685811 113.50388376 30.01535988 113.52354622 C26.33847916 113.53399462 22.66169082 113.5481729 18.98486328 113.57080078 C15.4381761 113.59249178 11.89157793 113.60448254 8.34482956 113.60967636 C6.99000013 113.61337888 5.63517571 113.62060877 4.28038406 113.63138199 C2.38651508 113.64584635 0.49255701 113.64673836 -1.40136719 113.64697266 C-2.48058441 113.65141388 -3.55980164 113.6558551 -4.67172241 113.66043091 C-7.22802734 113.41992188 -7.22802734 113.41992188 -9.22802734 111.41992188 C-9.48250294 109.49553013 -9.48250294 109.49553013 -9.48872375 107.09950256 C-9.49935097 105.73878883 -9.49935097 105.73878883 -9.51019287 104.35058594 C-9.50771545 103.35260986 -9.50523804 102.35463379 -9.50268555 101.32641602 C-9.51035194 99.75312782 -9.51035194 99.75312782 -9.51817322 98.14805603 C-9.53211915 94.667006 -9.53110868 91.18615284 -9.52880859 87.70507812 C-9.53269278 85.29373602 -9.53702686 82.8823946 -9.54179382 80.47105408 C-9.54926681 75.4111001 -9.54895694 70.35121589 -9.54370117 65.29125977 C-9.5379052 58.79641109 -9.55483568 52.30184746 -9.57804585 45.80704594 C-9.59275414 40.82545798 -9.59365884 35.84393912 -9.59053612 30.8623333 C-9.59105079 28.46726352 -9.59631578 26.07219001 -9.60634804 23.67714119 C-9.61863872 20.33217802 -9.61196485 16.98777597 -9.6003418 13.64282227 C-9.60798553 12.64687042 -9.61562927 11.65091858 -9.62350464 10.62478638 C-9.61649033 9.71482407 -9.60947601 8.80486176 -9.60224915 7.86732483 C-9.60241689 7.07625871 -9.60258463 6.28519258 -9.60275745 5.47015476 C-8.61944586 0.0902354 -4.75374258 0.03532528 0 0 Z " fill="#EAECED" transform="translate(218.22802734375,200.580078125)"/>
<path d="M0 0 C3.78158016 0.75631603 5.62984367 1.13115507 8.765625 2.86328125 C9.83272705 3.44227173 9.83272705 3.44227173 10.92138672 4.03295898 C11.6898291 4.45520752 12.45827148 4.87745605 13.25 5.3125 C40.0851822 19.67186002 67.56200448 31.72168041 97.0793457 39.36425781 C98.17722412 39.65526367 99.27510254 39.94626953 100.40625 40.24609375 C101.36853516 40.49029053 102.33082031 40.7344873 103.32226562 40.98608398 C106.63048393 42.23873083 108.51502815 43.45639321 111 46 C111.47940064 48.80503815 111.63620187 50.99907305 111.56762695 53.79785156 C111.56835709 54.57872131 111.56908722 55.35959106 111.56983948 56.16412354 C111.56636119 58.74033534 111.52749135 61.31472986 111.48828125 63.890625 C111.47895392 65.67851778 111.47183743 67.46642336 111.46684265 69.2543335 C111.44776644 73.9564553 111.39866053 78.6578029 111.34332275 83.35961914 C111.29214356 88.15891038 111.26933147 92.95832693 111.24414062 97.7578125 C111.1905422 107.17221486 111.105222 116.58604301 111 126 C109.97720444 126.33667694 108.95440887 126.67335388 107.90061951 127.02023315 C104.04239411 128.29140643 100.18588043 129.56770828 96.32981873 130.84542847 C94.67261505 131.39378776 93.01497308 131.94082459 91.3568573 132.48641968 C77.59748073 137.01542757 64.21332064 142.03635894 51 148 C50.11924805 148.39364746 49.23849609 148.78729492 48.33105469 149.19287109 C34.97651619 155.20610252 22.23734704 162.16664111 9.57275391 169.51123047 C6.38913324 171.35348885 3.19359568 173.17508818 0 175 C0 117.25 0 59.5 0 0 Z " fill="#F6BE56" transform="translate(394,88)"/>
<path d="M0 0 C1.46635155 0.00985565 2.93272834 0.01644831 4.39910889 0.01992798 C7.4628619 0.03516794 10.52473218 0.07616065 13.58789062 0.13818359 C17.5179264 0.21761332 21.44674372 0.25344776 25.377491 0.27280235 C29.12682605 0.29271903 32.87586308 0.33248705 36.625 0.375 C37.34138893 0.3817915 38.05777786 0.38858299 38.79587555 0.39558029 C40.81621938 0.41868057 42.8363621 0.45772575 44.85644531 0.49755859 C46.581362 0.52709122 46.581362 0.52709122 48.34112549 0.55722046 C51.046875 0.8515625 51.046875 0.8515625 53.046875 2.8515625 C53.29576397 4.81277561 53.29576397 4.81277561 53.29411316 7.2613678 C53.29830765 8.18822891 53.30250214 9.11509003 53.30682373 10.07003784 C53.30120422 11.08985748 53.29558472 12.10967712 53.28979492 13.16040039 C53.29169327 14.23197891 53.29359161 15.30355743 53.29554749 16.40760803 C53.29926382 19.96321845 53.28853947 23.51862636 53.27734375 27.07421875 C53.27615241 29.53519161 53.27569869 31.99616493 53.2759552 34.45713806 C53.27438889 39.6196476 53.26608744 44.78208794 53.25268555 49.94458008 C53.23568662 56.57853846 53.23187137 63.21242075 53.23263073 69.84639835 C53.23235947 74.92912021 53.22688547 80.01182526 53.21962929 85.09454155 C53.2164361 87.54149689 53.21447371 89.98845414 53.21373558 92.43541145 C53.21157939 95.8476807 53.20285109 99.25986747 53.19213867 102.67211914 C53.19259186 103.69396301 53.19304504 104.71580688 53.19351196 105.76861572 C53.18924698 106.69265701 53.18498199 107.6166983 53.18058777 108.56874084 C53.17891192 109.37639924 53.17723608 110.18405764 53.17550945 111.01619053 C53.046875 112.8515625 53.046875 112.8515625 52.046875 113.8515625 C50.14443738 113.94547546 48.23849041 113.96899908 46.33374023 113.96508789 C45.1125499 113.96501236 43.89135956 113.96493683 42.63316345 113.96485901 C41.29059814 113.95975161 39.94803325 113.95453561 38.60546875 113.94921875 C37.23926342 113.94735449 35.87305743 113.94593063 34.5068512 113.94493103 C30.90485805 113.94110644 27.302905 113.93127667 23.70092773 113.92022705 C20.02783755 113.91001166 16.35474091 113.90543314 12.68164062 113.90039062 C5.47003377 113.88965434 -1.74154 113.87257864 -8.953125 113.8515625 C-8.93741455 115.07786377 -8.9217041 116.30416504 -8.90551758 117.56762695 C-8.85125889 122.11297042 -8.81678971 126.6582852 -8.78833008 131.20385742 C-8.77323418 133.17200533 -8.75275552 135.14011956 -8.72680664 137.1081543 C-8.69045851 139.93546862 -8.67340686 142.7623386 -8.66015625 145.58984375 C-8.64467239 146.47118484 -8.62918854 147.35252594 -8.61323547 148.26057434 C-8.61300888 149.08119858 -8.61278229 149.90182281 -8.61254883 150.74731445 C-8.60588699 151.46901321 -8.59922516 152.19071198 -8.59236145 152.9342804 C-9.07923647 155.52178336 -9.79381909 156.35279774 -11.953125 157.8515625 C-14.46437073 158.2257843 -14.46437073 158.2257843 -17.49438477 158.22387695 C-18.62888565 158.23010574 -19.76338654 158.23633453 -20.93226624 158.24275208 C-22.15731369 158.23354233 -23.38236115 158.22433258 -24.64453125 158.21484375 C-25.90071762 158.21534225 -27.15690399 158.21584076 -28.45115662 158.21635437 C-31.10861774 158.21401201 -33.76528429 158.20584731 -36.42260742 158.18774414 C-39.8314234 158.16503364 -43.23979648 158.16451751 -46.64866734 158.17126179 C-49.89732215 158.17540253 -53.14589798 158.16343399 -56.39453125 158.15234375 C-57.62160294 158.15325516 -58.84867462 158.15416656 -60.1129303 158.15510559 C-61.24427902 158.14557358 -62.37562775 158.13604156 -63.54125977 158.1262207 C-64.5403688 158.12161331 -65.53947784 158.11700592 -66.56886292 158.11225891 C-68.953125 157.8515625 -68.953125 157.8515625 -70.953125 155.8515625 C-71.24073792 152.79981995 -71.24073792 152.79981995 -71.29125977 148.82250977 C-71.30279587 148.09861557 -71.31433197 147.37472137 -71.32621765 146.62889099 C-71.36062058 144.22522846 -71.37905448 141.82182396 -71.39453125 139.41796875 C-71.40143415 138.59505781 -71.40833706 137.77214687 -71.41544914 136.92429924 C-71.45134019 132.5609403 -71.47484258 128.19771138 -71.48852539 123.83422852 C-71.50499621 119.34840554 -71.56328761 114.86418076 -71.63166904 110.37889194 C-71.67670879 106.91361551 -71.69003913 103.44871158 -71.69514275 99.98316765 C-71.70298879 98.33146334 -71.72248766 96.67976803 -71.75436592 95.02835274 C-71.94416252 84.49265682 -70.81619729 77.31198344 -63.953125 68.8515625 C-62.92174639 67.36664419 -61.8990671 65.87558947 -60.890625 64.375 C-59.91467907 62.98991252 -58.93550258 61.60709576 -57.953125 60.2265625 C-57.43041016 59.48857422 -56.90769531 58.75058594 -56.36914062 57.99023438 C-53.2985131 53.67609807 -50.13330191 49.46703949 -46.83984375 45.3203125 C-42.56661542 39.72884189 -38.59720129 33.90794479 -34.56005859 28.14501953 C-31.90505159 24.35572512 -29.24244269 20.5718136 -26.578125 16.7890625 C-26.10286377 16.11166016 -25.62760254 15.43425781 -25.13793945 14.73632812 C-24.23990127 13.46082173 -23.32834137 12.19467392 -22.40040588 10.94075012 C-20.9204734 8.90743682 -20.9204734 8.90743682 -19.89395142 6.75041199 C-15.35092929 -1.29039073 -8.34887161 -0.21446927 0 0 Z M-46.953125 60.8515625 C-47.94608791 62.10117866 -48.89457185 63.38618383 -49.82421875 64.68359375 C-50.39849609 65.48216797 -50.97277344 66.28074219 -51.56445312 67.10351562 C-52.4684082 68.37098633 -52.4684082 68.37098633 -53.390625 69.6640625 C-53.98939453 70.49744141 -54.58816406 71.33082031 -55.20507812 72.18945312 C-60.71912015 79.50869619 -60.71912015 79.50869619 -62.18017578 88.3425293 C-62.18046783 88.9964566 -62.18075989 89.65038391 -62.18106079 90.3241272 C-62.1796687 92.48314739 -62.16411357 94.64182143 -62.1484375 96.80078125 C-62.14470693 98.29864819 -62.14186017 99.79651757 -62.13986206 101.29438782 C-62.13222903 105.23506417 -62.11258345 109.17559288 -62.0904541 113.11621094 C-62.06998853 117.13800052 -62.06085882 121.15981397 -62.05078125 125.18164062 C-62.02933716 133.07168985 -61.99415778 140.9615908 -61.953125 148.8515625 C-56.673125 148.8515625 -51.393125 148.8515625 -45.953125 148.8515625 C-45.953125 119.8115625 -45.953125 90.7715625 -45.953125 60.8515625 C-46.283125 60.8515625 -46.613125 60.8515625 -46.953125 60.8515625 Z " fill="#D4D3D6" transform="translate(84.953125,200.1484375)"/>
<path d="M0 0 C-1.65 1.98 -3.3 3.96 -5 6 C12.10695057 6.14021894 29.21372158 6.24599454 46.32111549 6.31087303 C54.26456549 6.34179926 62.20765823 6.38395551 70.15087891 6.45263672 C77.07496137 6.51247734 83.99878509 6.55115814 90.92311895 6.56453097 C94.58899111 6.57234713 98.25412313 6.59068901 101.91975784 6.63438034 C106.01405791 6.68278428 110.10707486 6.68393693 114.20166016 6.68115234 C116.0207489 6.71350983 116.0207489 6.71350983 117.87658691 6.746521 C123.76184964 6.84527163 123.76184964 6.84527163 129.03870201 4.64240456 C130.86261763 2.84992026 130.86261763 2.84992026 133 0 C135.33349609 -0.68115234 135.33349609 -0.68115234 137.5234375 -0.5859375 C138.71259766 -0.55693359 138.71259766 -0.55693359 139.92578125 -0.52734375 C140.73402344 -0.47707031 141.54226562 -0.42679687 142.375 -0.375 C143.20644531 -0.34792969 144.03789062 -0.32085937 144.89453125 -0.29296875 C146.93081888 -0.22275194 148.96575833 -0.11514575 151 0 C146.33553763 5.58825269 141.38196585 10.79523144 136.26000977 15.96459961 C135.40230988 16.83368958 134.54460999 17.70277954 133.66091919 18.59820557 C130.84106185 21.45288705 128.01724372 24.30358465 125.19140625 27.15234375 C124.70906485 27.63863101 124.22672346 28.12491827 123.72976565 28.62594151 C119.17565175 33.21640926 114.61905836 37.80440579 110.05741978 42.38739681 C104.24088678 48.23157452 98.43632984 54.08712517 92.64701802 59.95827287 C88.56306985 64.09797665 84.46582544 68.22422002 80.35853046 72.34075934 C77.90981482 74.79572857 75.46737518 77.2562614 73.03915596 79.7315197 C70.33503735 82.48738625 67.60368618 85.21522307 64.86938477 87.94116211 C63.67295097 89.17298973 63.67295097 89.17298973 62.4523468 90.42970276 C56.94658337 95.85419676 56.94658337 95.85419676 52.07066345 96.60523987 C49 96 49 96 47 94.375 C45.61773523 91.09212117 46.04509343 89.42497663 47 86 C48.73241618 83.84310625 50.36216715 82.05098012 52.34765625 80.1640625 C52.87894638 79.63984711 53.41023651 79.11563171 53.95762634 78.57553101 C55.6478274 76.91319237 57.35460783 75.26913791 59.0625 73.625 C60.21533401 72.49725927 61.36704023 71.36836441 62.51757812 70.23828125 C65.33216801 67.47865221 68.16175408 64.73528466 71 62 C54.22258823 61.41174016 37.44859596 60.97315683 20.66331577 60.7046957 C12.86614726 60.57663053 5.07550036 60.40202017 -2.7175293 60.11401367 C-39.78616836 56.84153017 -39.78616836 56.84153017 -72.66992664 69.29822254 C-77.41246486 73.84107269 -81.22908075 78.96773274 -84.55018616 84.61634827 C-86 87 -86 87 -88 88 C-93.25465839 88.44720497 -93.25465839 88.44720497 -95.875 86.875 C-97.65952249 83.90079585 -97.64846 82.43683798 -97 79 C-95.65418625 77.18757629 -95.65418625 77.18757629 -93.89910889 75.25708008 C-93.26211815 74.55289948 -92.62512741 73.84871887 -91.96883392 73.12319946 C-91.31911873 72.42254364 -90.66940353 71.72188782 -90 71 C-89.43131447 70.38643646 -88.86262894 69.77287292 -88.27671051 69.14071655 C-86.5260233 67.27361894 -84.7604939 65.42182888 -82.98925781 63.57421875 C-82.32625168 62.88054703 -81.66324554 62.18687531 -80.98014832 61.47218323 C-74.90679676 55.13217896 -68.78128643 48.84316298 -62.63776016 42.57119751 C-58.52564699 38.37107412 -54.4337248 34.15473567 -50.38330078 29.89501953 C-46.44267769 25.75191191 -42.45644885 21.65808247 -38.43502045 17.59341431 C-36.92088819 16.04693321 -35.42328692 14.48406941 -33.94382477 12.90438843 C-23.18249341 1.44668544 -15.80771792 -2.38488216 0 0 Z M-37.65434265 36.53385925 C-39.07983108 38.67807289 -39.07983108 38.67807289 -39 40 C-21.84922685 40.25751868 -4.69906104 40.45120564 12.45320606 40.56993389 C20.4182752 40.62653944 28.38213985 40.70363936 36.34643555 40.82983398 C43.29218008 40.9398367 50.23705206 41.01052402 57.18364352 41.03497344 C60.85883253 41.04925644 64.53152657 41.08255624 68.20591164 41.16303062 C85.14572972 42.41890625 85.14572972 42.41890625 99.97416973 36.03812122 C103.46167729 32.48518151 103.46167729 32.48518151 105 28 C87.84922685 27.74248132 70.69906104 27.54879436 53.54679394 27.43006611 C45.5817248 27.37346056 37.61786015 27.29636064 29.65356445 27.17016602 C22.70781992 27.0601633 15.76294794 26.98947598 8.81635648 26.96502656 C5.14116747 26.95074356 1.46847343 26.91744376 -2.20591164 26.83696938 C-22.28161221 25.61152243 -22.28161221 25.61152243 -37.65434265 36.53385925 Z " fill="#DB8744" transform="translate(104,416)"/>
<path d="M0 0 C4.5792534 0.08378269 9.15811049 0.05047291 13.73790574 0.03538537 C21.40666067 0.02747076 29.07058011 0.10589773 36.73807359 0.24099755 C45.5375634 0.39514642 54.32986324 0.41724991 63.13040394 0.36823744 C71.69833643 0.32295124 80.26378585 0.36368199 88.83139062 0.44483399 C92.4337508 0.4780007 96.03450132 0.48387355 99.63695931 0.46625352 C120.58925977 0.40084378 135.68271066 1.3191734 152.09795022 15.88835931 C155.4894645 18.77891056 159.20348382 21.11726264 162.96341538 23.49417138 C164.26056223 24.34529309 165.55636919 25.19846456 166.85013413 26.05471826 C168.77921081 27.32397954 170.70974629 28.59082679 172.64359117 29.85281396 C174.58767151 31.12293078 176.52596714 32.40146889 178.46341538 33.68167138 C179.05061357 34.06176858 179.63781175 34.44186578 180.24280381 34.83348107 C181.61529634 35.74529643 182.93988059 36.72853204 184.25247788 37.72464013 C184.25247788 38.38464013 184.25247788 39.04464013 184.25247788 39.72464013 C93.83247788 39.72464013 3.41247788 39.72464013 -89.74752212 39.72464013 C-85.86842605 35.84554407 -82.40587311 33.00586 -77.87088943 30.12825036 C-73.17540725 27.08656814 -68.64918561 23.94386916 -64.26452428 20.46766728 C-43.24940259 3.81568557 -26.53482545 -0.60371634 0 0 Z " fill="#F6BD55" transform="translate(128.7475221157074,-2.724640130996704)"/>
<path d="M0 0 C40.26 0 80.52 0 122 0 C122 19.8 122 39.6 122 60 C109.6607717 60 109.6607717 60 103.6796875 59.484375 C102.27410762 59.36809592 100.86850746 59.25206186 99.46289062 59.13623047 C98.72014893 59.07352966 97.97740723 59.01082886 97.2121582 58.94622803 C83.22815049 57.7721294 69.23333613 56.80024178 55.2265625 55.9453125 C54.13485056 55.87864883 54.13485056 55.87864883 53.02108383 55.81063843 C45.64983069 55.36156581 38.278133 54.920212 30.90601158 54.48563576 C28.11096132 54.32042357 25.31603813 54.1531218 22.52112961 53.98553085 C20.58319872 53.87027703 18.64507087 53.75835008 16.7069397 53.64651489 C15.53070038 53.57608978 14.35446106 53.50566467 13.14257812 53.43310547 C12.12103638 53.37331512 11.09949463 53.31352478 10.04699707 53.25192261 C6.68357483 52.97383829 3.34097908 52.47728273 0 52 C0 34.84 0 17.68 0 0 Z " fill="#27A1DA" transform="translate(180,56)"/>
<path d="M0 0 C39.27 0 78.54 0 119 0 C119 17.16 119 34.32 119 52 C99.46680983 54.29802237 99.46680983 54.29802237 91.46044922 54.77783203 C90.08370781 54.86605225 90.08370781 54.86605225 88.67915344 54.95605469 C85.72126028 55.14444486 82.7630107 55.32631204 79.8046875 55.5078125 C77.715809 55.63913428 75.62695236 55.77080397 73.53811646 55.90280151 C69.19680786 56.17617689 64.85532445 56.44649961 60.51367188 56.71435547 C54.9599775 57.0570788 49.40668521 57.40587322 43.85349846 57.75671577 C39.55560336 58.02787778 35.25756606 58.29672489 30.95947647 58.564785 C28.91098973 58.69265606 26.86253489 58.82103942 24.81411362 58.94995499 C21.95807672 59.12917583 19.10187492 59.30548644 16.24560547 59.48095703 C14.99093727 59.56040054 14.99093727 59.56040054 13.71092224 59.64144897 C12.92652267 59.68904358 12.14212311 59.73663818 11.33395386 59.78567505 C10.32590856 59.84814769 10.32590856 59.84814769 9.2974987 59.9118824 C6.20047032 60.03066493 3.09930542 60 0 60 C0 40.2 0 20.4 0 0 Z " fill="#27A1DA" transform="translate(50,56)"/>
<path d="M0 0 C18.15 0 36.3 0 55 0 C55 32.34 55 64.68 55 98 C36.85 98 18.7 98 0 98 C0 65.66 0 33.32 0 0 Z " fill="#DC8947" transform="translate(217,209)"/>
<path d="M0 0 C17.82 0 35.64 0 54 0 C54 32.01 54 64.02 54 97 C36.18 97 18.36 97 0 97 C0 64.99 0 32.98 0 0 Z " fill="#DB8744" transform="translate(76,209)"/>
<path d="M0 0 C0.1081866 2.58445773 0.18737237 5.16437352 0.25 7.75 C0.28351563 8.47960937 0.31703125 9.20921875 0.3515625 9.9609375 C0.41062133 13.20917336 0.3113986 15.50005595 -1.42578125 18.2890625 C-5.18905194 20.79029552 -9.18791412 22.14090732 -13.4375 23.625 C-60.03806432 40.71766817 -99.38551614 71.99398165 -135.38085938 105.49414062 C-136.51837772 106.55207385 -137.65787885 107.6078772 -138.79882812 108.66210938 C-147.61347221 116.80774457 -156.22283421 125.11261569 -164.5925293 133.71728516 C-165.270979 134.40741699 -165.94942871 135.09754883 -166.6484375 135.80859375 C-167.24833496 136.42532959 -167.84823242 137.04206543 -168.46630859 137.67749023 C-170 139 -170 139 -172 139 C-172.37434678 132.97244099 -172.64447327 126.95179347 -172.82397461 120.9152832 C-172.89885051 118.86883634 -173.00081095 116.82317688 -173.1315918 114.77954102 C-174.15685957 98.33102936 -174.15685957 98.33102936 -170.59713745 92.83343506 C-167.18507578 89.02396456 -163.24727579 86.11789686 -158.9798584 83.33465576 C-155.69582494 81.12083372 -152.71830024 78.54322912 -149.6875 76 C-125.09246933 56.34117478 -98.37500873 39.73968555 -70.06152344 26.00634766 C-67.9418177 24.97159789 -65.83440639 23.91414451 -63.7265625 22.85546875 C-50.21925332 16.16520799 -36.20393273 11.00737721 -22 6 C-21.04383789 5.66242676 -20.08767578 5.32485352 -19.10253906 4.97705078 C-16.59305046 4.0978638 -14.07977296 3.23161403 -11.5625 2.375 C-10.8418335 2.1272583 -10.12116699 1.8795166 -9.37866211 1.62426758 C-6.02924575 0.51324765 -3.5782574 0 0 0 Z " fill="#64798A" transform="translate(505,214)"/>
<path d="M0 0 C2.79778512 2.79778512 4.84811492 5.00508349 7.03125 8.16796875 C7.588125 8.96976563 8.145 9.7715625 8.71875 10.59765625 C9.3065625 11.45230469 9.894375 12.30695313 10.5 13.1875 C11.76009147 15.00413187 13.02051334 16.82053459 14.28125 18.63671875 C14.90902344 19.54341309 15.53679687 20.45010742 16.18359375 21.38427734 C18.76731951 25.10498135 21.38174072 28.80355566 24 32.5 C27.2877836 37.14720407 30.56395874 41.80218297 33.82421875 46.46875 C34.46681641 47.38849609 35.10941406 48.30824219 35.77148438 49.25585938 C37.03020353 51.05861209 38.28804359 52.86197898 39.54492188 54.66601562 C40.11146484 55.47748047 40.67800781 56.28894531 41.26171875 57.125 C41.76662842 57.84945312 42.27153809 58.57390625 42.79174805 59.3203125 C43.89379053 60.94749398 43.89379053 60.94749398 45 62 C45.09425595 64.14743549 45.11742648 66.29801026 45.11352539 68.44750977 C45.11367142 69.12065216 45.11381744 69.79379456 45.1139679 70.48733521 C45.11326878 72.72205784 45.10547652 74.9566981 45.09765625 77.19140625 C45.09579206 78.73697362 45.09436816 80.28254157 45.09336853 81.82810974 C45.0895434 85.90357077 45.07971317 89.97899637 45.06866455 94.05444336 C45.05665566 98.94027728 45.05204817 103.82612302 45.04621124 108.71196747 C45.0365014 116.14133631 45.01734484 123.57062737 45 131 C30.15 131 15.3 131 0 131 C0 87.77 0 44.54 0 0 Z " fill="#DB8744" transform="translate(280,219)"/>
<path d="M0 0 C4.6610252 0.77683753 8.35627442 1.70731413 12.75 3.25 C17.06831209 4.74918553 21.38335267 6.13470518 25.8046875 7.30078125 C26.60680664 7.51250977 27.40892578 7.72423828 28.23535156 7.94238281 C29.79446027 8.34697375 31.35626579 8.74135063 32.92089844 9.12402344 C33.64051758 9.31125977 34.36013672 9.49849609 35.1015625 9.69140625 C35.73400879 9.84810791 36.36645508 10.00480957 37.01806641 10.16625977 C39.94736018 11.39852612 41.74910567 12.72703068 44 15 C44.47940064 17.80503815 44.63620187 19.99907305 44.56762695 22.79785156 C44.56835709 23.57872131 44.56908722 24.35959106 44.56983948 25.16412354 C44.56636119 27.74033534 44.52749135 30.31472986 44.48828125 32.890625 C44.47895392 34.67851778 44.47183743 36.46642336 44.46684265 38.2543335 C44.44776644 42.9564553 44.39866053 47.6578029 44.34332275 52.35961914 C44.29214356 57.15891038 44.26933147 61.95832693 44.24414062 66.7578125 C44.1905422 76.17221486 44.105222 85.58604301 44 95 C42.40345581 95.52956299 42.40345581 95.52956299 40.7746582 96.06982422 C36.81386023 97.3840423 32.85373162 98.70026737 28.89379883 100.01708984 C27.18206591 100.58599455 25.47015362 101.15435983 23.75805664 101.72216797 C21.2926538 102.53991123 18.82790933 103.35961256 16.36328125 104.1796875 C15.60163162 104.43185028 14.83998199 104.68401306 14.05525208 104.94381714 C11.04737481 105.94633777 8.09490794 106.96062461 5.16479492 108.17626953 C3 109 3 109 0 109 C0 73.03 0 37.06 0 0 Z " fill="#FBD362" transform="translate(461,119)"/>
<path d="M0 0 C1 1 1 1 1.09765625 3.94140625 C1.08025391 5.73384766 1.08025391 5.73384766 1.0625 7.5625 C1.05347656 8.76003906 1.04445313 9.95757812 1.03515625 11.19140625 C1.01775391 12.58166016 1.01775391 12.58166016 1 14 C0.3694873 13.74943848 -0.26102539 13.49887695 -0.91064453 13.24072266 C-36.43660674 -0.81035298 -71.72779795 -12.61582527 -110 -16 C-110.76957031 -16.06912598 -111.53914062 -16.13825195 -112.33203125 -16.20947266 C-132.60430354 -17.91533216 -153.22070906 -17.75623 -173.41210938 -15.30761719 C-176.06923488 -14.99177019 -178.7286749 -14.71723213 -181.390625 -14.4453125 C-210.84717966 -11.24221942 -240.8601474 -3.16301103 -268 8.75 C-271 10 -271 10 -273 10 C-273 5.71 -273 1.42 -273 -3 C-186.21295104 -40.20858656 -86.05490682 -39.01306551 0 0 Z " fill="#F6BC55" transform="translate(312,155)"/>
<path d="M0 0 C0.33 0 0.66 0 1 0 C1 43.23 1 86.46 1 131 C-8.57 131 -18.14 131 -28 131 C-28.24961638 119.26384096 -28.45094189 107.5294758 -28.56993389 95.79125118 C-28.62707688 90.33923298 -28.70443483 84.88914174 -28.82983398 79.43823242 C-28.95033451 74.16660016 -29.01532629 68.89680758 -29.04364967 63.62390327 C-29.06380301 61.62363311 -29.10315704 59.6234512 -29.16303062 57.62397575 C-29.55673428 43.9172476 -27.66071778 35.74602216 -18.31933594 25.49840355 C-16.40651834 23.32596771 -14.82036095 20.9638715 -13.22265625 18.5546875 C-12.68962891 17.76835937 -12.15660156 16.98203125 -11.60742188 16.171875 C-11.09759766 15.41390625 -10.58777344 14.6559375 -10.0625 13.875 C-3.21516962 3.71497557 -3.21516962 3.71497557 0 0 Z " fill="#DB8644" transform="translate(67,219)"/>
<path d="M0 0 C3.71782934 0.08836241 7.43586799 0.09580659 11.15458536 0.11235571 C18.17505107 0.15562988 25.19241337 0.27016619 32.21152079 0.41124856 C40.21125206 0.56850173 48.21114277 0.64489638 56.21203828 0.71498466 C72.65049574 0.86077328 89.08584334 1.10652759 105.52198648 1.41951513 C104.00163112 4.61094092 102.41407635 6.77387654 99.89698648 9.27498388 C99.19058023 9.97945654 98.48417398 10.6839292 97.75636148 11.40974951 C97.01901773 12.13484716 96.28167398 12.85994482 95.52198648 13.60701513 C94.78464273 14.34371435 94.04729898 15.08041357 93.28761148 15.83943701 C86.52583601 22.54568695 86.52583601 22.54568695 80.19431925 22.53976965 C78.49895029 22.54183165 78.49895029 22.54183165 76.76933146 22.5439353 C74.90061884 22.53854239 74.90061884 22.53854239 72.99415445 22.53304052 C71.68688395 22.53318655 70.37961344 22.53333258 69.03272867 22.53348303 C65.44203887 22.53377064 61.85138229 22.5278798 58.26070023 22.52090907 C54.51040517 22.51466947 50.76010941 22.51407125 47.00980997 22.51288366 C39.90542617 22.50977214 32.8010577 22.50156116 25.69668067 22.49153417 C17.6097286 22.48036749 9.52277581 22.47486118 1.43581796 22.46983874 C-15.20213485 22.45937841 -31.84007223 22.44178242 -48.47801352 22.41951513 C-48.10820427 21.99949791 -47.73839502 21.57948069 -47.35737944 21.14673567 C-44.70245256 18.0958035 -42.19835898 15.05661881 -39.90815878 11.72148657 C-29.65397538 -1.95548186 -15.67545362 -0.43620066 0 0 Z " fill="#DC8744" transform="translate(124.47801351547241,421.58048486709595)"/>
<path d="M0 0 C6.81283503 0.85160438 13.54499304 1.86866631 20.3125 3 C21.39595703 3.17789063 22.47941406 3.35578125 23.59570312 3.5390625 C24.63275391 3.71179688 25.66980469 3.88453125 26.73828125 4.0625 C27.67712158 4.21847656 28.61596191 4.37445313 29.58325195 4.53515625 C32 5 32 5 35 6 C35 24.15 35 42.3 35 61 C24.86886333 64.37704556 24.86886333 64.37704556 19.94140625 65.38671875 C18.89662109 65.60263672 17.85183594 65.81855469 16.77539062 66.04101562 C15.71513672 66.25435547 14.65488281 66.46769531 13.5625 66.6875 C11.93151367 67.02491211 11.93151367 67.02491211 10.26757812 67.36914062 C2.30164799 69 2.30164799 69 0 69 C0 46.23 0 23.46 0 0 Z " fill="#2BA2D8" transform="translate(338,147)"/>
<path d="M0 0 C7.70358438 -0.27459994 15.40434509 -0.49318323 23.11152077 -0.62174606 C26.69326624 -0.68355465 30.27140555 -0.76685847 33.85107422 -0.90527344 C52.21267186 -1.596382 66.035173 -0.20130269 81.70077515 10.50262451 C85.42092279 12.92537925 89.37908202 14.82953361 93.375 16.75 C94.67472787 17.39012028 95.97423417 18.03069078 97.2734375 18.671875 C98.17320312 19.11015625 99.07296875 19.5484375 100 20 C100 20.33 100 20.66 100 21 C67 21 34 21 0 21 C0 14.07 0 7.14 0 0 Z " fill="#FBD361" transform="translate(179,15)"/>
<path d="M0 0 C0.74886475 0.00523682 1.49772949 0.01047363 2.26928711 0.01586914 C3.07817383 0.0190918 3.88706055 0.02231445 4.72045898 0.02563477 C5.5705957 0.03401367 6.42073242 0.04239258 7.29663086 0.05102539 C8.15063477 0.05553711 9.00463867 0.06004883 9.88452148 0.06469727 C12.00108749 0.07652166 14.11761771 0.0944577 16.23413086 0.11352539 C11.56966849 5.70177808 6.61609671 10.90875683 1.49414062 16.078125 C0.63644073 16.94721497 -0.22125916 17.81630493 -1.10494995 18.71173096 C-3.92480729 21.56641244 -6.74862542 24.41711005 -9.57446289 27.26586914 C-10.05680429 27.7521564 -10.53914568 28.23844367 -11.03610349 28.73946691 C-15.59021739 33.32993465 -20.14681078 37.91793118 -24.70844936 42.5009222 C-30.52498236 48.34509991 -36.3295393 54.20065056 -42.11885113 60.07179826 C-46.20279929 64.21150204 -50.3000437 68.33774541 -54.40733868 72.45428473 C-56.85605432 74.90925396 -59.29849396 77.36978679 -61.72671318 79.84504509 C-64.43083179 82.60091164 -67.16218297 85.32874846 -69.89648438 88.0546875 C-70.6941069 88.87590591 -71.49172943 89.69712433 -72.31352234 90.54322815 C-77.81928577 95.96772215 -77.81928577 95.96772215 -82.69520569 96.71876526 C-85.76586914 96.11352539 -85.76586914 96.11352539 -87.76586914 94.48852539 C-89.15120659 91.19834895 -88.72989921 89.54669794 -87.76586914 86.11352539 C-85.98511049 83.89495035 -84.29763012 82.03614659 -82.26196289 80.08618164 C-81.70525406 79.53417587 -81.14854523 78.9821701 -80.57496643 78.41343689 C-78.79584261 76.65558312 -76.9998802 74.91608639 -75.20336914 73.17602539 C-74.02193753 72.0111173 -72.84158756 70.84511114 -71.66235352 69.67797852 C-66.39342582 64.4848428 -61.0756255 59.39675448 -55.45410156 54.58349609 C-52.7526765 52.23132252 -50.22487695 49.71811694 -47.70336914 47.17602539 C-47.22577148 46.70229492 -46.74817383 46.22856445 -46.25610352 45.74047852 C-43.5218544 42.99892834 -40.93988488 40.17662248 -38.42211914 37.23461914 C-34.65836376 32.89253943 -30.55018459 29.00473963 -26.32836914 25.11352539 C-15.67962257 15.28734657 -15.67962257 15.28734657 -5.82836914 4.67602539 C-1.91707758 0.12324638 -1.91707758 0.12324638 0 0 Z " fill="#D5D5D9" transform="translate(238.765869140625,415.886474609375)"/>
<path d="M0 0 C-0.95951414 1.13118526 -1.92068827 2.26096261 -2.88256836 3.39013672 C-3.68518349 4.33407791 -3.68518349 4.33407791 -4.50401306 5.29708862 C-6.07652626 7.08711135 -7.7135947 8.62356878 -9.5625 10.125 C-13.40357775 13.39730278 -16.99280055 16.87546634 -20.5625 20.4375 C-21.09238525 20.9629541 -21.62227051 21.4884082 -22.16821289 22.02978516 C-25.03860792 24.91034479 -27.76753218 27.86116388 -30.4140625 30.94921875 C-33.96417564 35.04874832 -37.81686303 38.71527727 -41.8125 42.375 C-43.22505369 43.68501782 -44.63651307 44.99621658 -46.046875 46.30859375 C-47.06297852 47.25387939 -47.06297852 47.25387939 -48.09960938 48.21826172 C-53.35856115 53.14886681 -58.46156084 58.19640339 -63.1640625 63.6640625 C-67.49287069 68.64291872 -72.13838081 73.28493709 -76.8125 77.9375 C-78.09930664 79.23010742 -78.09930664 79.23010742 -79.41210938 80.54882812 C-80.23130859 81.36673828 -81.05050781 82.18464844 -81.89453125 83.02734375 C-82.63550049 83.76718506 -83.37646973 84.50702637 -84.13989258 85.26928711 C-86.57205303 87.53225934 -87.59028654 87.96513077 -90.9375 88.25 C-94 88 -94 88 -95.875 86.875 C-97.65952249 83.90079585 -97.64846 82.43683798 -97 79 C-95.65418625 77.18757629 -95.65418625 77.18757629 -93.89910889 75.25708008 C-93.26211815 74.55289948 -92.62512741 73.84871887 -91.96883392 73.12319946 C-91.31911873 72.42254364 -90.66940353 71.72188782 -90 71 C-89.43131447 70.38643646 -88.86262894 69.77287292 -88.27671051 69.14071655 C-86.5260233 67.27361894 -84.7604939 65.42182888 -82.98925781 63.57421875 C-82.32625168 62.88054703 -81.66324554 62.18687531 -80.98014832 61.47218323 C-74.90679676 55.13217896 -68.78128643 48.84316298 -62.63776016 42.57119751 C-58.52564699 38.37107412 -54.4337248 34.15473567 -50.38330078 29.89501953 C-46.44267769 25.75191191 -42.45644885 21.65808247 -38.43502045 17.59341431 C-36.92088819 16.04693321 -35.42328692 14.48406941 -33.94382477 12.90438843 C-23.18249341 1.44668544 -15.80771792 -2.38488216 0 0 Z " fill="#D5D4D8" transform="translate(104,416)"/>
<path d="M0 0 C1.81843918 0.00636726 1.81843918 0.00636726 3.6736145 0.01286316 C7.53524232 0.02961929 11.39634312 0.0672673 15.2578125 0.10546875 C17.88020078 0.12051949 20.50259727 0.13420721 23.125 0.14648438 C29.54447306 0.17951302 35.9635535 0.23127553 42.3828125 0.29296875 C42.3828125 7.22296875 42.3828125 14.15296875 42.3828125 21.29296875 C11.6928125 21.29296875 -18.9971875 21.29296875 -50.6171875 21.29296875 C-47.21562799 18.74179912 -44.04532894 16.81347693 -40.3125 14.82421875 C-39.71090057 14.50263794 -39.10930115 14.18105713 -38.48947144 13.84973145 C-36.57536331 12.82767491 -34.65877909 11.81035905 -32.7421875 10.79296875 C-31.46208512 10.10966429 -30.18213568 9.42607324 -28.90234375 8.7421875 C-25.47892933 6.91617444 -22.05419434 5.09333074 -18.6171875 3.29296875 C-17.7519043 2.73246826 -16.88662109 2.17196777 -15.99511719 1.59448242 C-10.73439627 -0.43246924 -5.58560356 -0.07378842 0 0 Z " fill="#FBD361" transform="translate(124.6171875,14.70703125)"/>
<path d="M0 0 C11.34169945 1.26018883 22.67662579 2.58457822 34 4 C34 15.88 34 27.76 34 40 C22.71908093 41.99075042 11.37676547 43.661557 0 45 C0 30.15 0 15.3 0 0 Z " fill="#2AA2D8" transform="translate(412,158)"/>
<path d="M0 0 C0.33 0 0.66 0 1 0 C1 10.56 1 21.12 1 32 C-13.85 32 -28.7 32 -44 32 C-44 25.07 -44 18.14 -44 11 C-41.74542969 11.04382813 -39.49085938 11.08765625 -37.16796875 11.1328125 C-34.9467912 11.14123092 -32.72628732 11.13243746 -30.50512695 11.12207031 C-28.97960831 11.1239987 -27.45399545 11.1433951 -25.92895508 11.18164062 C-15.12370849 11.44914312 -15.12370849 11.44914312 -5.94075012 6.34396362 C-3.86006004 4.3179854 -1.92325209 2.17462689 0 0 Z " fill="#3A556A" transform="translate(324,318)"/>
<path d="M0 0 C9.57 0 19.14 0 29 0 C29 6.93 29 13.86 29 21 C19.43 21 9.86 21 0 21 C0 14.07 0 7.14 0 0 Z " fill="#3D576C" transform="translate(39,329)"/>
<path d="M0 0 C4.01949494 2.04628833 6.60302176 4.20592587 9 8 C9.89991132 12.9130294 9.50962889 16.96186709 7.3125 21.4375 C3.48186572 25.68225691 0.76374334 27.17519153 -4.9375 27.5 C-8.46744225 27.38952491 -10.69514775 26.99711465 -13.5 24.8125 C-17.43210444 20.3888825 -18.47853051 16.98186932 -18.3203125 10.9921875 C-17.65641291 6.86305592 -15.19717867 4.06981923 -12.1640625 1.359375 C-8.34990444 -1.03652212 -4.34702258 -0.62492742 0 0 Z " fill="#D5D4D9" transform="translate(249,273)"/>
<path d="M0 0 C8.54830891 8.54830891 12.79370421 14.02506246 13.00698853 26.19354248 C13.0062303 27.83676308 12.99289858 29.48002195 12.9675293 31.12304688 C12.93744119 33.62989959 12.98778415 36.1265997 13.04492188 38.6328125 C13.12533538 51.94166241 13.12533538 51.94166241 8.19140625 57.0234375 C5.53356178 59.1627921 3.09469199 60.452654 0 62 C0 41.54 0 21.08 0 0 Z " fill="#FBD362" transform="translate(313,266)"/>
<path d="M0 0 C6.8098576 5.52150617 6.8098576 5.52150617 7.73046875 9.83203125 C7.91754281 14.49106606 6.97339751 17.97235031 4.3125 21.875 C0.75111109 25.17579948 -2.00468366 26.1500859 -6.75 26.3125 C-10.82740836 26.12883296 -13.53563129 25.64482402 -16.6875 22.875 C-20.26302873 18.92958898 -20.24685223 14.6394678 -20.109375 9.5390625 C-19.33461341 4.64658651 -16.76138176 2.44828961 -12.875 -0.5 C-8.3508447 -1.7926158 -4.2915455 -1.79646091 0 0 Z " fill="#D5D4D9" transform="translate(109.6875,271.125)"/>
<path d="M0 0 C7.26 0.33 14.52 0.66 22 1 C22 9.58 22 18.16 22 27 C12 28 12 28 0 28 C0 18.76 0 9.52 0 0 Z " fill="#2E93B9" transform="translate(473,166)"/>
<path d="M0 0 C0 10.56 0 21.12 0 32 C-14.85 32 -29.7 32 -45 32 C-45 31.67 -45 31.34 -45 31 C-34.11 31 -23.22 31 -12 31 C-12.226875 27.74125 -12.45375 24.4825 -12.6875 21.125 C-13.04535743 10.59249473 -13.04535743 10.59249473 -9.5859375 6.37890625 C-3.03195387 0 -3.03195387 0 0 0 Z " fill="#697D8D" transform="translate(325,318)"/>
<path d="M0 0 C2.07080078 0.87939453 2.07080078 0.87939453 2.95019531 2.95019531 C3.08983913 6.34178741 2.7513921 6.6838045 0.6015625 9.125 C-0.58222565 10.34844697 -1.78395585 11.55469244 -2.99951172 12.74658203 C-3.6327536 13.38556427 -4.26599548 14.02454651 -4.91842651 14.68289185 C-6.26132404 16.02987245 -7.61182904 17.36930485 -8.96923828 18.70166016 C-11.04667692 20.7469885 -13.09020215 22.82230941 -15.13232422 24.90283203 C-16.44030056 26.20684353 -17.75013691 27.50899257 -19.06201172 28.80908203 C-19.67368195 29.43289764 -20.28535217 30.05671326 -20.91555786 30.69943237 C-22.53380551 32.26522349 -24.02769788 33.67312893 -25.92919922 34.87939453 C-28.85839844 34.75878906 -28.85839844 34.75878906 -30.92919922 33.87939453 C-31.80859375 31.80859375 -31.80859375 31.80859375 -31.92919922 28.87939453 C-30.26420147 26.25476903 -28.07047283 24.18073464 -25.85888672 22.01220703 C-25.22564484 21.37322479 -24.59240295 20.73424255 -23.93997192 20.07589722 C-22.59707439 18.72891661 -21.2465694 17.38948422 -19.88916016 16.05712891 C-17.81172152 14.01180057 -15.76819629 11.93647966 -13.72607422 9.85595703 C-12.41809788 8.55194553 -11.10826152 7.24979649 -9.79638672 5.94970703 C-9.18471649 5.32589142 -8.57304626 4.70207581 -7.94284058 4.05935669 C-3.59453113 -0.14799953 -3.59453113 -0.14799953 0 0 Z " fill="#F9FAFA" transform="translate(261.92919921875,362.12060546875)"/>
<path d="M0 0 C5.35527717 0.14858854 8.09004866 3.47748866 11.6484375 7.046875 C12.57361679 7.95919891 12.57361679 7.95919891 13.51748657 8.88995361 C14.8150815 10.17608397 16.10749578 11.46745951 17.39501953 12.76367188 C19.37181704 14.74680683 21.37380813 16.70178319 23.37890625 18.65625 C24.63703596 19.90983527 25.8936021 21.16499215 27.1484375 22.421875 C27.75037933 23.00539734 28.35232117 23.58891968 28.97250366 24.19012451 C30.62255859 25.87792969 30.62255859 25.87792969 33 29 C32.86572266 31.91113281 32.86572266 31.91113281 32 34 C29.92919922 34.87939453 29.92919922 34.87939453 27 35 C24.3753745 33.33500225 22.30134011 31.14127361 20.1328125 28.9296875 C19.49383026 28.29644562 18.85484802 27.66320374 18.19650269 27.01077271 C16.84952208 25.66787517 15.51008968 24.31737018 14.17773438 22.95996094 C12.13240603 20.8825223 10.05708513 18.83899707 7.9765625 16.796875 C6.672551 15.48889866 5.37040196 14.17906231 4.0703125 12.8671875 C3.44649689 12.25551727 2.82268127 11.64384705 2.17996216 11.01364136 C0.61540186 9.39666576 -0.78927495 7.89641813 -2 6 C-1.9459771 3.33471877 -1.907356 1.907356 0 0 Z " fill="#F9F9FA" transform="translate(57,362)"/>
<path d="M0 0 C3.1339428 0.34371527 4.82056 1.43640843 7.0402832 3.60449219 C7.88554314 4.42104279 7.88554314 4.42104279 8.74787903 5.25408936 C9.34283676 5.84570862 9.93779449 6.43732788 10.55078125 7.046875 C11.16898239 7.65509094 11.78718353 8.26330688 12.42411804 8.88995361 C13.72655051 10.17721361 15.02495279 11.4685623 16.31958008 12.76367188 C18.30720068 14.74471821 20.31755926 16.70054304 22.33007812 18.65625 C23.59261169 19.90998392 24.85372929 21.16514568 26.11328125 22.421875 C27.02089958 23.29715851 27.02089958 23.29715851 27.94685364 24.19012451 C29.60668945 25.87792969 29.60668945 25.87792969 32 29 C31.86791992 31.91113281 31.86791992 31.91113281 31 34 C28.91333008 34.86572266 28.91333008 34.86572266 26 35 C23.52727398 33.12655365 21.53255257 31.35017016 19.38671875 29.1484375 C18.77230423 28.53739166 18.15788971 27.92634583 17.52485657 27.29678345 C16.22923125 26.00085912 14.94107053 24.69743523 13.65991211 23.38720703 C11.69638224 21.38406145 9.70527667 19.41184302 7.70898438 17.44140625 C6.45396896 16.17883056 5.20065443 14.91456142 3.94921875 13.6484375 C3.05404793 12.76374283 3.05404793 12.76374283 2.14079285 11.86117554 C-1.87429381 7.70605492 -1.87429381 7.70605492 -2.49682617 4.20947266 C-2 2 -2 2 0 0 Z " fill="#F9FAFB" transform="translate(85,362)"/>
<path d="M0 0 C2.11009925 0.28681196 3.47439981 0.47439981 5 2 C5.4206543 4.16503906 5.4206543 4.16503906 5 7 C3.15651635 9.32841346 1.37840916 11.29913096 -0.73046875 13.359375 C-1.31790359 13.9492218 -1.90533844 14.5390686 -2.51057434 15.14678955 C-3.75466953 16.38990618 -5.00498398 17.6268253 -6.26098633 18.85791016 C-8.17893071 20.74158383 -10.07177276 22.64803057 -11.96289062 24.55859375 C-13.17565522 25.76445882 -14.38980373 26.96893399 -15.60546875 28.171875 C-16.17025436 28.74162048 -16.73503998 29.31136597 -17.31694031 29.89837646 C-20.35616019 32.84849667 -22.63142498 34.97891198 -27 35 C-29 33 -29 33 -29.00512695 30.79052734 C-27.54841924 26.74627932 -24.93555306 24.34398217 -21.91796875 21.3515625 C-21.30738113 20.73477631 -20.69679352 20.11799011 -20.06770325 19.48251343 C-18.77727914 18.18499902 -17.48171094 16.89258302 -16.18139648 15.60498047 C-14.18911752 13.62660623 -12.22204692 11.6253619 -10.25585938 9.62109375 C-8.99884751 8.36313108 -7.74043059 7.1065705 -6.48046875 5.8515625 C-5.89178513 5.24962067 -5.3031015 4.64767883 -4.69657898 4.02749634 C-3.00854492 2.37744141 -3.00854492 2.37744141 0 0 Z " fill="#F9FAFB" transform="translate(287,362)"/>
<path d="M0 0 C18.15 0 36.3 0 55 0 C53.36591376 3.26817247 52.45129642 4.79828626 49.99609375 7.234375 C49.42052734 7.80800781 48.84496094 8.38164062 48.25195312 8.97265625 C47.65318359 9.55917969 47.05441406 10.14570313 46.4375 10.75 C45.83486328 11.35199219 45.23222656 11.95398438 44.61132812 12.57421875 C40.14038584 17 40.14038584 17 39 17 C39 11.72 39 6.44 39 1 C26.13 1 13.26 1 0 1 C0 0.67 0 0.34 0 0 Z " fill="#728695" transform="translate(274,357)"/>
</svg>
