<svg xmlns="http://www.w3.org/2000/svg" xmlns:xlink="http://www.w3.org/1999/xlink" width="40" zoomAndPan="magnify" viewBox="0 0 30 30.000001" height="40" preserveAspectRatio="xMidYMid meet" version="1.0"><defs><g/><clipPath id="3719365be2"><path d="M 0.484375 12 L 1 12 L 1 15 L 0.484375 15 Z M 0.484375 12 " clip-rule="nonzero"/></clipPath><clipPath id="002915fc75"><path d="M 0.484375 7.546875 L 29.515625 7.546875 L 29.515625 20 L 0.484375 20 Z M 0.484375 7.546875 " clip-rule="nonzero"/></clipPath><clipPath id="d7d0d8b23f"><path d="M 0.484375 18 L 29.515625 18 L 29.515625 20 L 0.484375 20 Z M 0.484375 18 " clip-rule="nonzero"/></clipPath><clipPath id="0d88ea3e8b"><path d="M 0.484375 17 L 29.515625 17 L 29.515625 19 L 0.484375 19 Z M 0.484375 17 " clip-rule="nonzero"/></clipPath><clipPath id="ad42236fa4"><path d="M 27 14 L 29.515625 14 L 29.515625 17 L 27 17 Z M 27 14 " clip-rule="nonzero"/></clipPath><clipPath id="dcdb7fb1df"><path d="M 2 16 L 27 16 L 27 21.339844 L 2 21.339844 Z M 2 16 " clip-rule="nonzero"/></clipPath><clipPath id="19d72059df"><path d="M 0.484375 14 L 2 14 L 2 18 L 0.484375 18 Z M 0.484375 14 " clip-rule="nonzero"/></clipPath><clipPath id="c60ca4d6b2"><path d="M 0.484375 7.546875 L 4 7.546875 L 4 11 L 0.484375 11 Z M 0.484375 7.546875 " clip-rule="nonzero"/></clipPath><clipPath id="082fc45b2f"><path d="M 0.484375 18 L 3 18 L 3 20 L 0.484375 20 Z M 0.484375 18 " clip-rule="nonzero"/></clipPath><clipPath id="ec7f438bfa"><path d="M 27 18 L 29.515625 18 L 29.515625 20 L 27 20 Z M 27 18 " clip-rule="nonzero"/></clipPath><clipPath id="c69c1b4607"><path d="M 25 12 L 29.515625 12 L 29.515625 16 L 25 16 Z M 25 12 " clip-rule="nonzero"/></clipPath><clipPath id="d12ec39f3a"><path d="M 6 7.546875 L 15 7.546875 L 15 8 L 6 8 Z M 6 7.546875 " clip-rule="nonzero"/></clipPath><clipPath id="9d1178b14a"><path d="M 16 7.546875 L 20 7.546875 L 20 8 L 16 8 Z M 16 7.546875 " clip-rule="nonzero"/></clipPath><clipPath id="8d1a864747"><path d="M 21 7.546875 L 25 7.546875 L 25 11 L 21 11 Z M 21 7.546875 " clip-rule="nonzero"/></clipPath><clipPath id="ff6859f31f"><path d="M 0.484375 25 L 2 25 L 2 29 L 0.484375 29 Z M 0.484375 25 " clip-rule="nonzero"/></clipPath><clipPath id="d053314209"><path d="M 0.484375 2 L 1 2 L 1 3 L 0.484375 3 Z M 0.484375 2 " clip-rule="nonzero"/></clipPath><clipPath id="178218c01d"><rect x="0" width="2" y="0" height="4"/></clipPath></defs><g clip-path="url(#3719365be2)"><path fill="#000000" d="M 0.511719 12.15625 L 0.558594 13.757812 L 0.570312 14.210938 C 0.570312 14.3125 0.621094 14.363281 0.722656 14.363281 C 0.828125 14.363281 0.878906 14.3125 0.878906 14.210938 L 0.832031 12.609375 L 0.820312 12.15625 C 0.820312 12.054688 0.765625 12.003906 0.664062 12.003906 C 0.5625 12.003906 0.511719 12.054688 0.511719 12.15625 Z M 0.511719 12.15625 " fill-opacity="1" fill-rule="nonzero"/></g><g clip-path="url(#002915fc75)"><path fill="#fed404" d="M 0.71875 8.972656 C 0.707031 12.191406 0.695312 15.410156 0.683594 18.625 C 0.6875 18.960938 0.820312 19.085938 1.078125 19.09375 L 2.421875 19.09375 C 2.421875 18.792969 2.480469 18.507812 2.59375 18.234375 C 2.710938 17.957031 2.875 17.714844 3.085938 17.503906 C 3.300781 17.292969 3.542969 17.132812 3.820312 17.019531 C 4.101562 16.90625 4.390625 16.847656 4.6875 16.847656 C 4.988281 16.847656 5.277344 16.90625 5.554688 17.019531 C 5.835938 17.132812 6.078125 17.292969 6.292969 17.503906 C 6.503906 17.714844 6.667969 17.957031 6.78125 18.234375 C 6.898438 18.507812 6.957031 18.792969 6.957031 19.09375 L 22.4375 19.097656 L 22.4375 19.089844 C 22.4375 18.792969 22.492188 18.507812 22.609375 18.230469 C 22.722656 17.957031 22.886719 17.714844 23.101562 17.503906 C 23.3125 17.292969 23.558594 17.132812 23.835938 17.015625 C 24.113281 16.902344 24.402344 16.847656 24.703125 16.847656 C 25.003906 16.847656 25.292969 16.902344 25.570312 17.015625 C 25.847656 17.132812 26.09375 17.292969 26.304688 17.503906 C 26.519531 17.714844 26.679688 17.957031 26.796875 18.230469 C 26.910156 18.507812 26.96875 18.792969 26.96875 19.089844 L 26.96875 19.101562 L 28.734375 19.101562 C 29.046875 18.949219 29.277344 18.644531 29.390625 18.132812 C 29.804688 15.851562 28.566406 15.253906 27.792969 14.183594 L 23.210938 9.144531 C 22.347656 8.277344 21.34375 7.738281 20.128906 7.710938 L 1.972656 7.710938 C 1.273438 7.742188 0.746094 8.027344 0.71875 8.972656 Z M 0.71875 8.972656 " fill-opacity="1" fill-rule="evenodd"/></g><g clip-path="url(#d7d0d8b23f)"><path fill="#fea406" d="M 0.691406 18.730469 C 0.71875 18.988281 0.851562 19.085938 1.082031 19.09375 L 2.425781 19.09375 C 2.421875 18.730469 2.507812 18.390625 2.671875 18.070312 L 0.691406 18.070312 Z M 6.707031 18.070312 C 6.875 18.394531 6.957031 18.734375 6.953125 19.09375 L 22.433594 19.101562 L 22.433594 19.09375 C 22.433594 18.734375 22.515625 18.390625 22.683594 18.070312 Z M 26.722656 18.070312 C 26.886719 18.394531 26.96875 18.734375 26.96875 19.09375 L 26.96875 19.101562 L 28.734375 19.101562 C 29.046875 18.953125 29.277344 18.644531 29.390625 18.132812 C 29.394531 18.113281 29.398438 18.09375 29.402344 18.070312 Z M 26.722656 18.070312 " fill-opacity="1" fill-rule="evenodd"/></g><path fill="#fea406" d="M 1.804688 19.09375 L 2.421875 19.09375 C 2.421875 18.792969 2.480469 18.507812 2.59375 18.234375 C 2.710938 17.957031 2.875 17.714844 3.085938 17.503906 C 3.300781 17.292969 3.542969 17.132812 3.820312 17.019531 C 4.101562 16.90625 4.390625 16.847656 4.6875 16.847656 C 4.988281 16.847656 5.277344 16.90625 5.554688 17.019531 C 5.835938 17.132812 6.078125 17.292969 6.292969 17.503906 C 6.503906 17.714844 6.667969 17.957031 6.78125 18.234375 C 6.898438 18.507812 6.957031 18.792969 6.957031 19.09375 L 7.527344 19.09375 C 7.527344 18.714844 7.453125 18.355469 7.308594 18.007812 C 7.164062 17.660156 6.957031 17.355469 6.6875 17.089844 C 6.421875 16.824219 6.113281 16.617188 5.761719 16.472656 C 5.410156 16.332031 5.046875 16.257812 4.667969 16.257812 C 4.289062 16.257812 3.921875 16.332031 3.570312 16.472656 C 3.222656 16.617188 2.910156 16.820312 2.644531 17.085938 C 2.375 17.351562 2.167969 17.660156 2.023438 18.007812 C 1.878906 18.355469 1.804688 18.714844 1.804688 19.089844 Z M 21.820312 19.09375 L 22.4375 19.09375 C 22.4375 18.792969 22.492188 18.507812 22.609375 18.234375 C 22.722656 17.957031 22.886719 17.714844 23.101562 17.503906 C 23.3125 17.292969 23.558594 17.132812 23.835938 17.019531 C 24.113281 16.90625 24.402344 16.847656 24.703125 16.847656 C 25.003906 16.847656 25.292969 16.90625 25.570312 17.019531 C 25.847656 17.132812 26.09375 17.292969 26.304688 17.503906 C 26.519531 17.714844 26.679688 17.957031 26.796875 18.234375 C 26.910156 18.507812 26.96875 18.792969 26.96875 19.09375 L 27.539062 19.09375 C 27.539062 18.714844 27.46875 18.355469 27.324219 18.007812 C 27.175781 17.660156 26.96875 17.355469 26.703125 17.089844 C 26.433594 16.824219 26.125 16.617188 25.773438 16.472656 C 25.421875 16.332031 25.058594 16.257812 24.679688 16.257812 C 24.300781 16.257812 23.933594 16.332031 23.582031 16.472656 C 23.234375 16.617188 22.921875 16.824219 22.65625 17.089844 C 22.386719 17.355469 22.179688 17.660156 22.035156 18.007812 C 21.890625 18.355469 21.816406 18.714844 21.816406 19.09375 Z M 21.820312 19.09375 " fill-opacity="1" fill-rule="evenodd"/><g clip-path="url(#0d88ea3e8b)"><path fill="#012840" d="M 0.691406 17.140625 L 0.691406 18.070312 L 1.996094 18.070312 C 2.132812 17.722656 2.332031 17.410156 2.59375 17.140625 Z M 3.238281 17.371094 L 3.261719 17.351562 Z M 3.320312 17.304688 L 3.347656 17.285156 Z M 3.457031 17.210938 L 3.480469 17.195312 Z M 3.503906 17.183594 L 3.53125 17.164062 Z M 3.546875 17.15625 L 3.574219 17.140625 Z M 5.804688 17.140625 L 5.835938 17.15625 Z M 5.898438 17.195312 L 5.925781 17.210938 Z M 5.941406 17.222656 C 5.953125 17.230469 5.964844 17.234375 5.972656 17.242188 C 5.964844 17.234375 5.953125 17.230469 5.941406 17.222656 Z M 5.988281 17.253906 L 6.015625 17.273438 Z M 6.035156 17.285156 L 6.0625 17.304688 Z M 6.078125 17.316406 C 6.085938 17.324219 6.09375 17.332031 6.105469 17.335938 C 6.09375 17.332031 6.085938 17.324219 6.078125 17.316406 Z M 6.164062 17.386719 L 6.1875 17.40625 Z M 7.335938 18.070312 L 22.011719 18.070312 C 22.148438 17.722656 22.347656 17.410156 22.609375 17.140625 L 6.738281 17.140625 C 7 17.410156 7.199219 17.722656 7.335938 18.070312 Z M 23.25 17.371094 L 23.273438 17.351562 Z M 23.292969 17.335938 L 23.316406 17.316406 Z M 23.332031 17.304688 L 23.359375 17.285156 Z M 23.421875 17.242188 L 23.449219 17.222656 Z M 23.46875 17.210938 L 23.496094 17.191406 Z M 23.515625 17.179688 L 23.546875 17.164062 Z M 23.558594 17.15625 L 23.585938 17.140625 Z M 25.820312 17.140625 L 25.847656 17.15625 Z M 25.910156 17.191406 L 25.9375 17.210938 Z M 25.957031 17.222656 L 25.984375 17.242188 Z M 26 17.253906 L 26.027344 17.269531 Z M 26.046875 17.285156 L 26.074219 17.304688 Z M 26.089844 17.316406 L 26.117188 17.335938 Z M 26.175781 17.386719 L 26.199219 17.40625 Z M 27.347656 18.070312 L 29.402344 18.070312 C 29.457031 17.761719 29.480469 17.449219 29.46875 17.136719 L 26.75 17.136719 C 27.011719 17.410156 27.210938 17.722656 27.347656 18.070312 Z M 27.347656 18.070312 " fill-opacity="1" fill-rule="evenodd"/></g><g clip-path="url(#ad42236fa4)"><path fill="#e6f1f0" d="M 29.414062 16.65625 C 29.191406 15.507812 28.367188 14.976562 27.792969 14.1875 C 27.4375 14.59375 27.394531 14.96875 27.65625 15.3125 C 28.070312 15.855469 28.882812 16.425781 29.414062 16.65625 Z M 29.414062 16.65625 " fill-opacity="1" fill-rule="evenodd"/></g><g clip-path="url(#dcdb7fb1df)"><path fill="#012840" d="M 4.6875 16.847656 C 4.988281 16.847656 5.277344 16.90625 5.558594 17.019531 C 5.835938 17.132812 6.078125 17.296875 6.292969 17.507812 C 6.503906 17.71875 6.667969 17.960938 6.785156 18.234375 C 6.898438 18.507812 6.957031 18.796875 6.957031 19.09375 C 6.957031 19.390625 6.898438 19.675781 6.785156 19.953125 C 6.667969 20.226562 6.503906 20.46875 6.292969 20.679688 C 6.078125 20.890625 5.835938 21.054688 5.558594 21.167969 C 5.28125 21.28125 4.988281 21.339844 4.691406 21.339844 C 4.390625 21.339844 4.101562 21.28125 3.820312 21.167969 C 3.542969 21.054688 3.300781 20.890625 3.085938 20.679688 C 2.875 20.46875 2.710938 20.226562 2.59375 19.953125 C 2.480469 19.675781 2.421875 19.390625 2.421875 19.09375 C 2.421875 18.796875 2.480469 18.507812 2.59375 18.234375 C 2.710938 17.960938 2.875 17.71875 3.085938 17.507812 C 3.300781 17.296875 3.542969 17.132812 3.820312 17.019531 C 4.097656 16.90625 4.390625 16.847656 4.6875 16.847656 Z M 24.703125 16.847656 C 25.003906 16.847656 25.292969 16.90625 25.570312 17.019531 C 25.847656 17.132812 26.09375 17.296875 26.304688 17.507812 C 26.519531 17.71875 26.683594 17.960938 26.796875 18.234375 C 26.910156 18.507812 26.96875 18.796875 26.96875 19.09375 C 26.96875 19.390625 26.914062 19.675781 26.796875 19.953125 C 26.683594 20.226562 26.519531 20.46875 26.304688 20.679688 C 26.09375 20.890625 25.847656 21.054688 25.570312 21.167969 C 25.292969 21.28125 25.003906 21.339844 24.703125 21.339844 C 24.402344 21.339844 24.113281 21.28125 23.835938 21.167969 C 23.558594 21.054688 23.3125 20.890625 23.101562 20.679688 C 22.886719 20.46875 22.722656 20.226562 22.609375 19.953125 C 22.492188 19.675781 22.4375 19.390625 22.4375 19.09375 C 22.4375 18.796875 22.492188 18.507812 22.609375 18.234375 C 22.722656 17.960938 22.886719 17.714844 23.101562 17.507812 C 23.3125 17.296875 23.558594 17.132812 23.835938 17.019531 C 24.113281 16.90625 24.402344 16.847656 24.703125 16.847656 Z M 24.703125 16.847656 " fill-opacity="1" fill-rule="evenodd"/></g><path fill="#e6f1f0" d="M 4.6875 20.550781 C 4.882812 20.550781 5.070312 20.511719 5.253906 20.4375 C 5.433594 20.367188 5.589844 20.261719 5.730469 20.125 C 5.867188 19.988281 5.972656 19.828125 6.046875 19.652344 C 6.125 19.472656 6.160156 19.285156 6.160156 19.09375 C 6.160156 18.898438 6.125 18.714844 6.046875 18.535156 C 5.972656 18.355469 5.867188 18.199219 5.730469 18.0625 C 5.589844 17.925781 5.433594 17.820312 5.253906 17.746094 C 5.070312 17.671875 4.882812 17.636719 4.6875 17.636719 C 4.492188 17.636719 4.304688 17.671875 4.125 17.746094 C 3.945312 17.820312 3.785156 17.925781 3.648438 18.0625 C 3.511719 18.199219 3.40625 18.359375 3.328125 18.535156 C 3.253906 18.714844 3.21875 18.902344 3.21875 19.09375 C 3.21875 19.285156 3.257812 19.472656 3.332031 19.652344 C 3.40625 19.828125 3.511719 19.984375 3.648438 20.121094 C 3.789062 20.257812 3.945312 20.363281 4.125 20.4375 C 4.308594 20.511719 4.496094 20.550781 4.6875 20.550781 Z M 4.6875 20.550781 " fill-opacity="1" fill-rule="evenodd"/><path fill="#e6f1f0" d="M 24.703125 20.550781 C 24.898438 20.550781 25.085938 20.511719 25.265625 20.4375 C 25.449219 20.367188 25.605469 20.261719 25.746094 20.125 C 25.882812 19.988281 25.988281 19.828125 26.0625 19.652344 C 26.136719 19.472656 26.175781 19.285156 26.175781 19.09375 C 26.175781 18.898438 26.136719 18.714844 26.0625 18.535156 C 25.988281 18.355469 25.882812 18.199219 25.746094 18.0625 C 25.605469 17.925781 25.449219 17.820312 25.265625 17.746094 C 25.085938 17.671875 24.898438 17.636719 24.703125 17.636719 C 24.507812 17.636719 24.320312 17.671875 24.140625 17.746094 C 23.960938 17.820312 23.800781 17.925781 23.664062 18.0625 C 23.527344 18.199219 23.417969 18.359375 23.34375 18.535156 C 23.269531 18.714844 23.234375 18.902344 23.234375 19.09375 C 23.234375 19.285156 23.269531 19.472656 23.347656 19.652344 C 23.421875 19.828125 23.527344 19.984375 23.664062 20.121094 C 23.800781 20.257812 23.960938 20.363281 24.140625 20.4375 C 24.320312 20.511719 24.507812 20.550781 24.703125 20.550781 Z M 24.703125 20.550781 " fill-opacity="1" fill-rule="evenodd"/><path fill="#e6f1f0" d="M 1.398438 8.777344 L 17.570312 8.777344 L 17.570312 12.601562 L 1.398438 12.601562 Z M 1.398438 8.777344 " fill-opacity="1" fill-rule="nonzero"/><path fill="#012840" d="M 1.398438 8.695312 L 17.65625 8.695312 L 17.65625 12.683594 L 1.316406 12.683594 L 1.316406 8.695312 Z M 17.488281 8.859375 L 1.480469 8.859375 L 1.480469 12.519531 L 17.488281 12.519531 Z M 17.488281 8.859375 " fill-opacity="1" fill-rule="evenodd"/><g clip-path="url(#19d72059df)"><path fill="#c93600" d="M 0.691406 17.140625 L 0.699219 14.613281 C 1.03125 14.660156 1.613281 14.90625 1.597656 15.269531 L 1.597656 17.140625 Z M 0.691406 17.140625 " fill-opacity="1" fill-rule="evenodd"/></g><path fill="#012840" d="M 18.566406 12.667969 L 18.566406 8.707031 L 20.328125 8.71875 L 20.332031 8.71875 C 20.769531 8.742188 21.160156 8.945312 21.503906 9.328125 L 23.933594 12.1875 L 23.863281 12.667969 Z M 18.566406 12.667969 " fill-opacity="1" fill-rule="evenodd"/><path fill="#e6f1f0" d="M 20.324219 8.863281 L 18.710938 8.851562 L 18.710938 12.523438 L 23.738281 12.523438 L 23.78125 12.226562 L 21.394531 9.421875 C 21.058594 9.042969 20.699219 8.878906 20.324219 8.863281 Z M 20.324219 8.863281 " fill-opacity="1" fill-rule="evenodd"/><path fill="#fea406" d="M 22.753906 12.746094 L 23.96875 12.707031 C 24.304688 12.652344 24.414062 12.214844 24.078125 12.007812 C 23.230469 11.5 22.761719 11.378906 22.671875 11.648438 C 22.386719 12.414062 22.414062 12.78125 22.753906 12.746094 Z M 22.753906 12.746094 " fill-opacity="1" fill-rule="evenodd"/><path fill="#fea406" d="M 18.957031 13.28125 L 19.824219 13.28125 C 19.921875 13.28125 19.972656 13.332031 19.972656 13.429688 C 19.972656 13.527344 19.921875 13.574219 19.824219 13.574219 L 18.957031 13.574219 C 18.859375 13.574219 18.808594 13.527344 18.808594 13.429688 C 18.808594 13.332031 18.859375 13.28125 18.957031 13.28125 Z M 18.957031 13.28125 " fill-opacity="1" fill-rule="evenodd"/><path fill="#fea406" d="M 18.101562 9.027344 C 18.039062 12.574219 18.058594 15.078125 18.152344 16.53125 C 18.367188 14.09375 18.351562 11.59375 18.101562 9.027344 Z M 18.101562 9.027344 " fill-opacity="1" fill-rule="evenodd"/><path fill="#fea406" d="M 25.007812 12.777344 C 24.964844 14.226562 24.976562 15.246094 25.046875 15.839844 C 25.207031 14.847656 25.195312 13.824219 25.007812 12.777344 Z M 25.007812 12.777344 " fill-opacity="1" fill-rule="evenodd"/><g clip-path="url(#c60ca4d6b2)"><path fill="#000000" d="M 2.894531 7.578125 C 2.609375 7.554688 2.320312 7.554688 2.035156 7.578125 C 1.765625 7.597656 1.488281 7.640625 1.25 7.78125 C 1.039062 7.910156 0.878906 8.089844 0.773438 8.316406 C 0.65625 8.558594 0.601562 8.824219 0.582031 9.089844 C 0.5625 9.40625 0.574219 9.726562 0.578125 10.042969 C 0.578125 10.144531 0.628906 10.195312 0.730469 10.195312 C 0.835938 10.195312 0.886719 10.144531 0.886719 10.042969 C 0.882812 9.773438 0.875 9.5 0.882812 9.230469 C 0.886719 9.164062 0.890625 9.097656 0.894531 9.035156 C 0.898438 9.003906 0.902344 8.972656 0.90625 8.941406 C 0.90625 8.9375 0.910156 8.910156 0.90625 8.9375 C 0.90625 8.929688 0.90625 8.925781 0.910156 8.917969 C 0.910156 8.898438 0.914062 8.882812 0.917969 8.867188 C 0.9375 8.75 0.96875 8.636719 1.011719 8.527344 L 1.019531 8.511719 C 1.027344 8.484375 1.019531 8.511719 1.019531 8.515625 C 1.019531 8.503906 1.027344 8.492188 1.03125 8.480469 C 1.046875 8.457031 1.058594 8.429688 1.074219 8.402344 C 1.097656 8.355469 1.125 8.3125 1.15625 8.269531 L 1.167969 8.253906 C 1.179688 8.238281 1.152344 8.273438 1.167969 8.257812 C 1.171875 8.25 1.179688 8.238281 1.1875 8.230469 C 1.207031 8.210938 1.226562 8.191406 1.242188 8.167969 C 1.261719 8.148438 1.28125 8.132812 1.300781 8.117188 L 1.328125 8.089844 C 1.34375 8.082031 1.324219 8.097656 1.324219 8.097656 C 1.328125 8.089844 1.335938 8.085938 1.347656 8.082031 C 1.394531 8.046875 1.441406 8.019531 1.496094 7.996094 L 1.511719 7.988281 C 1.535156 7.976562 1.492188 7.996094 1.511719 7.988281 L 1.550781 7.972656 C 1.578125 7.960938 1.609375 7.953125 1.644531 7.941406 C 1.699219 7.925781 1.757812 7.914062 1.816406 7.90625 L 1.863281 7.898438 C 1.894531 7.894531 1.84375 7.898438 1.875 7.894531 C 1.90625 7.890625 1.9375 7.890625 1.96875 7.886719 C 2.277344 7.859375 2.585938 7.855469 2.894531 7.878906 C 3 7.878906 3.050781 7.828125 3.050781 7.726562 C 3.046875 7.628906 2.996094 7.578125 2.894531 7.574219 Z M 2.894531 7.578125 " fill-opacity="1" fill-rule="nonzero"/></g><g clip-path="url(#082fc45b2f)"><path fill="#000000" d="M 1.015625 19.214844 L 2.417969 19.230469 C 2.519531 19.230469 2.570312 19.179688 2.570312 19.078125 C 2.570312 18.976562 2.519531 18.925781 2.417969 18.925781 L 1.015625 18.910156 C 0.910156 18.910156 0.859375 18.960938 0.859375 19.0625 C 0.859375 19.164062 0.910156 19.214844 1.015625 19.214844 Z M 1.015625 19.214844 " fill-opacity="1" fill-rule="nonzero"/></g><path fill="#000000" d="M 7.460938 19.246094 L 8.488281 19.246094 C 8.59375 19.246094 8.644531 19.195312 8.644531 19.097656 C 8.644531 18.996094 8.59375 18.945312 8.488281 18.945312 L 7.460938 18.945312 C 7.355469 18.945312 7.304688 18.996094 7.304688 19.097656 C 7.304688 19.195312 7.355469 19.246094 7.460938 19.246094 Z M 7.460938 19.246094 " fill-opacity="1" fill-rule="nonzero"/><path fill="#000000" d="M 10.640625 19.261719 C 11.511719 19.246094 12.378906 19.234375 13.25 19.234375 C 14.117188 19.230469 14.984375 19.238281 15.847656 19.253906 C 16.335938 19.261719 16.824219 19.273438 17.3125 19.285156 C 17.414062 19.285156 17.46875 19.234375 17.46875 19.132812 C 17.464844 19.035156 17.414062 18.984375 17.3125 18.980469 C 16.445312 18.957031 15.574219 18.941406 14.707031 18.933594 C 13.835938 18.925781 12.96875 18.925781 12.105469 18.9375 C 11.617188 18.941406 11.128906 18.949219 10.640625 18.957031 C 10.539062 18.957031 10.488281 19.007812 10.488281 19.109375 C 10.488281 19.210938 10.539062 19.261719 10.640625 19.261719 Z M 10.640625 19.261719 " fill-opacity="1" fill-rule="nonzero"/><path fill="#000000" d="M 18.910156 19.253906 L 20.265625 19.253906 C 20.367188 19.253906 20.417969 19.203125 20.417969 19.105469 C 20.417969 19.003906 20.367188 18.953125 20.265625 18.953125 L 18.910156 18.953125 C 18.804688 18.953125 18.753906 19.003906 18.753906 19.105469 C 18.753906 19.203125 18.804688 19.253906 18.910156 19.253906 Z M 18.910156 19.253906 " fill-opacity="1" fill-rule="nonzero"/><g clip-path="url(#ec7f438bfa)"><path fill="#000000" d="M 29.203125 18.25 C 29.152344 18.382812 29.089844 18.507812 29.015625 18.628906 C 28.996094 18.65625 28.980469 18.679688 28.960938 18.707031 C 28.976562 18.683594 28.949219 18.71875 28.941406 18.722656 C 28.933594 18.738281 28.921875 18.75 28.910156 18.761719 C 28.890625 18.78125 28.867188 18.804688 28.84375 18.820312 C 28.832031 18.828125 28.808594 18.847656 28.832031 18.832031 C 28.816406 18.839844 28.800781 18.851562 28.785156 18.863281 C 28.761719 18.878906 28.734375 18.890625 28.707031 18.90625 C 28.695312 18.910156 28.695312 18.917969 28.710938 18.90625 C 28.703125 18.910156 28.699219 18.910156 28.691406 18.910156 C 28.675781 18.917969 28.660156 18.921875 28.640625 18.929688 C 28.625 18.933594 28.613281 18.933594 28.601562 18.9375 C 28.597656 18.9375 28.570312 18.941406 28.585938 18.941406 C 28.601562 18.9375 28.574219 18.941406 28.570312 18.941406 C 28.53125 18.941406 28.488281 18.941406 28.449219 18.941406 C 28.296875 18.933594 28.140625 18.929688 27.988281 18.921875 L 27.453125 18.90625 C 27.351562 18.90625 27.300781 18.957031 27.300781 19.058594 C 27.304688 19.15625 27.355469 19.207031 27.453125 19.207031 C 27.785156 19.21875 28.113281 19.234375 28.441406 19.242188 C 28.605469 19.253906 28.761719 19.222656 28.90625 19.144531 C 29.039062 19.066406 29.148438 18.964844 29.238281 18.839844 C 29.335938 18.707031 29.402344 18.554688 29.46875 18.402344 C 29.488281 18.367188 29.496094 18.328125 29.484375 18.285156 C 29.472656 18.246094 29.449219 18.214844 29.414062 18.195312 C 29.347656 18.160156 29.238281 18.171875 29.203125 18.25 Z M 29.203125 18.25 " fill-opacity="1" fill-rule="nonzero"/></g><g clip-path="url(#c69c1b4607)"><path fill="#000000" d="M 25.992188 12.480469 C 26.40625 12.914062 26.8125 13.355469 27.210938 13.804688 C 27.605469 14.253906 27.992188 14.707031 28.371094 15.167969 C 28.585938 15.429688 28.792969 15.691406 29.003906 15.957031 C 29.050781 16.019531 29.167969 16.011719 29.21875 15.957031 C 29.28125 15.890625 29.273438 15.808594 29.21875 15.742188 C 28.851562 15.269531 28.472656 14.804688 28.082031 14.347656 C 27.691406 13.890625 27.296875 13.441406 26.898438 13.003906 C 26.671875 12.753906 26.441406 12.507812 26.207031 12.265625 C 26.136719 12.195312 26.0625 12.195312 25.992188 12.265625 C 25.921875 12.335938 25.921875 12.40625 25.992188 12.480469 Z M 25.992188 12.480469 " fill-opacity="1" fill-rule="nonzero"/></g><g clip-path="url(#d12ec39f3a)"><path fill="#000000" d="M 6.652344 7.871094 C 7.703125 7.886719 8.753906 7.894531 9.800781 7.898438 C 10.847656 7.902344 11.890625 7.902344 12.933594 7.894531 C 13.523438 7.890625 14.113281 7.886719 14.703125 7.878906 C 14.804688 7.878906 14.855469 7.828125 14.855469 7.726562 C 14.855469 7.625 14.804688 7.574219 14.703125 7.574219 C 13.652344 7.585938 12.601562 7.59375 11.550781 7.597656 C 10.507812 7.597656 9.464844 7.597656 8.417969 7.585938 C 7.828125 7.582031 7.242188 7.574219 6.652344 7.566406 C 6.550781 7.566406 6.5 7.617188 6.5 7.71875 C 6.5 7.816406 6.550781 7.867188 6.652344 7.867188 Z M 6.652344 7.871094 " fill-opacity="1" fill-rule="nonzero"/></g><g clip-path="url(#9d1178b14a)"><path fill="#000000" d="M 16.4375 7.851562 C 17.074219 7.886719 17.714844 7.90625 18.355469 7.910156 C 18.535156 7.910156 18.714844 7.910156 18.894531 7.910156 C 19 7.910156 19.050781 7.859375 19.050781 7.757812 C 19.050781 7.65625 19 7.605469 18.894531 7.605469 C 18.257812 7.613281 17.617188 7.601562 16.976562 7.574219 C 16.796875 7.566406 16.617188 7.558594 16.4375 7.546875 C 16.332031 7.546875 16.28125 7.597656 16.28125 7.699219 C 16.285156 7.800781 16.335938 7.851562 16.4375 7.851562 Z M 16.4375 7.851562 " fill-opacity="1" fill-rule="nonzero"/></g><g clip-path="url(#8d1a864747)"><path fill="#000000" d="M 21.535156 8.191406 L 21.617188 8.21875 L 21.660156 8.238281 C 21.660156 8.238281 21.683594 8.246094 21.664062 8.242188 L 21.683594 8.25 C 21.738281 8.273438 21.792969 8.296875 21.847656 8.320312 C 21.957031 8.375 22.0625 8.429688 22.167969 8.492188 C 22.273438 8.554688 22.375 8.621094 22.480469 8.691406 C 22.527344 8.726562 22.574219 8.761719 22.625 8.796875 C 22.636719 8.804688 22.621094 8.792969 22.617188 8.792969 L 22.640625 8.808594 L 22.667969 8.832031 C 22.695312 8.851562 22.722656 8.875 22.746094 8.894531 C 23.128906 9.214844 23.445312 9.601562 23.761719 9.984375 C 23.945312 10.203125 24.128906 10.421875 24.328125 10.621094 C 24.398438 10.691406 24.46875 10.691406 24.542969 10.621094 C 24.613281 10.550781 24.613281 10.480469 24.542969 10.40625 C 24.1875 10.042969 23.882812 9.632812 23.542969 9.253906 C 23.207031 8.871094 22.828125 8.535156 22.390625 8.269531 C 22.144531 8.121094 21.886719 7.996094 21.617188 7.894531 C 21.542969 7.867188 21.445312 7.925781 21.429688 8 C 21.40625 8.097656 21.441406 8.160156 21.535156 8.1875 Z M 21.535156 8.191406 " fill-opacity="1" fill-rule="nonzero"/></g><path fill="#000000" d="M 22.417969 11.929688 C 22.367188 12.09375 22.335938 12.261719 22.328125 12.429688 C 22.328125 12.511719 22.34375 12.589844 22.375 12.664062 C 22.417969 12.753906 22.484375 12.8125 22.578125 12.839844 C 22.667969 12.867188 22.757812 12.882812 22.847656 12.882812 C 22.929688 12.890625 23.011719 12.898438 23.089844 12.902344 C 23.253906 12.914062 23.417969 12.917969 23.582031 12.910156 C 23.773438 12.902344 23.957031 12.867188 24.136719 12.804688 C 24.214844 12.777344 24.273438 12.699219 24.246094 12.617188 C 24.222656 12.542969 24.136719 12.480469 24.058594 12.511719 C 23.988281 12.535156 23.917969 12.558594 23.84375 12.570312 C 23.808594 12.578125 23.777344 12.585938 23.742188 12.589844 L 23.726562 12.59375 L 23.722656 12.59375 L 23.660156 12.597656 C 23.511719 12.609375 23.363281 12.613281 23.21875 12.605469 C 23.066406 12.597656 22.914062 12.585938 22.765625 12.570312 C 22.742188 12.566406 22.789062 12.574219 22.761719 12.570312 L 22.734375 12.566406 C 22.71875 12.5625 22.703125 12.558594 22.691406 12.554688 C 22.683594 12.554688 22.675781 12.550781 22.667969 12.546875 C 22.699219 12.554688 22.675781 12.554688 22.667969 12.546875 C 22.664062 12.542969 22.640625 12.539062 22.667969 12.554688 C 22.660156 12.550781 22.65625 12.539062 22.648438 12.535156 C 22.636719 12.523438 22.660156 12.558594 22.65625 12.542969 C 22.652344 12.539062 22.652344 12.53125 22.648438 12.527344 C 22.632812 12.507812 22.652344 12.53125 22.652344 12.539062 C 22.648438 12.53125 22.648438 12.523438 22.644531 12.515625 C 22.640625 12.503906 22.640625 12.488281 22.636719 12.476562 C 22.636719 12.476562 22.636719 12.507812 22.636719 12.488281 C 22.636719 12.480469 22.636719 12.472656 22.636719 12.460938 C 22.636719 12.429688 22.636719 12.398438 22.640625 12.363281 C 22.640625 12.355469 22.644531 12.34375 22.644531 12.335938 C 22.644531 12.332031 22.648438 12.292969 22.648438 12.3125 C 22.644531 12.332031 22.648438 12.300781 22.648438 12.296875 C 22.652344 12.285156 22.652344 12.273438 22.65625 12.261719 C 22.667969 12.175781 22.6875 12.089844 22.710938 12.007812 C 22.742188 11.910156 22.707031 11.84375 22.605469 11.816406 C 22.503906 11.789062 22.441406 11.828125 22.417969 11.925781 Z M 22.417969 11.929688 " fill-opacity="1" fill-rule="nonzero"/><path fill="#000000" d="M 24.109375 12.253906 C 24.113281 12.292969 24.113281 12.328125 24.109375 12.363281 L 24.113281 12.324219 C 24.109375 12.359375 24.097656 12.398438 24.082031 12.433594 L 24.097656 12.398438 C 24.085938 12.433594 24.066406 12.464844 24.042969 12.496094 L 24.066406 12.464844 C 24.042969 12.492188 24.015625 12.519531 23.988281 12.542969 L 24.019531 12.519531 C 24.007812 12.527344 23.992188 12.535156 23.980469 12.542969 L 24.015625 12.527344 C 24.007812 12.53125 24 12.535156 23.992188 12.535156 L 24.03125 12.53125 C 24.027344 12.53125 24.023438 12.53125 24.019531 12.53125 C 23.914062 12.53125 23.863281 12.582031 23.863281 12.683594 C 23.867188 12.78125 23.917969 12.832031 24.019531 12.835938 C 24.101562 12.835938 24.175781 12.785156 24.234375 12.730469 C 24.277344 12.691406 24.3125 12.644531 24.34375 12.59375 C 24.402344 12.488281 24.425781 12.375 24.414062 12.253906 C 24.414062 12.214844 24.398438 12.179688 24.371094 12.148438 C 24.296875 12.074219 24.226562 12.074219 24.152344 12.148438 C 24.121094 12.175781 24.105469 12.214844 24.109375 12.253906 Z M 24.109375 12.253906 " fill-opacity="1" fill-rule="nonzero"/><path fill="#000000" d="M 2.867188 17.054688 C 3.078125 16.898438 3.304688 16.769531 3.542969 16.660156 L 3.585938 16.644531 C 3.59375 16.640625 3.628906 16.625 3.601562 16.636719 C 3.632812 16.621094 3.667969 16.609375 3.699219 16.597656 C 3.761719 16.574219 3.824219 16.550781 3.882812 16.535156 C 4.007812 16.496094 4.136719 16.464844 4.265625 16.441406 C 4.296875 16.433594 4.324219 16.429688 4.355469 16.425781 L 4.378906 16.421875 C 4.382812 16.421875 4.40625 16.417969 4.386719 16.421875 L 4.398438 16.421875 L 4.429688 16.417969 C 4.496094 16.410156 4.558594 16.40625 4.625 16.402344 C 4.75 16.398438 4.875 16.398438 4.996094 16.410156 C 5.027344 16.414062 5.058594 16.417969 5.089844 16.417969 L 5.109375 16.421875 C 5.132812 16.425781 5.085938 16.417969 5.105469 16.421875 L 5.15625 16.429688 C 5.21875 16.441406 5.28125 16.453125 5.339844 16.464844 C 5.464844 16.492188 5.585938 16.53125 5.703125 16.574219 L 5.75 16.589844 L 5.773438 16.601562 C 5.792969 16.609375 5.738281 16.585938 5.777344 16.601562 C 5.808594 16.617188 5.839844 16.628906 5.867188 16.644531 C 5.933594 16.675781 5.996094 16.707031 6.058594 16.742188 C 6.117188 16.777344 6.179688 16.816406 6.238281 16.855469 L 6.277344 16.886719 C 6.285156 16.894531 6.320312 16.921875 6.296875 16.902344 C 6.328125 16.925781 6.355469 16.949219 6.382812 16.972656 C 6.445312 17.023438 6.542969 17.035156 6.601562 16.972656 C 6.652344 16.914062 6.667969 16.8125 6.601562 16.757812 C 6.179688 16.402344 5.664062 16.191406 5.117188 16.121094 C 4.582031 16.050781 4.027344 16.140625 3.53125 16.339844 C 3.238281 16.460938 2.964844 16.613281 2.710938 16.800781 C 2.648438 16.847656 2.609375 16.933594 2.65625 17.007812 C 2.695312 17.070312 2.796875 17.113281 2.867188 17.0625 Z M 2.867188 17.054688 " fill-opacity="1" fill-rule="nonzero"/><path fill="#000000" d="M 22.988281 17 C 23.007812 16.976562 23.03125 16.957031 23.054688 16.9375 L 23.085938 16.910156 C 23.089844 16.90625 23.105469 16.894531 23.085938 16.910156 L 23.105469 16.894531 C 23.15625 16.859375 23.207031 16.828125 23.261719 16.796875 C 23.316406 16.765625 23.371094 16.738281 23.429688 16.710938 C 23.457031 16.699219 23.488281 16.6875 23.515625 16.671875 L 23.523438 16.671875 L 23.53125 16.667969 L 23.582031 16.648438 C 23.699219 16.601562 23.824219 16.5625 23.945312 16.53125 C 24.007812 16.515625 24.070312 16.503906 24.132812 16.492188 C 24.164062 16.484375 24.191406 16.480469 24.222656 16.476562 L 24.269531 16.46875 C 24.265625 16.46875 24.246094 16.472656 24.261719 16.46875 L 24.296875 16.464844 C 24.425781 16.449219 24.550781 16.445312 24.679688 16.445312 C 24.742188 16.445312 24.808594 16.449219 24.871094 16.453125 C 24.902344 16.457031 24.929688 16.457031 24.957031 16.460938 L 25.003906 16.464844 L 25.023438 16.46875 C 25.042969 16.46875 24.996094 16.464844 25.027344 16.46875 C 25.269531 16.503906 25.507812 16.566406 25.734375 16.65625 C 25.742188 16.65625 25.789062 16.675781 25.757812 16.664062 L 25.800781 16.683594 C 25.832031 16.695312 25.863281 16.710938 25.894531 16.726562 C 25.957031 16.753906 26.015625 16.785156 26.074219 16.820312 C 26.195312 16.886719 26.3125 16.964844 26.421875 17.050781 C 26.488281 17.097656 26.597656 17.0625 26.632812 16.996094 C 26.675781 16.914062 26.648438 16.839844 26.578125 16.785156 C 26.160156 16.472656 25.695312 16.269531 25.175781 16.1875 C 24.628906 16.09375 24.09375 16.144531 23.570312 16.328125 C 23.285156 16.429688 22.984375 16.5625 22.773438 16.785156 C 22.699219 16.855469 22.699219 16.925781 22.773438 17 C 22.84375 17.070312 22.917969 17.070312 22.988281 17 Z M 22.988281 17 " fill-opacity="1" fill-rule="nonzero"/><g clip-path="url(#ff6859f31f)"><g transform="matrix(1, 0, 0, 1, 0, 25)"><g clip-path="url(#178218c01d)"><g clip-path="url(#d053314209)"><g fill="#ffffff" fill-opacity="1"><g transform="translate(0.591397, 2.870971)"><g><path d="M 0.25 0.015625 C 0.21875 0.015625 0.191406 0.00390625 0.171875 -0.015625 C 0.148438 -0.0351562 0.140625 -0.0625 0.140625 -0.09375 C 0.140625 -0.132812 0.148438 -0.164062 0.171875 -0.1875 C 0.191406 -0.207031 0.21875 -0.21875 0.25 -0.21875 C 0.289062 -0.21875 0.320312 -0.207031 0.34375 -0.1875 C 0.363281 -0.164062 0.375 -0.140625 0.375 -0.109375 C 0.375 -0.0664062 0.363281 -0.0351562 0.34375 -0.015625 C 0.320312 0.00390625 0.289062 0.015625 0.25 0.015625 Z M 0.25 0.015625 "/></g></g></g></g></g></g></g></svg>