<svg xmlns="http://www.w3.org/2000/svg" xmlns:xlink="http://www.w3.org/1999/xlink" width="40" zoomAndPan="magnify" viewBox="0 0 30 30.000001" height="40" preserveAspectRatio="xMidYMid meet" version="1.0"><defs><g/><clipPath id="e8a745a531"><path d="M 7 21 L 23 21 L 23 28.660156 L 7 28.660156 Z M 7 21 " clip-rule="nonzero"/></clipPath><clipPath id="40d95e4437"><path d="M 5.867188 0.355469 L 24 0.355469 L 24 25 L 5.867188 25 Z M 5.867188 0.355469 " clip-rule="nonzero"/></clipPath><clipPath id="67fb3dc424"><path d="M 0.484375 25 L 2 25 L 2 29 L 0.484375 29 Z M 0.484375 25 " clip-rule="nonzero"/></clipPath><clipPath id="5ff1eba808"><path d="M 0.484375 2 L 1 2 L 1 3 L 0.484375 3 Z M 0.484375 2 " clip-rule="nonzero"/></clipPath><clipPath id="4b87f4f24d"><rect x="0" width="2" y="0" height="4"/></clipPath></defs><g clip-path="url(#e8a745a531)"><path fill="#000000" d="M 10.480469 23.515625 C 10.578125 23.464844 10.679688 23.417969 10.78125 23.371094 C 11.15625 23.207031 11.328125 22.765625 11.164062 22.390625 C 11 22.011719 10.5625 21.84375 10.1875 22.007812 C 10.058594 22.0625 9.933594 22.125 9.808594 22.1875 C 8.417969 22.90625 7.652344 23.859375 7.652344 24.878906 C 7.652344 25.90625 8.417969 26.863281 9.808594 27.578125 C 11.171875 28.277344 12.988281 28.660156 14.921875 28.660156 C 16.855469 28.660156 18.671875 28.277344 20.039062 27.578125 C 21.429688 26.863281 22.195312 25.90625 22.195312 24.878906 C 22.195312 23.859375 21.429688 22.90625 20.039062 22.1875 C 19.894531 22.113281 19.746094 22.042969 19.59375 21.976562 C 19.21875 21.816406 18.78125 21.988281 18.621094 22.367188 C 18.457031 22.746094 18.632812 23.183594 19.007812 23.347656 C 19.128906 23.398438 19.25 23.457031 19.363281 23.511719 C 20.359375 24.027344 20.714844 24.570312 20.714844 24.878906 C 20.714844 25.191406 20.359375 25.738281 19.363281 26.25 C 18.203125 26.84375 16.628906 27.171875 14.921875 27.171875 C 13.21875 27.171875 11.640625 26.84375 10.480469 26.25 C 9.484375 25.738281 9.132812 25.191406 9.132812 24.878906 C 9.132812 24.570312 9.484375 24.027344 10.480469 23.515625 Z M 10.480469 23.515625 " fill-opacity="1" fill-rule="nonzero"/></g><g clip-path="url(#40d95e4437)"><path fill="#000000" d="M 15.019531 0.355469 C 15 0.355469 14.980469 0.355469 14.960938 0.355469 L 14.886719 0.355469 C 14.867188 0.355469 14.84375 0.355469 14.824219 0.355469 C 9.945312 0.429688 5.984375 4.46875 5.984375 9.371094 C 5.910156 14.246094 9.621094 18.710938 12.328125 21.972656 C 13.125 22.925781 13.808594 23.753906 14.273438 24.4375 C 14.410156 24.640625 14.640625 24.761719 14.886719 24.761719 L 14.960938 24.761719 C 15.207031 24.761719 15.433594 24.640625 15.574219 24.4375 C 16.035156 23.753906 16.722656 22.925781 17.519531 21.96875 C 20.226562 18.710938 23.9375 14.246094 23.859375 9.382812 C 23.859375 4.46875 19.898438 0.429688 15.019531 0.355469 Z M 16.382812 21.015625 C 15.835938 21.667969 15.34375 22.265625 14.921875 22.808594 C 14.503906 22.265625 14.007812 21.667969 13.464844 21.015625 C 10.90625 17.933594 7.398438 13.71875 7.46875 9.382812 C 7.46875 5.265625 10.796875 1.882812 14.890625 1.847656 C 14.902344 1.847656 14.914062 1.847656 14.921875 1.84375 C 14.933594 1.847656 14.941406 1.847656 14.953125 1.847656 C 19.046875 1.882812 22.378906 5.265625 22.378906 9.394531 C 22.445312 13.71875 18.941406 17.933594 16.382812 21.015625 Z M 16.382812 21.015625 " fill-opacity="1" fill-rule="nonzero"/></g><path fill="#000000" d="M 14.921875 6.089844 C 13.113281 6.109375 11.648438 7.578125 11.648438 9.382812 C 11.648438 11.191406 13.113281 12.65625 14.921875 12.675781 C 16.734375 12.65625 18.195312 11.191406 18.195312 9.382812 C 18.195312 7.578125 16.734375 6.109375 14.921875 6.089844 Z M 14.921875 6.089844 " fill-opacity="1" fill-rule="nonzero"/><g clip-path="url(#67fb3dc424)"><g transform="matrix(1, 0, 0, 1, 0, 25)"><g clip-path="url(#4b87f4f24d)"><g clip-path="url(#5ff1eba808)"><g fill="#ffffff" fill-opacity="1"><g transform="translate(0.591397, 2.870971)"><g><path d="M 0.25 0.015625 C 0.21875 0.015625 0.191406 0.00390625 0.171875 -0.015625 C 0.148438 -0.0351562 0.140625 -0.0625 0.140625 -0.09375 C 0.140625 -0.132812 0.148438 -0.164062 0.171875 -0.1875 C 0.191406 -0.207031 0.21875 -0.21875 0.25 -0.21875 C 0.289062 -0.21875 0.320312 -0.207031 0.34375 -0.1875 C 0.363281 -0.164062 0.375 -0.140625 0.375 -0.109375 C 0.375 -0.0664062 0.363281 -0.0351562 0.34375 -0.015625 C 0.320312 0.00390625 0.289062 0.015625 0.25 0.015625 Z M 0.25 0.015625 "/></g></g></g></g></g></g></g></svg>